<svg viewBox="0 0 24 24" fill="none" xmlns="http://www.w3.org/2000/svg">
<path d="M12.0631 2.06498C11.9367 2.00831 11.7959 1.99221 11.66 2.0189C11.524 2.04558 11.3997 2.11374 11.3041 2.21398C11.211 2.31004 11.1434 2.42793 11.1076 2.55686C11.0718 2.68579 11.0689 2.82164 11.0991 2.95198C11.1981 3.39198 11.2501 3.85199 11.2501 4.32199C11.2501 5.39798 10.9791 6.15198 10.5121 6.77698C10.0381 7.41198 9.35213 7.92898 8.48513 8.51198C8.47164 8.52126 8.45893 8.53163 8.44713 8.54298L8.34213 8.64898C7.24577 9.35631 6.3779 10.3662 5.84354 11.5565C5.30918 12.7468 5.13124 14.0664 5.33125 15.3557C5.53126 16.645 6.10064 17.8488 6.9705 18.8212C7.84036 19.7937 8.97341 20.4932 10.2325 20.8351C11.4917 21.177 12.8229 21.1467 14.0652 20.7478C15.3074 20.3489 16.4074 19.5985 17.2321 18.5875C18.0568 17.5764 18.5708 16.348 18.7119 15.051C18.853 13.7539 18.6151 12.4437 18.0271 11.279C18.0086 11.2422 17.9813 11.2107 17.9476 11.187C17.9139 11.1634 17.8749 11.1484 17.834 11.1435C17.7932 11.1385 17.7517 11.1437 17.7134 11.1587C17.675 11.1736 17.6409 11.1977 17.6141 11.229L17.4061 11.47C16.5281 12.496 15.8191 13.325 14.3661 13.695C14.3041 13.71 14.2661 13.699 14.2391 13.682C14.196 13.6518 14.164 13.6082 14.1481 13.558C14.1219 13.4887 14.115 13.4137 14.128 13.3408C14.141 13.2679 14.1736 13.1999 14.2221 13.144C14.9991 12.301 15.5511 11.157 15.7481 9.52998C16.1181 6.48198 14.7331 3.23598 12.0631 2.06498Z" fill="currentColor"/>
</svg>
