<svg viewBox="0 0 20 20" fill="none" xmlns="http://www.w3.org/2000/svg">
<path d="M4.77397 15.2869L2.66897 18.5369L2.89297 19.5999L3.95297 19.3729L6.05697 16.1249C5.60467 15.8852 5.17521 15.6047 4.77397 15.2869ZM13.686 14.1519C13.7 14.1229 13.709 14.0909 13.722 14.0599C13.7753 13.9439 13.8213 13.8249 13.86 13.7029C13.8646 13.6802 13.87 13.6589 13.876 13.6389C13.9143 13.5043 13.947 13.3682 13.974 13.2309V13.2099C14.169 12.0409 13.829 10.7369 13.051 9.55889L14.161 7.84489C15.44 8.00789 16.546 7.68589 17.078 6.86289C18.001 5.43989 16.878 3.07089 14.573 1.56989C12.266 0.0678897 9.64997 0.00488961 8.72897 1.42589C8.19497 2.24989 8.35097 3.39289 9.02197 4.49889L7.90997 6.21289C6.52097 5.97989 5.19397 6.19689 4.20697 6.85289C4.20031 6.85422 4.19464 6.85689 4.18997 6.86089C4.07496 6.93971 3.96414 7.02449 3.85797 7.11489C3.84097 7.12889 3.82097 7.14189 3.80697 7.15589C3.71093 7.24068 3.62041 7.33153 3.53597 7.42789C3.51597 7.45189 3.48797 7.47289 3.46897 7.49789C3.36214 7.61824 3.26516 7.74699 3.17897 7.88289C1.79497 10.0159 2.97597 13.2439 5.81197 15.0919C8.64997 16.9399 12.072 16.7059 13.453 14.5729C13.541 14.4376 13.6186 14.2972 13.686 14.1519ZM12.871 4.19389C11.984 3.61689 11.551 2.70689 11.906 2.15789C12.26 1.61089 13.267 1.63589 14.152 2.21289C15.041 2.78989 15.47 3.70189 15.117 4.24889C14.764 4.79589 13.759 4.77089 12.871 4.19389Z" fill="currentColor"/>
</svg>
