<svg viewBox="0 0 24 24" fill="none" xmlns="http://www.w3.org/2000/svg">
<path d="M8.58368 4.08963C10.104 1.36321 10.8636 0 12 0C13.1364 0 13.896 1.36321 15.4163 4.08963L15.8099 4.79523C16.2419 5.57044 16.4579 5.95804 16.7939 6.21364C17.1299 6.46924 17.5499 6.56404 18.3898 6.75364L19.153 6.92644C22.105 7.59485 23.5797 7.92845 23.9313 9.05766C24.2817 10.1857 23.2761 11.3629 21.2638 13.7161L20.743 14.3245C20.1718 14.9929 19.885 15.3277 19.7566 15.7405C19.6282 16.1545 19.6714 16.6009 19.7578 17.4925L19.837 18.3049C20.1406 21.4453 20.293 23.0149 19.3738 23.7122C18.4546 24.4094 17.0723 23.7734 14.3099 22.5013L13.5936 22.1725C12.8088 21.8101 12.4164 21.6301 12 21.6301C11.5836 21.6301 11.1912 21.8101 10.4064 22.1725L9.69125 22.5013C6.92772 23.7734 5.54535 24.4094 4.62737 23.7134C3.70699 23.0149 3.85939 21.4453 4.16298 18.3049L4.24218 17.4937C4.32858 16.6009 4.37178 16.1545 4.24218 15.7417C4.11498 15.3277 3.82819 14.9929 3.25701 14.3257L2.73622 13.7161C0.723865 11.3641 -0.281711 10.1869 0.0686804 9.05766C0.419072 7.92845 1.89624 7.59365 4.84817 6.92644L5.61135 6.75364C6.45013 6.56404 6.86892 6.46924 7.20611 6.21364C7.5433 5.95804 7.7581 5.57044 8.19009 4.79523L8.58368 4.08963Z" fill="currentColor"/>
</svg>
