<svg width="314" height="95" viewBox="0 0 314 95" fill="none" xmlns="http://www.w3.org/2000/svg">
<g clip-path="url(#clip0_1539_4709)">
<path d="M48.0024 6.34926C45.4456 7.23298 43.5182 8.69302 42.0628 10.7678C40.4501 13.0347 40.0174 14.5716 40.0174 17.7223C40.0174 20.5655 41.1188 23.6777 42.4955 24.8304C43.4002 25.522 43.3608 26.521 42.4955 26.252C30.695 22.794 27.9022 22.6787 22.3167 25.3299C18.8159 26.982 12.2863 33.2449 11.8929 35.3581C11.4602 37.5482 12.0109 39.4693 13.4663 40.8909C14.607 42.0051 15.0004 42.1588 16.9671 42.1588C18.8159 42.1588 19.3272 42.0051 20.5073 41.0062C21.2546 40.353 22.0807 39.2387 22.3167 38.5471C22.5527 37.8171 23.7327 36.3571 24.9128 35.2428L27.1155 33.2064L29.7116 33.3985C31.167 33.5138 33.0158 33.8596 33.8025 34.2054L35.2185 34.7818L32.8191 39.354C31.4817 41.8515 29.0429 46.3853 27.4302 49.4591L24.4801 55.0303L22.592 54.9919C21.0186 54.9919 19.6812 54.4924 15.5117 52.4176C9.0608 49.2285 8.43144 49.1517 5.67799 51.726C3.27856 53.9545 0.407115 58.4499 0.0531007 60.5247C-0.222244 62.2153 0.60379 64.1748 1.82317 64.828C3.00322 65.4043 5.914 65.289 6.97605 64.559C7.52673 64.2132 8.51011 63.4448 9.21814 62.7916L10.4375 61.6773L13.7417 63.0221C19.9959 65.6348 24.9128 66.288 28.0202 64.8664C30.0656 63.9827 32.8191 61.0242 34.7465 57.7967C35.7299 56.0677 36.4772 55.2224 36.9886 55.2224C37.3819 55.2224 39.9387 56.1061 42.6921 57.1819C49.4971 59.8331 49.5364 59.8715 52.5652 68.747C53.9026 72.6661 55.3187 76.1241 55.6727 76.4315C56.8134 77.3921 58.1901 77.5073 60.8649 76.8541C63.933 76.1241 67.3945 74.472 68.6532 73.204C69.7939 71.9745 70.2659 70.3224 69.8332 68.7855C69.3219 66.9028 67.9058 66.1728 64.641 66.1728H61.8876L60.6682 62.1384C58.2688 54.4155 57.2854 53.186 51.6605 50.6117C49.6151 49.6512 47.9237 48.6906 47.8844 48.4217C47.8844 47.6916 51.1492 41.3135 51.6605 41.1214C51.8965 41.0446 52.9979 41.3904 54.0599 41.8899C58.9375 44.3105 64.7197 44.7715 68.2992 42.9657C71.328 41.4288 75.3008 36.895 77.7396 32.2459C78.9196 29.9405 79.0376 28.4421 78.1722 26.5594C77.3462 24.6383 76.0482 23.7161 73.8847 23.4472C70.8953 23.063 68.9679 24.523 67.9452 27.8273C67.1978 30.1711 64.0903 33.8596 62.7136 34.0133C60.5895 34.2438 53.7846 31.1701 53.7846 29.979C53.7846 29.71 54.532 29.3258 55.3973 29.0953C58.7408 28.2115 61.4156 26.0215 63.1463 22.7556C64.0117 21.1418 64.2083 20.335 64.2083 17.7607C64.2083 15.1864 64.051 14.3411 63.107 12.4968C60.3929 7.07929 53.7059 4.35131 48.0024 6.34926Z" fill="#FF5434"/>
<path d="M83.0496 40.814C82.4595 41.1983 81.4762 43.542 79.7061 48.6522C77.346 55.5298 77.228 55.9908 77.8574 56.6056C78.9587 57.7198 79.5488 56.7593 81.9089 49.8049C83.1282 46.2316 84.2296 43.3115 84.3476 43.3115C84.505 43.3115 89.0285 44.6947 94.4567 46.4237C99.8849 48.1143 105.431 49.8817 106.808 50.2659C108.145 50.6886 109.247 51.1112 109.247 51.2265C109.247 51.726 101.301 73.5114 100.986 73.7804C100.829 73.9725 99.4522 73.7419 97.9182 73.2424C94.9287 72.3203 93.788 72.4356 93.9847 73.7035C94.0633 74.3567 94.7714 74.7793 97.0528 75.6246C100.593 76.8926 102.363 77.0463 102.914 76.0089C103.779 74.4335 112 51.2649 112 50.4196C112 49.7664 111.646 49.3054 110.938 48.9596C110.309 48.6522 104.172 46.6158 97.2495 44.4642C90.3265 42.3125 84.4656 40.4682 84.2689 40.3914C84.0329 40.2761 83.4822 40.4682 83.0496 40.814Z" fill="#FF5434"/>
<path d="M75.5761 60.8707C75.2221 61.6776 74.9074 63.0224 74.8681 63.8676C74.8287 65.174 74.9467 65.4045 75.6154 65.4045C76.6381 65.4045 78.4476 60.7939 77.7395 59.987C76.9922 59.0649 76.2448 59.3722 75.5761 60.8707Z" fill="#FF5434"/>
<path d="M77.9358 68.094C77.8178 68.4014 77.7784 68.8624 77.8571 69.093C78.0144 69.5925 81.0039 70.5914 82.4199 70.5914C83.1673 70.5914 83.3246 70.3993 83.2066 69.5925C83.128 68.7472 82.774 68.4782 81.3186 68.0556C79.0371 67.364 78.2111 67.4024 77.9358 68.094Z" fill="#FF5434"/>
<path d="M86.1568 70.4377C85.7634 71.4367 86.5108 72.2051 88.5169 72.8199C90.2476 73.3578 90.4836 73.3578 91.0343 72.7815C91.8997 71.9362 91.231 71.2061 88.9102 70.4377C86.6288 69.6692 86.4715 69.6692 86.1568 70.4377Z" fill="#FF5434"/>
<path d="M42.378 70.5914C41.6306 70.7451 37.0284 71.5904 32.1509 72.4741C27.2733 73.3578 22.9858 74.1647 22.6318 74.2799C21.5698 74.5873 21.8058 75.7784 23.0252 76.3547C24.1265 76.8542 37.5791 82.5791 41.9846 84.4234C43.4007 84.9998 46.5868 86.383 49.0649 87.4972C54.2571 89.7641 54.5324 89.8025 61.6521 88.1504C63.9335 87.6125 70.4631 86.114 76.206 84.8076C81.9095 83.5397 86.7477 82.2718 86.9051 82.0028C87.0624 81.7339 86.9838 81.3496 86.7084 81.0807C86.4331 80.8501 82.8143 79.4285 78.6054 77.9301C72.6658 75.8552 70.7778 75.3173 70.2271 75.6247C69.7944 75.8552 69.5584 76.2395 69.6371 76.47C69.7157 76.739 72.1152 77.7764 74.9866 78.8522C77.8581 79.8896 80.2181 80.927 80.2181 81.1575C80.1788 81.6186 55.8698 87.1898 54.7685 86.9593C53.1164 86.6135 28.8861 76.1242 28.9254 75.7784C28.9647 75.3173 29.4368 75.2405 38.6411 73.6268C42.5353 72.9736 45.9574 72.1667 46.2721 71.8978C46.5475 71.6288 46.7048 71.1293 46.5868 70.8219C46.3114 70.1688 44.8167 70.0919 42.378 70.5914Z" fill="#FF5434"/>
<path d="M128.2 40.15C128.2 26.78 138.77 20.48 152 20.48C165.23 20.48 175.8 26.78 175.8 40.15C175.8 47.43 172.79 52.54 167.75 55.83V64.37L172.72 64.3C174.4 64.3 175.03 64.72 175.03 66.33V72.91C175.03 74.52 174.4 74.94 172.72 74.94L131.28 75.64C129.6 75.64 128.97 75.22 128.97 73.61V67.03C128.97 65.42 129.6 65 131.28 65L136.25 64.93V55.83C131.21 52.54 128.2 47.43 128.2 40.15ZM152 50.23C159.49 50.23 163.2 46.38 163.2 40.5C163.2 34.62 159.49 30.77 152 30.77C144.51 30.77 140.8 34.62 140.8 40.5C140.8 46.38 144.51 50.23 152 50.23ZM152 59.82C150.39 59.82 148.92 59.75 147.45 59.61V64.72L156.55 64.58V59.61C155.08 59.75 153.54 59.82 152 59.82ZM203.996 65.28C191.046 65.28 183.066 57.37 183.066 45.33C183.066 33.29 191.046 25.31 203.996 25.31C216.876 25.31 224.996 33.29 224.996 45.33C224.996 57.37 216.876 65.28 203.996 65.28ZM203.996 54.64C209.876 54.64 213.516 50.86 213.516 45.33C213.516 39.73 209.876 35.95 203.996 35.95C197.556 35.95 194.546 39.73 194.546 45.33C194.546 50.86 198.186 54.64 203.996 54.64ZM230.176 68.85V25.73C230.176 23.28 230.876 22.58 232.836 22.58H239.416C241.446 22.58 242.076 23.28 242.076 25.73V68.85C242.076 71.3 241.446 72 239.416 72H232.836C230.876 72 230.176 71.3 230.176 68.85ZM283.546 86.98C271.926 86.98 264.786 81.38 264.786 72.7C264.786 64.02 271.926 58.42 283.546 58.42C295.166 58.42 302.306 64.02 302.306 72.7C302.306 81.38 295.166 86.98 283.546 86.98ZM271.156 52.26L270.526 22.86C270.526 21.25 271.156 20.9 272.836 20.83L287.886 20.48C289.566 20.41 290.196 20.9 290.196 22.51V29.09C290.196 30.7 289.566 31.05 287.886 31.12L282.776 31.26L282.846 44.77L287.816 44.63C289.496 44.56 290.126 45.05 290.126 46.66V53.03C290.126 54.64 289.496 54.99 287.816 55.06L273.816 55.41C271.786 55.48 271.226 54.71 271.156 52.26ZM250.156 50.86L249.456 26.71C249.386 25.1 250.086 24.75 251.766 24.68L265.416 24.33C267.096 24.26 267.726 24.75 267.726 26.36V32.94C267.726 34.55 267.096 34.9 265.416 34.97L261.356 35.11L261.496 43.37L266.116 43.23C267.796 43.16 268.426 43.65 268.426 45.26V51.63C268.426 53.24 267.796 53.59 266.116 53.66L252.816 54.01C250.786 54.08 250.226 53.31 250.156 50.86ZM293.906 52.75V24.33C293.906 21.88 294.606 21.18 296.566 21.18H303.146C305.176 21.18 305.806 21.88 305.806 24.33V33.08L309.096 32.94C310.776 32.87 311.406 33.36 311.406 34.97V41.55C311.406 43.16 310.776 43.51 309.096 43.58L305.806 43.72V52.75C305.806 55.2 305.176 55.9 303.146 55.9H296.566C294.606 55.9 293.906 55.2 293.906 52.75ZM283.546 77.81C288.516 77.81 290.686 75.5 290.686 72.7C290.686 69.9 288.516 67.59 283.546 67.59C278.576 67.59 276.406 69.9 276.406 72.7C276.406 75.5 278.576 77.81 283.546 77.81Z" fill="#FF5434"/>
</g>
<defs>
<clipPath id="clip0_1539_4709">
<rect width="314" height="95" fill="white"/>
</clipPath>
</defs>
</svg>
