<svg width="46" height="34" viewBox="0 0 46 34" fill="none" xmlns="http://www.w3.org/2000/svg">
<path d="M19.5202 0.265638C18.4805 0.625 17.6967 1.21873 17.1049 2.06245C16.4491 2.98429 16.2731 3.60927 16.2731 4.89048C16.2731 6.04669 16.721 7.31227 17.2808 7.781C17.6487 8.06224 17.6327 8.46848 17.2808 8.35911C12.4821 6.9529 11.3465 6.90603 9.07509 7.98412C7.65148 8.65597 4.99622 11.2028 4.83626 12.0621C4.66031 12.9527 4.88425 13.7339 5.47609 14.312C5.93996 14.7651 6.09991 14.8276 6.89969 14.8276C7.65148 14.8276 7.85943 14.7651 8.33929 14.3589C8.64321 14.0933 8.97912 13.6402 9.07509 13.3589C9.17106 13.0621 9.65093 12.4683 10.1308 12.0152L11.0266 11.1871L12.0823 11.2653C12.6741 11.3121 13.4259 11.4527 13.7458 11.5934L14.3216 11.8277L13.3459 13.687C12.8021 14.7026 11.8103 16.5463 11.1545 17.7963L9.95485 20.0618L9.18706 20.0462C8.54724 20.0462 8.00339 19.8431 6.30786 18.9994C3.68458 17.7025 3.42865 17.6713 2.30896 18.7181C1.33323 19.6243 0.165554 21.4524 0.0215934 22.2961C-0.0903756 22.9836 0.245532 23.7804 0.741394 24.0461C1.22126 24.2804 2.40493 24.2336 2.83681 23.9367C3.06075 23.7961 3.46064 23.4836 3.74856 23.218L4.24443 22.7649L5.58805 23.3117C8.13135 24.3742 10.1308 24.6398 11.3944 24.0617C12.2262 23.7023 13.3459 22.4992 14.1297 21.1868C14.5296 20.4837 14.8335 20.1399 15.0414 20.1399C15.2014 20.1399 16.2411 20.4993 17.3608 20.9368C20.128 22.0149 20.144 22.0305 21.3757 25.6398C21.9195 27.2334 22.4954 28.6396 22.6393 28.7646C23.1032 29.1553 23.6631 29.2021 24.7508 28.9365C25.9984 28.6396 27.406 27.9678 27.9179 27.4522C28.3818 26.9522 28.5737 26.2804 28.3977 25.6554C28.1898 24.8898 27.614 24.5929 26.2863 24.5929H25.1666L24.6708 22.9523C23.695 19.8118 23.2952 19.3118 21.0078 18.265C20.176 17.8744 19.4882 17.4838 19.4722 17.3744C19.4722 17.0776 20.7998 14.4839 21.0078 14.4058C21.1038 14.3745 21.5516 14.5151 21.9835 14.7183C23.967 15.7026 26.3183 15.8901 27.7739 15.1557C29.0056 14.5308 30.6211 12.6871 31.6129 10.7965C32.0927 9.85905 32.1407 9.2497 31.7888 8.4841C31.4529 7.70288 30.925 7.32789 30.0453 7.21852C28.8296 7.06227 28.0458 7.656 27.63 8.99971C27.326 9.9528 26.0624 11.4527 25.5025 11.5152C24.6388 11.609 21.8716 10.359 21.8716 9.87468C21.8716 9.76531 22.1755 9.60906 22.5274 9.51531C23.887 9.15595 24.9747 8.26536 25.6785 6.93728C26.0304 6.28105 26.1104 5.95294 26.1104 4.9061C26.1104 3.85926 26.0464 3.51552 25.6625 2.76555C24.5588 0.562504 21.8396 -0.546833 19.5202 0.265638Z" fill="#FF5434"/>
<path d="M33.7721 14.2809C33.5322 14.4371 33.1323 15.3902 32.4125 17.4683C31.4528 20.2651 31.4048 20.4525 31.6607 20.7025C32.1086 21.1556 32.3485 20.765 33.3083 17.937C33.8041 16.4839 34.252 15.2965 34.3 15.2965C34.364 15.2965 36.2035 15.859 38.4109 16.5621C40.6183 17.2495 42.8736 17.9683 43.4335 18.1245C43.9773 18.2964 44.4252 18.4682 44.4252 18.5151C44.4252 18.7182 41.1941 27.5773 41.0661 27.6867C41.0021 27.7648 40.4423 27.671 39.8185 27.4679C38.6028 27.0929 38.1389 27.1398 38.2189 27.6554C38.2509 27.921 38.5388 28.0929 39.4666 28.4366C40.9062 28.9522 41.626 29.0147 41.8499 28.5929C42.2018 27.9523 45.5449 18.5307 45.5449 18.187C45.5449 17.9214 45.4009 17.7339 45.113 17.5933C44.8571 17.4683 42.3618 16.6402 39.5466 15.7652C36.7313 14.8902 34.348 14.1403 34.268 14.109C34.172 14.0621 33.9481 14.1403 33.7721 14.2809Z" fill="#FF5434"/>
<path d="M30.733 22.4376C30.5891 22.7657 30.4611 23.3125 30.4451 23.6563C30.4291 24.1875 30.4771 24.2812 30.749 24.2812C31.1649 24.2812 31.9007 22.4063 31.6128 22.0782C31.3089 21.7032 31.005 21.8282 30.733 22.4376Z" fill="#FF5434"/>
<path d="M31.6927 25.3741C31.6447 25.4991 31.6287 25.6865 31.6607 25.7803C31.7247 25.9834 32.9403 26.3896 33.5162 26.3896C33.8201 26.3896 33.8841 26.3115 33.8361 25.9834C33.8041 25.6397 33.6601 25.5303 33.0683 25.3584C32.1406 25.0772 31.8046 25.0928 31.6927 25.3741Z" fill="#FF5434"/>
<path d="M35.0358 26.3281C34.8758 26.7343 35.1797 27.0468 35.9955 27.2968C36.6993 27.5156 36.7953 27.5156 37.0192 27.2812C37.3711 26.9375 37.0992 26.6406 36.1554 26.3281C35.2277 26.0156 35.1637 26.0156 35.0358 26.3281Z" fill="#FF5434"/>
<path d="M17.233 26.3901C16.9291 26.4526 15.0576 26.7964 13.0741 27.1557C11.0907 27.5151 9.34717 27.8432 9.20321 27.8901C8.77133 28.0151 8.86731 28.4994 9.36317 28.7338C9.81105 28.9369 15.2815 31.265 17.073 32.0149C17.6489 32.2493 18.9445 32.8118 19.9522 33.2649C22.0637 34.1867 22.1756 34.2024 25.0708 33.5305C25.9986 33.3118 28.6538 32.7024 30.9892 32.1712C33.3085 31.6556 35.276 31.14 35.34 31.0306C35.404 30.9212 35.372 30.765 35.26 30.6556C35.148 30.5619 33.6764 29.9837 31.9649 29.3744C29.5496 28.5307 28.7818 28.3119 28.5579 28.4369C28.3819 28.5307 28.2859 28.6869 28.3179 28.7807C28.3499 28.89 29.3257 29.3119 30.4933 29.7494C31.661 30.1712 32.6207 30.5931 32.6207 30.6869C32.6047 30.8743 22.7195 33.1399 22.2716 33.0461C21.5998 32.9055 11.7465 28.64 11.7625 28.4994C11.7785 28.3119 11.9704 28.2807 15.7134 27.6245C17.297 27.3588 18.6886 27.0307 18.8166 26.9214C18.9285 26.812 18.9925 26.6089 18.9445 26.4839C18.8326 26.2183 18.2247 26.187 17.233 26.3901Z" fill="#FF5434"/>
</svg>
