<svg width="150" height="150" viewBox="0 0 150 150" fill="none" xmlns="http://www.w3.org/2000/svg">
<path d="M62.8276 49.669C56.9162 46.3045 53.1245 40.9086 51.9943 34.1117C51.3849 30.4451 51.6714 20.7576 56.2807 19.0024C61.9266 16.8617 67.1714 27.0024 68.6349 31.0336C68.2547 26.5961 72.2026 20.0753 77.1922 21.0805C82.1818 22.0805 81.1245 28.3045 81.3068 32.1742C82.713 29.0753 87.8276 21.5284 91.2547 26.5284C93.2807 29.492 92.1297 35.5857 91.1349 38.7784C93.0047 36.669 96.7964 33.1222 97.6037 37.544C98.0151 39.8149 96.8276 42.544 95.8953 44.5961C98.6609 43.1586 101.322 43.6638 101.171 47.1534C101.057 50.0336 98.3276 53.044 96.5516 55.2211" fill="#EF3A5D"/>
<path d="M63.5259 48.4711C56.9166 44.6326 52.9947 37.7888 53.1561 30.1378C53.2134 27.2992 53.5051 23.6847 55.3697 21.3774C57.4218 18.8565 60.2916 20.643 62.052 22.5076C64.3801 24.9867 66.1457 28.2211 67.3176 31.393C67.828 32.7524 70.1405 32.6951 70.0364 31.0232C69.8176 27.4607 72.6561 21.5024 77.0207 22.4399C80.953 23.2784 79.8332 29.2576 79.9478 32.1534C79.9947 33.4086 81.9061 34.1794 82.5311 32.8565C83.2447 31.3097 84.1666 29.8253 85.2864 28.544C86.0884 27.6117 87.7291 25.7211 89.1666 26.3461C90.9999 27.1534 91.0676 30.0909 91.0207 31.7367C90.9634 33.9972 90.4947 36.2315 89.8332 38.3878C89.4426 39.6742 91.2186 40.7732 92.1509 39.7367C92.7759 39.044 93.4218 38.3513 94.1457 37.7628C94.4895 37.4867 95.4218 36.6222 95.9322 36.7836C96.4843 36.9711 96.3332 39.044 96.2291 39.6065C95.9791 41.0961 95.3436 42.4972 94.7343 43.8617C94.1561 45.1169 95.3332 46.393 96.6249 45.7472C97.2811 45.4242 98.3645 44.9294 99.1093 45.2628C99.9999 45.643 99.8957 46.9607 99.7343 47.7315C99.2134 50.2211 97.1666 52.3044 95.6093 54.1951C94.4895 55.5544 96.427 57.5232 97.5676 56.1534C99.9166 53.2992 103.25 49.8044 102.5 45.7472C101.807 42.018 98.0416 41.9815 95.2291 43.3617L97.1197 45.2524C98.0416 43.2263 98.9947 41.0961 99.0884 38.8253C99.1561 37.3044 98.7916 35.2992 97.3853 34.4242C94.7811 32.8097 91.7603 36.0128 90.1926 37.7524L92.5103 39.1013C93.8124 34.8253 95.6197 26.1378 90.2291 23.7732C85.7655 21.8149 81.677 28.1065 80.1457 31.4242L82.7239 32.1274C82.5416 27.4607 83.3593 20.4555 77.0676 19.6274C71.1926 18.8565 66.9634 25.7888 67.2864 30.9972L70.0051 30.6326C68.1041 25.5024 62.2864 14.1274 55.1405 17.9919C51.8801 19.7524 50.9686 24.1222 50.5884 27.4711C50.1614 31.2992 50.4947 35.1586 51.8436 38.7784C53.7707 43.9399 57.4218 48.0649 62.1561 50.8201C63.703 51.7159 65.0936 49.3201 63.552 48.4347L63.5259 48.4711Z" fill="#001834"/>
<path d="M75.2808 128.554C67.3537 129.466 57.0777 122.518 51.1766 118.044C44.7808 113.195 38.937 105.633 36.2547 97.9607C28.3954 75.4659 47.5464 53.4711 68.5308 49.1378C79.2235 46.9243 88.6506 46.7264 98.4214 52.3982C107.463 57.6534 112.223 64.9243 114.484 75.0284C118.182 91.5441 111.75 111.164 96.3329 120.523C90.411 124.117 77.161 131.195 71.3068 124.914" fill="#FFFCF8"/>
<path d="M75.2808 127.169C71.2704 127.565 67.3173 126.159 63.7704 124.419C60.2236 122.679 56.6246 120.351 53.3173 117.919C45.9788 112.539 39.7548 104.945 37.1298 96.1274C32.3486 80.0857 41.9683 64.0493 55.5308 55.8097C62.885 51.3357 71.5361 49.2315 80.109 49.0909C89.0881 48.9503 97.9371 52.2836 104.39 58.5961C115.541 69.5232 116.51 88.294 110.474 102.002C107.281 109.252 102.093 115.45 95.2861 119.554C92.4163 121.284 89.4319 122.872 86.3069 124.096C83.1871 125.315 79.5673 126.482 76.1715 125.94C74.6611 125.695 73.3433 125.049 72.2756 123.956C71.0308 122.679 69.0725 124.638 70.3173 125.914C75.8486 131.607 85.2236 127.862 91.1819 124.945C98.4892 121.377 104.849 116.581 109.39 109.747C118.552 95.9555 119.885 75.7576 110.51 61.6951C105.505 54.2055 97.1038 48.8253 88.3017 47.0649C83.4267 46.0857 78.4736 46.2003 73.5621 46.8774C69.0152 47.5024 64.5517 48.5024 60.3017 50.2888C44.7548 56.8097 31.6194 72.6534 33.1975 90.2524C34.0725 100.002 39.3746 108.956 46.3121 115.669C49.4579 118.716 53.0986 121.304 56.7861 123.643C60.4736 125.987 64.7288 128.278 69.1298 129.383C71.135 129.877 73.2183 130.133 75.2808 129.935C77.0308 129.763 77.0569 126.997 75.2808 127.169Z" fill="#001834"/>
<path d="M70.8797 84.4191C69.0152 85.2941 64.01 90.4712 64.9579 92.9503C65.6714 94.8149 70.7652 94.2524 72.4839 94.1899C75.5672 94.0909 75.8797 93.1691 74.9683 90.1014C74.4422 88.3045 73.0672 84.7524 71.1089 84.2003" fill="#E8BA5D"/>
<path d="M70.187 83.2315C69.2443 83.6951 68.4161 84.4555 67.6661 85.1795C66.6609 86.1378 65.7495 87.2107 64.9682 88.3617C63.6557 90.2836 62.3745 93.617 65.1297 94.9867C67.3068 96.0701 70.0151 95.6899 72.3536 95.5857C73.6088 95.5284 75.062 95.4503 76.0203 94.5024C76.9734 93.5597 76.8849 92.1065 76.6193 90.8826C76.2859 89.3617 75.7286 87.8565 75.0255 86.4711C74.2651 84.9607 73.1713 83.4086 71.4891 82.8774C70.7755 82.6586 69.9786 83.143 69.7859 83.8461C69.5776 84.5805 70.0359 85.3201 70.7547 85.5492C70.8224 85.5753 70.8797 85.5961 70.9474 85.617C70.9005 85.6065 70.7651 85.5024 70.8588 85.5857C70.9266 85.6638 71.088 85.7211 71.1661 85.7784C70.937 85.6326 71.1922 85.8045 71.2703 85.8826C71.3849 85.9867 71.4891 86.1013 71.5932 86.2159C71.6401 86.2784 71.8693 86.5649 71.7234 86.367C71.812 86.4815 71.8953 86.6117 71.9734 86.7367C72.1609 87.0128 72.3224 87.2992 72.4838 87.5909C72.6297 87.867 72.7599 88.143 72.8953 88.419C72.9213 88.4763 72.9526 88.5336 72.9786 88.6013C73.0672 88.8097 72.9057 88.4295 72.9891 88.6274C73.0568 88.7784 73.1141 88.9399 73.1713 89.1013C73.3693 89.6065 73.5411 90.1117 73.6922 90.643C73.7703 90.919 73.8432 91.1951 73.9109 91.4711C73.9474 91.6013 73.9682 91.7367 73.9891 91.867C74.0151 92.0128 74.0255 92.3253 74.0151 92.0024C74.0151 92.2003 74.0151 92.419 74.0255 92.6117C74.0255 92.8565 74.0047 92.2888 74.0255 92.5805C74.0255 92.6274 73.9891 92.669 73.9891 92.7159C73.9891 92.867 74.1036 92.4399 74.0463 92.5649C73.9682 92.7732 73.9891 92.6847 74.0932 92.5336C74.0463 92.5909 73.8432 92.742 74.0359 92.6013C74.2443 92.4659 73.9891 92.6013 73.9318 92.6482C73.8536 92.7055 73.7234 92.669 74.0463 92.6013C73.9891 92.6117 73.9474 92.6482 73.8849 92.6586C73.6661 92.7159 73.4474 92.7628 73.2182 92.8097C73.5047 92.7628 73.1818 92.8097 73.0672 92.8097C72.8953 92.8201 72.7234 92.8305 72.5516 92.8461C71.6297 92.8774 70.7182 92.9503 69.7963 92.9711C69.2338 92.9711 68.6766 92.9711 68.1141 92.9347C67.9995 92.9347 67.8849 92.9242 67.7807 92.9138C67.713 92.9138 67.6297 92.8878 67.562 92.8878C67.562 92.8878 67.812 92.9347 67.6557 92.9034C67.4005 92.8565 67.1453 92.8201 66.8901 92.7524C66.7911 92.7159 66.6713 92.6847 66.5724 92.6586C66.2495 92.5649 66.7182 92.7628 66.5255 92.6482C66.4422 92.6013 66.3536 92.5545 66.2703 92.5076C66.0047 92.3617 66.4422 92.6951 66.2495 92.4867C66.0307 92.268 66.3641 92.6951 66.2599 92.5076C66.1453 92.3149 66.4213 92.7888 66.2599 92.544C66.2338 92.5076 66.2495 92.4659 66.2234 92.4399C66.1193 92.2107 66.2703 92.6013 66.2234 92.5805C66.1766 92.5545 66.213 92.3149 66.213 92.268C66.213 92.2003 66.2599 91.8878 66.213 92.117C66.1661 92.3461 66.2338 92.0284 66.2599 91.9555C66.2807 91.8513 66.3172 91.7472 66.3536 91.6482C66.3745 91.5753 66.4995 91.2315 66.4318 91.393C66.3641 91.5545 66.4995 91.242 66.5359 91.1847C66.5932 91.0701 66.6505 90.9555 66.7078 90.8513C66.8484 90.5961 66.9838 90.3565 67.1349 90.1222C67.3068 89.8617 67.4943 89.5961 67.6766 89.3409C67.713 89.294 67.7443 89.2472 67.7807 89.1899C67.8745 89.0649 67.6661 89.3305 67.8276 89.1326C67.9318 89.0076 68.0359 88.8826 68.1349 88.7524C68.5516 88.268 68.9786 87.7992 69.4266 87.3565C69.8432 86.9555 70.2807 86.5857 70.7286 86.2055C70.8432 86.1013 70.6245 86.2888 70.6245 86.2888C70.6818 86.242 70.7391 86.1951 70.8016 86.1586C70.8901 86.1013 70.9734 86.0336 71.062 85.9763C71.2234 85.8722 71.3849 85.7784 71.562 85.6899C72.2286 85.367 72.4109 84.4086 72.0568 83.7992C71.6505 83.1065 70.8328 82.9815 70.1661 83.3045L70.187 83.2315Z" fill="#001834"/>
<path d="M70.4216 102.706C66.6508 104.263 57.9997 110.638 59.3122 115.419C60.1977 118.669 64.406 118.45 66.9737 118.403C66.9164 120.336 62.6508 128.081 66.2237 128.841C68.2393 129.278 67.7706 126.643 69.7497 128.393C71.4008 129.846 70.2602 131.768 73.182 131.055C78.1143 129.857 76.8591 121.159 76.7706 117.674C76.7237 115.638 74.8331 103.758 71.2706 104.45" fill="#EF3A5D"/>
<mask id="mask0_195_11459" style="mask-type:luminance" maskUnits="userSpaceOnUse" x="57" y="100" width="22" height="33">
<path d="M57.0833 100.466H78.4166V132.794H57.0833V100.466Z" fill="white"/>
</mask>
<g mask="url(#mask0_195_11459)">
<path d="M69.7187 101.523C67.4478 102.487 65.3593 103.976 63.4687 105.554C61.3958 107.273 59.3697 109.357 58.3333 111.883C57.3958 114.164 57.6874 116.857 59.7603 118.414C61.8333 119.971 64.552 119.831 66.9635 119.784L65.578 118.403C65.5572 118.726 65.1666 119.857 64.9687 120.44C64.6093 121.476 64.2291 122.502 63.9426 123.554C63.4583 125.268 62.9426 127.528 64.1301 129.086C65.3124 130.638 67.6874 130.581 68.9791 129.117C68.4166 129.763 68.3228 128.633 68.7708 129.383C68.8541 129.523 69.0468 129.659 69.151 129.81C69.3958 130.169 69.4999 130.596 69.6718 130.987C70.1301 131.976 70.9374 132.575 72.0676 132.596C77.2499 132.679 78.3333 126.872 78.3489 122.851C78.3593 119.393 78.0937 115.924 77.3801 112.549C76.7083 109.414 75.3489 102.487 70.901 103.122C69.151 103.377 69.8905 106.039 71.6405 105.784C71.4583 105.81 71.677 105.831 71.7239 105.867C71.9062 105.971 72.0676 106.143 72.203 106.315C72.6197 106.82 72.9322 107.466 73.1822 108.065C73.8645 109.633 74.2916 111.341 74.6614 113.008C75.2499 115.669 75.4426 118.289 75.5468 121.008C75.651 123.726 76.0676 129.039 72.5989 129.789C72.203 129.867 72.078 129.789 72.1926 129.903C71.9843 129.706 71.9166 129.164 71.7916 128.914C71.3541 128.013 70.651 127.206 69.7499 126.747C69.0468 126.377 68.2551 126.331 67.5624 126.747C67.1458 126.987 66.7083 127.831 66.3541 127.471C65.578 126.711 66.6614 124.107 66.927 123.299C67.4322 121.721 68.2395 120.107 68.3541 118.435C68.4166 117.7 67.677 117.044 66.9739 117.054C65.2708 117.091 62.8489 117.367 61.4062 116.237C59.8749 115.039 60.7603 112.94 61.6041 111.627C63.7239 108.31 67.526 105.487 71.1197 103.94C72.7603 103.247 71.3385 100.862 69.7291 101.554L69.7187 101.523Z" fill="#001834"/>
</g>
<path d="M59.6089 79.9243C54.7807 76.5962 52.4214 83.9816 55.9214 86.4712C57.4578 87.7368 59.4162 87.117 60.312 85.9556C61.213 84.7889 61.6037 81.2993 59.6193 79.9139L59.6089 79.9243Z" fill="#001834"/>
<path d="M88.7968 80.1013C84.4218 76.4347 81.1249 83.6118 84.2916 86.3461C85.651 87.7159 87.6822 87.242 88.7291 86.1482C89.776 85.0545 90.6093 81.6065 88.8124 80.1013H88.7968Z" fill="#001834"/>
</svg>
