<svg width="150" height="150" viewBox="0 0 150 150" fill="none" xmlns="http://www.w3.org/2000/svg">
<path d="M66.3462 118.4C68.0806 122.332 58.091 130.796 65.9348 132.468C68.7785 133.077 71.1327 131.124 72.4973 128.968C73.6639 127.124 76.2629 121.343 75.5493 119.754" fill="#F2ADAD"/>
<mask id="mask0_195_11401" style="mask-type:luminance" maskUnits="userSpaceOnUse" x="61" y="116" width="17" height="19">
<path d="M61.0391 116.889H77.0391V134.072H61.0391V116.889Z" fill="white"/>
</mask>
<g mask="url(#mask0_195_11401)">
<path d="M65.1276 118.723C65.2005 118.895 65.2422 119.072 65.2839 119.249C65.2318 119.04 65.2839 119.145 65.2839 119.29C65.2839 119.405 65.2839 119.525 65.2839 119.639C65.2839 119.692 65.2526 119.988 65.2735 119.827C65.2943 119.671 65.2422 119.988 65.2318 120.03C65.1797 120.27 65.1172 120.509 65.0443 120.744C64.7266 121.744 64.2943 122.561 63.7578 123.603C62.8151 125.462 61.487 127.639 61.638 129.806C61.836 132.582 64.7787 133.983 67.3151 133.801C70.711 133.572 73.0339 130.858 74.4558 128.009C75.1901 126.535 75.8516 125.004 76.3464 123.426C76.7266 122.249 77.2631 120.608 76.7578 119.384C76.4922 118.754 75.9141 118.311 75.2005 118.504C74.6016 118.671 74.0651 119.415 74.3203 120.061C74.3516 120.134 74.3828 120.218 74.3933 120.29C74.4558 120.587 74.3933 120.009 74.3933 120.332C74.3933 120.52 74.3933 120.712 74.3724 120.91C74.4037 120.66 74.3412 121.103 74.3412 121.103C74.3099 121.249 74.2839 121.384 74.2526 121.52C74.1797 121.827 74.0964 122.129 74.013 122.436C73.6433 123.665 73.1589 124.853 72.612 126.009C71.5964 128.197 70.1224 130.889 67.4714 131.259C66.8516 131.343 66.2318 131.238 65.6328 131.061C65.3881 130.983 65.263 130.942 65.1485 130.889C65.0339 130.837 64.9297 130.775 64.8203 130.712C64.7683 130.681 64.4141 130.395 64.6224 130.587C64.5599 130.525 64.2422 130.155 64.4141 130.395C64.362 130.322 64.3047 130.238 64.263 130.155C64.1068 129.889 64.3255 130.405 64.2422 130.113C64.211 130.02 64.1276 129.546 64.1693 129.889C64.1485 129.66 64.1485 129.431 64.1693 129.197C64.1693 129.134 64.211 128.957 64.1693 129.218C64.1901 129.113 64.211 128.999 64.2318 128.895C64.2839 128.671 64.3516 128.442 64.4141 128.228C64.5599 127.79 64.7058 127.4 64.8308 127.124C65.263 126.171 65.7578 125.244 66.2214 124.306C67.1172 122.52 68.4193 120.072 67.5651 118.03C67.3047 117.4 66.737 116.947 66.013 117.145C65.4193 117.317 64.862 118.061 65.1276 118.702V118.723Z" fill="#001834"/>
</g>
<path d="M43.2941 57.4935C40.6378 69.7435 36.6743 81.9206 38.2576 94.6237C39.0076 100.54 38.6899 108.936 42.992 113.592C48.7628 119.837 59.5337 118.681 67.2212 118.681C78.1535 118.681 87.841 118.957 97.8097 113.801C107.18 108.957 107.482 95.7592 107.482 86.5144C107.482 82.6758 107.336 57.3217 102.69 56.8789" fill="#E2BE8D"/>
<path d="M42.0754 57.155C40.2577 65.4831 37.8931 73.7279 36.9869 82.2331C36.5442 86.4206 36.5337 90.6029 37.0181 94.7904C37.3879 97.9779 37.5233 101.176 37.9869 104.348C38.4504 107.525 39.2473 110.702 41.1223 113.285C42.9921 115.874 45.4504 117.41 48.2785 118.431C54.0962 120.546 60.5129 119.999 66.5806 119.952C74.2525 119.9 82.0129 120.165 89.5233 118.28C95.8983 116.697 102.164 113.941 105.299 107.853C107.935 102.728 108.523 96.7592 108.706 91.0873C108.81 87.4727 108.768 83.8425 108.664 80.2175C108.523 75.5248 108.263 70.8373 107.633 66.1863C107.357 64.1915 107.044 62.181 106.466 60.2488C106.065 58.8998 105.539 57.3946 104.476 56.4206C103.961 55.9467 103.383 55.7227 102.7 55.629C101.091 55.4206 101.112 57.9415 102.7 58.155C102.466 58.1238 102.544 58.0717 102.784 58.2592C102.534 58.0404 103.101 58.6498 102.971 58.4779C103.331 58.9519 103.57 59.53 103.773 60.0873C104.372 61.7592 104.695 63.5248 104.982 65.2748C105.664 69.5925 105.919 73.9883 106.086 78.3529C106.2 81.3738 106.252 84.3998 106.242 87.4206C106.221 92.7175 106.075 98.1446 104.476 103.244C103.711 105.697 102.565 108.072 100.805 109.962C98.6483 112.29 95.6848 113.603 92.7525 114.655C85.9139 117.113 78.6587 117.4 71.466 117.41C65.4764 117.421 59.2369 117.988 53.2994 117.051C50.5337 116.619 47.7369 115.801 45.4712 114.108C43.0754 112.311 41.7942 109.702 41.065 106.843C40.2264 103.509 40.0806 100.072 39.7629 96.6602C39.3827 92.4779 39.0389 88.3946 39.3514 84.181C40.0389 75.2227 42.6223 66.5456 44.5285 57.806C44.8723 56.2175 42.4452 55.5456 42.0962 57.1342L42.0754 57.155Z" fill="#001834"/>
<path d="M67.2316 118.681C78.1639 118.681 87.8514 118.957 97.8202 113.801C103.742 110.744 106.044 104.337 106.924 97.7019C98.8514 89.353 87.6014 92.4363 77.2629 93.478C67.2212 94.4832 43.7681 89.8582 39.0181 102.509C39.5024 106.65 40.4139 110.785 43.0024 113.582C48.7733 119.827 59.5441 118.671 67.2316 118.671V118.681Z" fill="#F2E7D6"/>
<path d="M67.2315 119.942C74.2419 119.942 81.3305 120.082 88.2315 118.577C94.2888 117.264 100.804 114.874 104.341 109.494C105.992 106.988 106.992 104.056 107.622 101.139C107.851 100.046 108.565 98.103 108.018 97.0822C107.388 95.8738 105.508 94.728 104.403 94.0145C99.3878 90.7645 93.268 90.5197 87.4919 91.0353C82.4659 91.4884 77.5128 92.4363 72.4555 92.3947C67.9867 92.3634 63.5284 92.1082 59.0596 92.2436C54.5909 92.3842 49.8774 92.7905 45.6742 94.5301C43.8409 95.2853 42.1169 96.2957 40.7003 97.6811C39.4138 98.9311 37.6482 101.098 37.8096 102.973C38.1013 106.494 39.0388 110.384 41.1326 113.285C42.9399 115.79 45.5701 117.462 48.4503 118.483C54.4346 120.598 61.0024 119.952 67.2315 119.942C68.8513 119.942 68.8617 117.421 67.2315 117.421C60.2471 117.431 51.8044 118.567 45.7367 114.317C44.0544 113.139 42.794 111.53 41.9711 109.65C41.1534 107.764 40.3201 105.098 40.3305 102.962C40.3305 101.817 41.4659 100.509 42.2263 99.7124C43.0961 98.7957 44.1274 98.0717 45.2419 97.4832C50.4555 94.7072 56.9763 94.6863 62.7315 94.7176C68.5128 94.7488 74.2315 95.1499 79.9971 94.4311C88.9346 93.327 99.018 91.4884 106.044 98.5978L105.716 97.3686C105.211 101.025 104.351 104.738 102.362 107.895C100.174 111.374 96.7263 113.192 92.9503 114.572C84.6951 117.587 75.8826 117.41 67.2315 117.41C65.6117 117.41 65.6013 119.931 67.2315 119.931V119.942Z" fill="#001834"/>
<path d="M43.789 60.1081C37.3151 60.1081 26.2317 60.6966 22.9297 53.5143C21.3307 50.0352 23.0651 46.1654 24.6224 42.9987C27.1536 37.8477 28.2995 41.2123 32.1692 42.9675C35.987 44.7018 42.4765 46.3216 45.987 46.0925C45.987 46.0925 56.6015 44.8112 58.8932 42.7904C63.0963 39.0873 67.1172 38.7643 72.0234 40.6133C75.3672 41.8737 82.9817 39.8477 84.3932 43.3893C90.1015 47.0196 101.195 43.0873 101.195 43.0873C108.065 40.2643 114.836 44.6081 122.216 43.6237C125.352 43.2018 125.95 41.7904 126.695 44.8633C127.284 47.2904 126.435 50.2591 125.352 52.3685C122.763 57.3946 116.654 60.7591 111.122 61.3841C106.034 61.9518 104.815 59.8268 101.195 57.1758" fill="#E2BE8D"/>
<mask id="mask1_195_11401" style="mask-type:luminance" maskUnits="userSpaceOnUse" x="21" y="38" width="108" height="26">
<path d="M21.0391 38.2227H128.961V63.556H21.0391V38.2227Z" fill="white"/>
</mask>
<g mask="url(#mask1_195_11401)">
<path d="M43.7891 58.8477C38.6068 58.8477 32.7057 59.2904 27.9557 56.8373C25.211 55.431 23.263 52.8633 23.5912 49.655C23.7891 47.681 24.6641 45.7852 25.513 44.0196C25.8099 43.4206 26.5026 41.5508 27.2943 41.53C28.0807 41.5092 29.2266 42.7279 29.8464 43.1289C31.0651 43.9154 32.4037 44.4727 33.7682 44.9779C36.9453 46.1446 40.2995 46.9883 43.6745 47.3008C45.3255 47.4467 46.8203 47.2696 48.4401 47.0196C50.836 46.6498 53.2526 46.2279 55.5912 45.5664C56.6328 45.2748 57.6797 44.9362 58.6485 44.4414C59.8568 43.8217 60.7943 42.78 61.9714 42.0873C65.211 40.2019 68.4089 40.7592 71.7943 41.8633C74.211 42.655 76.9037 42.2852 79.3985 42.4206C80.4505 42.4831 81.9193 42.53 82.7735 43.2539C83.1068 43.5352 83.2057 43.9571 83.4974 44.2748C83.9505 44.7592 84.7787 45.0404 85.3932 45.2852C90.0807 47.1237 95.8203 46.03 100.503 44.6289C102.773 43.9467 104.846 43.2956 107.273 43.4102C111.102 43.5873 114.805 44.7904 118.633 44.9987C120.357 45.0925 122.122 44.9987 123.815 44.5977C124.206 44.5039 124.951 44.4414 125.268 44.2123C125.352 44.1446 125.352 44.2227 125.169 44.1029C124.919 43.9467 125.19 44.1706 125.211 44.306C125.341 45.1133 125.622 45.806 125.612 46.6602C125.612 47.6706 125.404 48.6602 125.107 49.6237C124.602 51.2539 123.794 52.8008 122.68 54.0925C120.492 56.6602 117.451 58.4675 114.247 59.4467C111.237 60.3633 108.065 60.7175 105.372 58.8477C104.148 57.9831 103.023 56.9883 101.826 56.0925C100.523 55.1237 99.263 57.3112 100.555 58.2696C103.143 60.1914 105.31 62.4206 108.695 62.7071C112.31 63.0144 116.18 61.7592 119.305 60.0248C122.393 58.3008 125.18 55.7435 126.685 52.5092C127.956 49.7748 129.221 45.155 127.055 42.4935C126.341 41.6133 125.352 41.6029 124.331 41.8425C122.711 42.2331 121.216 42.5404 119.523 42.5092C115.32 42.431 111.268 41.0248 107.065 40.8685C104.393 40.7696 102.081 41.53 99.586 42.2644C97.086 42.9987 94.4974 43.5248 91.888 43.6342C90.3307 43.6967 88.7578 43.6342 87.2422 43.2331C86.6432 43.0769 85.7682 42.8633 85.2839 42.4414C85.5495 42.6862 85.1068 42.0873 85.0547 42.0144C84.8568 41.7383 84.6224 41.5196 84.362 41.306C82.2057 39.5612 78.8516 39.8685 76.2526 39.8373C74.9401 39.8164 73.6224 39.806 72.362 39.3946C70.6068 38.8164 68.8724 38.3008 67.0078 38.2487C65.2526 38.1967 63.5287 38.5717 61.9193 39.2904C60.3099 40.0039 59.1432 41.2019 57.7162 42.0769C55.6432 43.3581 52.763 43.7071 50.4037 44.1342C48.7214 44.4414 47.0912 44.8008 45.5703 44.8425C42.013 44.9571 38.2787 43.8842 34.9557 42.7175C33.4141 42.181 31.9818 41.53 30.6276 40.6029C29.7005 39.9727 28.763 39.1706 27.6172 39.0248C24.4818 38.6029 22.9922 43.2539 22.1172 45.4623C20.6693 49.1185 20.5391 53.0092 23.1172 56.1967C26.9453 60.9206 34.0547 61.3217 39.6485 61.3737C41.0235 61.3842 42.3932 61.3737 43.7682 61.3737C45.388 61.3737 45.3985 58.8477 43.7682 58.8477H43.7891Z" fill="#001834"/>
</g>
<path d="M47.7996 46.3895C38.5861 45.4832 46.9976 26.1655 49.7528 22.8738C55.9976 15.3895 55.6017 24.4207 55.6017 29.5092C55.6017 32.8738 55.4715 36.0509 56.4923 39.2697C56.9038 40.5509 58.1851 42.2957 57.9976 43.6967C57.3465 48.4259 50.784 46.2176 47.5028 47.2905" fill="#F2E7D6"/>
<path d="M47.7992 45.1238C44.294 44.728 44.6846 40.1811 45.1273 37.6707C45.82 33.7071 47.2836 29.8061 49.143 26.2488C49.9971 24.6186 50.6898 23.5665 51.9086 22.379C52.2888 22.0092 52.7055 21.6238 53.1898 21.3894C53.4138 21.2853 53.6221 21.3373 53.4346 21.254C53.7159 21.379 53.9398 22.254 54.044 22.78C54.445 24.7853 54.3252 26.9103 54.3252 28.9415C54.3148 32.4623 54.1065 36.2176 55.2627 39.603C55.7263 40.9519 57.1013 42.5509 56.6325 44.0196C56.3044 45.0301 55.3565 45.3686 54.393 45.5248C52.0023 45.9363 49.5127 45.3686 47.1534 46.0821C45.6117 46.5561 46.2627 48.9832 47.8305 48.5092C50.2263 47.7853 52.8461 48.4363 55.294 47.9103C58.07 47.3113 59.945 44.7696 59.0075 41.9259C58.7419 41.1394 58.3565 40.4155 58.0075 39.6655C57.544 38.6811 57.3044 37.5978 57.1325 36.5248C56.7784 34.2853 56.8513 32.004 56.8513 29.7384C56.8513 27.2384 56.9659 24.6811 56.5023 22.2123C56.1482 20.3373 54.9711 18.2696 52.7315 18.879C50.6065 19.4675 48.8825 21.7071 47.7888 23.5144C45.4294 27.3946 43.6846 31.9571 42.8044 36.4051C41.919 40.8582 42.0336 46.9988 47.7992 47.6603C49.4086 47.8478 49.3982 45.3269 47.7992 45.1342V45.1238Z" fill="#001834"/>
<path d="M85.8933 44.8842C82.7839 36.7435 93.4558 28.2071 95.8099 20.9519C96.3568 19.2696 96.2006 16.3842 98.7995 17.3842C101.565 18.4467 100.586 25.4519 100.596 27.4779C100.596 32.655 101.732 41.9935 96.987 45.5769C93.5287 48.1862 90.3672 44.9154 86.7995 44.5769" fill="#F2E7D6"/>
<path d="M87.1174 44.5561C85.4351 39.8894 88.4924 35.2801 91.008 31.5405C93.5809 27.7019 96.3361 24.1238 97.4299 19.5717C97.5913 18.9103 97.6017 18.1967 98.3569 18.5717C98.9872 18.8894 99.1642 19.8009 99.2944 20.4259C99.6694 22.2853 99.5028 24.2749 99.3986 26.1655C99.1642 30.3842 99.8413 34.6394 99.1017 38.8374C98.7059 41.1186 97.8517 43.853 95.6226 44.978C94.1694 45.7019 92.6174 45.1342 91.2059 44.5978C89.7996 44.0613 88.3674 43.5249 86.8101 43.3374C85.2528 43.1499 85.2111 45.6603 86.8101 45.8634C89.9142 46.2384 92.6174 48.629 95.8621 47.5978C98.4611 46.7749 100.102 44.3374 100.945 41.8738C102.638 36.9311 101.649 31.6967 101.899 26.6082C102.018 24.3686 102.185 22.1082 101.753 19.8894C101.352 17.7957 99.8205 15.4936 97.3465 15.9988C95.0444 16.4572 95.1174 19.1499 94.508 20.9207C93.5913 23.5457 91.8465 25.8894 90.2788 28.1655C86.9455 33.0092 82.4455 39.0353 84.6851 45.2488C85.2319 46.7644 87.6746 46.1134 87.1174 44.5769V44.5561Z" fill="#001834"/>
<path d="M49.3305 102.962C49.1847 103.572 49.2888 104.15 49.6586 104.613L49.3305 102.962Z" fill="#F2E7D6"/>
<path d="M48.1121 102.624C48.0496 102.879 48.0184 103.139 48.008 103.405C47.9976 103.665 48.0392 103.926 48.0809 104.171C48.1225 104.41 48.2267 104.645 48.3361 104.863C48.4403 105.087 48.6069 105.296 48.7632 105.494C48.883 105.624 49.0184 105.707 49.1746 105.759C49.3205 105.843 49.4923 105.874 49.659 105.863C49.8361 105.863 49.9975 105.832 50.1434 105.759C50.2996 105.707 50.435 105.624 50.5548 105.494C50.7736 105.254 50.9403 104.936 50.9194 104.603L50.8778 104.264C50.8153 104.056 50.7111 103.863 50.5548 103.707C50.5444 103.697 50.534 103.676 50.5236 103.665L50.7215 103.915C50.6278 103.801 50.5548 103.665 50.4975 103.53L50.6278 103.832C50.5653 103.686 50.534 103.54 50.5132 103.379L50.5548 103.718C50.534 103.551 50.534 103.379 50.5548 103.202L50.5132 103.54C50.5236 103.457 50.5444 103.369 50.5548 103.285C50.6278 102.962 50.5965 102.603 50.4246 102.322C50.3413 102.171 50.2371 102.056 50.1017 101.962C49.9767 101.848 49.8361 101.775 49.6694 101.744C49.3413 101.665 48.9871 101.686 48.7007 101.869C48.4298 102.046 48.1955 102.301 48.1225 102.624H48.1121Z" fill="#001834"/>
<path d="M94.5601 101.238V102.889C94.5601 103.212 94.6955 103.551 94.9299 103.78C95.0444 103.905 95.1799 103.994 95.3413 104.046C95.4871 104.129 95.6538 104.16 95.8205 104.15C96.1486 104.139 96.4871 104.025 96.7163 103.78C96.9455 103.54 97.0861 103.233 97.0861 102.889V101.238C97.0861 100.91 96.9455 100.572 96.7163 100.343C96.6017 100.218 96.4663 100.134 96.3049 100.082C96.159 99.9936 95.9923 99.9624 95.8205 99.9728C95.4976 99.9832 95.159 100.103 94.9299 100.343C94.6955 100.582 94.5601 100.889 94.5601 101.238Z" fill="#001834"/>
<path d="M60.5755 74.2539C56.0547 71.5091 53.8463 77.5873 57.112 79.6393C58.5442 80.6758 60.3828 80.1758 61.2265 79.2175C62.0651 78.2591 62.4349 75.3893 60.5755 74.2539Z" fill="#001834"/>
<path d="M87.8828 74.3894C83.7838 71.3738 80.7005 77.28 83.6641 79.53C84.9401 80.655 86.8411 80.2696 87.8203 79.3738C88.7995 78.4831 89.5859 75.6394 87.8932 74.3894H87.8828Z" fill="#001834"/>
</svg>
