<svg viewBox="0 0 150 150" fill="none" xmlns="http://www.w3.org/2000/svg">
<path d="M95.8135 45.5912C101.131 38.8568 113.209 28.4818 121.256 35.8621C126.168 40.3621 137.595 53.586 132.225 61.1016C128.183 66.7631 122.621 61.5391 118.866 58.8829C117.241 57.7266 115.215 55.8204 113.126 56.6016C111.23 57.3152 109.918 61.5391 109.532 62.711" fill="black"/>
<path d="M96.8394 46.612C100.444 42.0912 105.199 37.5287 110.751 35.5651C113.329 34.6433 116.188 34.3568 118.662 35.7422C120.714 36.8881 122.391 38.9297 123.923 40.6797C127.444 44.6693 131.391 49.7526 132.115 55.1901C132.428 57.5704 131.803 60.3776 129.605 61.7058C127.011 63.2891 123.74 60.6589 121.74 59.1849C119.256 57.362 115.777 53.7579 112.412 55.3516C109.928 56.5183 108.938 59.9193 108.152 62.3204C107.574 64.0964 110.376 64.8568 110.944 63.0964C111.313 61.9349 111.704 60.7891 112.266 59.7058C113.22 57.9089 114.173 57.4349 116.006 58.5964C118.845 60.3776 121.256 62.8151 124.355 64.2058C127.459 65.5912 130.694 65.2318 132.949 62.5287C134.746 60.3568 135.324 57.6172 134.964 54.8672C134.178 48.9297 130.22 43.5599 126.423 39.1485C124.73 37.1901 122.907 35.0808 120.751 33.6329C118.194 31.9193 115.089 31.5704 112.126 32.1589C105.188 33.5339 99.0686 39.2058 94.7873 44.5651C93.6415 46.0131 95.6675 48.0599 96.8394 46.612Z" fill="black"/>
<path d="M50.0011 45.2735C45.8657 37.9298 40.2303 33.7996 31.9178 37.8933C23.6053 41.9819 15.6522 49.6329 16.4855 59.2475C16.9699 64.8777 22.8084 67.56 27.4074 63.5652C29.7355 61.5391 32.3397 56.6902 35.949 56.7944C38.0324 56.8569 41.4022 59.7631 42.6678 61.2266" fill="black"/>
<path d="M51.2562 44.5496C48.4437 39.6277 44.1728 34.8048 38.0478 34.8412C31.9176 34.8777 25.777 39.2787 21.652 43.4402C17.3187 47.8204 13.8551 54.2891 15.2458 60.6329C16.5218 66.4871 23.1208 68.6589 27.803 65.1121C30.2301 63.2631 31.6416 60.0808 34.376 58.6537C37.1155 57.2319 40.0374 60.4662 41.6416 62.2631C42.8864 63.6485 44.9228 61.5964 43.6937 60.211C42.0999 58.4246 40.0583 56.7266 37.8395 55.81C35.6208 54.8881 33.4124 55.6121 31.5791 57.0756C28.5166 59.5235 24.9437 66.6069 20.1155 63.2162C17.9228 61.6694 17.7041 58.8256 17.9593 56.3725C18.2614 53.5391 19.4801 50.8829 21.0947 48.5548C24.2926 43.9975 29.7093 39.7631 35.0895 38.1798C41.4228 36.336 45.8395 40.9089 48.7458 45.9975C49.678 47.6173 52.1728 46.1537 51.2458 44.5391L51.2562 44.5496Z" fill="black"/>
<path d="M40.7147 54.0443C30.9543 69.4766 27.8032 92.9193 42.246 107.242C49.121 114.07 58.4491 116.445 68.2199 116.737C77.0741 117.003 85.8814 117.05 94.147 113.914C100.746 111.404 105.84 107.456 110.084 102.211C115.355 95.6954 117.673 84.5704 116.538 76.6172C115.407 68.6693 113.22 64.2891 109.131 55.8777C105.043 47.4714 97.8762 39.9662 90.0793 36.9141C82.7355 34.0443 71.5376 32.3308 63.621 34.8777C51.4647 38.7943 42.7772 46.0495 41.2407 58.112" fill="#9D9D9D"/>
<mask id="mask0_195_11460" style="mask-type:luminance" maskUnits="userSpaceOnUse" x="30" y="31" width="89" height="88">
<path d="M30.6626 31.1693H118.663V118.831H30.6626V31.1693Z" fill="white"/>
</mask>
<g mask="url(#mask0_195_11460)">
<path d="M39.4697 53.3099C30.7927 67.1484 27.2979 86.4036 35.7666 101.159C40.3968 109.232 48.1416 114.638 57.1468 116.784C62.0791 117.966 67.1208 118.185 72.1781 118.268C77.6885 118.352 83.2406 118.169 88.6468 117.013C98.1052 114.997 106.97 109.508 112.438 101.435C117.251 94.3411 119.131 84.6536 117.938 76.2213C117.298 71.7474 116.069 67.487 114.272 63.3463C112.267 58.7266 110.121 53.987 107.272 49.8099C104.428 45.638 100.991 41.9818 96.9229 39.0495C93.2197 36.3724 88.9958 34.7422 84.5791 33.6693C79.9489 32.5443 75.0843 31.9453 70.3083 32.2318C65.527 32.5234 61.5583 33.8359 57.4437 35.7057C50.277 38.9766 44.1156 44.3203 41.2927 51.8255C40.5791 53.7213 40.1208 55.7005 39.8552 57.7005C39.6156 59.5234 42.402 60.3099 42.6416 58.4713C43.6416 51.0755 47.6364 44.9974 53.8864 40.9453C57.1781 38.8099 60.8708 37.1536 64.6364 36.0703C68.7979 34.862 73.277 34.8776 77.5583 35.3463C81.8395 35.8151 86.2302 36.8047 90.1885 38.4922C94.3864 40.2943 98.0218 43.2838 101.084 46.612C104.319 50.138 106.683 54.1172 108.772 58.4036C110.652 62.263 112.558 66.1224 113.751 70.263C116.095 78.3828 115.85 86.862 112.704 94.7422C109.553 102.617 102.366 109.023 94.475 112.221C89.6104 114.19 84.4125 115.023 79.1885 115.273C73.9645 115.529 69.0895 115.492 64.1052 115.008C55.3083 114.154 46.9593 110.846 41.1937 103.935C30.9281 91.6016 32.5218 73.3359 39.2041 59.7266C40.0375 58.0286 40.9645 56.3724 41.9802 54.7682C42.9906 53.1641 40.4697 51.7318 39.4802 53.3099H39.4697Z" fill="black"/>
</g>
<path d="M70.7507 91.6016C70.032 95.237 68.3393 109.253 76.0997 104.643C81.5528 101.414 80.2143 96.1641 79.1882 90.7006C79.1882 90.7006 75.8185 89.9974 74.2872 86.5964" fill="#F2ADAD"/>
<path d="M69.3655 91.2162C68.9905 93.1225 68.7613 95.0808 68.678 97.0235C68.5842 99.1694 68.5946 101.497 69.2926 103.55C69.9957 105.596 71.4644 107.18 73.7092 106.997C76.6676 106.758 79.5946 104.32 80.7561 101.68C82.3238 98.0704 81.2874 94.0027 80.5842 90.3256C80.5009 89.8673 80.0321 89.4089 79.5738 89.31C78.8863 89.1641 78.678 89.0444 78.1155 88.7319C76.9436 88.0704 76.1103 87.1016 75.5321 85.8829C74.7353 84.1954 72.2353 85.6694 73.0321 87.3464C74.0946 89.6017 76.303 91.5652 78.803 92.1121L77.7874 91.0964C78.2821 93.7267 79.0894 96.6485 78.4853 99.3256C77.954 101.664 75.9436 103.586 73.7092 104.102C73.2978 104.201 73.8759 104.102 73.6363 104.117C73.553 104.117 73.4696 104.117 73.3967 104.117C73.2978 104.117 73.204 104.117 73.1051 104.102C73.1519 104.102 73.4071 104.164 73.1676 104.102C73.0321 104.065 72.7092 103.956 73.0217 104.065C72.9853 104.055 72.8759 103.992 72.8394 103.971C72.6103 103.753 73.0113 104.154 72.803 103.945C72.7561 103.899 72.454 103.57 72.553 103.69C72.6467 103.815 72.3967 103.44 72.3446 103.367C72.2613 103.221 72.1884 103.076 72.1311 102.935C72.2353 103.185 72.0426 102.654 72.0061 102.544C71.7196 101.607 71.6571 101.029 71.5999 100.143C71.5269 99.1694 71.5269 98.1902 71.5738 97.2006C71.6207 96.1746 71.704 95.1381 71.829 94.1121C71.8394 93.9923 71.8499 93.8829 71.8759 93.7631C71.8863 93.6694 71.8499 93.9194 71.9019 93.6173C71.9228 93.4141 71.9592 93.2214 71.9957 93.0131C72.0582 92.6642 72.1155 92.3256 72.178 91.9766C72.5374 90.1537 69.7509 89.3829 69.3915 91.2058L69.3655 91.2162Z" fill="black"/>
<path d="M74.5791 90.3829V98.1693C74.5791 98.8673 75.6624 98.8673 75.6624 98.1693V90.3829C75.6624 89.685 74.5791 89.685 74.5791 90.3829Z" fill="black"/>
<path d="M72.5738 84.6641C66.0842 81.8411 71.0165 73.8932 75.5165 77.0078C78.9332 79.3568 76.7248 83.6797 73.7561 85.0182" fill="#060644"/>
<path d="M73.3136 83.4245C72.8917 83.2422 72.4907 83.013 72.1157 82.7578L72.0063 82.6745C72.0063 82.6745 72.2355 82.8672 72.1157 82.7578C72.0428 82.6901 71.9594 82.6276 71.8761 82.5547C71.7303 82.4245 71.5844 82.2786 71.4646 82.1328C71.4438 82.0964 71.4178 82.0703 71.3917 82.0339C71.298 81.9297 71.5011 82.1693 71.5011 82.1693C71.5011 82.1224 71.3813 81.987 71.3448 81.9401C71.2459 81.7943 71.1626 81.638 71.0896 81.4818C70.9698 81.2422 71.1417 81.638 71.1261 81.5547C71.1157 81.4714 71.0688 81.3984 71.0428 81.3099C70.9959 81.1536 70.9698 80.9974 70.923 80.8307C70.8605 80.6016 70.949 81.1797 70.9334 80.9401C70.9334 80.8516 70.923 80.7839 70.923 80.6953C70.923 80.5391 70.923 80.3724 70.923 80.2161C70.923 80.1536 70.9594 79.888 70.923 80.1641C70.8865 80.4453 70.923 80.1536 70.949 80.0964C70.9855 79.9349 71.0167 79.7786 71.0688 79.638C71.0896 79.5755 71.1157 79.5026 71.1417 79.4401C71.2146 79.2266 71.1782 79.4297 71.0896 79.5391C71.1782 79.4193 71.2251 79.2474 71.3084 79.1172C71.3917 78.9818 71.4646 78.862 71.548 78.7422C71.7042 78.5026 71.3553 78.9714 71.5011 78.7891C71.548 78.7318 71.6001 78.6693 71.6573 78.612C71.7563 78.5026 71.8657 78.4036 71.9594 78.2943C72.0219 78.2474 72.0792 78.2005 72.1417 78.138C72.1678 78.1172 71.8501 78.3464 72.0792 78.1901C72.199 78.1016 72.324 78.0286 72.4438 77.9609C72.5167 77.9245 72.574 77.888 72.6469 77.8516C72.8292 77.7422 72.298 77.9714 72.574 77.888C72.7094 77.8359 72.8396 77.7891 72.9855 77.7526C73.048 77.7422 73.1209 77.7318 73.1782 77.7161C73.5167 77.6432 72.923 77.7161 73.1209 77.7161C73.2615 77.7161 73.4073 77.7057 73.5532 77.7161C73.6261 77.7161 73.6834 77.7318 73.7563 77.7318C73.9386 77.7318 73.4073 77.6589 73.5792 77.7057C73.6261 77.7057 73.673 77.7161 73.7094 77.7318C73.8657 77.763 74.0115 77.8151 74.1678 77.862C74.4073 77.9349 74.1782 77.9245 74.1053 77.8255C74.1573 77.888 74.3136 77.9245 74.3865 77.9609C74.5428 78.0443 74.699 78.1641 74.8553 78.2474C75.0011 78.3203 74.8188 78.2109 74.798 78.2005C74.8448 78.237 74.8813 78.2734 74.9282 78.3099C75.0376 78.4036 75.1469 78.5026 75.2407 78.612C75.2771 78.6484 75.5063 78.888 75.3605 78.7422C75.2198 78.5964 75.449 78.8776 75.4855 78.9245C75.5323 79.0078 75.5792 79.0911 75.6261 79.1745C75.6521 79.2109 75.6626 79.263 75.6886 79.3099C75.7719 79.4557 75.5792 78.9818 75.6626 79.263C75.7146 79.4401 75.7615 79.612 75.8084 79.7943C75.8553 80.0339 75.798 79.4766 75.8084 79.8151C75.8084 79.9245 75.8084 80.0339 75.8084 80.1276C75.8084 80.2005 75.7511 80.4193 75.7823 80.4922C75.7823 80.4818 75.8448 80.1901 75.8084 80.3359C75.7823 80.4089 75.7823 80.4922 75.7615 80.5651C75.7146 80.7943 75.6157 81.013 75.5532 81.2422C75.5063 81.3984 75.6053 81.0964 75.6157 81.1172C75.6157 81.1432 75.5428 81.263 75.5323 81.2891C75.4698 81.4089 75.4126 81.5182 75.3501 81.6276C75.2303 81.8411 75.074 82.0339 74.9542 82.2422C74.8657 82.388 75.0376 82.1328 75.0271 82.1432C75.0115 82.1953 74.9282 82.2526 74.9021 82.2995C74.8188 82.3984 74.7355 82.4974 74.6365 82.5911C74.4698 82.7734 74.2876 82.9401 74.0948 83.0964C73.8448 83.3151 74.2407 83.013 74.0376 83.1484C73.9282 83.2161 73.8188 83.2891 73.7094 83.362C73.4907 83.4974 73.2615 83.6172 73.0323 83.7266C72.3448 84.0391 72.1157 85.0911 72.5167 85.7057C72.9751 86.4141 73.7563 86.5599 74.4959 86.2214C76.4855 85.3047 78.2355 83.2526 78.5948 81.0599C78.8032 79.8307 78.6573 78.5859 78.0063 77.4974C77.3553 76.4141 76.2928 75.5911 75.1105 75.1328C71.5636 73.737 67.9282 77.0651 68.0167 80.6224C68.074 83.0391 69.7303 84.9453 71.8501 85.8828C72.5376 86.1849 73.4438 86.112 73.8292 85.3672C74.1678 84.737 74.048 83.7109 73.3136 83.388V83.4245Z" fill="black"/>
<path d="M56.9384 70.1277C51.8863 66.6433 49.4124 74.3777 53.079 76.9818C54.6832 78.31 56.7353 77.6589 57.6728 76.4402C58.6155 75.2214 59.0269 71.5652 56.9488 70.1173L56.9384 70.1277Z" fill="black"/>
<path d="M94.6886 69.3204C90.1053 65.4818 86.6574 72.9974 89.9751 75.8568C91.397 77.2943 93.522 76.7995 94.6157 75.6537C95.7147 74.5079 96.5845 70.8985 94.7042 69.3204H94.6886Z" fill="black"/>
<path d="M94.9331 88.6224C94.9331 88.6224 94.7873 88.5026 94.7612 88.5026C94.8602 88.5026 94.9331 88.6485 94.7612 88.5026C94.6779 88.4297 94.605 88.3724 94.5216 88.2995C94.4383 88.2162 94.3498 88.1276 94.2664 88.0443C94.2456 88.0183 94.2196 87.9818 94.1935 87.961C94.1727 87.9349 94.1466 87.8985 94.1206 87.8776C94.0529 87.7891 94.0737 87.8151 94.1935 87.9714C94.1727 87.8516 93.9644 87.6329 93.9071 87.5131C93.8914 87.4766 93.8706 87.4401 93.855 87.4037C93.7977 87.2943 93.9539 87.6954 93.9071 87.5131C93.881 87.4193 93.8446 87.3308 93.8237 87.2474C93.8237 87.211 93.8081 87.1745 93.7977 87.1381C93.7612 86.9974 93.855 87.0547 93.8081 87.2631C93.8237 87.2006 93.7977 87.1172 93.7977 87.0547C93.7977 86.9714 93.7977 86.8985 93.7977 86.8151C93.7977 86.6433 93.7508 87.0912 93.7716 86.961C93.7716 86.9089 93.7873 86.862 93.7977 86.8151C93.8081 86.7422 93.8341 86.6693 93.855 86.5964C93.9071 86.4662 94.0373 86.3204 93.8446 86.5964C93.9435 86.4662 93.9904 86.2943 94.0841 86.1485C94.1206 86.0912 94.1831 86.0287 94.2091 85.9714C94.1102 86.1849 94.0633 86.1485 94.1466 86.0547C94.1727 86.0287 94.1935 85.9922 94.2196 85.9714C94.3394 85.836 94.4591 85.7162 94.5946 85.5964C94.6675 85.5339 94.7404 85.4766 94.8081 85.4141C94.881 85.3568 94.9435 85.3672 94.7039 85.4974C94.7404 85.4766 94.7769 85.4401 94.8237 85.4141C94.98 85.3047 95.1466 85.1954 95.3185 85.1016C95.4748 85.0026 95.6414 84.9297 95.7977 84.8464C95.8341 84.836 95.8602 84.8256 95.8966 84.8099C96.0789 84.7266 95.631 84.9089 95.8237 84.8464C95.9227 84.8099 96.006 84.7735 96.0998 84.737C96.4644 84.6068 96.8394 84.5339 97.2091 84.461C97.4071 84.4245 96.9227 84.487 97.1154 84.4714C97.1519 84.4714 97.1779 84.4714 97.2091 84.4714C97.3081 84.4714 97.4071 84.461 97.5008 84.4506C97.6831 84.4506 97.8654 84.4506 98.0425 84.4506C98.1779 84.4506 98.4175 84.5599 98.0581 84.4506C98.131 84.4714 98.2144 84.4714 98.2873 84.487C98.4644 84.5235 98.6362 84.5808 98.8029 84.6433C98.9748 84.7006 98.5373 84.5235 98.7091 84.6068C98.7456 84.6172 98.7821 84.6433 98.8029 84.6537C98.8758 84.6901 98.9487 84.7266 99.0216 84.7735C99.0841 84.8099 99.1414 84.862 99.2039 84.8933C99.3602 84.9922 98.9852 84.7006 99.1154 84.836C99.1675 84.8724 99.2144 84.9089 99.2508 84.9558C99.3133 85.0026 99.3602 85.0651 99.4071 85.1224C99.3446 85.0183 99.5998 85.3412 99.4071 85.1224C99.5164 85.2943 99.6102 85.461 99.6987 85.6329C99.7821 85.7995 99.6102 85.3672 99.6623 85.5599C99.6727 85.6068 99.6987 85.6537 99.7091 85.7162C99.7352 85.7995 99.756 85.8985 99.7821 85.9818C99.8029 86.0756 99.8185 86.1745 99.8394 86.2735C99.8758 86.4766 99.9019 86.2943 99.8394 86.2214C99.8654 86.2579 99.8654 86.4141 99.8654 86.4506C99.8654 86.5495 99.8654 86.6433 99.8654 86.7422C99.8654 86.7683 99.8654 86.9089 99.855 86.9245C99.9019 86.8724 99.9019 86.6589 99.855 86.8881C99.8029 87.1276 99.7352 87.3568 99.6623 87.586C99.5894 87.8151 99.7716 87.3672 99.6623 87.586C99.6258 87.6485 99.5998 87.7058 99.5633 87.7683C99.506 87.862 99.4435 87.9714 99.381 88.0547C99.2404 88.2631 99.3706 88.0547 99.381 88.0547C99.381 88.0547 99.2873 88.1797 99.2769 88.1901C99.2404 88.2266 99.1883 88.2735 99.1519 88.3099C99.1154 88.3464 99.0841 88.3724 99.0581 88.4089C98.9748 88.4766 98.9852 88.4662 99.1154 88.3568C99.1154 88.3568 98.8498 88.5131 98.8289 88.5391C98.6206 88.6589 99.0581 88.4766 98.8289 88.5391C98.756 88.5651 98.6935 88.586 98.6206 88.6016C98.6206 88.6016 98.48 88.6381 98.48 88.6224C98.48 88.6381 98.73 88.612 98.4644 88.6224C98.381 88.6224 98.3081 88.6224 98.2248 88.6224C97.9852 88.6224 98.4071 88.6745 98.1779 88.6224C98.0946 88.6016 97.9956 88.586 97.9123 88.5651C97.8654 88.5495 97.8133 88.5391 97.7664 88.5131C97.6571 88.4766 97.6935 88.4922 97.8758 88.5651L97.5998 88.3933C97.6675 88.3724 97.8029 88.586 97.6571 88.4297C97.6206 88.3933 97.5841 88.3464 97.5477 88.3099C97.4071 88.1797 97.6831 88.5391 97.5841 88.3568C97.5477 88.2995 97.5008 88.237 97.4644 88.1797C97.4539 88.1433 97.4279 88.1172 97.4175 88.0808C97.2821 87.8412 97.4644 88.2631 97.4175 88.0808C97.3914 87.9714 97.3446 87.8776 97.3185 87.7683C97.3081 87.7214 97.2977 87.6589 97.2821 87.5964C97.2352 87.4193 97.2977 87.8985 97.2821 87.612C97.2821 87.5026 97.2821 87.3933 97.2821 87.2839C97.2821 87.2474 97.3081 87.1641 97.2977 87.1276C97.3446 87.2839 97.2456 87.3829 97.2977 87.211C97.3185 87.1172 97.4071 86.9714 97.3914 86.8724C97.3914 86.8985 97.2612 87.1276 97.3446 87.0079C97.381 86.961 97.4175 86.8985 97.4383 86.836C97.5269 86.6797 97.2456 87.0287 97.381 86.9089C97.4175 86.8881 97.4539 86.8516 97.4748 86.8151C97.5998 86.6797 97.2352 86.9454 97.4071 86.8724C97.4383 86.862 97.6362 86.7526 97.4383 86.8516C97.2456 86.9349 97.4071 86.8724 97.4383 86.8516C97.6675 86.7526 97.2352 86.836 97.3914 86.8516C97.4383 86.8516 97.5008 86.8516 97.5477 86.8516C97.73 86.8516 97.2977 86.7683 97.4904 86.8516C97.5477 86.8724 97.6102 86.8881 97.6675 86.8985C97.9591 86.9974 97.5477 86.836 97.7404 86.9245C98.2612 87.1641 98.9383 87.0912 99.2248 86.5391C99.48 86.0547 99.381 85.3047 98.8394 85.0547C98.1883 84.7526 97.4279 84.5443 96.73 84.8099C96.0269 85.0756 95.5685 85.5964 95.3029 86.2943C94.8602 87.4558 95.1831 88.8881 95.9904 89.8204C97.006 90.987 99.0321 91.0964 100.251 90.2058C101.412 89.3724 102.136 87.8776 102.048 86.4401C101.99 85.3204 101.589 84.1589 100.746 83.3881C99.9748 82.6745 98.9852 82.336 97.9591 82.2787C96.0894 82.1589 93.9904 83.0026 92.7248 84.3776C92.0581 85.1016 91.5894 86.0079 91.5894 87.0079C91.5894 88.0912 92.1571 89.0964 92.9383 89.8204C93.2039 90.0599 93.4852 90.2787 93.7716 90.4818C94.23 90.8099 95.006 90.5808 95.256 90.0964C95.5581 89.5391 95.3654 88.961 94.8706 88.612L94.9331 88.6224Z" fill="#F2ADAD"/>
<path d="M46.3449 88.3829C46.3449 88.3829 46.2043 88.2631 46.1782 88.2631C46.272 88.2631 46.3449 88.4089 46.1782 88.2631C46.0949 88.1902 46.022 88.1277 45.9386 88.0548C45.8501 87.9714 45.7668 87.8881 45.6834 87.8048C45.6574 87.7787 45.6366 87.7423 45.6105 87.7214C45.5845 87.6954 45.5636 87.6589 45.5376 87.6329C45.4647 87.5496 45.4907 87.5756 45.6105 87.7319C45.5845 87.6121 45.3813 87.3933 45.3188 87.2735C45.3084 87.2371 45.2824 87.2006 45.272 87.1641C45.2147 87.0548 45.3709 87.4558 45.3188 87.2735C45.298 87.1746 45.2616 87.0912 45.2355 87.0079C45.2355 86.9714 45.2251 86.935 45.2147 86.8985C45.1782 86.7527 45.272 86.8152 45.2251 87.0183C45.2355 86.961 45.2147 86.8725 45.2147 86.8152C45.2147 86.7319 45.2147 86.6589 45.2147 86.5704C45.2147 86.4037 45.1626 86.8516 45.1886 86.7162C45.1886 86.6694 45.1991 86.6225 45.2147 86.5704C45.2251 86.5027 45.2511 86.4298 45.272 86.3569C45.3188 86.2214 45.4543 86.0756 45.2616 86.3569C45.3553 86.2214 45.4074 86.0548 45.5011 85.9089C45.5376 85.8464 45.6001 85.7891 45.6209 85.7266C45.5272 85.9454 45.4803 85.9089 45.5636 85.8152C45.5845 85.7891 45.6105 85.7527 45.6366 85.7266C45.7563 85.5964 45.8761 85.4766 46.0063 85.3569C46.0793 85.2944 46.1522 85.2319 46.2251 85.1746C46.298 85.1121 46.3605 85.1225 46.1157 85.2579C46.1522 85.2319 46.1886 85.1954 46.2355 85.1746C46.397 85.0652 46.5636 84.9558 46.7303 84.8621C46.8918 84.7631 47.0584 84.6902 47.2147 84.6069C47.2511 84.5964 47.2772 84.5808 47.3136 84.5704C47.4907 84.4871 47.048 84.6641 47.2407 84.6069C47.3345 84.5704 47.4178 84.5339 47.5168 84.4975C47.8813 84.3673 48.2511 84.2944 48.6261 84.2214C48.8188 84.185 48.3397 84.2423 48.5324 84.2319C48.5688 84.2319 48.5897 84.2319 48.6261 84.2319C48.7251 84.2319 48.8188 84.2214 48.9178 84.2058C49.0949 84.2058 49.2772 84.2058 49.4595 84.2058C49.5897 84.2058 49.8345 84.3152 49.4699 84.2058C49.5428 84.2319 49.6261 84.2318 49.6991 84.2423C49.8813 84.2787 50.048 84.3412 50.2199 84.4037C50.3866 84.461 49.9543 84.2787 50.1209 84.3673C50.1574 84.3777 50.1938 84.4037 50.2199 84.4141C50.2928 84.4506 50.3657 84.4871 50.4386 84.5339C50.4959 84.5704 50.5584 84.6173 50.6157 84.6537C50.772 84.7527 50.4022 84.461 50.5324 84.5964C50.5793 84.6329 50.6313 84.6641 50.6678 84.7162C50.7251 84.7631 50.772 84.8256 50.8241 84.8829C50.7616 84.7735 51.0168 85.1016 50.8241 84.8829C50.9334 85.0548 51.0272 85.2214 51.1105 85.3881C51.1991 85.56 51.0272 85.1225 51.0741 85.3204C51.0897 85.3673 51.1105 85.4141 51.1261 85.4766C51.147 85.56 51.173 85.6537 51.1991 85.7423C51.2199 85.836 51.2303 85.935 51.2563 86.0287C51.2928 86.2371 51.3188 86.0548 51.2563 85.9819C51.2824 86.0183 51.2824 86.1746 51.2824 86.211C51.2824 86.31 51.2824 86.4037 51.2824 86.5027C51.2824 86.5235 51.2824 86.6694 51.2668 86.6798C51.3188 86.6329 51.3188 86.4141 51.2668 86.6433C51.2199 86.8881 51.147 87.1173 51.0741 87.3464C51.0011 87.5756 51.1834 87.1277 51.0741 87.3464C51.0376 87.4037 51.0168 87.4662 50.9803 87.5235C50.9178 87.6225 50.8605 87.7319 50.798 87.8152C50.6522 88.0183 50.7876 87.8152 50.798 87.8152C50.798 87.8152 50.7043 87.935 50.6886 87.9506C50.6522 87.9818 50.6053 88.0339 50.5688 88.0704C50.5324 88.1069 50.4959 88.1277 50.4751 88.1641C50.3866 88.2371 50.4022 88.2266 50.5324 88.1173C50.5324 88.1173 50.2668 88.2735 50.2459 88.2996C50.0376 88.4194 50.4751 88.2371 50.2459 88.2996C50.173 88.3204 50.1105 88.3464 50.0376 88.3569C50.0376 88.3569 49.8918 88.3933 49.8918 88.3829C49.8918 88.3933 50.147 88.3725 49.8813 88.3829C49.798 88.3829 49.7251 88.3829 49.6418 88.3829C49.397 88.3829 49.8188 88.4298 49.5897 88.3829C49.5063 88.3569 49.4126 88.3464 49.3241 88.3204C49.2772 88.31 49.2303 88.2996 49.1834 88.2735C49.0741 88.2371 49.1105 88.2475 49.2928 88.3204L49.0116 88.1537C49.0845 88.1277 49.2199 88.3464 49.0741 88.1902C49.0376 88.1537 49.0011 88.1069 48.9647 88.0704C48.8188 87.935 49.0949 88.2996 49.0011 88.1173C48.9647 88.0548 48.9178 87.9975 48.8813 87.935C48.8657 87.8985 48.8449 87.8777 48.8345 87.8412C48.6991 87.5964 48.8813 88.0183 48.8345 87.8412C48.8084 87.7319 48.7616 87.6329 48.7355 87.5235C48.7251 87.4766 48.7095 87.4194 48.6991 87.3569C48.6522 87.1746 48.7095 87.6589 48.6991 87.3673C48.6991 87.2631 48.6991 87.1537 48.6991 87.0444C48.6991 87.0079 48.7251 86.9246 48.7095 86.8881C48.7616 87.0444 48.6626 87.1381 48.7095 86.9714C48.7355 86.8725 48.8188 86.7319 48.8084 86.6329C48.8084 86.6589 48.673 86.8881 48.7616 86.7683C48.798 86.7162 48.8345 86.6589 48.8553 86.5964C48.9386 86.4402 48.6626 86.7891 48.798 86.6694C48.8345 86.6433 48.8657 86.6069 48.8918 86.5704C49.0116 86.4402 48.6522 86.7058 48.8188 86.6329C48.8553 86.6225 49.048 86.5131 48.8553 86.6069C48.6626 86.6954 48.8188 86.6329 48.8553 86.6069C49.0845 86.5131 48.6522 86.5964 48.8084 86.6069C48.8553 86.6069 48.9178 86.6069 48.9647 86.6069C49.147 86.6069 48.7095 86.5235 48.9022 86.6069C48.9647 86.6329 49.0272 86.6433 49.0845 86.6589C49.3761 86.7527 48.9647 86.5964 49.1574 86.6798C49.6782 86.9246 50.3501 86.8516 50.6418 86.2944C50.897 85.8152 50.798 85.0652 50.2563 84.81C49.6053 84.5079 48.8449 84.3048 48.1418 84.5704C47.4438 84.836 46.9855 85.3569 46.7199 86.0548C46.272 87.211 46.6001 88.6485 47.4074 89.5756C48.423 90.7475 50.4491 90.8569 51.6678 89.961C52.8241 89.1329 53.548 87.6329 53.4647 86.2006C53.4022 85.0756 53.0063 83.9194 52.1626 83.1485C51.3918 82.435 50.4022 82.0964 49.3761 82.0339C47.5063 81.9141 45.4074 82.7579 44.1366 84.1381C43.4751 84.8621 43.0063 85.7631 43.0063 86.7683C43.0063 87.8516 43.5741 88.8516 44.3553 89.5756C44.6209 89.8204 44.897 90.0339 45.1886 90.2423C45.647 90.5652 46.4178 90.336 46.673 89.8569C46.9751 89.2996 46.7824 88.7214 46.2876 88.3725L46.3449 88.3829Z" fill="#F2ADAD"/>
<path d="M61.3188 89.0807C62.2824 90.1172 63.2355 91.2526 64.5168 91.9036C65.9386 92.6276 67.5949 92.7474 69.147 92.4713C72.3709 91.8932 74.6001 88.8776 75.048 85.763H72.2615C73.647 89.1797 75.9074 92.0599 79.8397 92.3411C82.9386 92.5547 87.7303 90.2995 87.5584 86.6432C87.4751 84.7891 84.5793 84.7734 84.6626 86.6432C84.7147 87.6484 83.6053 88.3463 82.8449 88.7682C81.8397 89.3255 80.7668 89.5755 79.6313 89.4193C77.2563 89.1172 75.9074 87.0443 75.074 84.9922C74.6157 83.8568 72.5168 83.3984 72.2876 84.9922C71.9855 87.1172 70.7511 89.3359 68.4386 89.6745C66.1209 90.013 64.8657 88.6016 63.4074 87.0286C62.1418 85.6693 60.0897 87.7213 61.3553 89.0807H61.3188Z" fill="black"/>
</svg>
