<svg width="150" height="150" viewBox="0 0 150 150" fill="none" xmlns="http://www.w3.org/2000/svg">
<path d="M103.555 100.685C105.315 100.102 108.263 99.461 109.528 98.0495C110.586 96.8725 110.841 94.7631 108.523 95.2787C112.836 94.2266 123.164 92.612 119.555 86.6381C122.122 84.2266 130.544 81.5131 126.966 76.6016C125.237 74.2474 119.789 74.9506 121.138 71.4297C122.383 68.1902 129.815 66.8256 127.695 62.5495C126.372 59.8724 120.945 57.9766 118.456 57.0131C115.169 55.737 109.586 53.8047 107.008 57.3724C107.008 57.3724 111.237 44.9922 104.742 46.1485C104.742 44.6224 104.924 42.8724 104.023 41.5495C102.893 39.8933 99.7524 39.8568 97.8462 40.5079C97.8462 40.5079 95.2368 32.8152 85.9295 35.4974C84.7733 32.2318 81.7785 34.4662 80.6899 36.862C80.8253 34.8568 81.6222 31.4349 79.2681 30.4714C76.1066 29.1693 73.0337 34.6537 72.1118 36.9193C71.8462 35.1589 71.4295 30.8881 69.2003 30.8412C67.1899 30.8099 64.8358 34.6433 64.1743 36.0547C62.7837 39.0079 63.3253 41.8516 63.5597 44.9037C63.5597 44.9037 58.1899 51.6954 56.9972 57.2579C55.8097 62.8204 40.8306 56.8777 40.8306 56.8777C35.3462 57.112 23.5649 51.7995 21.7576 59.8516C20.2212 66.711 28.2628 67.9922 31.6587 72.1381C28.8462 75.0079 22.3201 80.4037 27.0858 84.6381C27.9139 85.3829 30.4347 85.6381 30.9503 86.4454C31.9035 87.9141 30.0233 90.3464 30.8306 91.961C31.9503 94.1693 35.5389 94.0912 37.6014 94.0235C40.6743 93.9245 40.2941 93.2318 40.8097 95.5704C41.091 96.8516 42.7368 102.93 45.2472 99.9558C45.2472 99.9558 86.5649 109.398 92.5337 102.503" fill="#3A855D"/>
<mask id="mask0_195_11429" style="mask-type:luminance" maskUnits="userSpaceOnUse" x="19" y="28" width="112" height="80">
<path d="M19.7839 28.9454H130.216V107.612H19.7839V28.9454Z" fill="white"/>
</mask>
<g mask="url(#mask0_195_11429)">
<path d="M103.914 101.977C106.378 101.18 109.701 100.617 111.102 98.1537C111.617 97.2318 111.898 96.0235 111.367 95.0443C110.721 93.836 109.362 93.7787 108.174 93.9818L108.893 96.5704C113.69 95.4141 124.992 93.3516 120.721 85.9506L120.508 87.5808C123.211 85.1329 127.82 84.0443 128.997 80.1902C129.581 78.2735 128.695 76.0756 127.122 74.8881C126.383 74.3256 125.518 73.9766 124.659 73.6537C124.117 73.4506 122.628 73.1798 122.346 72.6225C121.732 71.3985 124.409 69.8725 125.174 69.3464C126.706 68.3048 128.534 67.1589 129.185 65.3204C130.878 60.4975 124.086 57.7735 120.732 56.4402C116.404 54.7266 109.633 51.8204 106.055 56.4089L108.31 57.7214C109.701 53.6173 111.706 43.7162 104.383 44.8464L106.086 46.1485C106.086 43.7579 106.154 40.9454 103.81 39.5756C101.961 38.5027 99.4713 38.5912 97.487 39.2058L99.1484 40.1485C98.5755 38.5131 97.4765 36.9975 96.164 35.8985C93.1588 33.3777 89.2474 33.185 85.5807 34.1954L87.2422 35.1381C86.5651 33.4662 85.2786 32.1225 83.3255 32.6277C81.612 33.0756 80.289 34.6433 79.539 36.1798L82.0495 36.862C82.1849 35.112 82.5547 33.2735 81.9609 31.5704C81.3672 29.8673 79.7057 28.7891 77.8984 28.961C74.3359 29.2943 72.0599 33.6433 70.8359 36.5495H73.4245C73.1432 34.6641 72.9453 32.5808 71.8099 30.9766C70.5547 29.1954 68.4609 29.1693 66.8099 30.4141C65.164 31.6589 63.9297 33.487 63.0651 35.2839C61.5755 38.3777 61.9557 41.5964 62.2265 44.9037L62.6172 43.9506C61.3255 45.586 60.164 47.3152 59.0963 49.0964C58.2318 50.5548 57.4505 52.0548 56.789 53.6277C56.4609 54.3985 56.1588 55.1954 55.9349 56.0027C55.8099 56.4506 55.7786 57.0443 55.5078 57.4402C54.612 58.7631 51.7734 58.3256 50.4765 58.1589C48.2109 57.8516 45.9661 57.2266 43.789 56.5183C42.6015 56.1277 41.5286 55.5912 40.2682 55.5548C37.7265 55.4766 35.2265 54.8152 32.7109 54.4454C27.8672 53.7162 21.6484 53.7266 20.4245 59.6902C19.7734 62.8673 20.987 65.612 23.4401 67.6173C25.8984 69.6277 28.7213 70.7683 30.6953 73.1016V71.1954C28.237 73.6745 24.9765 76.3204 24.1901 79.9089C23.7786 81.7943 24.2838 83.6068 25.5599 85.0443C26.164 85.7162 26.8255 86.1433 27.6693 86.4558C28.1172 86.6277 29.5859 86.8152 29.8515 87.2527C30.1588 87.737 29.5182 89.1693 29.4193 89.6745C29.2265 90.6745 29.1588 91.7162 29.6536 92.6485C30.539 94.3308 32.3984 95.0131 34.1797 95.2579C35.7734 95.4714 37.9036 95.6537 39.487 95.237C39.5859 95.2162 39.7682 95.2579 39.8463 95.2162H39.914C40.2578 95.2266 40.0338 95.0912 39.263 94.7995C39.263 94.7995 39.3307 95.1589 39.3724 95.3464C39.4974 95.9089 39.6224 96.4714 39.789 97.0183C40.2265 98.487 40.8099 100.159 41.9297 101.247C43.2734 102.55 45.0026 102.211 46.1901 100.909L44.8776 101.258C49.7474 102.367 54.6693 103.289 59.5911 104.107C67.8099 105.471 76.362 106.831 84.7265 106.279C87.612 106.091 91.4088 105.763 93.487 103.456C94.638 102.164 92.7474 100.258 91.5807 101.55C90.2109 103.076 87.2057 103.409 84.9661 103.565C81.164 103.836 77.3255 103.612 73.5495 103.263C65.8463 102.56 58.2005 101.247 50.6172 99.7214C48.9505 99.3829 47.2786 99.0391 45.6172 98.6537C45.1588 98.5548 44.6432 98.6433 44.3047 99.0027C44.0963 99.237 44.0286 99.3985 43.8463 99.3412C43.4765 99.2162 43.1536 98.3204 43.0078 97.9923C42.5807 97.0652 42.2995 96.0548 42.0859 95.0548C41.8724 94.06 41.6849 92.9245 40.539 92.5912C39.3984 92.2527 37.9036 92.6902 36.7474 92.7006C35.4245 92.711 33.362 92.8048 32.3568 91.7631C31.3463 90.7162 32.6484 88.586 32.5807 87.31C32.4088 83.5964 27.1953 85.0652 26.7682 81.5808C26.5599 79.8881 27.8359 78.2058 28.8568 76.9923C30.0234 75.6016 31.3568 74.3829 32.6224 73.1016C33.164 72.5548 33.0963 71.7579 32.6224 71.1954C30.5599 68.7631 27.5338 67.5652 25.1432 65.5235C24.0547 64.5912 23.1172 63.4818 22.9453 62.0027C22.789 60.6225 23.1953 58.9298 24.2265 57.9454C26.2213 56.06 29.888 56.6902 32.3099 57.0704C33.914 57.3152 35.4922 57.6381 37.0963 57.8881C37.7943 57.9975 38.487 58.1016 39.1953 58.1693C39.4765 58.1902 39.7682 58.211 40.0443 58.2214C40.1693 58.2214 40.7995 58.2475 40.4922 58.1902C42.164 58.5287 43.8359 59.3777 45.4974 59.8256C48.1068 60.5443 50.9661 61.2058 53.7057 60.9245C54.8932 60.8048 56.1276 60.4975 57.0443 59.6902C58.0859 58.7839 58.2422 57.6068 58.638 56.3516C59.7265 52.8204 61.8099 49.5548 63.9609 46.586C64.1172 46.3725 64.2786 46.1589 64.4349 45.9454C64.5911 45.7318 64.5911 45.7214 64.5026 45.8568C65.1276 44.8673 64.7943 43.7683 64.7005 42.6381C64.4922 40.0131 64.6797 37.6485 66.0703 35.3725C66.539 34.5964 68.4245 31.4714 69.513 32.4037C70.0859 32.8933 70.2526 34.1277 70.3984 34.81C70.5651 35.6173 70.6797 36.4506 70.8047 37.2683C71.0286 38.7579 72.9557 38.31 73.3932 37.2683C74.164 35.4298 75.6484 32.435 77.6745 31.737C80.3776 30.81 79.414 35.5652 79.3151 36.862C79.2109 38.1641 81.2422 38.7266 81.8255 37.5495C82.1953 36.7839 83.8984 34.1068 84.6068 35.8673C84.8724 36.5391 85.4922 37.0183 86.263 36.81C89.1224 36.0235 92.263 36.0131 94.5599 38.1173C95.1901 38.6902 95.7057 39.3412 96.1224 40.0808C96.2526 40.3152 96.3776 40.5652 96.4922 40.81C96.5703 40.9662 96.3984 40.5548 96.513 40.8881C96.7474 41.56 97.4297 42.0548 98.1745 41.8308C99.4036 41.4506 100.94 41.2475 102.164 41.7839C103.732 42.4923 103.372 44.7683 103.372 46.1693C103.372 47.1225 104.237 47.5964 105.081 47.4714C108.789 46.8985 106.289 55.2839 105.695 57.0339C105.279 58.2579 107.107 59.4141 107.951 58.3464C110.674 54.8464 116.294 57.6173 119.555 58.8985C121.607 59.6902 129.065 62.4037 125.867 65.5027C123.737 67.5652 118.815 69.2683 119.633 73.0808C120.383 76.5443 126.023 75.2787 126.471 78.6954C126.695 80.4141 124.513 81.737 123.32 82.5339C121.742 83.5652 120.013 84.4298 118.602 85.7058C118.164 86.1068 118.107 86.836 118.388 87.3308C121.112 92.0756 110.966 93.3204 108.164 93.9923C106.445 94.4089 107.201 96.862 108.883 96.5808C109.878 96.4141 108.789 96.6068 108.971 96.2579C108.846 96.4923 108.857 96.685 108.701 96.9298C108.378 97.435 107.815 97.737 107.299 97.9923C106.008 98.6329 104.565 98.961 103.195 99.3985C101.56 99.9245 102.253 102.524 103.914 101.987V101.977Z" fill="#001834"/>
</g>
<path d="M51.9763 48.0547C48.195 45.1849 46.8513 37.8255 45.3929 33.513C44.1846 29.9245 42.8513 26.1901 43.1429 22.3672C45.1117 22.2422 48.6117 19.2839 50.2367 20.5391C51.7523 21.6953 51.945 28.7787 52.5492 30.9089C55.3304 29.5859 56.1898 24.4089 59.6794 25.6849C60.6794 26.0443 63.2002 29.013 63.3252 29.9922C63.5388 31.7266 62.4138 32.0443 61.0231 33.2318C58.9294 35.0026 55.6533 36.6484 55.6429 39.5078C55.6429 41.4037 59.2523 46.6276 58.096 47.1328" fill="#E2BE8D"/>
<mask id="mask1_195_11429" style="mask-type:luminance" maskUnits="userSpaceOnUse" x="40" y="18" width="25" height="33">
<path d="M40.8826 18.6849H64.8826V50.2786H40.8826V18.6849Z" fill="white"/>
</mask>
<g mask="url(#mask1_195_11429)">
<path d="M52.9295 47.1015C49.8461 44.6432 48.8045 40.2838 47.7472 36.6745C46.393 32.0078 44.1951 27.3203 44.4868 22.3776L43.143 23.7213C44.7888 23.5338 46.1586 22.6693 47.6586 22.039C49.1638 21.414 49.4399 21.2682 49.8565 22.7109C50.6534 25.5078 50.518 28.4765 51.2472 31.2682C51.4711 32.1432 52.4711 32.4661 53.2211 32.0755C54.5232 31.3932 55.3982 30.2161 56.2368 29.0495C56.7888 28.2995 57.5284 26.9193 58.5701 26.8307C59.7003 26.737 60.867 28.487 61.4295 29.2838C61.6951 29.6745 62.1222 30.1224 61.9555 30.6432C61.7628 31.2474 60.6795 31.7734 60.2055 32.1536C57.794 34.1068 54.018 36.1484 54.2993 39.7786C54.3982 41.1015 55.1065 42.3828 55.6534 43.5599C55.9555 44.1953 56.2732 44.8255 56.5493 45.4661C56.6638 45.7213 56.7211 46.0807 56.867 46.3047C57.268 46.9453 56.3357 46.6432 57.393 45.9818C55.9347 46.8984 57.2784 49.2318 58.7472 48.2995C60.8774 46.9557 58.6274 43.5911 57.9086 42.0443C57.4607 41.0911 56.742 39.9245 57.0545 38.8463C57.5128 37.2682 59.3097 36.2005 60.544 35.2734C62.7628 33.6015 65.9138 31.6588 64.1065 28.4974C62.9086 26.4036 60.643 23.7005 57.9399 24.2057C54.8565 24.7786 54.3513 28.4297 51.8409 29.7526L53.8149 30.5599C52.9763 27.3672 53.3878 23.7995 51.9659 20.7526C51.294 19.3047 49.9711 18.7005 48.3982 18.9818C46.5388 19.3151 44.9555 20.8203 43.1065 21.0338C42.3461 21.1224 41.8045 21.5807 41.7628 22.3776C41.4347 27.6901 43.7576 32.737 45.2159 37.737C46.3565 41.664 47.6378 46.3515 50.9763 49.0078C52.3253 50.0703 54.242 48.1901 52.8826 47.1015H52.9295Z" fill="#001834"/>
</g>
<path d="M84.7263 47.4506C85.8357 44.0756 88.3617 40.6641 90.2211 37.6589C87.018 34.586 82.8201 30.0443 86.419 26.1693C91.143 21.0756 92.2159 29.7787 95.5128 31.9871C97.0076 30.3725 101.825 22.185 103.721 22.3777C104.83 22.487 106.346 25.5704 106.763 26.5496C107.747 28.8673 108.221 28.4766 106.325 30.7058C102.95 34.6641 98.1951 37.1902 95.1326 41.5391C93.1847 44.31 91.4659 47.2787 89.919 50.2266C90.018 50.6225 89.6951 49.9402 89.6274 49.8725" fill="#E2BE8D"/>
<path d="M86.018 47.8047C87.2159 44.3672 89.4711 41.4037 91.3774 38.3412C91.6899 37.8516 91.5909 37.1224 91.1638 36.7162C89.3565 34.9818 87.1482 32.9505 86.5128 30.4401C86.1534 29.0495 86.6222 27.862 87.6222 26.862C87.9919 26.4922 88.6065 25.862 89.1794 25.9661C90.2888 26.1693 91.1534 28.3307 91.6326 29.1693C92.4972 30.6641 93.393 32.1432 94.8305 33.1641C95.2888 33.487 96.0857 33.3672 96.4555 32.9505C97.9919 31.237 99.169 29.1849 100.528 27.3203C101.258 26.3255 102.008 25.3255 102.883 24.4505C103.174 24.1589 103.44 23.9453 103.778 23.7214C103.7 23.7786 103.466 23.7474 103.409 23.6901C103.653 23.9141 103.867 24.1484 104.07 24.4193C104.857 25.5078 105.362 26.763 105.929 27.9609C106.044 28.1953 106.232 28.4453 106.268 28.6901C106.289 28.8464 106.403 28.4193 106.2 28.7214C105.695 29.5287 104.976 30.237 104.315 30.9089C101.57 33.7266 98.2055 35.888 95.5805 38.8359C94.044 40.5547 92.7992 42.5234 91.6013 44.4974C90.9399 45.5859 90.3097 46.6849 89.6951 47.7943C89.1794 48.7266 88.4711 49.6224 88.6326 50.7214L90.8826 49.4089C91.0544 49.5912 90.8044 49.2422 90.7836 49.2109C89.8305 47.7734 87.4972 49.1172 88.4607 50.5651C88.6326 50.8255 88.7628 51.0807 88.9763 51.3151C89.9972 52.3932 91.3982 51.2266 91.2315 50.0026V49.8828C91.1638 50.2266 91.1169 50.5755 91.0753 50.9141C93.3513 46.6068 95.7524 42.1797 99.3722 38.8359C101.008 37.3255 102.778 35.9662 104.45 34.487C105.909 33.1849 107.622 31.6953 108.591 29.9662C109.341 28.612 108.653 27.513 108.086 26.2578C107.445 24.8568 106.794 23.4401 105.784 22.263C103.721 19.8411 101.56 21.7474 99.9972 23.612C98.0388 25.9661 96.5909 28.7578 94.5492 31.0234L96.1742 30.8099C93.4399 28.8464 92.4294 21.6693 87.7576 23.4974C85.0857 24.5391 83.3253 27.6016 83.7628 30.4037C84.2784 33.7109 86.9607 36.3724 89.2576 38.5912L89.044 36.9662C87.0024 40.2474 84.6951 43.388 83.4138 47.0651C82.8461 48.7057 85.4451 49.4089 86.0076 47.7839L86.018 47.8047Z" fill="#001834"/>
<path d="M53.242 118.971C53.242 122.112 52.815 126.216 55.3306 128.482C56.0806 127.336 58.1222 122.966 57.6275 122.529" fill="#F2E7D6"/>
<path d="M51.8982 118.971C51.8982 122.529 51.4919 126.779 54.3877 129.435C55.0388 130.039 56.0232 129.904 56.4971 129.164C57.2367 128.013 57.7836 126.711 58.3096 125.445C58.7732 124.32 59.5648 122.628 58.5909 121.576C58.0961 121.039 57.1898 121.07 56.6846 121.576C56.1586 122.102 56.1898 122.94 56.6846 123.482C56.4502 123.221 56.4034 122.977 56.3617 122.763C56.3617 122.8 56.3617 122.831 56.3617 122.862C56.3825 123.076 56.3513 122.753 56.3825 122.706C56.294 122.81 56.2732 123.19 56.2263 123.326C56.1482 123.591 56.044 123.862 55.945 124.133C55.8877 124.279 55.8357 124.425 55.768 124.581C55.7419 124.648 55.7107 124.716 55.6898 124.784C55.7523 124.602 55.7211 124.69 55.6742 124.815C55.2367 125.836 54.768 126.867 54.1742 127.8L56.2836 127.529C56.1377 127.393 55.9919 127.258 55.8669 127.102C55.82 127.044 55.6742 126.878 55.7888 127.023C55.7315 126.956 55.6898 126.888 55.643 126.81C55.5284 126.654 55.4398 126.487 55.3513 126.315C55.3044 126.227 55.2523 126.128 55.2055 126.029C55.1586 125.945 55.1377 125.857 55.195 125.992C55.0492 125.622 54.9346 125.253 54.8461 124.872C54.7888 124.659 54.7575 124.435 54.7107 124.221C54.7002 124.133 54.6794 124.039 54.669 123.951C54.6898 124.143 54.669 123.919 54.669 123.841C54.4867 122.216 54.5909 120.586 54.5909 118.961C54.5909 118.232 53.9711 117.617 53.2419 117.617C52.5127 117.617 51.8982 118.232 51.8982 118.961V118.971Z" fill="#001834"/>
<path d="M77.9246 121.206C78.0444 122.451 78.5183 129.56 80.1329 129.232C82.1746 128.831 81.6798 122.695 81.6798 121.206" fill="#F2E7D6"/>
<mask id="mask2_195_11429" style="mask-type:luminance" maskUnits="userSpaceOnUse" x="75" y="119" width="9" height="13">
<path d="M75.5496 119.612H83.5496V131.315H75.5496V119.612Z" fill="white"/>
</mask>
<g mask="url(#mask2_195_11429)">
<path d="M76.5757 121.206C76.6799 122.294 76.7684 123.393 76.9142 124.466C77.1173 126.003 77.3413 127.586 77.9767 129.008C78.2267 129.549 78.5965 130.086 79.133 130.357C79.9871 130.789 80.9507 130.534 81.6226 129.893C82.7528 128.841 82.9246 126.982 83.0236 125.534C83.1278 124.086 83.0236 122.638 83.0236 121.195C83.0236 120.487 82.409 119.815 81.6799 119.846C80.9507 119.883 80.3309 120.44 80.3309 121.195C80.3309 122.305 80.3986 123.404 80.3778 124.513C80.3778 124.872 80.3569 125.221 80.3309 125.565C80.3205 125.747 80.3101 125.914 80.2892 126.091C80.2892 126.148 80.2788 126.206 80.2684 126.263C80.2215 126.654 80.2996 126.081 80.2684 126.315C80.2111 126.633 80.1538 126.945 80.0757 127.247C80.0392 127.362 80.008 127.471 79.9611 127.596C79.8934 127.81 79.8517 127.654 79.9976 127.529C79.9507 127.576 79.9194 127.706 79.883 127.763C79.8517 127.82 79.8153 127.867 79.7944 127.919C79.7059 128.076 79.6486 127.977 79.8726 127.831C79.8413 127.852 79.7944 127.919 79.7632 127.956C79.6278 128.112 79.6694 127.898 79.8726 127.878C79.8413 127.878 79.7736 127.945 79.7371 127.956C79.6486 127.997 79.5392 128.023 79.9194 127.878C79.8726 127.898 79.8153 127.909 79.7736 127.919C80.0757 127.888 80.1538 127.878 80.0288 127.888C79.8934 127.888 79.9871 127.888 80.2892 127.919C80.0548 127.867 80.6486 128.133 80.3882 127.956C80.758 128.201 80.6382 128.143 80.5444 128.065C80.5236 128.044 80.4923 127.987 80.4559 127.977C80.7267 128.122 80.6382 128.247 80.5809 128.133C80.5601 128.091 80.5236 128.055 80.5028 128.013C80.4351 127.898 80.3778 127.789 80.3205 127.664C80.2111 127.451 80.4455 127.997 80.3674 127.753C80.3465 127.685 80.3205 127.628 80.2996 127.576C80.2528 127.44 80.2111 127.305 80.1746 127.169C80.0861 126.878 80.0184 126.576 79.9507 126.273C79.8049 125.622 79.7059 124.961 79.6069 124.289C79.5601 123.987 79.6486 124.612 79.6069 124.31C79.5913 124.201 79.5705 124.096 79.5601 123.987C79.5392 123.831 79.5236 123.669 79.5028 123.503C79.4715 123.169 79.4246 122.82 79.4038 122.482C79.3569 122.044 79.3257 121.607 79.2788 121.159C79.2111 120.466 78.7059 119.779 77.9351 119.815C77.2632 119.846 76.5184 120.409 76.5861 121.159L76.5757 121.206Z" fill="#001834"/>
</g>
<path d="M42.7944 61.2162C37.5809 64.2683 31.9038 51.0912 33.6642 47.1797C36.1433 46.8776 39.0913 47.3933 41.4819 48.0339C44.4975 48.8255 46.2683 50.9349 48.9038 52.0235C53.7579 44.6224 65.1381 45.0026 72.8569 45.0026C80.8725 45.0026 89.9975 47.1224 96.3569 52.3464C99.4611 48.961 105.305 46.2474 109.529 45.0287C110.82 47.7162 110.841 51.3151 109.664 54.0287C108.815 55.9922 103.138 60.1172 103.43 62.138C103.508 62.711 106.201 64.9974 106.685 65.737C107.425 66.8568 108.05 67.9089 108.362 69.2474C108.883 71.4297 108.669 73.7735 108.06 75.8933C106.56 81.2422 102.669 85.4714 100.55 90.6068C98.409 95.7735 97.2319 101.122 96.9611 106.586C96.6017 114.008 90.4559 115.701 84.4142 118.747C78.6538 121.664 75.0288 122.742 68.4819 122.742C61.935 122.742 55.0131 122.742 49.7579 117.841C44.3517 112.815 47.1433 106.742 47.0652 100.159C46.9871 93.5755 43.8152 88.1849 43.1538 81.961C42.8256 78.8672 42.6381 75.6797 42.784 72.5547C42.8621 70.7943 42.8933 69.1328 43.4663 67.4401C43.9246 66.0495 45.4298 64.1016 45.2371 63.0651" fill="#88BFA7"/>
<path d="M42.1118 60.0495C39.6743 61.3724 37.4243 57.4036 36.5597 55.7213C35.4243 53.539 33.9347 50.0026 34.9556 47.539L33.6535 48.5234C36.3358 48.2422 39.2368 48.638 41.7733 49.5234C44.117 50.3411 45.9451 52.1797 48.2212 53.1692C48.9243 53.4713 49.6118 53.3463 50.0597 52.6849C54.367 46.3359 63.5233 46.3359 70.367 46.3255C79.1535 46.3047 88.3254 47.5703 95.3931 53.2786C95.9399 53.7265 96.7472 53.8515 97.2993 53.2786C100.581 49.8047 105.346 47.638 109.877 46.3047L108.351 45.6901C109.419 48.0547 109.664 51.6849 108.127 53.9297C106.95 55.6432 105.159 56.9453 103.825 58.5286C102.836 59.6901 101.435 61.4505 102.357 63.0338C103.351 64.7474 105.2 65.7682 106.2 67.5182C109.732 73.6953 104.471 80.6172 101.471 85.7942C98.1274 91.5703 96.2993 98.1536 95.7264 104.779C95.492 107.503 95.3462 109.971 93.3514 112.034C91.7368 113.706 89.5858 114.747 87.5181 115.742C82.4972 118.164 77.6326 120.799 71.966 121.247C68.8826 121.497 65.7212 121.45 62.6379 121.247C59.7264 121.07 56.7629 120.575 54.1274 119.242C51.492 117.909 49.0389 115.836 48.1743 112.95C47.3879 110.305 47.841 107.445 48.117 104.758C48.466 101.414 48.4764 98.1953 47.7629 94.888C46.966 91.2109 45.5754 87.6901 44.8201 84.0026C44.0389 80.1015 43.9608 75.9505 44.1379 71.9922C44.216 70.1849 44.3618 68.4245 45.2056 66.789C45.7993 65.6328 46.6639 64.3776 46.5701 63.0338C46.4504 61.3203 43.7576 61.3047 43.8826 63.0338C43.9608 64.1224 42.8254 65.4557 42.4139 66.4297C41.7264 68.0234 41.5701 69.7734 41.4816 71.487C41.2785 75.2578 41.4139 79.0547 41.9191 82.789C42.3774 86.2109 43.5233 89.4609 44.4504 92.7682C45.3826 96.0755 45.8983 99.5442 45.5962 103.107C45.3618 105.945 44.8358 108.805 45.1951 111.664C45.5493 114.523 46.9295 117.133 49.1639 119.096C54.1066 123.461 60.5858 124.039 66.8983 124.065C70.0076 124.075 73.1118 124.008 76.1639 123.336C79.2108 122.664 81.9451 121.45 84.6587 120.107C89.0233 117.94 94.6066 116.148 97.0285 111.549C98.5285 108.69 98.2629 105.45 98.7108 102.336C99.2264 98.7682 100.159 95.2578 101.471 91.9036C103.914 85.6172 109.049 80.513 109.888 73.6067C110.305 70.2005 109.497 66.6692 107.086 64.1224C106.367 63.3567 105.19 62.6067 104.711 61.664C104.924 62.0807 104.831 61.7109 105.112 61.2734C105.414 60.789 105.794 60.3672 106.18 59.9505C107.7 58.2682 109.81 56.7422 110.841 54.6797C112.424 51.5078 112.133 47.4713 110.706 44.3203C110.471 43.7942 109.711 43.5442 109.185 43.7057C104.226 45.1588 99.0129 47.5599 95.4139 51.3724H97.3201C91.2108 46.4401 83.4035 44.1745 75.6483 43.7161C72.4191 43.5234 69.1326 43.5703 65.9139 43.7161C62.6951 43.862 59.3774 44.2057 56.2837 45.2161C52.8306 46.3359 49.8097 48.289 47.7629 51.3151L49.6014 50.8359C47.1118 49.7474 45.1014 47.8047 42.5129 46.9192C39.7785 45.9817 36.5597 45.5182 33.6795 45.8203C33.0181 45.888 32.6326 46.2057 32.3774 46.8099C30.9868 50.1745 33.0024 54.9609 34.6847 57.8672C36.367 60.7682 39.7316 64.4036 43.4868 62.362C45.0129 61.5338 43.6587 59.2109 42.1326 60.039L42.1118 60.0495Z" fill="#001834"/>
<path d="M61.664 109.508C60.6431 108.794 60.5546 104.253 62.2942 104.466C63.9088 104.664 64.466 110.003 62.4921 110.138" fill="#F2E7D6"/>
<path d="M62.3359 108.346C62.7421 108.648 62.4921 108.398 62.4505 108.398C62.4817 108.398 62.6744 108.747 62.5703 108.555C62.5494 108.523 62.5286 108.477 62.5026 108.445C62.4817 108.409 62.4713 108.378 62.4505 108.331C62.3463 108.154 62.539 108.581 62.5182 108.503C62.4921 108.409 62.4505 108.31 62.4244 108.221C62.3723 108.018 62.3359 107.805 62.2942 107.602C62.2682 107.513 62.3359 107.987 62.3151 107.747C62.3151 107.685 62.3046 107.628 62.2942 107.56C62.2942 107.435 62.2682 107.31 62.2682 107.201C62.2682 106.966 62.2682 106.732 62.2786 106.492C62.2786 106.44 62.2786 106.383 62.2942 106.326C62.3151 106.07 62.2473 106.44 62.2682 106.471C62.2369 106.424 62.3255 106.19 62.3359 106.133C62.3567 106.034 62.3828 105.945 62.414 105.841C62.4244 105.799 62.4505 105.753 62.4609 105.711C62.539 105.487 62.3151 105.987 62.4036 105.841C62.4505 105.763 62.4817 105.695 62.5286 105.617C62.6276 105.43 62.4609 105.753 62.414 105.763C62.44 105.763 62.4921 105.685 62.5026 105.664C62.5494 105.617 62.6848 105.518 62.4713 105.685C62.2578 105.857 62.3828 105.753 62.4401 105.721C62.5963 105.633 62.1796 105.799 62.2473 105.799C62.2473 105.799 62.3723 105.779 62.3723 105.763C62.3723 105.789 61.9453 105.799 62.1588 105.799C62.3723 105.799 61.9557 105.799 61.9557 105.763C61.9557 105.763 62.0338 105.789 62.0442 105.789C62.2369 105.841 61.8203 105.674 61.8567 105.711C61.8776 105.732 61.9348 105.753 61.9557 105.763C62.0911 105.82 61.6953 105.529 61.7994 105.643C61.8411 105.695 61.9088 105.763 61.9661 105.81C62.0234 105.857 61.7421 105.497 61.8567 105.664C61.8776 105.695 61.8984 105.732 61.9244 105.763C61.9765 105.841 62.0234 105.935 62.0703 106.013C62.0911 106.055 62.1015 106.102 62.1223 106.133C62.2161 106.315 62.0026 105.799 62.0703 105.987C62.1015 106.091 62.1484 106.19 62.1796 106.294C62.2473 106.503 62.2942 106.716 62.3359 106.93C62.3359 106.987 62.3567 107.044 62.3567 107.086C62.4036 107.326 62.3723 107.008 62.3359 106.94C62.3828 107.034 62.3567 107.201 62.3723 107.299C62.3828 107.523 62.3932 107.747 62.3723 107.971C62.3723 108.096 62.3463 108.221 62.3359 108.346C62.3255 108.534 62.4036 107.961 62.3463 108.211C62.3359 108.279 62.3255 108.346 62.3151 108.398C62.2942 108.513 62.2578 108.612 62.2265 108.716C62.2265 108.727 62.1796 108.862 62.1692 108.862C62.1692 108.862 62.3463 108.492 62.2265 108.716C62.1796 108.794 62.1223 108.872 62.0807 108.961C62.0546 108.992 62.3359 108.68 62.1796 108.826C62.1588 108.846 62.1015 108.883 62.0911 108.914C62.0703 108.951 62.414 108.68 62.2369 108.805C62.1796 108.836 62.013 108.904 62.2682 108.805C62.5286 108.701 62.3567 108.768 62.2942 108.779C62.0442 108.826 62.6171 108.747 62.4609 108.758C61.763 108.815 61.0807 109.331 61.1171 110.107C61.1484 110.779 61.7109 111.518 62.4609 111.451C65.5651 111.18 65.388 106.94 64.4661 104.846C63.9296 103.612 62.664 102.68 61.2942 103.253C59.9244 103.826 59.6015 105.404 59.5442 106.716C59.4869 108.107 59.7473 109.768 60.9348 110.643C61.5078 111.06 62.4609 110.753 62.7734 110.159C63.1432 109.456 62.8984 108.768 62.2942 108.32L62.3359 108.346Z" fill="#001834"/>
<path d="M71.0389 110.227C70.5233 108.612 71.8098 103.602 74.0077 105.987C75.5337 107.648 72.0129 111.305 71.3619 110.555" fill="#F2E7D6"/>
<path d="M72.3255 109.867C72.2943 109.747 72.2735 109.622 72.2474 109.497L72.2943 109.857C72.237 109.409 72.2578 108.951 72.3151 108.503L72.2735 108.862C72.3151 108.513 72.3828 108.175 72.4818 107.841C72.5287 107.669 72.586 107.513 72.6433 107.346C72.6537 107.31 72.6641 107.279 72.6745 107.247C72.763 107.018 72.6276 107.404 72.6068 107.404C72.6433 107.404 72.6953 107.211 72.711 107.164C72.7735 107.034 72.8412 106.909 72.9193 106.784C73.0026 106.664 73.2005 106.482 72.8672 106.841C72.9089 106.784 72.9558 106.732 73.013 106.685C73.0547 106.638 73.1016 106.607 73.1433 106.56C73.0443 106.649 72.8308 106.774 73.0443 106.649C73.0651 106.638 73.1016 106.628 73.1224 106.607C73.2474 106.529 72.7735 106.716 72.9089 106.695C72.9662 106.695 73.0235 106.664 73.0808 106.649L72.7214 106.695C72.7995 106.695 72.8776 106.695 72.9662 106.695L72.6068 106.649C72.6745 106.649 72.7318 106.675 72.7995 106.695C73.0026 106.742 72.6276 106.628 72.6068 106.607C72.6433 106.628 72.6745 106.638 72.711 106.649C72.7735 106.685 72.8412 106.742 72.9089 106.784C72.5495 106.57 72.6849 106.607 72.7735 106.685C72.8203 106.716 72.8672 106.763 72.8985 106.794C72.9558 106.852 73.1797 107.122 73.0026 106.888C72.8203 106.649 73.0026 106.888 73.0339 106.966C73.1433 107.154 72.9193 106.649 72.9558 106.784C72.9662 106.82 72.9766 106.852 72.987 106.888C73.013 106.966 73.0339 107.044 73.0443 107.122L73.0026 106.763C73.0235 106.93 73.0235 107.102 73.0026 107.268L73.0443 106.909C73.0235 107.102 72.9662 107.289 72.9089 107.482C72.8985 107.524 72.8776 107.56 72.8672 107.602C72.7735 107.862 72.9766 107.357 72.9193 107.471C72.8776 107.56 72.8412 107.649 72.7995 107.737C72.6953 107.919 72.5964 108.096 72.4714 108.279C72.4193 108.357 72.362 108.445 72.2943 108.524C72.6068 108.096 72.362 108.435 72.2735 108.534C72.1485 108.68 72.013 108.815 71.8776 108.951C71.8099 109.018 71.7422 109.086 71.6641 109.138C71.6328 109.164 71.612 109.195 71.5755 109.216C71.3724 109.388 71.8568 109.018 71.7005 109.128C71.5755 109.216 71.4662 109.3 71.3308 109.362C71.2943 109.378 71.263 109.399 71.2422 109.409C71.1276 109.466 71.6537 109.263 71.4505 109.32C71.3985 109.331 71.3516 109.352 71.2943 109.362L71.6537 109.32C71.6537 109.32 71.5651 109.32 71.5183 109.32L71.8776 109.362C71.7318 109.341 71.7005 109.242 72.1016 109.466C71.9453 109.378 72.4193 109.747 72.2943 109.612C71.8203 109.086 70.8672 109.096 70.388 109.612C69.8724 110.169 69.8828 110.956 70.388 111.518C70.9818 112.169 71.9037 112.076 72.6276 111.732C73.112 111.492 73.5495 111.122 73.9193 110.732C74.862 109.768 75.6328 108.503 75.711 107.122C75.7578 106.326 75.4453 105.576 74.9037 105.003C74.3672 104.43 73.638 104.003 72.8568 104.018C71.3308 104.039 70.4766 105.43 70.0183 106.695C69.7839 107.357 69.6589 108.065 69.5912 108.768C69.5339 109.362 69.5443 110.013 69.7266 110.586C69.9297 111.258 70.6797 111.753 71.388 111.529C72.0912 111.305 72.5495 110.596 72.3255 109.867Z" fill="#001834"/>
<path d="M80.2107 108.914C82.1378 108.3 84.1794 107.815 86.1847 108.331C88.0232 108.805 89.6169 109.982 91.0753 111.159C94.2472 113.716 97.2315 116.451 101.2 117.695C104.7 118.794 109.091 119.154 112.544 117.742C115.867 116.383 117.883 113.076 117.893 109.508C117.893 107.747 116.726 106.169 114.992 105.742C113.252 105.315 111.841 106.294 111.737 108.039C111.638 109.789 114.33 109.768 114.429 108.039C114.398 108.669 114.028 107.987 114.612 108.466C115.08 108.862 115.205 109.07 115.179 109.711C115.138 111.06 114.679 112.539 113.825 113.602C112.086 115.779 109.013 116.013 106.445 115.878C103.138 115.701 100.169 114.711 97.4451 112.831C94.7211 110.945 92.4086 108.388 89.4711 106.784C86.2628 105.034 82.8878 105.237 79.4815 106.326C77.8305 106.852 78.5388 109.456 80.2003 108.914H80.2107Z" fill="#001834"/>
<path d="M55.0131 108.185C55.6433 104.497 52.2891 103.487 49.3204 103.128C44.7214 102.57 40.7214 104.857 36.8151 106.977C33.2526 108.914 28.4766 111.18 24.7162 108.242C23.0703 106.956 23.6537 104.945 24.987 103.659C26.7943 101.909 28.9453 102.221 29.8412 104.633C30.4349 106.237 33.0391 105.539 32.4349 103.914C31.4245 101.211 29.2058 99.1745 26.1641 99.9557C23.7787 100.576 21.6693 102.695 21.1328 105.102C20.3881 108.378 22.8256 110.674 25.6849 111.695C30.6276 113.466 35.1224 110.935 39.3829 108.633C42.0183 107.211 44.8568 105.633 47.9401 105.695C48.961 105.721 52.7162 105.82 52.4245 107.471C52.1329 109.117 54.7214 109.893 55.0131 108.185Z" fill="#001834"/>
<path d="M57.6954 84.0027C52.9975 80.7631 50.7006 87.9506 54.1069 90.3725C55.5965 91.6016 57.5027 90.9975 58.3777 89.8673C59.2527 88.7318 59.6329 85.336 57.7059 83.9923L57.6954 84.0027Z" fill="#001834"/>
<path d="M86.0856 84.1693C81.8252 80.6016 78.6169 87.5912 81.7002 90.2474C83.0231 91.5808 84.9971 91.1224 86.0179 90.0547C87.0387 88.9922 87.846 85.6381 86.096 84.1693H86.0856Z" fill="#001834"/>
<path d="M80.9295 80.7943C80.9295 80.862 80.9607 80.7266 80.9503 80.7266C81.0284 80.6172 81.1378 80.5234 81.2524 80.4453C81.5232 80.2474 81.8461 80.0859 82.1482 79.9662C82.9816 79.6172 83.8878 79.4609 84.7836 79.4818C85.6795 79.5026 86.5805 79.6641 87.242 80.2474C87.8566 80.7943 88.2576 81.5443 88.742 82.2057C89.0128 82.5755 89.4711 82.7578 89.8982 82.5078C90.2576 82.2995 90.4711 81.7266 90.2003 81.3568C89.5857 80.4922 89.0441 79.5287 88.2055 78.8672C87.1482 78.0339 85.7732 77.7682 84.4607 77.7995C83.2941 77.8359 82.1586 78.1016 81.1066 78.6068C80.2003 79.0339 79.3253 79.7318 79.2576 80.8047C79.1899 81.8828 80.8722 81.8828 80.9399 80.8047L80.9295 80.7943Z" fill="#001834"/>
<path d="M52.2786 80.961C52.3359 80.7839 52.3463 80.7266 52.4817 80.5391C52.5026 80.4922 52.6588 80.3256 52.7734 80.2214C52.9609 80.0547 53.3567 79.8412 53.6119 79.7422C54.3984 79.4506 55.1588 79.3568 55.9921 79.3828C56.7213 79.4037 57.3255 79.5391 58.0963 79.7943C58.4661 79.9193 58.8151 80.0651 59.1432 80.2995C59.388 80.4922 59.5338 80.6849 59.5442 80.9193C59.5911 81.9922 61.2734 82.0078 61.2265 80.9193C61.138 78.5651 58.0182 77.7683 56.1015 77.7006C54.0494 77.6224 51.3359 78.2735 50.6744 80.5026C50.3723 81.5443 51.9869 81.9818 52.2994 80.9506L52.2786 80.961Z" fill="#001834"/>
</svg>
