<svg width="150" height="150" viewBox="0 0 150 150" fill="none" xmlns="http://www.w3.org/2000/svg">
<path d="M113.81 55.276C120.253 43.8906 138.482 51.4739 136.32 66.5677C134.909 76.4635 127.638 80.3854 118.602 80.5312" fill="#F2E7D6"/>
<path d="M114.94 55.9323C116.508 53.2343 119.117 51.3177 122.305 51.1302C125.487 50.9427 128.409 52.0989 130.7 54.1041C136.575 59.25 136.617 69.2656 131.143 74.776C127.857 78.0729 123.096 79.1094 118.602 79.2083C116.904 79.2396 116.893 81.8854 118.602 81.8541C123.393 81.7552 128.289 80.6614 132.044 77.5208C135.799 74.3802 137.742 69.2552 137.81 64.375C137.93 56.2448 131.591 48.6302 123.206 48.4739C118.753 48.3958 114.867 50.8021 112.664 54.6146C111.799 56.0885 114.096 57.4218 114.94 55.9479V55.9323Z" fill="#001834"/>
<path d="M29.0028 75.0885C23.9923 79.3281 17.4559 74.2916 15.6694 69.7552C12.6382 62.0833 12.2215 53.8854 18.2059 47.4166C21.4871 43.8594 27.0184 42.1614 31.7892 44.0208C35.6798 45.5312 38.9194 49.4219 39.0184 52.4948" fill="#F2E7D6"/>
<path d="M28.0651 74.1614C24.862 76.7291 20.8828 74.677 18.5443 71.9583C16.2109 69.2343 15.1328 64.651 14.8776 61.026C14.3359 53.1457 19.4713 44.1093 28.3099 44.6093C32.2526 44.828 37.3984 48.1978 37.6849 52.5051C37.7995 54.1926 40.4401 54.203 40.3307 52.5051C40.013 47.7916 35.6484 43.7916 31.3307 42.4791C26.5807 41.0364 21.1901 42.6249 17.6849 46.0624C14.1849 49.4999 12.1224 54.677 12.1901 59.7812C12.2422 64.4062 13.4557 69.8958 16.4401 73.5416C19.8255 77.677 25.4661 79.6145 29.9401 76.0312C31.2734 74.9635 29.388 73.1145 28.0651 74.1614Z" fill="#001834"/>
<path d="M31.9454 66.0156C29.5652 66.302 26.909 66.8437 25.1798 65.1562C23.4506 63.4739 23.034 59.8489 23.9246 57.8281C26.5131 52.0103 34.0965 55.5728 34.0183 60.6614" fill="#F2ADAD"/>
<path d="M31.9451 64.6927C30.768 64.8385 29.5857 65.0365 28.3982 65.0052C27.4607 64.9792 26.6117 64.7708 25.9607 64.0573C25.9607 64.0573 25.7315 63.7708 25.8409 63.9115C25.9503 64.0573 25.7315 63.7344 25.7315 63.7448C25.5961 63.5365 25.4763 63.3073 25.3669 63.0885C25.3565 63.0521 25.268 62.8542 25.3461 63.0417C25.2888 62.9219 25.2471 62.7865 25.2107 62.6667C25.1273 62.4115 25.0596 62.151 24.9919 61.8854C24.8617 61.3125 24.8513 61.1927 24.8148 60.6198C24.8044 60.3542 24.8148 60.0885 24.8148 59.8229C24.8148 59.7344 24.8148 59.6458 24.8357 59.5729C24.8357 59.4844 24.8513 59.4062 24.8617 59.3177C24.8357 59.4583 24.8513 59.4479 24.8617 59.2969C24.9034 59.0885 24.9503 58.8646 25.0128 58.6562C25.0492 58.5677 25.0701 58.4792 25.1013 58.3906C24.9919 58.6979 25.1482 58.3021 25.169 58.2708C25.2576 58.0833 25.3669 57.8958 25.4763 57.7187C25.544 57.6198 25.6117 57.5208 25.6742 57.4219C25.7628 57.3021 25.7628 57.3021 25.6742 57.4219C25.7211 57.3646 25.7732 57.3125 25.8201 57.2552C25.9398 57.125 26.0596 56.9948 26.1951 56.8698C26.2367 56.8385 26.5128 56.6302 26.2471 56.8177C26.3253 56.7604 26.4138 56.6927 26.5023 56.6406C26.643 56.5521 26.7888 56.4844 26.9294 56.3958C27.2055 56.2344 26.669 56.474 26.9763 56.375C27.0648 56.3542 27.1534 56.3073 27.2523 56.2865C27.4398 56.2344 27.6273 56.1979 27.8148 56.1667C27.4294 56.2344 27.9242 56.1667 28.0336 56.1667C28.2211 56.1667 28.419 56.1875 28.6065 56.1875C28.8357 56.1875 28.5857 56.1875 28.5388 56.1771C28.6742 56.1979 28.794 56.2187 28.9242 56.2448C29.1013 56.2865 29.2784 56.3333 29.4451 56.3854C29.5336 56.4219 30.0388 56.6406 29.7315 56.4844C30.0961 56.6615 30.4451 56.849 30.7784 57.0781C30.8305 57.125 30.8878 57.1562 30.9451 57.2031C30.669 57.0052 31.018 57.2656 31.0648 57.3125C31.2159 57.4427 31.3617 57.5885 31.5023 57.7292C31.5701 57.8073 31.6482 57.8854 31.7159 57.9635C31.7576 58.0156 31.8044 58.0625 31.8461 58.1146C31.7471 57.9844 31.7367 57.974 31.8253 58.0937C31.9346 58.2604 32.0544 58.4271 32.1534 58.599C32.2107 58.6875 32.2523 58.776 32.2992 58.8646C32.3201 58.901 32.4763 59.25 32.4086 59.0729C32.3305 58.875 32.4503 59.1979 32.4503 59.1979C32.4971 59.3281 32.5388 59.4479 32.5753 59.5833C32.6273 59.7812 32.6742 59.9792 32.7055 60.1875C32.6534 59.849 32.7055 60.1875 32.7055 60.2552C32.7055 60.3958 32.7159 60.5417 32.7055 60.6719C32.7055 62.3698 35.3409 62.3802 35.3513 60.6719C35.3721 56.474 31.2628 52.9375 27.1169 53.6094C24.9034 53.9635 23.2159 55.7812 22.5232 57.8385C22.1482 58.9531 22.1065 60.2083 22.2471 61.3646C22.4138 62.6667 22.7471 63.9792 23.4607 65.0937C24.3096 66.401 25.6221 67.2969 27.1742 67.5365C28.7263 67.7812 30.3565 67.5365 31.9555 67.349C32.6638 67.2604 33.2784 66.8021 33.2784 66.026C33.2784 65.3802 32.6742 64.6198 31.9555 64.7083L31.9451 64.6927Z" fill="#001834"/>
<path d="M113.034 52.6926C108.487 44.5833 101.93 37.302 93.2995 33.4791C85.2006 29.8853 72.2891 27.8697 60.7058 30.5572C51.3724 32.7187 41.4558 41.1041 37.5547 49.1822C32.9401 58.7343 31.4922 66.2603 31.0756 78.2603C30.6693 89.8749 34.237 100.729 41.961 108.948C48.836 116.266 59.2318 121.203 71.4922 121.213C83.7579 121.224 94.0599 117.49 100.409 112.229C116.862 98.6249 124.221 72.6041 113.034 52.6926Z" fill="#F2CC4D"/>
<mask id="mask0_195_11458" style="mask-type:luminance" maskUnits="userSpaceOnUse" x="29" y="27" width="91" height="96">
<path d="M29.2007 27.0885H119.867V122.911H29.2007V27.0885Z" fill="white"/>
</mask>
<g mask="url(#mask0_195_11458)">
<path d="M114.17 52.0208C109.42 43.6354 102.612 36.0781 93.6226 32.1875C84.6278 28.2969 73.4455 27.0885 63.4716 28.6719C53.633 30.2396 44.8258 36.2552 38.9976 44.2552C36.2633 48 34.4351 52.474 32.982 56.8698C31.5289 61.2656 30.7008 65.8281 30.2476 70.4375C29.2268 80.6927 29.6435 90.9427 34.3362 100.318C38.5601 108.771 45.732 115.438 54.4143 119.12C63.8778 123.13 74.6018 123.385 84.5289 121.068C93.3101 119.021 100.883 114.625 106.8 107.802C118.326 94.5365 123.206 74.9219 116.992 58.1823C116.211 56.0573 115.263 54.0052 114.159 52.0208C113.336 50.5365 111.055 51.8698 111.878 53.3542C120.175 68.2865 117.92 86.974 108.696 100.958C104.222 107.745 98.1487 113.411 90.5341 116.432C81.6539 119.958 71.2737 120.979 61.9403 118.797C53.3674 116.792 45.5549 111.969 40.2633 104.891C34.581 97.3021 32.1018 87.8906 32.3883 78.4792C32.6747 69.0677 33.9612 60.3177 37.7528 51.8698C41.5445 43.4167 48.6851 36.4531 57.2893 33.026C61.8726 31.2083 66.956 30.6667 71.8466 30.6458C76.7372 30.625 81.7737 31.25 86.581 32.5417C95.4403 34.9219 102.732 40.1875 108.164 47.5625C109.534 49.4115 110.753 51.3594 111.888 53.3542C112.727 54.8333 115.018 53.5104 114.17 52.0208Z" fill="#001834"/>
</g>
<path d="M101.94 72.0989C101.487 64.8281 97.6065 56.4739 89.4763 55.7812C81.7524 54.8854 72.9607 56.552 70.5232 64.4062C67.0961 55.3489 50.0961 49.4323 45.0024 61.3541C41.8617 68.3854 42.169 74.2604 43.6378 81.5104C44.3982 90.4896 45.9086 99.2604 58.1169 106.026C70.3253 112.792 86.3565 109.312 93.7315 100.078C100.44 91.6718 101.997 81.4114 101.95 72.0885L101.94 72.0989Z" fill="#F2E7D6"/>
<path d="M103.263 72.0989C102.841 65.9948 100.378 59.1406 94.7319 56.0104C91.8465 54.4114 88.3881 54.1718 85.1381 54.2396C81.8829 54.3021 78.7996 54.8646 75.9454 56.2552C72.6954 57.8541 70.3725 60.6093 69.2475 64.0468H71.7892C68.9246 56.75 59.7371 51.9687 52.1017 53.6771C47.4819 54.7135 44.7735 58.1927 43.1329 62.4114C41.9715 65.401 41.336 68.5729 41.2579 71.7812C41.1798 74.9843 41.7319 78.1718 42.2579 81.3646C42.6329 83.6718 42.7319 85.9948 43.1746 88.2864C43.6173 90.5781 44.2788 92.7291 45.2267 94.8125C47.4819 99.7916 51.5288 103.625 56.1538 106.427C65.6954 112.187 78.1485 112.365 87.8256 106.766C99.7892 99.8437 103.284 84.9583 103.253 72.0885C103.253 70.3906 100.607 70.3802 100.607 72.0885C100.638 82.6771 98.4142 94.8125 89.9402 102.062C82.4923 108.443 71.2319 109.828 62.185 106.458C57.409 104.682 52.7371 101.453 49.7319 97.3125C47.2319 93.875 46.0079 89.8281 45.3985 85.6666C45.06 83.3385 44.836 81.0364 44.4506 78.7239C43.9767 75.9114 43.7475 73.0573 43.9767 70.2239C44.3413 65.8646 45.81 60 49.7631 57.4687C56.1642 53.3646 66.6017 58.0052 69.2475 64.7396C69.7215 65.9271 71.3725 66.0521 71.7892 64.7396C74.159 57.4896 82.534 56.3854 89.1121 57.0468C96.6381 57.7968 100.143 65.2916 100.617 72.0885C100.737 73.776 103.383 73.7864 103.263 72.0885V72.0989Z" fill="#001834"/>
<path d="M118.424 61.7656C121.247 58.0833 125.476 60.2656 126.138 63.6145C126.653 66.2499 125.456 71.3072 119.659 71.3593" fill="#F2ADAD"/>
<path d="M119.362 62.6978C119.638 62.3593 119.924 62.026 120.263 61.7551C120.112 61.8749 120.331 61.7082 120.362 61.6874C120.45 61.6301 120.539 61.578 120.627 61.5207C120.695 61.4791 120.773 61.4426 120.846 61.4009C121.148 61.2239 120.648 61.4426 120.971 61.3437C121.159 61.2916 121.336 61.2447 121.523 61.1926C121.586 61.1822 121.773 61.1666 121.497 61.1926C121.575 61.1926 121.643 61.1822 121.721 61.1822C121.893 61.1822 122.081 61.1822 122.258 61.203C122.206 61.203 121.982 61.1457 122.226 61.203C122.325 61.2239 122.435 61.2447 122.534 61.2812C122.601 61.302 122.669 61.3228 122.742 61.3437C122.742 61.3437 123.075 61.4791 122.888 61.4009C122.7 61.3228 123.018 61.4687 123.018 61.4687C123.086 61.4999 123.153 61.5312 123.206 61.578C123.263 61.6197 123.325 61.651 123.393 61.6874C123.393 61.6874 123.68 61.8957 123.528 61.7759C123.372 61.6509 123.648 61.8853 123.648 61.8749C123.737 61.953 123.815 62.026 123.888 62.1041C123.945 62.1614 123.987 62.2134 124.044 62.2707C124.044 62.2707 124.273 62.5468 124.153 62.3905C124.034 62.2395 124.252 62.5364 124.252 62.5259C124.299 62.5884 124.341 62.6457 124.372 62.7134C124.461 62.8541 124.539 63.0103 124.617 63.1614C124.648 63.2291 124.726 63.4582 124.638 63.2187C124.685 63.328 124.716 63.4374 124.747 63.5468C124.794 63.6926 124.825 63.8489 124.862 63.9999C124.862 64.0572 124.883 64.1093 124.893 64.1666C124.945 64.4218 124.872 64.0572 124.883 64.0572C124.935 64.0676 124.924 64.6926 124.924 64.7603C124.924 65.0155 124.924 65.2655 124.893 65.5207C124.883 65.6874 124.836 65.8645 124.893 65.5885C124.862 65.7395 124.836 65.8957 124.805 66.052C124.747 66.302 124.685 66.5676 124.596 66.8124C124.549 66.9426 124.508 67.0624 124.45 67.1874C124.372 67.4062 124.461 67.151 124.487 67.1197C124.44 67.1978 124.409 67.2864 124.362 67.3593C124.232 67.6249 124.086 67.8801 123.924 68.1197C123.877 68.1874 123.836 68.2551 123.789 68.3072C123.815 68.276 123.976 68.0989 123.825 68.2655C123.716 68.3853 123.612 68.5051 123.502 68.6197C123.383 68.7499 123.242 68.8593 123.107 68.9791C122.867 69.1666 123.055 69.0364 123.107 68.9791C123.028 69.0364 122.94 69.1041 122.857 69.1562C122.711 69.2551 122.555 69.3437 122.403 69.4218C122.325 69.4687 121.862 69.677 122.127 69.5676C121.732 69.7291 121.31 69.8541 120.893 69.927C120.815 69.9374 120.726 69.9634 120.648 69.9739C120.351 70.026 120.773 69.9739 120.487 69.9947C120.2 70.0155 119.935 70.0416 119.659 70.0416C118.94 70.052 118.336 70.6353 118.336 71.3593C118.336 72.0884 118.94 72.6926 119.659 72.6822C121.622 72.651 123.513 72.0989 125.023 70.802C126.159 69.8176 126.94 68.4218 127.305 66.9739C127.638 65.677 127.7 64.2343 127.351 62.9218C126.831 61.026 125.398 59.4843 123.56 58.8124C121.31 57.9843 118.919 59.0207 117.497 60.828C117.06 61.3905 116.95 62.151 117.497 62.6978C117.961 63.1614 118.93 63.2603 119.372 62.6978H119.362Z" fill="#001834"/>
<path d="M70.6014 88.0573C70.0285 90.349 67.0181 93.5 64.5181 90.3906L70.6014 88.0573Z" fill="#F2E7D6"/>
<path d="M69.3254 87.7031C69.2889 87.8437 69.2472 87.9896 69.1899 88.1198C69.1691 88.1667 69.0702 88.4167 69.1691 88.1979C69.2681 87.9687 69.1379 88.2656 69.1118 88.3073C68.9816 88.5833 68.8254 88.8489 68.6639 89.0937C68.617 89.1458 68.5493 89.2135 68.5285 89.2812C68.6639 89.1146 68.6847 89.0937 68.5962 89.1927L68.5493 89.2448C68.4399 89.3802 68.3306 89.5 68.2108 89.6198C68.091 89.7396 67.966 89.8542 67.8462 89.9531C67.6587 90.1042 68.091 89.7864 67.8774 89.9271C67.8149 89.9739 67.7577 90.0156 67.6899 90.0521C67.5702 90.125 67.4399 90.1927 67.3045 90.2604C67.0754 90.3802 67.5806 90.1614 67.3618 90.2396C67.2941 90.2604 67.2316 90.2812 67.1639 90.3021C67.0858 90.3281 66.9972 90.3385 66.9191 90.3594C66.7993 90.3906 67.2837 90.3489 66.9972 90.3489C66.9295 90.3489 66.8566 90.3489 66.7889 90.3489C66.7577 90.3489 66.7212 90.3489 66.6795 90.3489C66.5337 90.3385 66.5806 90.3489 66.8097 90.3698C66.6795 90.3125 66.5129 90.3021 66.3827 90.2604C66.1274 90.1823 66.6431 90.401 66.4139 90.2604C66.3358 90.2135 66.2681 90.1823 66.1952 90.1406C66.1483 90.1042 66.0077 90.0521 65.9712 89.9948C66.117 90.1146 66.1379 90.125 66.0285 90.026L65.9608 89.9635C65.7837 89.7969 65.6222 89.6198 65.466 89.4323C65.0233 88.8906 64.0441 88.9375 63.591 89.4323C63.0754 90.0052 63.117 90.7344 63.591 91.3073C64.2212 92.0781 65.1014 92.7396 66.1066 92.9167C67.1066 93.0937 68.0441 92.9062 68.9035 92.4062C70.3462 91.5729 71.4712 89.9948 71.8879 88.3854C72.0649 87.7135 71.6691 86.9219 70.966 86.7552C70.2577 86.5885 69.5233 86.9635 69.3358 87.6823L69.3254 87.7031Z" fill="#001834"/>
<path d="M70.9556 88.3333C71.6795 90.6875 73.8202 93.0156 77.2212 91.052L70.9556 88.3333Z" fill="#F2E7D6"/>
<path d="M69.6745 88.6822C70.1484 90.1927 71.0547 91.6458 72.4401 92.4739C74.1849 93.4895 76.2005 93.1458 77.8828 92.1979C78.4922 91.8593 78.7422 90.9843 78.3567 90.3906C77.9713 89.7968 77.1901 89.552 76.5495 89.9166C76.3776 90.0156 76.1432 90.1927 75.9453 90.2239L76.0651 90.1718C76.0026 90.1927 75.9349 90.2239 75.8776 90.25C75.8047 90.2812 75.7265 90.302 75.6484 90.3281C75.4817 90.3802 75.3151 90.4114 75.1432 90.4479C74.8567 90.5104 75.4036 90.427 75.1432 90.4479C75.0547 90.4479 74.9765 90.4583 74.888 90.4583C74.7317 90.4583 74.5442 90.4114 74.4036 90.4375C74.5026 90.427 74.7005 90.4895 74.4817 90.4375C74.4036 90.4114 74.3255 90.401 74.2578 90.3802C74.1953 90.3593 74.138 90.3489 74.0807 90.3281C73.862 90.25 74.0182 90.2604 74.1172 90.3489C74.0182 90.2604 73.8411 90.2135 73.7213 90.1406C73.6536 90.0937 73.5963 90.0625 73.5338 90.0156C73.3463 89.8958 73.7109 90.1718 73.5859 90.0729C73.487 89.9739 73.3776 89.8958 73.2786 89.7968C73.1692 89.6875 73.0703 89.5781 72.9713 89.4635C72.7838 89.2552 73.1484 89.7187 72.9922 89.5C72.9505 89.4322 72.9036 89.3802 72.862 89.3125C72.7057 89.0781 72.5651 88.8385 72.4401 88.5833C72.4088 88.5208 72.388 88.4322 72.3411 88.375C72.5182 88.6406 72.4088 88.5312 72.362 88.4062C72.3099 88.2656 72.263 88.1197 72.2213 87.9791C72.013 87.3177 71.2942 86.8333 70.5911 87.052C69.8828 87.2708 69.4453 87.9687 69.664 88.6822H69.6745Z" fill="#001834"/>
<path d="M59.3723 74.4687C54.9296 71.3385 52.0025 77.776 55.1952 80.4844C56.5858 81.8385 58.5441 81.4219 59.5285 80.3646C60.5077 79.3073 61.2994 75.8229 59.3619 74.4583L59.3723 74.4687Z" fill="#001834"/>
<path d="M86.7682 74.4479C82.3359 71.5365 79.2421 77.8646 82.3463 80.5208C83.6796 81.8542 85.6744 81.3906 86.7005 80.3333C87.7265 79.2708 88.7057 75.7031 86.7786 74.4479H86.7682Z" fill="#001834"/>
<path d="M89.8514 90.4375C89.8514 90.4375 89.7212 90.3281 89.6951 90.3281C89.7837 90.3281 89.8514 90.4583 89.6951 90.3281C89.6222 90.2604 89.5545 90.2031 89.4764 90.1406C89.3983 90.0625 89.3202 89.9843 89.2472 89.9062C89.2212 89.8854 89.2004 89.8541 89.1795 89.8281C89.1587 89.8072 89.1379 89.776 89.1118 89.75C89.0493 89.677 89.0702 89.6979 89.1795 89.8385C89.1587 89.7291 88.9712 89.5312 88.9139 89.4218C88.9035 89.3906 88.8827 89.3541 88.8722 89.3229C88.8149 89.2239 88.9608 89.5885 88.9139 89.4218C88.8931 89.3333 88.8618 89.2552 88.8358 89.177C88.8358 89.1458 88.8254 89.1145 88.8149 89.0781C88.7837 88.9479 88.8722 89.0052 88.8254 89.1927C88.8358 89.1354 88.8149 89.0572 88.8149 89.0052C88.8149 88.927 88.8149 88.8593 88.8149 88.7812C88.8149 88.6302 88.7733 89.0364 88.7941 88.9166C88.7941 88.8697 88.8045 88.8281 88.8149 88.7812C88.8254 88.7187 88.8514 88.651 88.8722 88.5833C88.9139 88.4635 89.0337 88.3333 88.8618 88.5833C88.9504 88.4635 88.992 88.3072 89.0806 88.177C89.1118 88.1197 89.1691 88.0677 89.1899 88.0104C89.1014 88.2083 89.0597 88.177 89.1379 88.0885C89.1587 88.0677 89.1795 88.0312 89.2004 88.0104C89.3097 87.8906 89.4243 87.7812 89.5441 87.6718C89.6066 87.6145 89.6743 87.5572 89.742 87.5052C89.8097 87.4479 89.8618 87.4583 89.6431 87.5833C89.6743 87.5572 89.7108 87.526 89.7524 87.5052C89.8983 87.4062 90.0493 87.3072 90.2056 87.2187C90.3462 87.1302 90.5024 87.0625 90.6431 86.9843C90.6795 86.9739 90.7004 86.9635 90.7316 86.9531C90.8983 86.875 90.492 87.0416 90.6691 86.9843C90.7577 86.9531 90.8306 86.9218 90.9191 86.8854C91.2524 86.7656 91.591 86.6979 91.9347 86.6354C92.1118 86.5989 91.6691 86.6562 91.8462 86.6458C91.8774 86.6458 91.9035 86.6458 91.9347 86.6458C92.0233 86.6458 92.1118 86.6354 92.2004 86.625C92.3618 86.625 92.5285 86.625 92.6951 86.625C92.8149 86.625 93.0337 86.7239 92.7056 86.625C92.7733 86.6458 92.8514 86.6458 92.9139 86.6562C93.0806 86.6875 93.2368 86.7447 93.3879 86.7968C93.5441 86.8541 93.1483 86.6875 93.2993 86.7656C93.3358 86.776 93.367 86.7968 93.3879 86.8125C93.4556 86.8437 93.5233 86.875 93.5858 86.9218C93.6431 86.9531 93.6952 87 93.7524 87.0312C93.8931 87.1197 93.5545 86.8541 93.6743 86.9739C93.7212 87.0104 93.7629 87.0416 93.7941 87.0833C93.8514 87.1302 93.8931 87.1875 93.9399 87.2395C93.8826 87.1406 94.117 87.4375 93.9399 87.2395C94.0389 87.3958 94.1274 87.5468 94.2056 87.7031C94.2837 87.8593 94.1274 87.4583 94.1691 87.6354C94.1847 87.6822 94.2056 87.7239 94.216 87.7812C94.2368 87.8593 94.2577 87.9479 94.2837 88.0208C94.3045 88.1093 94.3149 88.1979 94.3358 88.2864C94.367 88.4739 94.3931 88.3072 94.3358 88.2447C94.3566 88.276 94.3566 88.4166 94.3566 88.4531C94.3566 88.5416 94.3566 88.6302 94.3566 88.7187C94.3566 88.7395 94.3566 88.8697 94.3462 88.8802C94.3931 88.8385 94.3931 88.6406 94.3462 88.8489C94.3045 89.0677 94.2368 89.2812 94.1691 89.4895C94.1066 89.6979 94.2681 89.2916 94.1691 89.4895C94.1379 89.5416 94.117 89.5989 94.0806 89.651C94.0285 89.7395 93.9712 89.8385 93.9191 89.9166C93.7837 90.1041 93.9087 89.9166 93.9191 89.9166C93.9191 89.9166 93.8306 90.026 93.8201 90.0416C93.7837 90.0729 93.742 90.1145 93.7108 90.151C93.6743 90.1822 93.6431 90.2031 93.6222 90.2395C93.5441 90.302 93.5545 90.2916 93.6743 90.1927C93.6743 90.1927 93.4347 90.3385 93.4087 90.3593C93.2212 90.4687 93.6222 90.302 93.4087 90.3593C93.3462 90.3802 93.2889 90.401 93.2212 90.4114C93.2212 90.4114 93.091 90.4479 93.091 90.4375C93.091 90.4479 93.3202 90.427 93.0806 90.4375C93.0024 90.4375 92.9347 90.4375 92.8618 90.4375C92.6379 90.4375 93.0233 90.4791 92.8149 90.4375C92.7368 90.4114 92.6483 90.401 92.5754 90.3802C92.5285 90.3697 92.4868 90.3593 92.4399 90.3385C92.341 90.302 92.3774 90.3125 92.5389 90.3802L92.2889 90.2239C92.3514 90.2031 92.4764 90.401 92.341 90.2604C92.3097 90.2239 92.2733 90.1822 92.242 90.151C92.1118 90.026 92.3618 90.3593 92.2733 90.1927C92.242 90.1406 92.2004 90.0833 92.1639 90.026C92.1535 89.9947 92.1327 89.9739 92.1222 89.9375C92.0024 89.7187 92.1639 90.1041 92.1222 89.9375C92.1014 89.8385 92.0545 89.75 92.0337 89.651C92.0233 89.6093 92.0129 89.552 92.0024 89.5C91.9556 89.3333 92.0129 89.776 92.0024 89.5104C92.0024 89.4114 92.0024 89.3125 92.0024 89.2135C92.0024 89.177 92.0233 89.1041 92.0129 89.0677C92.0545 89.2135 91.966 89.302 92.0129 89.1458C92.0337 89.0572 92.1118 88.927 92.1014 88.8385C92.1014 88.8593 91.9764 89.0677 92.0545 88.9583C92.091 88.9166 92.1222 88.8593 92.1431 88.8072C92.2212 88.6614 91.966 88.9791 92.091 88.8697C92.1222 88.8489 92.1535 88.8177 92.1743 88.7812C92.2889 88.6614 91.9556 88.9062 92.1118 88.8385C92.1431 88.8281 92.3202 88.7291 92.1431 88.8177C91.966 88.8906 92.1118 88.8385 92.1431 88.8177C92.3514 88.7291 91.9556 88.8072 92.1014 88.8177C92.1431 88.8177 92.2004 88.8177 92.242 88.8177C92.4087 88.8177 92.0129 88.7395 92.1899 88.8177C92.242 88.8385 92.2993 88.8489 92.3514 88.8593C92.617 88.9479 92.242 88.8072 92.4191 88.8802C92.8931 89.1041 93.5076 89.0364 93.7733 88.5312C94.0076 88.0885 93.9191 87.4062 93.4243 87.1718C92.8254 86.901 92.1327 86.7135 91.492 86.9531C90.8566 87.1979 90.4347 87.6718 90.1951 88.3072C89.7837 89.3645 90.0806 90.677 90.8201 91.526C91.7472 92.5937 93.5962 92.6927 94.7108 91.8802C95.7681 91.1197 96.4295 89.75 96.3514 88.4427C96.2993 87.4166 95.9347 86.3593 95.1639 85.651C94.4556 85.0052 93.5545 84.6927 92.617 84.6406C90.9087 84.5312 88.992 85.302 87.8358 86.5572C87.2316 87.2187 86.7993 88.0468 86.7993 88.9583C86.7993 89.9531 87.3149 90.8645 88.0337 91.526C88.2733 91.7447 88.5285 91.9479 88.7941 92.1302C89.2108 92.4322 89.9191 92.2187 90.1483 91.7812C90.4243 91.2708 90.2472 90.7447 89.7941 90.427L89.8514 90.4375Z" fill="#F2ADAD"/>
<path d="M49.9403 89.7656C49.9403 89.7656 49.8101 89.651 49.784 89.651C49.8726 89.651 49.9403 89.7864 49.784 89.651C49.7111 89.5885 49.6434 89.5312 49.5653 89.4635C49.4871 89.3906 49.409 89.3125 49.3361 89.2343C49.3101 89.2135 49.2892 89.177 49.2684 89.1562C49.2476 89.1354 49.2267 89.1041 49.2007 89.0781C49.1382 89.0052 49.159 89.026 49.2684 89.1666C49.2476 89.0572 49.0601 88.8593 49.0028 88.75C48.9924 88.7187 48.9715 88.6822 48.9611 88.651C48.9038 88.552 49.0496 88.9166 49.0028 88.75C48.9819 88.6614 48.9507 88.5833 48.9246 88.5052C48.9246 88.4739 48.9142 88.4427 48.9038 88.4062C48.8726 88.276 48.9611 88.3333 48.9142 88.5208C48.9246 88.4635 48.9038 88.3854 48.9038 88.3333C48.9038 88.2552 48.9038 88.1875 48.9038 88.1093C48.9038 87.9583 48.8621 88.3645 48.883 88.2447C48.883 88.1979 48.8934 88.1562 48.9038 88.1093C48.9142 88.0468 48.9351 87.9791 48.9611 87.9114C49.0028 87.7916 49.1226 87.6614 48.9507 87.9114C49.0392 87.7916 49.0809 87.6354 49.1694 87.5052C49.2007 87.4479 49.258 87.3958 49.2788 87.3385C49.1903 87.5364 49.1486 87.5052 49.2267 87.4166C49.2476 87.3958 49.2684 87.3593 49.2892 87.3385C49.3986 87.2187 49.5132 87.1093 49.633 87C49.6955 86.9427 49.7632 86.8854 49.8309 86.8333C49.8986 86.776 49.9507 86.7864 49.7319 86.9114C49.7632 86.8854 49.7996 86.8541 49.8413 86.8333C49.9819 86.7343 50.1382 86.6354 50.2944 86.5468C50.4351 86.4583 50.5913 86.3906 50.7319 86.3125C50.7684 86.302 50.7892 86.2916 50.8205 86.2812C50.9871 86.2031 50.5809 86.3697 50.758 86.3125C50.8465 86.2812 50.9194 86.25 51.008 86.2135C51.3413 86.0937 51.6798 86.026 52.0236 85.9635C52.2007 85.927 51.758 85.9843 51.9351 85.9739C51.9663 85.9739 51.9923 85.9739 52.0236 85.9739C52.1121 85.9739 52.2007 85.9635 52.2892 85.9531C52.4507 85.9531 52.6174 85.9531 52.784 85.9531C52.9038 85.9531 53.1226 86.052 52.7944 85.9531C52.8621 85.9739 52.9351 85.9739 53.0028 85.9843C53.1694 86.0156 53.3257 86.0729 53.4767 86.125C53.633 86.1822 53.2371 86.0156 53.3882 86.0937C53.4246 86.1041 53.4559 86.125 53.4767 86.1406C53.5444 86.1718 53.6121 86.2031 53.6746 86.25C53.7319 86.2812 53.784 86.3281 53.8413 86.3593C53.9819 86.4479 53.6434 86.1822 53.7632 86.302C53.8101 86.3385 53.8517 86.3697 53.883 86.4114C53.9403 86.4583 53.9819 86.5104 54.0288 86.5677C53.9715 86.4687 54.2059 86.7656 54.0288 86.5677C54.1278 86.7239 54.2163 86.875 54.2944 87.0312C54.3726 87.1875 54.2163 86.7864 54.258 86.9635C54.2684 87.0104 54.2944 87.052 54.3049 87.1093C54.3257 87.1875 54.3465 87.2708 54.3726 87.3489C54.3934 87.4375 54.4038 87.526 54.4246 87.6145C54.4559 87.802 54.4819 87.6354 54.4246 87.5729C54.4455 87.6041 54.4455 87.7447 54.4455 87.7812C54.4455 87.8697 54.4455 87.9583 54.4455 88.0468C54.4455 88.0677 54.4455 88.1979 54.4351 88.2083C54.4819 88.1666 54.4819 87.9687 54.4351 88.177C54.3934 88.3958 54.3257 88.6041 54.258 88.8177C54.1955 89.026 54.3569 88.6197 54.258 88.8177C54.2267 88.8697 54.2059 88.927 54.1694 88.9791C54.1174 89.0677 54.0601 89.1666 54.008 89.2447C53.8726 89.4322 53.9976 89.2447 54.008 89.2447C54.008 89.2447 53.9194 89.3541 53.909 89.3645C53.8726 89.401 53.8309 89.4427 53.7996 89.4791C53.7632 89.5104 53.7319 89.5312 53.7111 89.5677C53.633 89.6302 53.6434 89.6197 53.7632 89.5208C53.7632 89.5208 53.5236 89.6666 53.4976 89.6875C53.3101 89.7968 53.7111 89.6302 53.4976 89.6875C53.4351 89.7083 53.3778 89.7291 53.3101 89.7395C53.3101 89.7395 53.1799 89.776 53.1799 89.7656C53.1799 89.776 53.409 89.75 53.1694 89.7656C53.0913 89.7656 53.0236 89.7656 52.9507 89.7656C52.7267 89.7656 53.1121 89.8072 52.9038 89.7656C52.8257 89.7395 52.7371 89.7291 52.6642 89.7083C52.6174 89.6979 52.5757 89.6875 52.5288 89.6666C52.4299 89.6302 52.4663 89.6406 52.6278 89.7083L52.3778 89.552C52.4403 89.5312 52.5653 89.7291 52.4299 89.5885C52.3986 89.552 52.3621 89.5104 52.3309 89.4791C52.2007 89.3541 52.4507 89.6875 52.3621 89.5208C52.3309 89.4635 52.2892 89.4114 52.2528 89.3541C52.2424 89.3229 52.2215 89.302 52.2111 89.2656C52.0913 89.0468 52.2528 89.4322 52.2111 89.2656C52.1903 89.1666 52.1434 89.0781 52.1226 88.9791C52.1121 88.9375 52.1017 88.8802 52.0913 88.8281C52.0444 88.6614 52.1017 89.1041 52.0913 88.8385C52.0913 88.7395 52.0913 88.6406 52.0913 88.5416C52.0913 88.5052 52.1121 88.4322 52.1017 88.3958C52.1434 88.5416 52.0549 88.6302 52.1017 88.4739C52.1226 88.3854 52.2007 88.2552 52.1903 88.1666C52.1903 88.1875 52.0653 88.3958 52.1434 88.2864C52.1799 88.2447 52.2111 88.1875 52.2319 88.1302C52.3101 87.9895 52.0549 88.3072 52.1799 88.1979C52.2111 88.177 52.2424 88.1458 52.2632 88.1093C52.3778 87.9895 52.0444 88.2343 52.2007 88.1666C52.2319 88.1562 52.409 88.0572 52.2319 88.1458C52.0548 88.2187 52.2007 88.1666 52.2319 88.1458C52.4403 88.0572 52.0444 88.1302 52.1903 88.1458C52.2319 88.1458 52.2892 88.1458 52.3309 88.1458C52.4976 88.1458 52.1017 88.0677 52.2788 88.1458C52.3309 88.1666 52.3882 88.177 52.4403 88.1875C52.7059 88.276 52.3309 88.1302 52.508 88.2083C52.9819 88.4322 53.5965 88.3645 53.8621 87.8593C54.0965 87.4166 54.008 86.7343 53.5132 86.5C52.9142 86.2239 52.2215 86.0416 51.5809 86.2812C50.9455 86.526 50.5236 87 50.284 87.6354C49.8726 88.6927 50.1694 90.0052 50.909 90.8541C51.8361 91.9218 53.6851 92.0208 54.7996 91.2083C55.8569 90.4479 56.5184 89.0781 56.4403 87.7708C56.3882 86.7447 56.0236 85.6875 55.2528 84.9791C54.5444 84.3333 53.6434 84.0208 52.7059 83.9687C50.9976 83.8593 49.0809 84.6302 47.9246 85.8854C47.3153 86.5468 46.8882 87.375 46.8882 88.2864C46.8882 89.2812 47.4038 90.1927 48.1226 90.8541C48.3621 91.0729 48.6173 91.2708 48.883 91.4583C49.2996 91.7604 50.008 91.5468 50.2371 91.1093C50.5132 90.5989 50.3361 90.0729 49.883 89.75L49.9403 89.7656Z" fill="#F2ADAD"/>
</svg>
