<svg width="150" height="150" viewBox="0 0 150 150" fill="none" xmlns="http://www.w3.org/2000/svg">
<path d="M78.3059 120.949C82.5991 121.674 86.8652 122.838 90.9452 124.378C92.0072 124.781 92.4701 123.073 91.4172 122.67C87.3372 121.125 83.0802 119.966 78.7778 119.236C77.6659 119.05 77.1803 120.749 78.3059 120.949Z" fill="#001834"/>
<mask id="mask0_195_11400" style="mask-type:luminance" maskUnits="userSpaceOnUse" x="50" y="117" width="15" height="9">
<path d="M50.9668 117.941H64.9086V126H50.9668V117.941Z" fill="white"/>
</mask>
<g mask="url(#mask0_195_11400)">
<path d="M52.4735 125.108C53.9712 124.152 55.5006 123.25 57.1118 122.494C59.154 121.529 61.3007 120.831 63.5063 120.328C64.6227 120.074 64.1462 118.371 63.0343 118.616C58.8953 119.553 55.1421 121.311 51.5886 123.572C50.631 124.183 51.5205 125.719 52.4826 125.098L52.4735 125.108Z" fill="#001834"/>
</g>
<path d="M41.8268 62.6208C32.4778 60.8903 27.3131 49.347 29.2556 41.1064C31.1934 32.8657 36.7439 27.2799 45.5574 26.4735C64.7864 24.7021 67.2507 41.2649 63.2116 53.3609C69.3611 51.9429 77.0944 52.6496 83.902 53.5647C78.8463 35.4027 97.3083 22.8039 113.633 32.5803C122.696 38.0076 121.888 50.2893 118.92 56.0745C115.956 61.8552 109.108 64.2336 104.511 66.6075C105.405 70.7573 105.85 75.949 105.187 80.7059C104.529 85.4672 103.644 89.3316 101.742 93.6172C98.3113 101.35 93.2783 111.34 86.3527 116.699C82.6585 119.562 75.9009 124.106 70.9858 123.866C64.7592 123.563 59.1135 117.741 54.6432 113.777C45.6481 105.786 41.019 98.7138 39.7256 86.4684C38.6727 76.4609 39.2263 70.3405 42.494 61.1394" fill="#BEBEBE"/>
<mask id="mask1_195_11400" style="mask-type:luminance" maskUnits="userSpaceOnUse" x="27" y="24" width="96" height="102">
<path d="M27 24H123V126H27V24Z" fill="white"/>
</mask>
<g mask="url(#mask1_195_11400)">
<path d="M42.14 61.4838C36.0041 60.2742 31.9241 54.7835 30.5354 48.962C29.1466 43.1406 30.8984 36.5127 35.1645 32.2452C39.5803 27.8009 46.7691 26.6502 52.7416 27.9595C57.5795 29.0196 61.2329 32.2633 62.7396 36.9839C64.4052 42.1801 63.7653 47.9427 62.0815 53.0438C61.782 53.9408 62.6988 54.6748 63.5383 54.4981C70.1871 53.0257 77.2306 53.8593 83.9111 54.7472C84.6962 54.856 85.2317 53.9091 85.0547 53.2522C83.5344 47.6573 84.1652 41.5686 87.8504 36.925C91.2087 32.6891 96.4823 30.356 101.86 30.356C107.683 30.356 114.45 32.9157 117.554 38.0757C120.241 42.5516 120.372 48.3731 118.816 53.2613C116.637 60.1157 109.789 62.5937 103.93 65.5928C103.444 65.8374 103.276 66.4264 103.385 66.9292C104.538 72.4064 104.588 77.9243 103.594 83.4332C102.686 88.4256 100.866 93.0012 98.6562 97.5542C96.5413 101.917 94.1768 106.225 91.2087 110.071C88.4993 113.582 85.2 116.364 81.4649 118.733C77.7843 121.076 73.3503 123.554 68.8573 122.326C64.3643 121.094 60.4523 117.406 56.9759 114.253C53.6946 111.272 50.3862 108.309 47.7267 104.739C45.2805 101.468 43.4606 97.8169 42.3487 93.8846C40.8601 88.643 40.3882 82.9892 40.4653 77.5483C40.5425 72.1119 41.8268 66.6665 43.6694 61.443C44.1686 60.0069 41.8949 59.3863 41.3911 60.8133C39.6484 65.7514 38.3958 70.8027 38.1507 76.0578C37.9057 81.3085 38.3277 86.8128 39.4306 91.9773C40.3473 96.263 41.9811 100.395 44.3865 104.082C46.9098 107.947 50.1275 111.281 53.5494 114.348C57.3117 117.723 61.0332 121.547 65.6941 123.662C67.8316 124.636 70.178 125.257 72.5425 124.981C74.9069 124.704 77.0354 123.839 79.0913 122.806C83.1985 120.749 87.2377 117.968 90.4009 114.633C93.9 110.955 96.6276 106.569 98.992 102.107C101.779 96.8429 104.361 91.3748 105.582 85.5262C106.934 79.1158 107.011 72.7145 105.663 66.2995L105.119 67.636C111.041 64.6097 117.799 62.0229 120.536 55.4223C122.723 50.1444 122.796 43.6842 120.418 38.4517C117.581 32.218 110.715 28.8338 104.157 28.1271C98.0481 27.4657 91.7216 29.5225 87.3965 33.9169C82.1683 39.2264 80.884 46.86 82.7855 53.891L83.9292 52.396C77.0218 51.4718 69.8149 50.7062 62.9347 52.2284L64.3961 53.6826C67.6728 43.7205 66.6517 29.8849 55.0153 26.1292C48.5118 24.0362 40.2974 25.0284 34.9194 29.2959C29.6867 33.4457 26.9909 40.7803 27.8441 47.3402C28.8199 54.7472 33.7939 62.2404 41.5091 63.7626C42.9977 64.057 43.6285 61.7873 42.14 61.4929V61.4838Z" fill="#001834"/>
</g>
<path d="M47.9034 56.5729C44.7901 53.968 41.0278 47.2903 42.6934 43.29C43.8053 40.6126 48.0804 38.8548 50.6037 40.3181C55.8637 43.367 54.1664 49.9179 55.2601 54.8831C53.0454 54.6883 49.4011 55.327 47.6266 57.1346" fill="#F2ADAD"/>
<path d="M48.7384 55.7393C46.8776 54.1446 45.4481 51.9837 44.4723 49.7502C43.6554 47.8611 42.7976 45.0885 44.082 43.1903C45.1939 41.5368 47.9305 40.3589 49.8321 41.2332C52.0695 42.2661 52.9863 44.7034 53.3221 46.9777C53.726 49.7004 53.549 52.4729 54.1209 55.1866L55.26 53.6916C52.3736 53.4651 48.9063 54.2126 46.7914 56.301C45.7067 57.3611 47.3723 59.0328 48.4661 57.9727C50.1498 56.3192 53.0044 55.8843 55.2736 56.0655C56.0814 56.1244 56.5625 55.2681 56.4127 54.5705C55.2918 49.3062 56.8893 42.1891 51.0348 39.2082C48.3753 37.8491 44.8671 38.9409 42.8703 40.9795C40.769 43.1133 40.828 46.2075 41.6676 48.903C42.6433 52.0607 44.5449 55.2455 47.0773 57.411C48.2301 58.3941 49.9047 56.7314 48.752 55.7393H48.7384Z" fill="#001834"/>
<path d="M93.2962 56.7043C92.6382 49.9088 100.412 37.233 106.507 45.8451C110.242 51.1184 103.349 56.9398 100.471 60.2832C98.6061 57.411 95.9194 56.2195 93.2009 56.446" fill="#F2ADAD"/>
<path d="M94.4811 56.7043C94.2859 54.4528 94.885 52.1604 95.829 50.1037C96.7775 48.0469 98.0755 45.9856 99.918 44.8213C100.708 44.323 101.357 44.0965 102.242 44.1327C102.401 44.1327 103.022 44.3003 103.249 44.4091C103.762 44.6582 104.202 44.9889 104.597 45.3921C105.505 46.2982 106.294 47.4398 106.399 48.7491C106.508 50.0538 106.068 51.2136 105.487 52.2963C104.007 55.0417 101.661 57.1257 99.6412 59.4542L101.493 59.6943C99.623 56.881 96.6686 55.0327 93.2103 55.2682C91.7036 55.377 91.6945 57.7372 93.2103 57.6285C95.829 57.4382 98.0165 58.7203 99.4551 60.8813C99.85 61.4702 100.785 61.7285 101.307 61.1169C103.376 58.7294 105.741 56.573 107.338 53.8095C108.137 52.4232 108.736 50.8693 108.777 49.2565C108.813 47.4806 108.087 45.9041 106.993 44.5359C105.319 42.4429 102.705 41.1155 100.045 42.1303C97.5036 43.1043 95.652 45.4057 94.3812 47.7253C92.9153 50.3891 91.8398 53.6237 92.1166 56.7043C92.2527 58.2084 94.6172 58.2175 94.4811 56.7043Z" fill="#001834"/>
<path d="M69.1522 120.26C69.1522 120.26 69.075 120.16 69.0342 120.12C68.8754 119.943 69.1522 120.296 69.066 120.16C69.007 120.061 68.9344 119.966 68.8754 119.866C68.8481 119.807 68.6984 119.49 68.7891 119.707C68.8754 119.925 68.7574 119.599 68.7392 119.531C68.7301 119.49 68.7211 119.445 68.7074 119.404C68.6621 119.218 68.7301 119.445 68.7211 119.522C68.7211 119.431 68.7074 119.336 68.7074 119.245C68.7074 119.209 68.7074 119.159 68.7074 119.118C68.7074 118.96 68.6484 119.431 68.6893 119.245C68.7074 119.159 68.7301 119.069 68.7483 118.992C68.7574 118.951 68.7801 118.91 68.7891 118.874C68.8481 118.697 68.6711 119.118 68.7392 118.983C68.7801 118.901 68.8164 118.824 68.8663 118.747C68.9162 118.665 68.9661 118.607 69.016 118.529C69.0342 118.498 68.8164 118.765 68.948 118.616C68.9752 118.579 69.016 118.539 69.0433 118.498C69.1023 118.43 69.1704 118.371 69.243 118.303C69.2883 118.253 69.5561 118.045 69.3791 118.185C69.2021 118.321 69.4699 118.126 69.5153 118.086C69.606 118.027 69.6923 117.968 69.783 117.918C69.96 117.809 70.1461 117.732 70.3367 117.642C70.373 117.623 70.0599 117.75 70.255 117.682C70.3049 117.664 70.3549 117.642 70.3957 117.623C70.491 117.583 70.5999 117.555 70.7089 117.515C70.904 117.456 71.1128 117.406 71.3215 117.37C71.3669 117.37 71.4168 117.347 71.4668 117.338C71.5167 117.329 71.7255 117.297 71.4985 117.338C71.2716 117.379 71.6256 117.329 71.6937 117.32C71.8934 117.311 72.0976 117.297 72.3064 117.32C72.3744 117.32 72.7012 117.356 72.4607 117.329C72.2247 117.297 72.5605 117.347 72.6286 117.37C72.7194 117.388 72.8056 117.406 72.8963 117.438C73.0552 117.488 73.2322 117.596 72.9372 117.438C73.0915 117.515 73.2413 117.623 73.4001 117.7C73.3411 117.673 73.1641 117.506 73.3093 117.632C73.3411 117.664 73.3683 117.691 73.4092 117.723C73.4591 117.773 73.6543 118.009 73.5181 117.832C73.3774 117.655 73.5544 117.891 73.5862 117.95C73.6043 117.986 73.627 118.027 73.6452 118.067C73.7541 118.253 73.5771 117.868 73.6134 117.986C73.6452 118.076 73.6724 118.163 73.7042 118.262C73.7133 118.312 73.7223 118.362 73.7314 118.412C73.7314 118.43 73.7314 118.448 73.745 118.48C73.7813 118.647 73.7223 118.212 73.7223 118.344C73.7223 118.579 73.7541 118.815 73.7223 119.05C73.7223 119.1 73.6951 119.336 73.7223 119.118C73.7541 118.901 73.7223 119.159 73.7042 119.195C73.6724 119.354 73.6452 119.513 73.5953 119.671C73.5771 119.739 73.4682 119.993 73.5862 119.748C73.5544 119.816 73.5181 119.884 73.4773 119.957C73.4273 120.043 73.3593 120.12 73.3093 120.219C73.3093 120.219 73.45 120.074 73.3593 120.151C73.3093 120.192 73.2821 120.251 73.2322 120.287C73.1823 120.346 73.1233 120.396 73.0643 120.446C72.9145 120.582 73.1051 120.428 73.1142 120.419C73.0915 120.446 73.0143 120.487 72.9826 120.505C72.9236 120.545 72.8555 120.582 72.7874 120.622C72.7874 120.622 72.6694 120.69 72.6513 120.69C72.7012 120.713 72.8646 120.613 72.6694 120.681C72.5787 120.713 72.5015 120.74 72.4153 120.763C72.3835 120.763 72.3336 120.763 72.3064 120.781C72.1884 120.831 72.4153 120.772 72.4017 120.781C72.2837 120.84 71.9024 120.822 71.7708 120.781C71.7844 120.781 71.9705 120.84 71.8616 120.781C71.8344 120.763 71.7708 120.763 71.7436 120.749C71.6347 120.722 71.5258 120.69 71.4168 120.654C71.2217 120.582 71.5348 120.722 71.3578 120.622C71.2489 120.564 71.1445 120.505 71.0356 120.437C70.9857 120.396 70.9267 120.369 70.8768 120.328C70.9176 120.36 71.0265 120.455 70.8677 120.319C70.8087 120.269 70.7497 120.21 70.6907 120.16C70.5591 120.043 70.4411 119.925 70.3231 119.798C70.2868 119.757 70.2459 119.707 70.2051 119.671C70.0281 119.472 70.2868 119.798 70.2051 119.68C70.1461 119.59 70.078 119.504 70.019 119.404C69.9918 119.354 69.9691 119.304 69.9419 119.254C69.8511 119.1 69.9782 119.313 69.9918 119.372C69.9918 119.295 69.9419 119.177 69.9101 119.109C69.8738 119.001 69.9101 119.372 69.9328 119.277C69.9328 119.245 69.9328 119.195 69.9328 119.168C69.9192 118.983 69.9328 119.286 69.901 119.327C69.9192 119.304 69.9192 119.245 69.9328 119.218C70.0009 118.983 69.8148 119.49 69.9101 119.277C69.9192 119.245 69.951 119.227 69.96 119.195C69.9328 119.268 69.7422 119.422 69.892 119.304C69.9101 119.286 69.9328 119.268 69.951 119.245C70.0599 119.118 69.8012 119.354 69.833 119.336C69.892 119.304 69.96 119.254 70.019 119.218C70.0508 119.195 70.0871 119.186 70.1189 119.168C70.1869 119.127 69.8012 119.286 69.9918 119.227C70.0689 119.195 70.137 119.177 70.2187 119.159C70.2959 119.137 70.3639 119.127 70.4411 119.109C70.6408 119.069 70.3639 119.127 70.3049 119.127C70.3549 119.127 70.3957 119.118 70.4411 119.118C70.609 119.109 70.7769 119.109 70.9358 119.118C70.9766 119.118 71.0129 119.118 71.0538 119.127C71.1899 119.127 70.727 119.069 70.9176 119.109C70.9948 119.127 71.0719 119.137 71.1536 119.159C71.2217 119.177 71.2898 119.209 71.3578 119.227C71.5348 119.277 71.1899 119.15 71.2308 119.168C71.2716 119.186 71.2988 119.195 71.3397 119.218C71.3987 119.245 71.4486 119.295 71.5076 119.327C71.2898 119.218 71.3079 119.186 71.4577 119.304C71.5757 119.395 71.3578 119.177 71.3578 119.177C71.3578 119.195 71.3987 119.236 71.4078 119.254C71.5076 119.463 71.3306 118.951 71.3805 119.195C71.4168 119.404 71.3578 118.842 71.3669 119.118C71.3669 119.15 71.3578 119.186 71.3669 119.218C71.3669 119.218 71.4395 118.91 71.3987 119.019C71.3987 119.041 71.3987 119.06 71.3896 119.078C71.3805 119.118 71.3578 119.15 71.3578 119.186C71.3215 119.363 71.4758 118.96 71.4078 119.078C71.3578 119.168 71.3215 119.254 71.2625 119.345C71.2308 119.386 71.1899 119.431 71.1718 119.472C71.1718 119.472 71.3578 119.245 71.2489 119.363C71.2308 119.386 71.2217 119.404 71.2035 119.422C71.1128 119.531 71.0129 119.63 70.9176 119.73L72.6286 119.943C72.5923 119.875 72.5605 119.807 72.5197 119.739C72.4516 119.599 72.6104 120.002 72.5197 119.739C72.5015 119.68 72.4834 119.621 72.4743 119.562C72.4743 119.531 72.4607 119.504 72.4516 119.481C72.4017 119.313 72.4743 119.599 72.4743 119.63C72.4743 119.59 72.4743 119.513 72.4743 119.472C72.4516 119.277 72.4743 119.562 72.4516 119.599C72.4607 119.581 72.4834 119.513 72.4834 119.481C72.4834 119.54 72.3336 119.757 72.4425 119.59C72.4834 119.54 72.2156 119.848 72.3563 119.707C72.4924 119.571 72.1974 119.807 72.2383 119.798C72.2655 119.789 72.3154 119.757 72.3427 119.739C72.4334 119.671 72.0204 119.834 72.2383 119.789C72.2746 119.789 72.3154 119.766 72.3563 119.757C72.5696 119.689 72.1384 119.766 72.2383 119.766C72.3336 119.766 72.4334 119.757 72.5424 119.766C72.5923 119.766 72.6286 119.766 72.6785 119.775C72.8373 119.775 72.3427 119.716 72.5696 119.766C72.6785 119.789 72.7874 119.807 72.8963 119.848C72.9962 119.875 73.0824 119.916 73.1732 119.943C73.2912 119.984 72.8873 119.807 73.0824 119.907C73.1323 119.934 73.1913 119.957 73.2413 119.984C73.3184 120.034 73.4001 120.083 73.4773 120.133C73.5771 120.192 73.2413 119.925 73.3865 120.061C73.4273 120.102 73.4682 120.142 73.4954 120.169C73.6361 120.296 73.4364 120.142 73.4183 120.061C73.4183 120.092 73.4682 120.133 73.4773 120.16C73.5771 120.337 73.4273 120.043 73.4273 120.043C73.4364 120.074 73.4364 120.133 73.4591 120.16C73.3502 119.975 73.4364 119.848 73.4273 120.034C73.4273 120.151 73.509 119.689 73.4273 119.907C73.3865 120.034 73.5771 119.59 73.4682 119.798C73.4591 119.816 73.4364 119.834 73.4364 119.857C73.3774 119.993 73.509 119.748 73.5363 119.739C73.4954 119.757 73.4364 119.848 73.4001 119.875C73.3774 119.893 73.3502 119.916 73.3411 119.934C73.2231 120.061 73.568 119.789 73.4183 119.875C73.2685 119.966 73.1051 120.074 72.9463 120.151C72.4334 120.405 72.2474 121.166 72.5514 121.637C72.8873 122.158 73.4954 122.294 74.04 122.031C74.8161 121.646 75.574 120.976 75.6058 120.052C75.6239 119.268 75.1338 118.647 74.512 118.221C73.4863 117.524 71.7436 117.261 70.786 118.221C70.0009 119.019 70.2868 120.192 70.7497 121.066C71.0855 121.696 71.9796 121.755 72.4607 121.284C73.2912 120.464 74.0173 119.177 73.2413 118.076C72.6422 117.22 71.5167 116.908 70.5137 116.967C69.4381 117.034 68.2854 117.488 67.8905 118.579C67.4276 119.875 68.4714 121.184 69.42 121.959C70.3821 122.747 71.5485 123.141 72.7874 122.933C73.8131 122.765 74.7298 122.099 75.279 121.225C75.7237 120.514 75.9098 119.599 75.9189 118.774C75.9189 118.135 75.7918 117.506 75.4878 116.944C74.3849 114.901 71.5167 114.892 69.6242 115.657C68.5804 116.079 67.5955 116.708 66.9965 117.691C66.3656 118.724 66.4019 119.975 66.9965 121.008C67.1644 121.311 67.3913 121.587 67.6137 121.841C67.9904 122.276 70.5409 123.191 70.9267 122.779C71.3488 122.326 69.5561 120.763 69.1522 120.296V120.26Z" fill="#001834"/>
<path d="M49.0062 120.169C50.5538 119.404 52.2875 118.883 53.9621 118.421C56.6988 117.673 59.5171 117.193 62.3626 117.261C63.5063 117.288 63.5063 115.521 62.3626 115.49C59.3719 115.422 56.3675 115.925 53.4901 116.708C51.6657 117.211 49.805 117.791 48.1076 118.638C47.0865 119.15 47.9806 120.672 49.0062 120.16V120.169Z" fill="#001834"/>
<path d="M79.3861 117.691C84.1378 117.202 89.1618 117.555 93.8408 118.489C94.9527 118.715 95.4338 117.003 94.3128 116.776C89.484 115.816 84.3057 115.422 79.3861 115.925C78.2652 116.042 78.2561 117.809 79.3861 117.691Z" fill="#001834"/>
<path d="M60.974 94.0114C56.8486 90.6499 54.829 98.1023 57.8244 100.612C59.1314 101.89 60.8106 101.26 61.5776 100.091C62.3537 98.8996 62.6804 95.3977 60.9876 94.0114H60.974Z" fill="#001834"/>
<path d="M85.9214 94.179C82.1773 90.4822 79.359 97.7217 82.0684 100.472C83.2302 101.849 84.9638 101.378 85.8624 100.277C86.7565 99.1759 87.4645 95.7057 85.9305 94.179H85.9214Z" fill="#001834"/>
<path d="M86.0667 111.036C85.9306 110.919 85.8035 110.801 85.6855 110.66C85.6537 110.633 85.6219 110.601 85.6038 110.565C85.5448 110.493 85.5357 110.416 85.6446 110.61C85.6038 110.533 85.5357 110.466 85.4858 110.384C85.4449 110.325 85.4086 110.257 85.3769 110.198C85.3587 110.171 85.3496 110.13 85.327 110.099C85.2589 109.972 85.4086 110.325 85.3678 110.189C85.327 110.053 85.2816 109.922 85.2498 109.777C85.209 109.578 85.268 110.04 85.2498 109.795C85.2498 109.736 85.2498 109.668 85.2498 109.609C85.2498 109.55 85.2498 109.491 85.2589 109.424C85.2589 109.283 85.218 109.677 85.2407 109.541C85.2407 109.501 85.2498 109.46 85.2589 109.424C85.2816 109.315 85.3179 109.206 85.3587 109.097C85.445 108.871 85.268 109.283 85.3587 109.106C85.386 109.038 85.4177 108.98 85.4586 108.912C85.5176 108.803 85.5947 108.703 85.6628 108.594C85.4858 108.871 85.6038 108.676 85.6628 108.594C85.7127 108.536 85.7626 108.486 85.8126 108.427C85.8988 108.341 85.9986 108.25 86.0985 108.164C85.8988 108.309 86.2437 108.037 86.0985 108.164C86.1575 108.114 86.2255 108.074 86.2845 108.037C86.3935 107.965 86.5115 107.897 86.6204 107.838C86.6794 107.811 86.7384 107.779 86.7974 107.761C86.9063 107.711 86.6567 107.82 86.6794 107.811C86.7157 107.802 86.7565 107.779 86.7974 107.761C86.9154 107.72 87.0334 107.679 87.1605 107.652C87.2195 107.634 87.2784 107.62 87.3465 107.611C87.3783 107.611 87.4055 107.602 87.4373 107.593C87.5734 107.562 87.1605 107.62 87.3601 107.602C87.4781 107.593 87.5961 107.584 87.7232 107.584C87.7822 107.584 87.8412 107.584 87.9002 107.593C87.9774 107.593 88.0772 107.643 87.7822 107.575C87.8231 107.575 87.8594 107.584 87.9002 107.593C88.0182 107.611 88.118 107.652 88.236 107.693C88.3631 107.729 88.0091 107.584 88.1271 107.652C88.1544 107.661 88.177 107.679 88.2043 107.693C88.2633 107.72 88.3223 107.761 88.3813 107.802C88.5719 107.929 88.2451 107.67 88.354 107.779C88.3903 107.82 88.4312 107.847 88.472 107.888C88.5083 107.929 88.5492 107.978 88.5991 108.024C88.699 108.132 88.463 107.829 88.5401 107.947C88.5583 107.987 88.59 108.015 88.6082 108.055C88.649 108.114 88.6763 108.173 88.708 108.232C88.7262 108.264 88.7353 108.291 88.758 108.332C88.7943 108.409 88.7761 108.486 88.7262 108.25C88.767 108.418 88.8351 108.576 88.876 108.735C88.8941 108.821 88.9032 108.903 88.9259 108.989C88.9531 109.165 88.9032 108.753 88.9259 108.93C88.9259 108.98 88.935 109.029 88.935 109.07C88.944 109.247 88.935 109.424 88.9259 109.609C88.9123 109.795 88.9622 109.383 88.9259 109.55C88.9259 109.6 88.9032 109.636 88.8941 109.686C88.876 109.777 88.8533 109.877 88.826 109.963C88.8079 110.04 88.7761 110.112 88.758 110.189C88.7353 110.23 88.7171 110.28 88.708 110.316C88.7353 110.257 88.7943 110.053 88.708 110.316C88.6672 110.398 88.6173 110.484 88.5719 110.552C88.5492 110.592 88.5083 110.624 88.4902 110.66C88.5991 110.456 88.5719 110.552 88.522 110.624C88.4993 110.642 88.3314 110.787 88.3314 110.81C88.3314 110.751 88.531 110.683 88.3722 110.769C88.3223 110.801 88.2724 110.828 88.227 110.86C88.0863 110.937 88.4312 110.81 88.286 110.828C88.2451 110.828 88.1952 110.846 88.1544 110.86C88.0001 110.919 88.3813 110.86 88.2134 110.86C88.168 110.86 88.1271 110.86 88.0772 110.86C87.9501 110.86 87.9774 110.787 88.118 110.869C88.0772 110.846 88.0091 110.846 87.9683 110.837C87.9184 110.828 87.8594 110.801 87.8094 110.787C88.0273 110.819 87.9864 110.869 87.8821 110.81C87.8503 110.787 87.8321 110.769 87.8004 110.76C88 110.846 87.9411 110.878 87.8594 110.787C87.8412 110.769 87.8094 110.742 87.7913 110.719C87.6914 110.633 87.9274 110.937 87.8321 110.76C87.7913 110.692 87.7414 110.624 87.7141 110.543C87.6824 110.466 87.6733 110.375 87.7414 110.624C87.7414 110.583 87.7141 110.552 87.7005 110.515C87.6733 110.434 87.6551 110.348 87.6324 110.257C87.6324 110.221 87.6234 110.18 87.6143 110.148C87.5734 109.935 87.6234 110.348 87.6143 110.198C87.6143 110.022 87.6052 109.854 87.6143 109.677C87.6143 109.519 87.5644 109.922 87.6052 109.768C87.6143 109.718 87.6234 109.677 87.6324 109.627C87.6551 109.55 87.6824 109.482 87.7005 109.401C87.6324 109.659 87.6234 109.578 87.6642 109.501C87.6824 109.46 87.7005 109.433 87.7232 109.392C87.7822 109.274 87.5553 109.559 87.6551 109.482C87.6824 109.46 87.7141 109.433 87.7323 109.401C87.8094 109.306 87.5371 109.55 87.6415 109.473C87.7731 109.392 87.7141 109.51 87.5553 109.501C87.5734 109.501 87.6143 109.482 87.6324 109.482C87.7641 109.451 87.3465 109.501 87.5462 109.501C87.6551 109.501 87.6324 109.55 87.4373 109.482C87.4781 109.501 87.5235 109.501 87.5734 109.51C87.6914 109.541 87.6143 109.591 87.5054 109.473C87.5371 109.501 87.6143 109.532 87.6551 109.55C88.059 109.777 88.64 109.659 88.8669 109.233C89.0938 108.812 88.9849 108.264 88.5492 108.024C88.118 107.788 87.5644 107.643 87.0606 107.811C86.5205 107.996 86.1847 108.427 85.9896 108.952C85.6855 109.759 85.8126 110.76 86.2255 111.507C86.7974 112.549 88.1362 112.903 89.18 112.364C90.2238 111.82 90.6005 110.642 90.7185 109.6C90.8955 108.006 89.9879 106.139 88.286 105.872C86.8564 105.645 85.3088 106.275 84.3921 107.398C83.8883 108.006 83.557 108.703 83.5161 109.51C83.4753 110.375 83.8611 111.181 84.4102 111.82C84.5509 111.979 84.6961 112.128 84.855 112.255C85.209 112.559 85.7717 112.626 86.1076 112.255C86.4116 111.92 86.4797 111.331 86.1076 111.005L86.0667 111.036Z" fill="#F2ADAD"/>
<path d="M56.6309 110.878C56.4948 110.76 56.3677 110.642 56.2452 110.502C56.2179 110.475 56.1862 110.443 56.168 110.407C56.109 110.339 56.0999 110.257 56.2088 110.456C56.168 110.375 56.0999 110.307 56.05 110.23C56.0092 110.171 55.9729 110.099 55.9411 110.04C55.9229 110.013 55.9139 109.972 55.8912 109.945C55.8231 109.818 55.9729 110.171 55.932 110.031C55.8912 109.895 55.8412 109.768 55.814 109.618C55.7732 109.424 55.8322 109.886 55.814 109.636C55.814 109.578 55.814 109.51 55.814 109.451C55.814 109.392 55.814 109.333 55.8231 109.265C55.8231 109.129 55.7822 109.519 55.8049 109.383C55.8049 109.342 55.814 109.306 55.8231 109.265C55.8412 109.156 55.8821 109.048 55.9229 108.939C56.0092 108.712 55.8322 109.129 55.9229 108.952C55.9502 108.88 55.9819 108.821 56.0228 108.753C56.0818 108.644 56.1589 108.549 56.227 108.44C56.05 108.712 56.168 108.518 56.227 108.44C56.2769 108.382 56.3268 108.332 56.3768 108.273C56.463 108.182 56.5628 108.096 56.6627 108.006C56.463 108.155 56.8079 107.879 56.6627 108.006C56.7217 107.956 56.7898 107.92 56.8488 107.879C56.9577 107.811 57.0757 107.743 57.1846 107.679C57.2436 107.652 57.3026 107.621 57.3616 107.602C57.4705 107.553 57.2209 107.661 57.2436 107.652C57.2799 107.643 57.3207 107.621 57.3616 107.602C57.4796 107.562 57.5976 107.525 57.7247 107.494C57.7837 107.476 57.8427 107.466 57.9107 107.457C57.9425 107.457 57.9697 107.444 58.0015 107.435C58.1377 107.408 57.7247 107.466 57.9198 107.444C58.0423 107.435 58.1603 107.426 58.2874 107.426C58.3464 107.426 58.4054 107.426 58.4644 107.435C58.5416 107.435 58.6414 107.485 58.3464 107.417C58.3873 107.417 58.4236 107.426 58.4644 107.435C58.5824 107.457 58.6823 107.494 58.8003 107.534C58.9273 107.575 58.5733 107.426 58.6913 107.494C58.7186 107.503 58.7413 107.525 58.7685 107.534C58.8275 107.562 58.8865 107.602 58.9455 107.643C59.1316 107.77 58.8093 107.516 58.9183 107.621C58.9546 107.661 58.9954 107.693 59.0362 107.729C59.0726 107.77 59.1134 107.82 59.1633 107.87C59.2632 107.978 59.0272 107.67 59.1043 107.788C59.1225 107.829 59.1542 107.861 59.1724 107.897C59.2132 107.956 59.2405 108.015 59.2722 108.074C59.2904 108.105 59.2995 108.132 59.3222 108.173C59.3585 108.25 59.3403 108.332 59.2904 108.096C59.3312 108.264 59.3993 108.418 59.4402 108.576C59.4583 108.667 59.4674 108.744 59.4901 108.83C59.5173 109.011 59.4674 108.595 59.4901 108.771C59.4901 108.821 59.4992 108.871 59.4992 108.912C59.5082 109.088 59.4992 109.265 59.4901 109.451C59.4765 109.636 59.5264 109.224 59.4901 109.392C59.4901 109.442 59.4674 109.482 59.4583 109.532C59.4402 109.618 59.4175 109.718 59.3902 109.804C59.3721 109.886 59.3403 109.954 59.3222 110.031C59.2995 110.071 59.2813 110.121 59.2722 110.162C59.2995 110.099 59.3585 109.895 59.2722 110.162C59.2314 110.239 59.1815 110.325 59.1316 110.398C59.1134 110.434 59.0726 110.466 59.0544 110.502C59.1633 110.298 59.1316 110.398 59.0862 110.466C59.0635 110.484 58.8956 110.633 58.8956 110.651C58.8956 110.592 59.0952 110.524 58.9364 110.611C58.8865 110.642 58.8366 110.669 58.7912 110.701C58.6505 110.778 58.9954 110.651 58.8502 110.669C58.8093 110.669 58.7594 110.692 58.7186 110.701C58.5643 110.76 58.9455 110.701 58.7776 110.701C58.7276 110.701 58.6913 110.701 58.6414 110.701C58.5143 110.701 58.5416 110.633 58.6823 110.71C58.6414 110.692 58.5733 110.692 58.5325 110.683C58.4826 110.669 58.4236 110.642 58.3736 110.633C58.5915 110.66 58.5506 110.71 58.4463 110.651C58.4145 110.633 58.3963 110.611 58.3646 110.601C58.5643 110.692 58.5053 110.719 58.4236 110.633C58.4054 110.611 58.3736 110.583 58.3555 110.565C58.2557 110.475 58.4916 110.778 58.3963 110.601C58.3555 110.533 58.3056 110.466 58.2783 110.384C58.2466 110.307 58.2375 110.221 58.3056 110.466C58.3056 110.425 58.2783 110.398 58.2647 110.357C58.2375 110.28 58.2193 110.189 58.1967 110.099C58.1967 110.062 58.1876 110.022 58.1785 109.994C58.1377 109.777 58.1876 110.189 58.1785 110.04C58.1785 109.863 58.1694 109.695 58.1785 109.519C58.1785 109.365 58.1286 109.768 58.1694 109.609C58.1785 109.559 58.1876 109.519 58.1967 109.473C58.2193 109.392 58.2466 109.324 58.2647 109.247C58.1967 109.501 58.1876 109.424 58.2284 109.342C58.2466 109.306 58.2647 109.274 58.2874 109.233C58.3464 109.116 58.1195 109.401 58.2193 109.324C58.2466 109.306 58.2783 109.274 58.2965 109.247C58.3736 109.147 58.1013 109.392 58.2057 109.315C58.3373 109.233 58.2783 109.356 58.1195 109.342C58.1377 109.342 58.1785 109.324 58.1967 109.324C58.3237 109.292 57.9107 109.342 58.1104 109.342C58.2193 109.342 58.1967 109.392 58.0015 109.324C58.0423 109.342 58.0877 109.342 58.1377 109.356C58.2557 109.383 58.1785 109.433 58.0696 109.315C58.1013 109.342 58.1785 109.374 58.2193 109.392C58.6233 109.618 59.2042 109.501 59.4311 109.079C59.658 108.653 59.5491 108.105 59.1134 107.87C58.6823 107.634 58.1286 107.485 57.6248 107.652C57.0848 107.838 56.7489 108.273 56.5538 108.794C56.2452 109.6 56.3768 110.601 56.7898 111.349C57.3616 112.391 58.7004 112.744 59.7442 112.205C60.7881 111.666 61.1647 110.484 61.2827 109.442C61.4597 107.847 60.5521 105.981 58.8502 105.713C57.4206 105.487 55.873 106.116 54.9563 107.24C54.4525 107.847 54.1212 108.549 54.0804 109.356C54.0395 110.221 54.4253 111.027 54.9744 111.666C55.1151 111.82 55.2603 111.97 55.4192 112.096C55.7732 112.4 56.3359 112.472 56.6718 112.096C56.9758 111.761 57.0439 111.172 56.6718 110.846L56.6309 110.878Z" fill="#F2ADAD"/>
</svg>
