<svg viewBox="0 0 150 150" fill="none" xmlns="http://www.w3.org/2000/svg">
<path d="M49.4686 75.4265C45.0936 71.9734 43.9686 63.9161 43.479 58.7963C42.4217 47.8275 42.6613 36.1557 45.7134 25.4838C46.9426 21.2025 49.1092 13.4994 53.7499 11.5411C57.4686 9.96816 60.0051 11.989 61.1144 15.4525C65.0884 27.7442 62.7811 43.6036 61.8019 56.2182C61.4738 60.4369 61.9426 66.4421 61.0936 71.0671" fill="white"/>
<path d="M50.4321 74.4525C47.63 72.1452 46.4842 68.4629 45.7602 65.0306C44.9217 61.1139 44.6352 57.0775 44.4269 53.0827C43.9373 43.4316 44.6925 33.8275 47.4112 24.5306C48.3644 21.2962 49.4217 17.8379 51.5102 15.1295C53.5206 12.5254 57.3279 11.0098 59.2342 14.5566C60.1873 16.3223 60.5779 18.515 60.9529 20.4785C61.3904 22.6816 61.6456 24.9212 61.7915 27.1556C62.104 31.7389 61.9633 36.3275 61.6769 40.9056C61.3696 45.8743 60.8279 50.8223 60.4373 55.791C60.0467 60.7598 60.5987 65.7962 59.7394 70.7233C59.4425 72.4525 62.0935 73.2025 62.3904 71.4577C63.229 66.6139 62.8123 61.7233 63.1144 56.8483C63.4112 51.9681 63.9842 47.2181 64.3175 42.3848C64.6873 37.2441 64.88 32.0723 64.5258 26.9264C64.2133 22.4993 63.755 17.3483 61.6873 13.3431C59.8644 9.75976 55.9529 8.72851 52.4633 10.6348C49.1925 12.4212 47.4112 16.2337 46.1508 19.5618C42.6508 28.7754 41.4217 38.8066 41.5258 48.6191C41.5831 53.8743 41.906 59.2129 42.8331 64.4004C43.6039 68.6921 44.9789 73.5098 48.4789 76.4004C49.8331 77.515 51.7967 75.5879 50.4321 74.4525Z" fill="#001834"/>
<path d="M60.6094 70.0879C66.3594 69.4577 79.1094 67.3692 83.9532 71.2858C84.2292 66.6348 87.2136 57.4317 88.7969 53.14C92.7084 42.5567 96.8177 33.541 106.125 24.6817C107.984 22.9004 113.599 20.041 116.75 21.041C119.495 21.9004 118.979 25.8379 118.885 28.1348C118.495 38.8431 110.911 52.1296 105.552 61.1035C102.818 65.6713 95.7761 76.4577 94.8542 78.5827C98.8855 80.0306 101.708 83.9056 103.786 87.0879C106.813 91.7025 110.073 99.1608 109.073 105.77C107.099 118.843 100.422 129.697 85.974 135.697C75.1615 140.197 53.8646 138.26 44.5 131.577C34.0782 124.145 27.375 115.031 31.8542 101.755C34.9948 92.4108 40.9167 73.489 53.073 74.4421" fill="white"/>
<mask id="mask0_195_11428" style="mask-type:luminance" maskUnits="userSpaceOnUse" x="29" y="18" width="92" height="123">
<path d="M29.0989 18.9733H120.901V140.307H29.0989V18.9733Z" fill="white"/>
</mask>
<g mask="url(#mask0_195_11428)">
<path d="M60.6094 71.4681C64.4792 71.041 68.3333 70.4941 72.2344 70.3795C75.8177 70.265 80.2708 70.1712 83.2552 72.4785C84.151 73.1764 85.2604 72.2025 85.3281 71.2858C85.6042 67.416 86.8437 63.5358 87.9792 59.8535C89.1198 56.1712 90.5521 52.2129 92.0677 48.4681C93.8125 44.1868 95.8333 40.0097 98.3437 36.1347C99.651 34.1139 101.089 32.1712 102.646 30.3379C104.208 28.4993 105.745 26.6764 107.573 25.2389C109.042 24.0931 110.854 23.2233 112.63 22.6712C113.943 22.2702 116.396 21.567 117.214 23.1295C117.922 24.4837 117.604 26.39 117.531 27.8483C117.427 29.9837 117.13 32.0566 116.625 34.1347C114.391 43.2806 109.557 51.692 104.781 59.7181C102.807 63.0462 100.708 66.3014 98.6562 69.5722C96.9687 72.2597 94.9948 74.9577 93.6979 77.8691C93.3073 78.7337 93.6302 79.5566 94.5208 79.89C97.7708 81.1295 100.089 83.9993 101.984 86.7858C103.875 89.5775 105.495 92.5827 106.573 95.7962C107.745 99.2962 108.24 102.88 107.594 106.541C107.099 109.395 106.354 112.208 105.297 114.906C100.995 125.968 90.6458 134.265 78.9271 136.171C73.0156 137.135 66.7969 136.916 60.8958 135.952C55.4687 135.067 49.7864 133.588 45.2187 130.385C40.3646 126.968 35.5833 122.583 33.276 116.984C32.1614 114.296 31.7239 111.416 31.8854 108.515C32.0469 105.609 33.0208 102.661 33.9739 99.8118C35.8125 94.3847 37.7864 88.9368 40.8281 84.0462C43.5573 79.6608 47.5156 75.4368 53.1042 75.8066C54.875 75.9212 54.875 73.166 53.1042 73.0514C41.3906 72.2962 35.7292 86.7077 32.5156 95.6504C30.4375 101.432 28.375 107.239 29.4167 113.484C30.4635 119.723 34.6302 125.176 39.401 129.307C41.7552 131.338 44.2552 133.291 47.0573 134.666C49.8594 136.046 52.7396 136.994 55.7239 137.718C62.2396 139.301 69.1146 139.88 75.7917 139.301C82.4739 138.728 88.2917 136.755 93.8021 133.15C99.3073 129.546 103.693 124.708 106.552 118.853C109.406 112.999 111.448 105.676 110.245 99.0202C109.547 95.1764 108.005 91.4577 106.057 88.0827C104.349 85.1243 102.281 82.0931 99.651 79.8691C98.3229 78.7337 96.875 77.8587 95.2344 77.2389L96.0625 79.2597C97.276 76.515 99.1354 73.9681 100.729 71.4316C102.75 68.2181 104.807 65.0306 106.755 61.7806C111.875 53.2441 117.099 44.2233 119.38 34.4472C119.896 32.2181 120.182 29.9837 120.297 27.7077C120.38 25.9785 120.526 24.14 119.922 22.4733C118.323 18.1035 112.964 19.4212 109.729 20.8587C105.333 22.7962 102.146 26.5045 99.2292 30.2129C96.1302 34.1452 93.5833 38.4368 91.4844 42.9837C89.3802 47.5306 87.5677 52.2702 86.0052 57.0306C84.4479 61.791 82.9323 66.4316 82.5885 71.2702L84.6667 70.0775C81.5104 67.6347 76.8385 67.5202 73.026 67.5879C68.875 67.6556 64.7552 68.2441 60.6354 68.7025C58.8906 68.8952 58.8646 71.6504 60.6354 71.4577L60.6094 71.4681Z" fill="#001834"/>
</g>
<path d="M70.1455 104.932C64.0517 104.577 65.2028 114.104 70.0882 112.301C75.333 112.208 75.0726 105.218 70.1455 104.932Z" fill="#001834"/>
<path d="M68.0156 112.229C67.9896 112.312 67.9531 112.38 67.9323 112.463C67.8542 112.702 68.0729 112.187 67.9323 112.437C67.8646 112.562 67.8073 112.692 67.7396 112.817C67.5781 113.104 67.3958 113.38 67.1979 113.64C67.0052 113.906 67.3958 113.411 67.1875 113.656C67.1302 113.723 67.0729 113.801 67.0052 113.874C66.901 113.989 66.7969 114.114 66.6823 114.218C66.4271 114.479 66.1562 114.734 65.8646 114.963C65.8073 115.01 65.7396 115.067 65.6823 115.114C65.9792 114.906 65.7083 115.088 65.651 115.124C65.5104 115.229 65.3646 115.327 65.2135 115.421C64.9271 115.604 64.6146 115.775 64.3073 115.926C64.2708 115.937 64.1354 116.041 64.0989 116.02C64.2708 115.947 64.3177 115.926 64.2135 115.973C64.1667 115.984 64.1354 116.005 64.0885 116.02C63.9375 116.077 63.776 116.135 63.6302 116.176C63.4792 116.223 63.3333 116.26 63.1719 116.291C63.1146 116.307 62.9739 116.307 62.9167 116.338L63.125 116.317C63.125 116.317 63.0208 116.327 62.9635 116.327C62.25 116.395 61.5521 116.911 61.5885 117.708C61.6198 118.395 62.1927 119.15 62.9635 119.083C64.7656 118.911 66.3489 118.083 67.7396 116.958C69.0364 115.916 70.1146 114.525 70.651 112.942C70.8802 112.255 70.3906 111.406 69.6875 111.244C68.9323 111.072 68.2448 111.473 67.9896 112.208L68.0156 112.229Z" fill="#001834"/>
<path d="M68.4945 113.255C69.0935 114.744 69.8591 116.192 71.0206 117.338C72.1768 118.484 73.8435 119.275 75.5622 119.187C76.2862 119.14 76.9737 118.578 76.9424 117.807C76.906 117.098 76.3331 116.385 75.5622 116.432C75.3799 116.432 75.2081 116.442 75.0258 116.432C74.9424 116.432 74.8643 116.421 74.7862 116.411C74.6351 116.395 75.1508 116.468 74.8435 116.411C74.682 116.374 74.5206 116.338 74.3591 116.281C74.2914 116.26 74.2237 116.234 74.1403 116.213C73.9008 116.135 74.4268 116.354 74.1872 116.234C73.9112 116.098 73.6456 115.963 73.406 115.791C73.3591 115.755 73.3278 115.734 73.281 115.697L73.4424 115.822C73.4424 115.822 73.3278 115.718 73.2706 115.676C73.1403 115.572 73.0153 115.458 72.9008 115.328C72.7862 115.213 72.682 115.098 72.5778 114.984C72.5362 114.926 72.4789 114.869 72.432 114.801C72.2237 114.536 72.5778 115.02 72.432 114.801C72.2497 114.536 72.0622 114.286 71.9008 114.01C71.7445 113.734 71.5935 113.458 71.4424 113.171C71.3747 113.036 71.307 112.885 71.2393 112.749C71.2133 112.703 71.0883 112.39 71.182 112.635C71.2706 112.874 71.1456 112.551 71.1351 112.52C70.9945 112.171 70.8383 111.885 70.5049 111.692C70.2028 111.52 69.7706 111.453 69.4476 111.551C68.807 111.76 68.1976 112.531 68.4841 113.255H68.4945Z" fill="#001834"/>
<path d="M57.2343 96.4421C52.6145 93.1816 49.5572 99.8848 52.8853 102.708C54.3333 104.119 56.3749 103.682 57.3958 102.577C58.4166 101.479 59.2447 97.8535 57.2239 96.4264L57.2343 96.4421Z" fill="#001834"/>
<path d="M86.7656 96.416C82.151 93.3847 78.9271 99.9733 82.1614 102.739C83.5521 104.13 85.6302 103.645 86.6979 102.546C87.7656 101.442 88.7865 97.7233 86.776 96.416H86.7656Z" fill="#001834"/>
<path d="M90.0001 112.885C90.0001 112.885 89.8647 112.77 89.8386 112.77C89.9324 112.77 90.0001 112.906 89.8386 112.77C89.7605 112.702 89.6928 112.645 89.6095 112.577C89.5313 112.494 89.4532 112.416 89.3699 112.333C89.349 112.312 89.323 112.275 89.3022 112.255C89.2761 112.228 89.2553 112.197 89.2345 112.171C89.1615 112.093 89.1876 112.114 89.3022 112.265C89.2761 112.15 89.0834 111.942 89.0261 111.827C89.0157 111.796 88.9897 111.76 88.9792 111.728C88.922 111.624 89.073 111.999 89.0261 111.827C89.0053 111.739 88.9688 111.656 88.948 111.577C88.948 111.541 88.9324 111.51 88.922 111.473C88.8907 111.338 88.9792 111.395 88.9324 111.588C88.948 111.531 88.922 111.452 88.922 111.395C88.922 111.312 88.922 111.244 88.922 111.166C88.922 111.005 88.8751 111.426 88.9011 111.301C88.9011 111.255 88.9115 111.208 88.922 111.166C88.9324 111.093 88.9584 111.025 88.9792 110.958C89.0261 110.833 89.1511 110.692 88.9688 110.958C89.0626 110.833 89.1042 110.671 89.198 110.531C89.2345 110.473 89.2917 110.416 89.3126 110.359C89.2188 110.567 89.1772 110.531 89.2553 110.442C89.2761 110.416 89.3022 110.385 89.323 110.359C89.4376 110.234 89.5522 110.119 89.6824 110.005C89.7501 109.947 89.8178 109.89 89.8855 109.833C89.9532 109.775 90.0105 109.786 89.7813 109.911C89.8178 109.89 89.8542 109.853 89.8959 109.833C90.047 109.728 90.2084 109.624 90.3699 109.536C90.5157 109.442 90.6772 109.374 90.8282 109.291C90.8647 109.281 90.8855 109.27 90.922 109.26C91.0938 109.176 90.6667 109.348 90.849 109.291C90.9428 109.26 91.0209 109.223 91.1147 109.192C91.4584 109.062 91.8126 108.994 92.172 108.926C92.3542 108.89 91.8959 108.947 92.0782 108.937C92.1147 108.937 92.1355 108.937 92.172 108.937C92.2605 108.937 92.3542 108.926 92.448 108.916C92.6199 108.916 92.7917 108.916 92.9636 108.916C93.0886 108.916 93.3178 109.02 92.974 108.916C93.0417 108.937 93.1251 108.937 93.1928 108.947C93.3647 108.984 93.5261 109.041 93.6876 109.098C93.8438 109.156 93.4324 108.984 93.5938 109.062C93.6303 109.077 93.6615 109.098 93.6876 109.109C93.7553 109.145 93.823 109.176 93.8907 109.223C93.948 109.26 94.0053 109.307 94.0626 109.338C94.2136 109.432 93.8595 109.156 93.9845 109.281C94.0313 109.317 94.073 109.348 94.1095 109.395C94.1667 109.442 94.2136 109.499 94.2605 109.557C94.2032 109.452 94.4428 109.765 94.2605 109.557C94.3647 109.718 94.4532 109.88 94.5365 110.041C94.6147 110.197 94.4532 109.786 94.5001 109.968C94.5105 110.015 94.5365 110.062 94.547 110.119C94.5678 110.197 94.5938 110.291 94.6147 110.374C94.6355 110.463 94.6511 110.557 94.672 110.645C94.7084 110.843 94.7292 110.671 94.672 110.603C94.6928 110.635 94.6928 110.786 94.6928 110.817C94.6928 110.911 94.6928 111.005 94.6928 111.093C94.6928 111.119 94.6928 111.255 94.6824 111.265C94.7292 111.223 94.7292 111.015 94.6824 111.234C94.6355 111.463 94.5678 111.682 94.5001 111.9C94.4324 112.114 94.6042 111.692 94.5001 111.9C94.4636 111.958 94.4428 112.015 94.4063 112.072C94.349 112.161 94.2917 112.265 94.2345 112.348C94.099 112.541 94.224 112.348 94.2345 112.348C94.2345 112.348 94.1459 112.463 94.1355 112.473C94.099 112.505 94.0522 112.551 94.0157 112.588C93.9845 112.619 93.948 112.645 93.9272 112.676C93.8438 112.749 93.8595 112.734 93.9845 112.635C93.9845 112.635 93.7292 112.781 93.7084 112.807C93.5157 112.921 93.9272 112.749 93.7084 112.807C93.6407 112.827 93.5834 112.848 93.5157 112.864C93.5157 112.864 93.3751 112.895 93.3751 112.885C93.3751 112.895 93.6147 112.874 93.3647 112.885C93.2813 112.885 93.2136 112.885 93.1355 112.885C92.9063 112.885 93.3074 112.932 93.0886 112.885C93.0105 112.864 92.9167 112.848 92.8386 112.827C92.7917 112.817 92.7449 112.807 92.698 112.781C92.5938 112.749 92.6303 112.76 92.8022 112.827L92.5365 112.666C92.6042 112.645 92.7345 112.848 92.5938 112.702C92.5626 112.666 92.5261 112.619 92.4897 112.588C92.3542 112.463 92.6199 112.807 92.5261 112.635C92.4897 112.577 92.448 112.52 92.4115 112.463C92.4011 112.426 92.3751 112.406 92.3647 112.369C92.2397 112.14 92.4115 112.541 92.3647 112.369C92.3438 112.265 92.297 112.171 92.2761 112.072C92.2605 112.025 92.2501 111.968 92.2397 111.911C92.1928 111.739 92.2501 112.197 92.2397 111.921C92.2397 111.817 92.2397 111.713 92.2397 111.609C92.2397 111.577 92.2605 111.494 92.2501 111.463C92.297 111.609 92.2032 111.702 92.2501 111.541C92.2761 111.452 92.3542 111.312 92.3438 111.223C92.3438 111.244 92.2188 111.463 92.297 111.348C92.3334 111.301 92.3647 111.244 92.3907 111.187C92.4688 111.036 92.2032 111.369 92.3334 111.255C92.3647 111.234 92.4011 111.197 92.422 111.166C92.5365 111.036 92.1928 111.291 92.3542 111.223C92.3907 111.208 92.573 111.109 92.3907 111.197C92.2032 111.281 92.3542 111.223 92.3907 111.197C92.6042 111.109 92.1928 111.187 92.3438 111.197C92.3907 111.197 92.448 111.197 92.4897 111.197C92.6615 111.197 92.2501 111.119 92.4324 111.197C92.4897 111.223 92.547 111.234 92.6042 111.244C92.8803 111.338 92.4897 111.187 92.6772 111.265C93.1667 111.494 93.8126 111.426 94.0886 110.9C94.3282 110.442 94.2345 109.728 93.7188 109.489C93.099 109.202 92.3751 109.005 91.7136 109.26C91.047 109.51 90.6095 110.005 90.3595 110.671C89.9324 111.77 90.2449 113.14 91.0105 114.02C91.974 115.135 93.9011 115.239 95.0626 114.39C96.1667 113.598 96.8542 112.171 96.7709 110.807C96.7136 109.739 96.3386 108.64 95.5313 107.906C94.797 107.228 93.8595 106.906 92.8803 106.848C91.1042 106.734 89.1042 107.536 87.9011 108.843C87.2709 109.536 86.823 110.395 86.823 111.348C86.823 112.38 87.3595 113.333 88.1095 114.02C88.3595 114.249 88.6251 114.458 88.9011 114.65C89.3334 114.963 90.0678 114.744 90.3126 114.286C90.599 113.76 90.4167 113.208 89.9428 112.874L90.0001 112.885Z" fill="#AC2FD7"/>
<path d="M47.4112 112.702C47.4112 112.702 47.2758 112.588 47.255 112.588C47.3435 112.588 47.4112 112.723 47.255 112.588C47.1716 112.52 47.1039 112.463 47.0206 112.39C46.9425 112.312 46.8643 112.229 46.781 112.15C46.7602 112.13 46.7341 112.093 46.7133 112.072C46.6925 112.046 46.6664 112.015 46.6456 111.989C46.5779 111.911 46.5987 111.932 46.7133 112.083C46.6925 111.968 46.4945 111.76 46.4373 111.645C46.4268 111.609 46.4008 111.577 46.3904 111.541C46.3331 111.437 46.4841 111.817 46.4373 111.645C46.4164 111.551 46.38 111.473 46.3591 111.395C46.3591 111.359 46.3435 111.322 46.3331 111.291C46.3018 111.15 46.3904 111.208 46.3435 111.406C46.3591 111.348 46.3331 111.265 46.3331 111.208C46.3331 111.13 46.3331 111.062 46.3331 110.979C46.3331 110.817 46.2862 111.244 46.3123 111.119C46.3123 111.072 46.3227 111.025 46.3331 110.979C46.3435 110.911 46.3695 110.843 46.3904 110.775C46.4373 110.645 46.5623 110.51 46.38 110.775C46.4737 110.645 46.5154 110.489 46.6091 110.348C46.6456 110.291 46.7029 110.234 46.7237 110.176C46.6352 110.385 46.5883 110.348 46.6664 110.255C46.6925 110.234 46.7133 110.197 46.7341 110.176C46.8487 110.051 46.9633 109.937 47.0935 109.822C47.1612 109.765 47.2289 109.708 47.2966 109.65C47.3695 109.593 47.4268 109.604 47.1925 109.729C47.2289 109.708 47.2654 109.671 47.3123 109.65C47.4581 109.546 47.6195 109.442 47.781 109.348C47.932 109.26 48.0883 109.192 48.2393 109.109C48.2758 109.098 48.2966 109.088 48.3331 109.077C48.505 108.994 48.0779 109.166 48.2602 109.109C48.3539 109.077 48.432 109.041 48.5258 109.005C48.8695 108.88 49.2237 108.812 49.5831 108.744C49.7654 108.708 49.307 108.765 49.4893 108.755C49.5258 108.755 49.5466 108.755 49.5831 108.755C49.6716 108.755 49.7654 108.744 49.8591 108.729C50.031 108.729 50.2029 108.729 50.3748 108.729C50.4998 108.729 50.7289 108.833 50.3852 108.729C50.4529 108.755 50.5362 108.755 50.6039 108.765C50.7758 108.801 50.9373 108.859 51.0987 108.916C51.2602 108.973 50.8435 108.801 51.005 108.88C51.0414 108.89 51.0727 108.916 51.0987 108.926C51.1664 108.963 51.2341 108.994 51.3018 109.041C51.3591 109.077 51.4164 109.119 51.4737 109.156C51.6248 109.249 51.2706 108.973 51.3956 109.098C51.4425 109.135 51.4893 109.166 51.5206 109.213C51.5779 109.26 51.6248 109.317 51.6716 109.374C51.6143 109.27 51.8539 109.577 51.6716 109.374C51.7758 109.536 51.8643 109.697 51.9477 109.854C52.0258 110.015 51.8643 109.604 51.9112 109.786C51.9216 109.833 51.9477 109.88 51.9581 109.937C51.9789 110.015 52.005 110.109 52.0258 110.187C52.0518 110.281 52.0623 110.374 52.0831 110.463C52.1195 110.661 52.1404 110.489 52.0831 110.416C52.1091 110.452 52.1091 110.604 52.1091 110.635C52.1091 110.729 52.1091 110.817 52.1091 110.911C52.1091 110.932 52.1091 111.072 52.0935 111.083C52.1404 111.036 52.1404 110.833 52.0935 111.051C52.0518 111.281 51.9789 111.494 51.9112 111.713C51.8435 111.932 52.0154 111.51 51.9112 111.713C51.8748 111.77 51.8539 111.827 51.8175 111.885C51.7602 111.979 51.7029 112.083 51.6456 112.161C51.5102 112.359 51.6352 112.161 51.6456 112.161C51.6456 112.161 51.557 112.275 51.5466 112.286C51.5102 112.322 51.4633 112.369 51.432 112.406C51.3956 112.437 51.3591 112.463 51.3383 112.494C51.2602 112.562 51.2706 112.551 51.3956 112.447C51.3956 112.447 51.1404 112.598 51.1195 112.619C50.9268 112.734 51.3383 112.562 51.1195 112.619C51.0518 112.645 50.9945 112.666 50.9268 112.676C50.9268 112.676 50.7862 112.713 50.7862 112.702C50.7862 112.713 51.0258 112.692 50.7758 112.702C50.6977 112.702 50.6248 112.702 50.5466 112.702C50.3175 112.702 50.7185 112.749 50.4998 112.702C50.4216 112.676 50.3279 112.666 50.2498 112.645C50.2029 112.635 50.156 112.619 50.1091 112.598C50.005 112.562 50.0414 112.577 50.2133 112.645L49.9477 112.484C50.0206 112.463 50.1456 112.666 50.005 112.52C49.9737 112.484 49.9373 112.437 49.9008 112.406C49.7654 112.275 50.031 112.619 49.9373 112.447C49.9008 112.39 49.8591 112.333 49.8227 112.275C49.8123 112.244 49.7862 112.218 49.7758 112.187C49.6508 111.958 49.8227 112.359 49.7758 112.187C49.755 112.083 49.7081 111.989 49.6873 111.885C49.6716 111.843 49.6612 111.786 49.6508 111.729C49.6039 111.551 49.6612 112.015 49.6508 111.739C49.6508 111.635 49.6508 111.531 49.6508 111.426C49.6508 111.395 49.6716 111.312 49.6612 111.281C49.7081 111.426 49.6143 111.52 49.6612 111.359C49.6873 111.265 49.7654 111.13 49.755 111.036C49.755 111.062 49.63 111.281 49.7081 111.166C49.7445 111.119 49.7758 111.062 49.8018 111.005C49.88 110.854 49.6143 111.187 49.7445 111.072C49.7758 111.051 49.8123 111.015 49.8331 110.979C49.9477 110.854 49.6039 111.109 49.7654 111.036C49.8018 111.025 49.9841 110.921 49.8018 111.015C49.6143 111.093 49.7654 111.036 49.8018 111.015C50.0206 110.921 49.6039 111.005 49.755 111.015C49.8018 111.015 49.8591 111.015 49.9008 111.015C50.0779 111.015 49.6612 110.932 49.8435 111.015C49.9008 111.036 49.9633 111.051 50.0206 111.062C50.2914 111.15 49.9008 111.005 50.0883 111.083C50.5779 111.312 51.2237 111.244 51.4998 110.718C51.7393 110.255 51.6456 109.546 51.13 109.307C50.5102 109.02 49.7862 108.822 49.1248 109.077C48.4581 109.327 48.0206 109.822 47.7706 110.489C47.3435 111.588 47.656 112.952 48.4216 113.838C49.3852 114.952 51.3175 115.057 52.4737 114.202C53.5779 113.411 54.2654 111.989 54.182 110.624C54.1248 109.557 53.7498 108.458 52.9425 107.723C52.2081 107.046 51.2706 106.723 50.2914 106.666C48.5154 106.551 46.5154 107.354 45.3123 108.661C44.682 109.348 44.2341 110.213 44.2341 111.166C44.2341 112.197 44.7758 113.15 45.5206 113.838C45.7706 114.067 46.0362 114.275 46.3123 114.468C46.7498 114.781 47.4841 114.562 47.7237 114.104C48.0102 113.572 47.8279 113.025 47.3539 112.692L47.4112 112.702Z" fill="#AC2FD7"/>
<path d="M55.7918 70.791C54.9168 62.5618 55.1251 51.442 56.1564 42.4993C56.4897 39.5983 57.4532 28.8222 53.7605 27.2962C47.3907 24.666 49.3178 65.3743 52.9689 71.4108C52.9689 71.4108 54.5626 70.791 55.7918 70.791Z" fill="#AC2FD7"/>
<path d="M90.6562 75.2754C97.2447 68.5514 100.891 57.2233 105.229 50.0202C112.255 38.3483 109.463 28.4681 99.7447 44.291C94.9114 52.166 91.3072 64.8483 88.177 73.4993C88.9687 73.7285 89.953 74.6139 90.6562 75.291V75.2754Z" fill="#AC2FD7"/>
</svg>
