<svg width="150" height="150" viewBox="0 0 150 150" fill="none" xmlns="http://www.w3.org/2000/svg">
<path d="M34.9171 49.3276C30.5942 45.2859 22.7973 45.2859 18.6514 44.2807C13.1931 42.9578 15.9014 36.4943 18.9639 33.2495C22.6306 29.3849 28.6462 28.1922 33.4067 30.0307C36.5369 31.2339 38.3962 32.2703 40.3337 35.0359C41.115 36.1609 46.3389 43.3224 46.766 50.8537" fill="#F2E7D6"/>
<path d="M35.8651 48.3797C32.2922 45.161 27.4537 44.338 22.8651 43.6558C21.2818 43.4266 18.6307 43.437 17.4484 42.2183C16.2662 41.0047 16.9901 38.9787 17.5734 37.687C19.5526 33.286 23.9328 30.5099 28.7557 30.5203C33.1568 30.5203 37.1828 32.8068 39.6464 36.3693C42.5839 40.6505 45.0682 45.6089 45.4276 50.8537C45.537 52.562 48.2245 52.5724 48.0995 50.8537C47.7245 45.3172 45.3495 40.0933 42.2974 35.5255C41.1255 33.7755 39.8755 32.1141 38.1412 30.8901C36.0109 29.3849 33.2818 28.3276 30.7089 27.9787C25.1724 27.2443 19.6307 29.6401 16.4693 34.2339C14.1932 37.5412 12.5474 43.2912 17.3287 45.2391C19.7662 46.2339 22.662 46.2547 25.2349 46.7339C28.3234 47.3016 31.5787 48.1141 33.9745 50.2755C35.2453 51.4266 37.1464 49.5412 35.8651 48.3797Z" fill="#001834"/>
<path d="M107.12 41.385C113.948 30.51 126.787 32.5517 130.797 36.2027C133.084 38.286 135.589 42.7548 133.74 45.8069C131.787 49.0152 127.386 48.4371 124.266 48.6298C119.813 48.9058 114.975 52.5829 113.537 54.7548" fill="#F2E7D6"/>
<mask id="mask0_195_11457" style="mask-type:luminance" maskUnits="userSpaceOnUse" x="105" y="30" width="31" height="27">
<path d="M105.292 30.7183H135.756V56.0516H105.292V30.7183Z" fill="white"/>
</mask>
<g mask="url(#mask0_195_11457)">
<path d="M108.266 42.0516C112.245 35.8693 119.735 33.0724 126.75 35.4683C129.808 36.5151 132.245 39.0568 132.917 42.286C134.027 47.6141 127.599 47.0568 124.256 47.2912C119.787 47.6141 114.933 50.3901 112.37 54.0881C111.386 55.4995 113.704 56.8381 114.672 55.437C115.943 53.6089 118.042 52.2287 120 51.2443C122.308 50.0881 124.511 49.9735 127.032 49.8849C129.193 49.8068 131.49 49.5724 133.282 48.2391C135.277 46.7443 135.99 44.3485 135.568 41.9422C134.094 33.7287 125.146 30.9214 117.907 32.2912C112.849 33.2495 108.704 36.4266 105.948 40.7079C105.016 42.1558 107.334 43.4995 108.256 42.0516H108.266Z" fill="#001834"/>
</g>
<path d="M34.1309 79.8485C28.1674 83.4475 19.0111 83.7912 19.1778 74.6975C19.2663 69.7183 24.8236 66.8693 29.4486 67.036C25.4278 63.3589 22.6726 55.8381 26.2194 51.036C28.3913 48.0829 35.8444 44.5725 39.0111 47.7808C36.5684 43.4891 39.2194 34.5777 43.7559 32.4266C47.4642 30.6766 52.2142 33.26 52.8132 37.1193C52.834 30.51 60.0997 25.1298 66.3497 25.661C72.5267 26.187 73.7715 29.6766 75.2872 34.5673C79.9903 24.2808 98.0632 27.8798 97.3601 39.3693C102.074 37.3381 107.443 34.6089 111.959 38.7548C115.266 41.786 117.469 48.4735 112.792 51.4683C117.975 51.7339 123.277 53.0725 124.735 58.9891C125.652 62.6975 124.089 67.0568 119.657 66.5204C130.272 69.6662 129.115 89.4943 117.485 89.562C123.11 91.812 124.704 99.8016 120.912 104.213C117.693 107.968 108.068 110.067 105.147 105.13C106.907 110.89 104.902 116.25 98.8965 117.953C93.6517 119.437 90.9642 117.989 88.3809 113.307C86.2507 122.833 65.7611 130.781 66.8184 116.661C67.1309 121.864 57.2038 124.552 53.4382 123.036C49.6726 121.52 48.2247 115.01 50.4851 111.625C45.0267 113.208 39.8444 114.734 36.1465 108.838C33.4694 104.572 34.6517 99.1141 38.1934 96.0256C33.459 94.4527 26.2403 97.786 24.6257 90.5985C23.6882 86.4214 25.3601 82.6766 27.2976 80.9266" fill="#FFFCF8"/>
<path d="M33.4588 78.687C30.2974 80.562 24.0474 82.6245 21.4588 78.7339C20.0578 76.6141 20.1463 73.3953 21.7609 71.4474C23.589 69.2391 26.688 68.3172 29.4588 68.3693C30.5943 68.3953 31.2453 66.8797 30.4068 66.0881C26.9745 62.8433 24.2245 56.6141 27.0526 52.1922C28.1568 50.4683 30.2193 49.286 32.0995 48.5724C33.9068 47.8797 36.4901 47.2443 38.0734 48.7391C39.188 49.786 40.8911 48.4735 40.1672 47.1245C38.339 43.7026 39.8338 38.6089 42.0057 35.6922C43.188 34.1089 44.8703 33.0047 46.9172 33.2599C49.2036 33.5412 51.0995 35.2443 51.5318 37.4943C51.8234 39.0099 54.1307 38.5985 54.162 37.1401C54.2974 31.7495 59.589 27.3901 64.7453 27.0203C67.0109 26.8537 69.6151 27.3485 71.2557 29.0412C72.7713 30.6089 73.3703 32.9266 74.0057 34.9578C74.3182 35.9683 75.9328 36.3693 76.4484 35.2808C80.6255 26.4683 96.5266 29.0412 96.0213 39.4006C95.9693 40.5151 97.1724 40.9266 98.0422 40.562C102.376 38.687 107.698 36.1141 111.568 40.2912C113.964 42.8797 115.631 47.9683 112.126 50.3537C111.021 51.0985 111.443 52.7703 112.803 52.8485C116.48 53.0516 120.735 53.7964 122.688 57.3276C124.313 60.2703 124.146 65.6401 119.678 65.2287C118.131 65.0829 117.938 67.4266 119.323 67.8589C128.344 70.6662 127.756 88.0724 117.506 88.2703C116.292 88.2912 115.532 90.2078 116.823 90.7651C121.704 92.8381 123.511 100.093 119.443 103.88C116.527 106.598 108.928 108.651 106.318 104.505C105.527 103.244 103.443 104.036 103.881 105.531C105.115 109.807 104.167 114.468 99.7088 116.317C97.9172 117.062 95.5786 117.588 93.6828 116.953C91.787 116.317 90.5213 114.39 89.5474 112.671C88.9901 111.692 87.3755 111.869 87.1099 112.994C85.9745 117.755 80.8703 121.208 76.4224 122.5C74.5318 123.057 72.2245 123.411 70.3859 122.453C68.2818 121.364 68.0474 118.822 68.1776 116.708H65.5057C65.6151 120.739 59.0422 122.197 56.0005 122.166C53.8495 122.145 52.3547 121.119 51.4641 119.135C50.5318 117.031 50.4068 114.343 51.6568 112.348C52.2765 111.359 51.2453 110.067 50.1411 110.39C46.287 111.505 41.5838 113.072 38.4172 109.677C34.9536 105.963 35.4745 100.359 39.1515 97.0151C39.9224 96.3172 39.4745 95.0672 38.563 94.7756C36.8807 94.2547 35.0995 94.2339 33.3495 94.2235C31.7088 94.2235 29.8859 94.3328 28.3443 93.6662C26.4849 92.8641 25.8703 90.7912 25.7401 88.9162C25.5578 86.3641 26.3963 83.6922 28.2661 81.911C29.5161 80.7183 27.6203 78.8329 26.3755 80.0151C22.6411 83.5568 21.3703 91.4787 25.6724 95.1141C29.1047 98.0203 33.9068 96.1245 37.8495 97.3433L37.2609 95.1037C32.7036 99.2443 32.1255 106.109 35.9901 110.911C39.8547 115.713 45.6724 114.442 50.8547 112.942C50.3495 112.281 49.8495 111.625 49.339 110.979C47.6307 113.697 47.7661 117.296 49.0161 120.161C50.2193 122.911 52.4588 124.614 55.4641 124.807C60.1672 125.109 68.3338 122.557 68.1672 116.692C68.1255 114.968 65.6047 114.989 65.4953 116.692C65.339 119.046 65.6932 121.531 67.287 123.369C68.6359 124.927 70.6724 125.598 72.6828 125.687C77.3703 125.885 82.2401 123.348 85.5943 120.213C87.4745 118.453 89.0682 116.239 89.6828 113.697L87.2453 114.02C88.5266 116.291 90.162 118.51 92.7036 119.437C95.2453 120.359 98.3286 119.77 100.782 118.744C106.443 116.369 108.079 110.375 106.464 104.817C105.652 105.161 104.834 105.51 104.021 105.843C107.62 111.557 117.105 109.729 121.349 105.755C126.542 100.885 124.657 91.1922 118.183 88.437L117.506 90.9318C127.766 90.7339 130.896 77.4318 126.105 69.9318C124.667 67.6922 122.573 66.0672 120.032 65.2756L119.678 67.9058C125.605 68.437 127.412 61.9214 125.615 57.3276C123.532 51.9787 118.053 50.4787 112.813 50.1766L113.495 52.6714C118.349 49.3641 117.24 42.9214 113.907 38.8901C111.943 36.5151 109.068 35.1453 105.974 35.312C102.698 35.4995 99.6776 36.9735 96.7141 38.2547L98.7297 39.411C99.3547 26.4683 79.4745 22.7235 74.162 33.9422L76.6047 34.2651C75.787 31.6558 74.9432 28.7808 72.8703 26.8797C70.6203 24.7964 67.3234 24.0828 64.3807 24.3589C57.8703 24.9735 51.6463 30.3537 51.4745 37.1297L54.1047 36.7703C52.9276 30.5881 44.8807 28.6297 40.714 33.0724C37.2036 36.8172 35.3338 43.7495 37.8495 48.4578L39.9432 46.8433C35.8338 42.9891 28.089 46.3433 25.1568 50.2339C21.0578 55.6558 24.0213 63.7703 28.5005 67.9787L29.4484 65.6974C25.9172 65.6297 22.0734 66.911 19.7557 69.687C17.4693 72.4058 17.2349 76.5047 18.8755 79.6245C21.9745 85.4943 30.1932 83.7235 34.7974 81.0047C36.2765 80.1245 34.9328 77.8172 33.4484 78.6974L33.4588 78.687Z" fill="#001834"/>
<path d="M44.0576 58.3224C43.9795 61.1297 44.4795 64.2912 46.7399 66.2182C48.8701 68.0359 51.8128 68.0359 54.3753 67.2547C57.7503 66.2339 60.8337 64.1141 63.0993 61.4318C65.3597 58.7443 66.9535 55.5776 68.9378 52.6922L66.4951 52.3693C67.4639 56.4266 68.4326 60.8276 72.7451 62.5099C74.4951 63.1922 76.3233 63.0464 77.8285 61.8849C79.2764 60.7703 80.2035 59.1349 81.5056 57.8641L79.4118 57.5984C81.3806 60.4734 83.3649 64.0047 87.167 64.4943C90.8076 64.9734 92.6462 61.9526 94.7087 59.5359C93.9483 59.2234 93.1826 58.9005 92.4222 58.588C91.8545 62.9995 92.0316 67.713 96.6253 69.8745C100.011 71.4682 105.25 71.812 108.422 69.5307C109.808 68.5359 108.48 66.2078 107.073 67.2234C104.657 68.963 100.589 68.7391 97.9743 67.5568C94.2503 65.8849 94.6618 61.963 95.0993 58.5776C95.2451 57.4422 93.5264 56.7964 92.8128 57.6297C91.4535 59.2234 89.9847 62.1662 87.5108 61.8432C84.7035 61.4839 83.141 58.3224 81.7139 56.2391C81.2243 55.5255 80.266 55.3328 79.6201 55.9682C77.8285 57.7182 76.4222 61.2078 73.4274 59.8901C70.2868 58.5099 69.7816 54.6089 69.0837 51.6453C68.8024 50.4526 67.2556 50.4318 66.641 51.3224C65.0368 53.6662 63.6983 56.1818 62.0264 58.4787C60.2243 60.9526 57.8701 62.9005 55.0628 64.1349C53.2347 64.9526 50.7191 65.6401 48.8806 64.4578C46.8962 63.1662 46.6878 60.437 46.7399 58.2964C46.7868 56.5828 44.1097 56.5828 44.0681 58.2964L44.0576 58.3224Z" fill="#001834"/>
<path d="M96.3601 68.2131C92.8601 65.8537 93.282 62.2339 93.7612 58.5985C91.6206 61.0724 90.131 64.3068 86.1414 62.8901C83.6778 62.0204 81.9383 58.9214 80.5581 56.9266C78.0424 59.312 76.9122 63.1662 72.5112 60.9526C69.1726 59.2704 68.5581 55.1922 67.7872 52.0151C64.1674 57.2391 62.6622 61.9214 56.2664 65.062C53.8393 66.2547 51.6466 66.6558 49.8862 66.286C48.9487 69.3641 47.4122 75.2026 47.0424 78.3537C46.4956 82.9787 46.8445 87.9839 48.8497 92.3381C51.8133 98.7756 60.0476 103.671 66.7091 105.171C80.0997 108.203 97.1049 102.723 101.292 89.2079C102.485 85.3745 103.011 77.6974 101.662 69.7183C99.657 69.6089 97.6726 69.0829 96.3706 68.2026L96.3601 68.2131Z" fill="#F2E7D6"/>
<path d="M97.0264 67.0568C94.2087 65.0411 94.6983 61.6193 95.0889 58.5984C95.2295 57.463 93.516 56.8172 92.8025 57.6505C91.4431 59.2443 89.9743 62.187 87.5004 61.8641C84.6931 61.5099 83.1306 58.3432 81.7035 56.2599C81.2139 55.5463 80.2556 55.3588 79.6097 55.9943C77.8181 57.7391 76.4118 61.2286 73.417 59.9161C70.2712 58.5307 69.7712 54.6349 69.0681 51.6713C68.792 50.4786 67.2452 50.4526 66.6306 51.3484C64.6462 54.2338 63.0889 57.4838 60.7243 60.0932C58.2868 62.7755 54.0525 65.687 50.24 65.0047C49.516 64.8745 48.8233 65.1974 48.5889 65.9422C46.3181 73.4734 44.266 81.5099 46.3493 89.3276C48.4222 97.1505 55.0889 102.374 62.365 105.229C74.7295 110.078 91.7764 106.776 99.6566 95.5463C104.86 88.1349 104.344 77.8641 102.943 69.3641C102.844 68.7599 102.193 68.4266 101.651 68.3849C100.021 68.2599 98.4275 67.9266 97.0264 67.0463C95.6202 66.1661 94.2191 68.437 95.6775 69.3536C97.4847 70.4786 99.5525 70.8901 101.651 71.0568L100.36 70.0776C101.068 74.4109 101.302 78.8536 100.959 83.2443C100.714 86.3432 100.099 89.3745 98.6202 92.1349C95.6983 97.5724 90.3285 101.197 84.5472 103.046C78.6306 104.942 72.0004 105.276 65.9847 103.624C59.5108 101.854 52.391 97.5516 49.74 91.1141C46.4743 83.1766 48.8025 74.4786 51.1514 66.6453L49.5056 67.5776C53.9847 68.3693 58.6722 65.8432 61.8181 62.7911C64.792 59.9057 66.6097 56.0724 68.9275 52.6818L66.4847 52.3588C67.4535 56.4161 68.4222 60.8172 72.7347 62.4995C74.4847 63.1766 76.3129 63.0359 77.8181 61.8745C79.266 60.7599 80.1879 59.1245 81.4952 57.8536L79.4014 57.588C81.3702 60.4578 83.3545 63.9943 87.1514 64.4838C90.7972 64.963 92.6358 61.9422 94.6983 59.5255L92.4118 58.5776C91.8806 62.7651 91.9431 66.6766 95.6775 69.3536C97.0837 70.3536 98.417 68.0359 97.0264 67.0463V67.0568Z" fill="#001834"/>
<path d="M66.8962 91.9474C69.6619 96.161 73.3494 91.8797 74.1931 89.8433C74.9223 92.4735 78.4744 95.0464 81.4379 91.9474" fill="#F2E7D6"/>
<path d="M65.7402 92.6297C66.4433 93.6505 67.3079 94.5672 68.5371 94.9213C69.5944 95.2338 70.6881 95.0255 71.6569 94.5463C73.2506 93.7547 74.6517 92.1349 75.3548 90.5203L72.9121 90.1974C73.459 92.0151 74.7975 93.5724 76.5579 94.2963C78.6621 95.1765 80.8235 94.4682 82.3965 92.8953C83.61 91.6818 81.7298 89.7859 80.5006 90.9995C79.6673 91.838 78.6412 92.3068 77.5058 91.812C76.5371 91.3901 75.7871 90.4786 75.5006 89.4838C75.209 88.4943 73.5371 88.0463 73.0579 89.1609C72.5787 90.2755 71.8444 91.2443 70.8756 91.9057C70.3652 92.2599 69.985 92.4474 69.4381 92.3849C69.0162 92.338 68.4121 91.7807 68.0683 91.2547C67.0996 89.8432 64.7819 91.1765 65.761 92.6036L65.7402 92.6297Z" fill="#001834"/>
<path d="M74.3077 83.7026C69.5837 83.4266 70.4639 90.812 74.2608 89.4162C78.3285 89.3537 78.1149 83.9266 74.3077 83.7026Z" fill="#001834"/>
<path d="M62.1618 77.5308C58.5732 74.9996 56.2034 80.1923 58.7972 82.3902C59.9222 83.4787 61.5055 83.1454 62.2972 82.2964C63.0888 81.4527 63.7347 78.635 62.1618 77.5308Z" fill="#001834"/>
<path d="M88.9014 77.5204C85.3285 75.1662 82.8181 80.2808 85.3285 82.4214C86.4066 83.5048 88.0108 83.1246 88.8337 82.2652C89.6618 81.4058 90.4535 78.5308 88.891 77.51L88.9014 77.5204Z" fill="#001834"/>
<path d="M90.9535 91.1766C90.9535 91.1766 90.865 91.1141 90.8181 91.0777C91.0629 91.2339 90.9223 91.1558 90.865 91.1141C90.8077 91.0673 90.74 91.01 90.6879 90.9579C90.6202 90.8902 90.5525 90.8329 90.4952 90.7652C90.4744 90.7443 90.4639 90.7235 90.4431 90.7027C90.3754 90.6245 90.3181 90.4787 90.4639 90.7443C90.3962 90.6245 90.3077 90.51 90.24 90.3902C90.1306 90.1558 90.2869 90.5308 90.2504 90.4318C90.2296 90.3641 90.2087 90.2964 90.1827 90.2235C90.1514 90.0777 90.2087 89.9631 90.1827 90.2756C90.1827 90.2235 90.1827 90.1662 90.1827 90.1193C90.1827 90.0516 90.1827 89.9996 90.1827 89.9318C90.1827 89.786 90.141 90.1975 90.1619 90.0881C90.1619 90.0516 90.1723 90.0204 90.1827 89.9735C90.1931 89.9214 90.2087 89.8641 90.2296 89.8068C90.2608 89.6975 90.3754 89.5516 90.1931 89.8537C90.2608 89.7443 90.3077 89.6193 90.3858 89.51C90.4171 89.4631 90.4535 89.4162 90.4848 89.3745C90.3077 89.6766 90.3962 89.4839 90.4744 89.4058C90.5629 89.3068 90.6619 89.2079 90.766 89.1193C90.8181 89.0725 90.8754 89.0308 90.9327 88.9735C91.0212 88.8954 90.6879 89.1506 90.9067 88.9943C91.0317 88.9058 91.1514 88.8277 91.2869 88.7495C91.4119 88.6818 91.5317 88.6141 91.6671 88.562C91.6879 88.562 91.7087 88.536 91.7348 88.5256C91.891 88.4631 91.4744 88.6298 91.6306 88.5725C91.7087 88.5516 91.7764 88.5152 91.8546 88.4943C92.1358 88.3954 92.4223 88.3277 92.7139 88.2808C92.8806 88.2495 92.4223 88.3173 92.6046 88.2912C92.6254 88.2912 92.6567 88.2912 92.6827 88.2912C92.7608 88.2912 92.8233 88.2808 92.9014 88.2808C93.0473 88.2808 93.1827 88.2808 93.3285 88.2808C93.4379 88.2808 93.6619 88.3589 93.2921 88.2808C93.3494 88.2912 93.4171 88.3068 93.4692 88.3173C93.6046 88.3485 93.74 88.3954 93.8702 88.437C94.016 88.4943 93.615 88.3173 93.7608 88.3954C93.7817 88.4058 93.8181 88.4162 93.8389 88.4266C93.8962 88.4631 93.9483 88.4839 94.0056 88.5152C94.0525 88.5516 94.1046 88.5829 94.1514 88.6141C94.2869 88.7079 93.9379 88.437 94.0629 88.5516C94.0942 88.5829 94.1306 88.6037 94.1619 88.6402C94.2087 88.6818 94.24 88.7183 94.2869 88.76C94.4535 88.9527 94.1931 88.6298 94.2608 88.7287C94.3389 88.8641 94.4171 88.9839 94.4848 89.1193C94.5629 89.2756 94.3962 88.8641 94.4431 89.0308C94.4535 89.0725 94.4744 89.1089 94.4848 89.1402C94.5056 89.2079 94.5317 89.2756 94.5421 89.3433C94.5629 89.4162 94.5733 89.4839 94.5837 89.562C94.6098 89.6766 94.5629 89.7443 94.5837 89.4839C94.5837 89.5412 94.5942 89.6089 94.6098 89.6662C94.6098 89.7443 94.6098 89.8068 94.6098 89.885C94.6098 89.9214 94.5837 89.9995 94.5942 90.0308C94.5525 89.8641 94.641 89.8068 94.5942 89.9527C94.5525 90.1454 94.5056 90.3225 94.4431 90.4995C94.3754 90.6766 94.5525 90.2756 94.4639 90.4527C94.4431 90.4995 94.4171 90.5568 94.3962 90.5985C94.3494 90.6766 94.3077 90.7548 94.2608 90.8329C94.1931 90.9318 94.1202 90.9475 94.2973 90.8016C94.2608 90.8225 94.24 90.8693 94.2087 90.9006C94.1723 90.9318 94.1514 90.9683 94.1202 90.9891C94.0942 91.01 94.0629 91.036 94.0421 91.0568C93.9639 91.1245 93.9848 91.1037 94.1202 90.9995C94.0421 91.036 93.9639 91.1037 93.8962 91.135C93.7296 91.2339 94.1306 91.0673 93.9379 91.1245C93.8858 91.135 93.8389 91.1558 93.7817 91.1662C93.7608 91.1662 93.6931 91.1662 93.6723 91.1923C93.8389 91.1037 93.8494 91.1662 93.7035 91.1766C93.641 91.1766 93.5837 91.1766 93.516 91.1766C93.3025 91.1766 93.7139 91.2235 93.516 91.1766C93.4483 91.1662 93.3806 91.1454 93.3129 91.135C93.2817 91.135 93.2348 91.1141 93.2035 91.1037C93.1046 91.0673 93.1462 91.0777 93.3285 91.1558C93.2921 91.1141 93.1619 91.0464 93.115 91.0256C93.3129 91.1037 93.2817 91.1662 93.1931 91.0777C93.1619 91.0464 93.1358 91.01 93.1046 90.9891C92.9796 90.8798 93.2504 91.2131 93.1619 91.0568C93.1254 91.01 93.0942 90.9683 93.0681 90.911C93.0577 90.8902 93.0473 90.8537 93.0264 90.8329C92.9119 90.6245 93.0837 91.036 93.0473 90.8798C93.0264 90.8016 92.99 90.7131 92.9692 90.635C92.9692 90.5881 92.9587 90.5464 92.9483 90.51C92.9119 90.3537 92.9587 90.812 92.9483 90.5673C92.9483 90.4787 92.9483 90.4006 92.9483 90.312C92.9483 90.2652 92.9587 90.2235 92.9483 90.187C92.9587 90.4527 92.9119 90.4006 92.9483 90.2964C92.9692 90.2079 93.016 90.1193 93.0264 90.0412C93.0264 90.0412 92.9014 90.286 92.9692 90.1766C92.99 90.1454 93.0264 90.0881 93.0473 90.0516C93.1254 89.9214 92.8598 90.2443 92.9796 90.1454C93.0056 90.1193 93.0369 90.0985 93.0577 90.0673C93.1619 89.9527 92.8233 90.1975 92.9692 90.1454C93.016 90.1193 93.1723 90.0412 92.9692 90.1298C92.7921 90.2079 92.9119 90.1662 92.9483 90.1454C93.1619 90.0777 92.7244 90.1454 92.8702 90.1454C92.9014 90.1454 92.9587 90.1454 92.99 90.1454C93.1462 90.1454 92.7348 90.0777 92.9014 90.1454C92.9483 90.1558 93.0056 90.1662 93.0473 90.1766C93.3025 90.2548 92.891 90.0985 93.0577 90.1766C93.5369 90.4006 94.1619 90.3329 94.4275 89.8225C94.6619 89.3745 94.5733 88.6818 94.0733 88.4475C93.5264 88.2027 92.9014 88.0256 92.3129 88.2495C91.7244 88.4735 91.3233 88.9162 91.0994 89.51C90.7296 90.4683 91.0108 91.635 91.6671 92.3954C92.49 93.3537 94.1514 93.4423 95.1514 92.7183C96.0889 92.036 96.6931 90.8329 96.6254 89.6662C96.5785 88.76 96.2556 87.812 95.5785 87.1923C94.9431 86.6089 94.1514 86.3329 93.3025 86.286C91.8233 86.1975 90.1514 86.8693 89.1462 87.9579C88.615 88.5516 88.2244 89.2964 88.2244 90.1089C88.2244 90.9891 88.6827 91.812 89.3129 92.4058C89.5264 92.6037 89.7608 92.7704 89.9952 92.9423C90.4171 93.2391 91.1306 93.0308 91.365 92.5829C91.6462 92.0725 91.4639 91.536 91.0108 91.2131L90.9535 91.1766Z" fill="#F2ADAD"/>
<path d="M52.4799 91.0256C52.4799 91.0256 52.3914 90.9579 52.3445 90.9214C52.5893 91.0777 52.4486 90.9995 52.3914 90.9579C52.3341 90.911 52.2664 90.8537 52.2143 90.8016C52.1466 90.7339 52.0789 90.6766 52.0216 90.6089C52.0007 90.5881 51.9903 90.5673 51.9695 90.5464C51.9018 90.4683 51.8445 90.3225 51.9903 90.5881C51.9226 90.4683 51.8341 90.3537 51.7664 90.2339C51.657 89.9995 51.8132 90.3745 51.7768 90.2756C51.7559 90.2079 51.7351 90.1454 51.7091 90.0673C51.6778 89.9214 51.7351 89.8068 51.7091 90.1193C51.7091 90.0673 51.7091 90.01 51.7091 89.9631C51.7091 89.8954 51.7091 89.8433 51.7091 89.7756C51.7091 89.6298 51.6674 90.0412 51.6882 89.9318C51.6882 89.8954 51.6986 89.8641 51.7091 89.8225C51.7247 89.7652 51.7351 89.7079 51.7559 89.6506C51.7872 89.5412 51.9018 89.3954 51.7247 89.6975C51.7872 89.5881 51.8341 89.4631 51.9122 89.3537C51.9434 89.3068 51.9799 89.2652 52.0111 89.2183C51.8341 89.5204 51.9226 89.3277 52.0007 89.2495C52.0893 89.1506 52.1882 89.0516 52.2924 88.9631C52.3445 88.9162 52.4018 88.8745 52.4591 88.8173C52.5476 88.7391 52.2143 88.9943 52.433 88.8381C52.558 88.7495 52.683 88.6714 52.8132 88.5933C52.9382 88.5256 53.058 88.4631 53.1934 88.4058C53.2143 88.4058 53.2351 88.385 53.2611 88.3693C53.4174 88.3068 53.0059 88.4735 53.157 88.4162C53.2351 88.3954 53.3028 88.3589 53.3809 88.3381C53.6622 88.2391 53.9486 88.1714 54.2403 88.1245C54.407 88.0933 53.9487 88.161 54.1309 88.135C54.1518 88.135 54.183 88.135 54.2091 88.135C54.2872 88.135 54.3497 88.1245 54.4278 88.1245C54.5737 88.1245 54.7091 88.1245 54.8549 88.1245C54.9643 88.1245 55.1882 88.2027 54.8184 88.1245C54.8757 88.135 54.9434 88.1506 54.9955 88.161C55.1309 88.1923 55.2664 88.2391 55.3966 88.2808C55.5424 88.3381 55.1414 88.161 55.2872 88.2391C55.308 88.2495 55.3445 88.26 55.3653 88.2704C55.4226 88.3068 55.4747 88.3277 55.532 88.3589C55.5789 88.3954 55.6309 88.4266 55.6778 88.4631C55.8132 88.5516 55.4643 88.2808 55.5893 88.3954C55.6205 88.4266 55.657 88.4475 55.6882 88.4839C55.7351 88.5256 55.7664 88.562 55.8132 88.6037C55.9799 88.7964 55.7247 88.4735 55.7872 88.5725C55.8653 88.7079 55.9434 88.8277 56.0111 88.9631C56.0893 89.1193 55.9226 88.7079 55.9695 88.8745C55.9799 88.9162 56.0007 88.9527 56.0111 88.9839C56.032 89.0516 56.058 89.1193 56.0684 89.187C56.0893 89.2652 56.0997 89.3277 56.1101 89.4058C56.1361 89.5204 56.0893 89.5881 56.1101 89.3277C56.1101 89.385 56.1257 89.4527 56.1361 89.51C56.1361 89.5881 56.1361 89.6506 56.1361 89.7287C56.1361 89.7652 56.1101 89.8433 56.1257 89.8745C56.0789 89.7079 56.1674 89.6506 56.1257 89.7964C56.0789 89.9891 56.032 90.1662 55.9695 90.3433C55.9018 90.5204 56.0789 90.1193 55.9903 90.2964C55.9695 90.3433 55.9434 90.4006 55.9226 90.4423C55.8757 90.5204 55.8341 90.5985 55.7872 90.6766C55.7247 90.7756 55.6466 90.7912 55.8236 90.6454C55.7872 90.6662 55.7664 90.7131 55.7351 90.7443C55.6987 90.7756 55.6778 90.812 55.6466 90.8329C55.6205 90.8537 55.5893 90.8798 55.5684 90.9006C55.4903 90.9683 55.5111 90.9475 55.6466 90.8433C55.5684 90.8798 55.4903 90.9475 55.4226 90.9787C55.2559 91.0777 55.657 90.911 55.4643 90.9683C55.4122 90.9787 55.3653 90.9995 55.308 91.01C55.2872 91.01 55.2195 91.01 55.1986 91.036C55.3653 90.9475 55.3757 91.01 55.2299 91.0256C55.1674 91.0256 55.1101 91.0256 55.0424 91.0256C54.8289 91.0256 55.2455 91.0673 55.0424 91.0256C54.9747 91.01 54.907 90.9891 54.8445 90.9787C54.808 90.9787 54.7664 90.9579 54.7299 90.9475C54.6309 90.911 54.6726 90.9214 54.8549 90.9995C54.8184 90.9579 54.6882 90.8902 54.6414 90.8693C54.8445 90.9475 54.808 91.01 54.7195 90.9214C54.6882 90.8902 54.6622 90.8537 54.6309 90.8329C54.5059 90.7235 54.7768 91.0568 54.6882 90.9006C54.6518 90.8537 54.6205 90.812 54.5945 90.7548C54.5841 90.7339 54.5737 90.7027 54.5528 90.6766C54.4434 90.4683 54.6101 90.8798 54.5736 90.7235C54.5528 90.6454 54.5164 90.5568 54.4955 90.4787C54.4955 90.4318 54.4851 90.3902 54.4747 90.3537C54.4434 90.1975 54.4851 90.6558 54.4747 90.411C54.4747 90.3225 54.4747 90.2443 54.4747 90.1558C54.4747 90.1089 54.4851 90.0673 54.4747 90.0308C54.4851 90.2964 54.4434 90.2443 54.4747 90.1454C54.4955 90.0516 54.5424 89.9631 54.5528 89.885C54.5528 89.885 54.4278 90.1298 54.4955 90.0204C54.5164 89.9891 54.5528 89.9318 54.5736 89.8954C54.6518 89.7652 54.3861 90.0881 54.5059 89.9891C54.532 89.9631 54.5632 89.9423 54.5841 89.911C54.6882 89.7964 54.3497 90.0412 54.4955 89.9891C54.5424 89.9631 54.6986 89.885 54.4955 89.9735C54.3184 90.0516 54.4434 90.01 54.4747 89.9891C54.6882 89.9214 54.2507 89.9891 54.3966 89.9891C54.4278 89.9891 54.4851 89.9891 54.5164 89.9891C54.6726 89.9891 54.2611 89.9214 54.4278 89.9891C54.4747 89.9995 54.532 90.01 54.5736 90.0204C54.8289 90.0985 54.4174 89.9423 54.5841 90.0204C55.0632 90.2443 55.6882 90.1766 55.9539 89.6662C56.1882 89.2183 56.0997 88.5256 55.5997 88.2912C55.0528 88.0464 54.4278 87.8693 53.8393 88.0933C53.2507 88.3173 52.8497 88.76 52.6257 89.3537C52.2559 90.312 52.5372 91.4787 53.1934 92.2391C54.0164 93.1975 55.6778 93.286 56.683 92.562C57.6153 91.8798 58.2195 90.6766 58.1518 89.51C58.1049 88.6037 57.782 87.6558 57.1049 87.036C56.4695 86.4527 55.6778 86.1766 54.8289 86.1298C53.3497 86.0412 51.6778 86.7131 50.6726 87.8016C50.1414 88.3954 49.7507 89.1402 49.7507 89.9527C49.7507 90.8329 50.2091 91.6558 50.8445 92.2495C51.0528 92.4475 51.2872 92.6141 51.5216 92.786C51.9434 93.0829 52.657 92.8746 52.8914 92.4266C53.1726 91.9162 52.9903 91.3798 52.5372 91.0568L52.4799 91.0256Z" fill="#F2ADAD"/>
</svg>
