<svg width="150" height="150" viewBox="0 0 150 150" fill="none" xmlns="http://www.w3.org/2000/svg">
<path d="M37.8312 53.6107C30.4048 63.3057 29.0925 74.42 29.9165 83.113C30.4862 89.0083 32.2207 97.3707 35.2574 102.508C42.3888 114.553 56.7534 115.474 69.1494 117.483C79.2769 119.126 92.8683 116.176 102.044 111.511C111.999 106.466 117.543 94.7155 119.369 84.2625C120.341 78.7232 120.59 73.128 119.069 67.5175C118.098 63.9416 115.677 57.802 110.02 55.2181" fill="#FFB950"/>
<path d="M36.7834 53.0054C28.5227 63.9009 27.1443 77.589 29.8554 90.6666C31.1627 96.9333 33.2787 103.236 37.8821 107.89C41.9921 112.041 47.4652 114.401 53.0401 115.845C58.61 117.29 64.6172 118.17 70.416 118.872C77.1557 119.701 84.1651 118.745 90.7064 117.025C96.8154 115.423 103.164 113.129 107.991 108.938C112.726 104.833 115.987 99.2274 118.169 93.4134C120.631 86.8211 121.943 79.3591 121.196 72.3294C120.6 66.7291 118.652 60.7116 114.435 56.7644C113.311 55.7115 112.04 54.8468 110.646 54.1804C109.252 53.5141 108.011 55.5996 109.425 56.2659C114.201 58.5295 116.796 63.3872 118.037 68.3212C119.792 75.2288 118.907 82.7112 116.918 89.4763C115.259 95.1072 112.584 100.601 108.596 104.95C104.486 109.436 99.0891 111.898 93.382 113.724C87.2628 115.672 80.7926 116.852 74.353 116.725C71.4638 116.664 68.6357 116.176 65.7923 115.744C62.9438 115.311 60.2987 114.914 57.5723 114.38C52.2619 113.333 46.9108 111.786 42.4498 108.607C37.5718 105.133 34.8759 99.9853 33.2584 94.3391C31.4526 88.0216 30.5319 81.3174 31.0813 74.7456C31.6968 67.2835 34.3723 60.1979 38.8841 54.2262C39.8252 52.9851 37.7244 51.7745 36.7935 53.0054H36.7834Z" fill="#001834"/>
<path d="M38.6706 54.5517C35.3592 51.4133 31.6358 45.233 33.2788 40.3855C34.703 36.2145 42.1244 31.896 46.4073 32.0384C54.3322 32.308 55.4513 38.7629 57.14 44.5362C60.075 41.8708 71.6877 40.1159 77.6644 40.6704C82.8426 41.1536 89.3636 42.115 93.6059 45.1211C93.8754 34.714 106.246 29.0882 115.738 39.8413C119.812 44.465 115.31 54.2262 110.071 56.5507" fill="#FFB950"/>
<path d="M39.53 53.692C37.0884 51.3217 35.0487 48.2392 34.3111 44.8769C33.5736 41.5198 34.9571 39.0223 37.5208 36.9418C41.6918 33.5593 48.9809 31.0567 52.7551 36.3772C54.51 38.8544 55.1306 41.9928 55.9546 44.8617C56.2191 45.7773 57.2975 45.9909 57.9841 45.3958C59.6526 43.9512 62.3383 43.4476 64.4187 42.9898C67.4757 42.3133 70.604 41.9216 73.7374 41.8097C76.8656 41.6978 79.8718 42.0335 82.8932 42.5575C86.4284 43.1729 89.9992 44.114 92.9901 46.174C93.7887 46.7183 94.7755 45.9807 94.8162 45.1211C95.0299 39.4495 99.4806 34.8767 105.295 35.2785C108.728 35.5227 111.795 37.4912 114.15 39.9124C116.333 42.1658 116.46 44.9278 115.554 47.8373C114.583 50.9351 112.482 54.1091 109.466 55.513C108.052 56.1692 109.283 58.2547 110.686 57.5985C113.896 56.1082 116.16 52.8833 117.452 49.6838C118.744 46.4843 119.186 42.5778 117.136 39.6683C112.869 33.6406 103.809 30.431 97.4613 35.1158C94.2516 37.481 92.5527 41.1841 92.4052 45.1211L94.2313 44.0733C91.0318 41.8708 87.1507 40.8229 83.3561 40.1871C80.0753 39.6276 76.7537 39.2563 73.4322 39.3987C70.1106 39.5411 66.7382 39.9735 63.4777 40.7212C61.0158 41.2858 58.2487 41.9827 56.3005 43.6765L58.33 44.2106C57.4501 41.1841 56.7532 37.9134 54.9576 35.2684C52.9688 32.3792 49.8659 30.9041 46.407 30.8278C42.9431 30.7464 39.3062 32.5725 36.5899 34.6224C33.7058 36.7943 31.5033 39.5971 31.6864 43.3764C31.9051 47.9187 34.6214 52.2983 37.8259 55.4011C38.945 56.4897 40.6592 54.7755 39.5401 53.6818L39.53 53.692Z" fill="#001834"/>
<path d="M65.6496 49.4752C69.2001 48.8953 72.8065 48.5647 76.4027 48.6156C80.238 48.6766 84.2768 49.1395 87.6899 51.0266C89.0531 51.7845 90.2739 49.6939 88.9107 48.936C85.2229 46.8861 80.9044 46.291 76.7435 46.2045C72.8167 46.113 68.8796 46.5148 65.0036 47.1405C63.4675 47.3948 64.1135 49.7244 65.6496 49.4752Z" fill="#001834"/>
<path d="M69.3632 55.2892C74.0378 55.2892 78.7327 55.2282 83.2038 56.7949C84.6789 57.3086 85.3148 54.9637 83.8498 54.4601C79.1854 52.8273 74.2412 52.868 69.3632 52.868C67.8118 52.868 67.8016 55.2892 69.3632 55.2892Z" fill="#001834"/>
<path d="M71.0517 62.1563C74.1902 61.4798 77.5015 62.1258 80.5891 62.8227C81.2249 62.96 81.9015 62.6294 82.0846 61.9732C82.2575 61.3679 81.8811 60.6303 81.2351 60.4777C77.705 59.6791 74.007 59.0331 70.4159 59.8114C69.7801 59.9538 69.4037 60.7015 69.5664 61.3068C69.7496 61.963 70.4159 62.2936 71.0619 62.1563H71.0517Z" fill="#001834"/>
<path d="M75.513 41.1332C75.157 48.8496 75.513 56.5914 75.4927 64.3129C75.4927 65.8694 77.9139 65.8795 77.9139 64.3129C77.9342 56.5914 77.5833 48.8598 77.9342 41.1332C78.0055 39.5767 75.5842 39.5767 75.513 41.1332Z" fill="#001834"/>
<path d="M72.7351 96.5821C72.7758 96.9229 72.7961 97.2586 72.7961 97.5994C72.7961 97.7622 72.7961 97.9249 72.7758 98.0775C72.7758 98.1589 72.7656 98.225 72.7555 98.3064C72.7758 98.1793 72.7758 98.1793 72.7555 98.3166C72.6944 98.6014 72.6334 98.8812 72.5418 99.1559C72.5215 99.2067 72.3638 99.6086 72.4808 99.3492C72.4452 99.4407 72.4045 99.5272 72.3536 99.6188C72.2315 99.8527 72.0891 100.077 71.9365 100.285C72.1095 100.046 71.8551 100.377 71.8144 100.417C71.7381 100.509 71.6466 100.6 71.5448 100.692C71.4431 100.784 71.3515 100.86 71.26 100.941C71.494 100.753 71.1684 101.002 71.1227 101.033C70.9192 101.165 70.7157 101.287 70.4919 101.399C70.3953 101.45 70.2935 101.501 70.1918 101.536C70.4767 101.419 70.0799 101.567 70.029 101.587C69.7798 101.669 69.5255 101.74 69.2711 101.801C69.144 101.831 69.0117 101.852 68.8795 101.872C69.1897 101.821 68.7574 101.872 68.6963 101.882C68.4471 101.903 68.1928 101.913 67.9283 101.903C67.8113 101.903 67.6892 101.903 67.5671 101.882C67.5163 101.882 67.0737 101.831 67.3738 101.872C67.1042 101.831 66.8194 101.781 66.5447 101.709C66.2751 101.638 66.0004 101.557 65.741 101.46C65.6698 101.44 65.6088 101.409 65.5376 101.379C65.6596 101.43 65.6596 101.43 65.5376 101.379C65.4053 101.318 65.2731 101.257 65.1459 101.185C64.5558 100.88 63.8285 101.033 63.4877 101.618C63.1723 102.167 63.3351 102.971 63.92 103.276C65.8173 104.253 68.0097 104.599 70.1002 104.095C72.0382 103.617 73.7982 102.325 74.6121 100.468C75.1462 99.2373 75.3191 97.9046 75.1665 96.5617C75.1004 95.9157 74.6629 95.3511 73.9559 95.3511C73.3608 95.3511 72.6741 95.9055 72.7453 96.5617L72.7351 96.5821Z" fill="#001834"/>
<path d="M73.3102 95.9772C73 97.5388 73.1322 99.1461 74.0173 100.509C74.7955 101.71 75.9451 102.62 77.1557 103.358C78.3714 104.095 79.9432 104.416 81.3979 104.375C82.7713 104.334 84.2159 104.024 85.2739 103.103C85.7724 102.671 85.7215 101.832 85.2739 101.389C84.7907 100.901 84.0531 100.952 83.5597 101.389C83.397 101.527 83.7327 101.318 83.458 101.45C83.3664 101.501 83.2749 101.547 83.1833 101.598C83.107 101.639 83.1274 101.628 83.224 101.588C83.1528 101.618 83.0867 101.639 83.0155 101.669C82.9036 101.71 82.7917 101.74 82.6696 101.771C82.0948 101.923 81.8913 101.944 81.3165 101.954C80.2382 101.974 79.2361 101.791 78.3714 101.267C77.5525 100.764 76.6725 100.118 76.2096 99.4411C75.8739 98.9528 75.7467 98.7138 75.6246 98.1695C75.5229 97.7422 75.5331 97.1573 75.645 96.613C75.7772 95.9772 75.4619 95.3006 74.7955 95.1175C74.2004 94.9548 73.4323 95.321 73.3001 95.967L73.3102 95.9772Z" fill="#001834"/>
<path d="M44.7589 49.9991C42.0834 49.8974 41.7019 43.5188 44.3265 42.5269C47.0123 41.5096 49.637 45.06 50.8272 47.0692C48.7163 47.7864 46.9207 49.0581 44.9522 49.9991" fill="#F2E7D6"/>
<path d="M44.7589 48.7885C44.4588 48.7682 45.0234 48.875 44.7487 48.7885C44.7182 48.7885 44.6164 48.7376 44.5859 48.7376C44.7385 48.697 44.8504 48.8699 44.7284 48.7987C44.647 48.7478 44.5656 48.7071 44.4944 48.6563C44.3163 48.5545 44.708 48.8699 44.5656 48.7071C44.5249 48.6664 44.4893 48.6257 44.4486 48.5851C44.4181 48.5545 44.3875 48.5138 44.3469 48.4731C44.235 48.3612 44.3469 48.3511 44.4079 48.5545C44.3875 48.4731 44.2756 48.3714 44.235 48.29C44.1841 48.2036 44.1332 48.1018 44.0824 48.0103C44.062 47.9797 43.9704 47.7763 44.062 47.9696C44.1536 48.1629 44.0417 47.8984 44.0213 47.8577C43.9399 47.6339 43.8789 47.405 43.8382 47.171C43.8229 47.0591 43.7721 46.9268 43.7822 46.8098C43.7822 46.8302 43.8128 47.1201 43.8026 46.9065C43.8026 46.82 43.7822 46.7386 43.7822 46.6471C43.7619 46.3927 43.7619 46.1537 43.7721 45.8993C43.7721 45.7874 43.7822 45.6755 43.7924 45.5636C43.7924 45.4975 43.7924 45.4161 43.8128 45.3449C43.7212 45.6959 43.7924 45.4568 43.8128 45.3754C43.8585 45.1414 43.9094 44.9074 43.9806 44.6785C44.0111 44.5972 44.0417 44.414 44.1027 44.353C43.9399 44.5259 44.0111 44.5361 44.0925 44.3937C44.123 44.3327 44.1536 44.2716 44.1841 44.2207C44.235 44.1343 44.296 44.0427 44.357 43.9512C44.4588 43.7782 44.296 44.0529 44.2756 44.0427C44.2756 44.0427 44.3875 43.9105 44.3977 43.9003C44.4282 43.8698 44.6164 43.707 44.6164 43.6867C44.6368 43.7782 44.3774 43.8494 44.5147 43.768C44.5859 43.7273 44.6571 43.6867 44.7182 43.646C44.7385 43.646 44.8301 43.5951 44.8301 43.5951L44.647 43.6765C44.708 43.6561 44.769 43.6358 44.8301 43.6154C44.942 43.5849 45.3743 43.5391 45.0437 43.5544C45.1709 43.5544 45.3031 43.5544 45.4354 43.5544C45.5168 43.5544 45.7202 43.5951 45.4252 43.5442C45.5168 43.5646 45.5982 43.5748 45.6897 43.5951C45.8372 43.6358 45.9695 43.6867 46.1221 43.7273C45.8271 43.6256 46.2543 43.7986 46.3357 43.8393C46.4781 43.9206 46.6053 44.002 46.7477 44.0834C46.8291 44.1343 46.9105 44.1953 46.9919 44.2513C47.2513 44.4446 46.8088 44.0936 47.0631 44.3021C47.6684 44.821 48.1923 45.3856 48.6857 46.0112C48.5128 45.7874 48.7162 46.0519 48.7468 46.0824C48.8078 46.1638 48.8688 46.2401 48.9197 46.3215C49.0316 46.4741 49.1435 46.6369 49.2402 46.7997C49.4335 47.0794 49.6166 47.3744 49.7997 47.6644L50.522 45.8892C48.3347 46.6369 46.4374 47.9391 44.357 48.936C43.7822 49.2107 43.589 50.0805 43.9196 50.5943C44.3062 51.1792 44.9623 51.3216 45.5778 51.0266C46.5443 50.5637 47.4649 50.0296 48.406 49.5159C49.3419 48.9971 50.2422 48.5444 51.1578 48.2188C51.8852 47.9696 52.3125 47.1506 51.8852 46.4436C51.0612 45.0702 50.0795 43.6968 48.8485 42.6592C47.5056 41.5299 45.7202 40.6805 43.9501 41.3672C41.3356 42.3845 40.9134 46.0011 41.6611 48.3612C42.124 49.8262 43.1464 51.0978 44.769 51.1894C45.4049 51.2199 46.0102 50.6044 45.9797 49.9788C45.9491 49.2921 45.4456 48.8089 44.769 48.7682L44.7589 48.7885Z" fill="#001834"/>
<path d="M105.376 49.9991C108.052 49.8974 108.438 43.5188 105.809 42.5269C103.128 41.5096 100.498 45.06 99.3079 47.0692C101.419 47.7864 103.214 49.0581 105.183 49.9991" fill="#F2E7D6"/>
<path d="M105.376 51.2099C108.428 51.037 109.084 47.222 108.677 44.8313C108.463 43.5851 107.858 42.3134 106.749 41.6471C105.223 40.7213 103.295 41.1944 101.932 42.1863C100.401 43.3053 99.2262 44.8517 98.2598 46.4641C97.8325 47.1711 98.2598 48.0003 98.9871 48.2393C99.9129 48.5649 100.793 49.0074 101.744 49.5364C102.69 50.0603 103.601 50.5843 104.567 51.0471C105.142 51.3218 105.9 51.2201 106.225 50.6148C106.505 50.0705 106.398 49.2516 105.793 48.9565C103.723 47.9697 101.81 46.6676 99.623 45.9097L100.35 47.6849C100.671 47.1406 101.027 46.6167 101.398 46.103C101.398 46.103 101.602 45.8385 101.49 45.9809C101.378 46.1233 101.591 45.8588 101.581 45.8588C101.693 45.7266 101.8 45.5943 101.912 45.4671C102.166 45.1823 102.431 44.9076 102.7 44.6482C102.822 44.5363 102.955 44.4244 103.087 44.3125C103.128 44.282 103.265 44.1751 103.087 44.3125C103.163 44.2514 103.245 44.1955 103.326 44.1446C103.458 44.0531 103.601 43.9615 103.733 43.8903C103.784 43.8598 103.84 43.8293 103.891 43.7987C103.921 43.7784 104.257 43.6461 104.084 43.7072C103.901 43.7682 104.186 43.6767 104.196 43.6767C104.267 43.6563 104.338 43.636 104.409 43.6156C104.476 43.5953 104.547 43.5851 104.618 43.5647C104.883 43.5088 104.44 43.5444 104.598 43.5647C104.72 43.5851 104.872 43.5647 104.994 43.5647C105.284 43.5647 104.74 43.4986 105.025 43.5647C105.116 43.5851 105.203 43.6054 105.295 43.636L105.386 43.6665C105.539 43.7275 105.508 43.7072 105.295 43.6258L105.406 43.6767C105.427 43.6767 105.651 43.8394 105.661 43.8394C105.59 43.8801 105.427 43.6156 105.6 43.7987C105.63 43.8293 105.661 43.8598 105.691 43.8801C105.732 43.9208 105.773 43.9717 105.808 44.0225C105.961 44.1751 105.661 43.7784 105.773 43.9717C105.839 44.0938 106.113 44.3939 106.093 44.5363C106.093 44.4854 106.002 44.2718 106.052 44.4346C106.073 44.5058 106.103 44.5668 106.124 44.6278C106.164 44.7601 106.205 44.8974 106.246 45.0297C106.276 45.1518 106.297 45.2637 106.317 45.3858C106.317 45.4264 106.347 45.4977 106.337 45.5282C106.378 45.2535 106.317 45.3552 106.337 45.4977C106.358 45.7469 106.378 45.9911 106.368 46.2403C106.368 46.4641 106.388 46.7795 106.317 46.988C106.439 46.6269 106.317 46.988 106.297 47.0999C106.266 47.2424 106.236 47.3848 106.195 47.5272C106.154 47.6645 106.113 47.7866 106.073 47.9189C106.073 47.9189 106.042 48.0308 106.022 48.0511C106.103 47.868 106.113 47.8273 106.063 47.9494C106.042 47.9901 106.022 48.0308 106.002 48.0715C105.951 48.1732 105.89 48.28 105.829 48.3716C105.798 48.4123 105.773 48.453 105.752 48.5038C105.64 48.6971 105.941 48.3004 105.793 48.453C105.712 48.5344 105.63 48.6157 105.549 48.7073C105.406 48.8599 105.762 48.5852 105.64 48.6361C105.579 48.6564 105.529 48.7073 105.478 48.7378C105.447 48.7582 105.406 48.7683 105.376 48.7887C105.223 48.8752 105.691 48.7073 105.406 48.7683C105.376 48.7683 105.325 48.7887 105.295 48.7989C105.116 48.8701 105.651 48.7683 105.335 48.7989C104.699 48.8294 104.094 49.333 104.125 50.0095C104.155 50.6351 104.659 51.2608 105.335 51.2201L105.376 51.2099Z" fill="#001834"/>
<path d="M74.3327 90.0715C72.6541 89.9901 70.4058 90.5547 69.8768 91.3838C68.7272 93.1997 71.123 97.3402 74.0783 96.4704C78.4121 96.7248 79.2972 92.9047 78.2799 91.3838C77.7763 90.6259 75.7671 90.1427 74.3327 90.0715Z" fill="#AD6B23"/>
<path d="M74.332 88.8556C72.2719 88.7793 68.8995 89.3032 68.4468 91.7651C68.0602 93.8354 69.3014 96.0786 71.0613 97.1569C71.4937 97.4214 71.9871 97.6198 72.4805 97.7114C73.1417 97.8334 73.6555 97.7215 74.3015 97.6605C74.0472 97.691 74.51 97.691 74.5609 97.691C74.6932 97.691 74.8356 97.691 74.9678 97.6707C75.2985 97.6402 75.6444 97.5995 75.975 97.5282C76.4887 97.4214 76.9974 97.2281 77.4501 96.9636C78.9863 96.1091 80.0036 94.3186 79.8611 92.5434C79.7747 91.4548 79.3677 90.4935 78.4115 89.8983C77.2365 89.171 75.6851 88.9268 74.332 88.8556C73.6758 88.8302 73.1214 89.4456 73.1214 90.0713C73.1214 90.758 73.6758 91.2514 74.332 91.2819C74.5609 91.2921 74.7949 91.3124 75.0289 91.3429C74.7847 91.3124 75.1764 91.3735 75.1866 91.3735C75.3086 91.3938 75.4307 91.4142 75.5528 91.4447C75.797 91.4955 76.036 91.5515 76.27 91.6227C76.3819 91.6532 76.4887 91.6939 76.6006 91.7346C76.6718 91.755 76.7431 91.7855 76.8143 91.816C76.6922 91.7651 76.7024 91.7651 76.8143 91.816C76.9872 91.9076 77.1551 91.9889 77.3178 92.111C77.0686 91.9381 77.267 92.0805 77.3178 92.1415C77.1093 91.9381 77.2365 92.0093 77.2772 92.1008C77.2975 92.1415 77.328 92.2077 77.3585 92.2484C77.4806 92.4213 77.267 91.9584 77.328 92.1721C77.3585 92.289 77.3992 92.4213 77.4298 92.5434C77.4908 92.757 77.3484 92.5027 77.4298 92.4315C77.4196 92.4315 77.4501 92.6044 77.4501 92.6248C77.4501 92.757 77.4501 92.8842 77.4501 93.0164C77.4501 93.047 77.4501 93.1996 77.4298 93.2199C77.4908 93.169 77.4908 92.9249 77.4298 93.169C77.3891 93.3318 77.3585 93.4946 77.2975 93.6421C77.2772 93.7031 77.2568 93.7947 77.2161 93.8455C77.3992 93.5607 77.2568 93.7438 77.2161 93.8252C77.1449 93.9575 77.0686 94.0897 76.9872 94.2067C76.7736 94.4509 76.9465 94.2779 76.9872 94.2067C76.9364 94.2677 76.8855 94.3288 76.8346 94.3796C76.7838 94.4305 76.7227 94.4915 76.6617 94.5526C76.6006 94.6136 76.3209 94.8171 76.5905 94.6238C76.4786 94.7052 76.3616 94.7866 76.2395 94.8527C76.1581 94.8934 76.0869 94.9341 76.0055 94.9748C75.7461 95.1172 76.2497 94.8934 75.9648 94.9951C75.7868 95.0562 75.6037 95.1172 75.4104 95.1681C75.3086 95.1884 75.2069 95.2088 75.1103 95.2291C74.9678 95.2495 74.9678 95.2495 75.1103 95.2291C75.0391 95.2291 74.9577 95.2393 74.8865 95.2495C74.6423 95.2698 74.4134 95.2495 74.1794 95.2495C73.8844 95.2495 73.625 95.3308 73.3401 95.3715C73.6555 95.3207 73.3401 95.3614 73.2791 95.3614C73.1875 95.3614 73.1011 95.3614 72.9993 95.3614C72.7043 95.3512 73.2384 95.4326 72.9586 95.3512C72.8467 95.3207 72.7246 95.28 72.6026 95.2495C72.333 95.1782 72.745 95.341 72.6026 95.2495C72.5415 95.2088 72.4652 95.1782 72.4042 95.1477C72.3228 95.107 72.2414 95.0562 72.1702 95.0053C72.1295 94.9748 71.8752 94.7967 72.1193 94.9748C71.9769 94.8527 71.8345 94.7357 71.7073 94.6035C71.6463 94.5322 71.5751 94.461 71.514 94.3898C71.4733 94.3389 71.4327 94.2983 71.392 94.2474C71.4835 94.3695 71.4937 94.3796 71.4123 94.2677C71.3106 94.1101 71.2088 93.9575 71.1224 93.7947C71.0817 93.7133 71.041 93.6319 71.0003 93.5505C70.8579 93.2809 71.0817 93.7947 70.9799 93.5149C70.9189 93.342 70.8579 93.1792 70.8172 93.0063C70.7968 92.9249 70.7867 92.8384 70.7663 92.757C70.746 92.6248 70.746 92.6451 70.7663 92.8282C70.7663 92.7774 70.7663 92.7163 70.7561 92.6655C70.7561 92.5332 70.7154 92.3196 70.7663 92.1873C70.6341 92.5027 70.746 92.2992 70.7765 92.2178C70.7867 92.1721 70.807 92.1314 70.8172 92.0805C70.8579 91.9584 70.8477 91.9889 70.7765 92.1721C70.7765 92.1517 70.868 91.9889 70.8782 91.9788C70.7561 92.1314 70.7358 92.1517 70.8273 92.0602C70.868 92.0195 70.8986 91.9889 70.9393 91.9482C70.7256 92.1619 70.9087 91.9788 70.9799 91.9381C71.0918 91.8669 71.2088 91.8058 71.3309 91.755C71.6361 91.6024 71.1122 91.816 71.4428 91.7143C71.5954 91.6634 71.7378 91.6125 71.8854 91.5718C72.1702 91.4955 72.4551 91.4345 72.7348 91.3836C72.7348 91.3836 73.1468 91.3226 72.9179 91.3531C73.0909 91.3328 73.2486 91.3124 73.4215 91.3022C73.7064 91.2819 73.9861 91.2819 74.2811 91.2921C74.9373 91.3124 75.4918 90.7173 75.4918 90.0815C75.4918 89.4049 74.9373 88.8861 74.2811 88.8658L74.332 88.8556Z" fill="#001834"/>
<path d="M57.6535 81.587C52.6533 78.0773 49.3521 85.3053 52.9585 88.3624C54.5201 89.8884 56.7226 89.4153 57.8315 88.2301C58.9455 87.05 59.8305 83.1232 57.6535 81.587Z" fill="#001834"/>
<path d="M96.2914 81.9838C91.0929 79.0641 88.1121 86.404 91.7999 89.1406C93.4022 90.5343 95.5945 89.868 96.6627 88.5963C97.736 87.3247 98.5498 83.2452 96.2914 81.9838Z" fill="#001834"/>
<path d="M112.502 79.8626C114.725 79.71 116.978 79.8321 119.155 79.2878C119.776 79.1352 120.198 78.4078 120.005 77.7923C119.812 77.1768 119.176 76.7852 118.509 76.9429C118.24 77.0141 117.955 77.0751 117.685 77.126C117.563 77.1463 117.441 77.1667 117.329 77.187C116.948 77.2481 117.563 77.1667 117.177 77.2074C116.663 77.2684 116.149 77.2989 115.635 77.3193C114.593 77.36 113.555 77.3701 112.512 77.4414C111.887 77.482 111.271 77.9653 111.302 78.652C111.332 79.2674 111.836 79.9134 112.512 79.8626H112.502Z" fill="#001834"/>
<path d="M112.502 86.3023C114.374 86.3023 116.261 86.1752 118.087 85.7276C118.703 85.575 119.125 84.8527 118.937 84.2321C118.743 83.6166 118.108 83.2249 117.441 83.3877C117.039 83.4895 116.622 83.5657 116.21 83.637C116.078 83.6573 115.956 83.6777 115.824 83.698C115.564 83.7387 116.047 83.6777 115.768 83.698C115.554 83.7183 115.34 83.7489 115.137 83.7692C114.272 83.8506 113.392 83.8709 112.512 83.8709C111.876 83.8709 111.271 84.4254 111.302 85.0816C111.332 85.7377 111.836 86.2922 112.512 86.2922L112.502 86.3023Z" fill="#001834"/>
<path d="M37.6018 78.4891C36.559 78.4179 35.5214 78.4179 34.4837 78.367C33.9649 78.3467 33.4511 78.306 32.9374 78.2551C32.6729 78.2246 33.0696 78.2856 32.7848 78.2348C32.6627 78.2144 32.5406 78.1941 32.4338 78.1788C32.149 78.1279 31.8743 78.0669 31.6047 77.9957C30.9892 77.8431 30.2618 78.1941 30.1092 78.8451C29.9566 79.4911 30.3025 80.1677 30.9587 80.3355C33.1408 80.8798 35.3891 80.7628 37.612 80.9103C38.2478 80.951 38.8531 80.3253 38.8226 79.6997C38.7921 79.0028 38.2885 78.54 37.612 78.4891H37.6018Z" fill="#001834"/>
<path d="M37.6022 84.9288C36.7222 84.9288 35.8423 84.8982 34.9775 84.8321C34.7639 84.8118 34.5503 84.7914 34.3519 84.7609C34.0263 84.7202 34.6113 84.8016 34.2908 84.7609C34.1789 84.7406 34.067 84.7304 33.9551 84.71C33.5228 84.6388 33.1006 84.5473 32.6733 84.4455C32.0578 84.2929 31.3304 84.6388 31.1778 85.295C31.0303 85.9512 31.3711 86.6277 32.0273 86.7905C33.8534 87.2432 35.7354 87.3652 37.6124 87.3652C38.2482 87.3652 38.8535 86.8108 38.823 86.1546C38.7925 85.4985 38.2889 84.9389 37.6124 84.9389L37.6022 84.9288Z" fill="#001834"/>
<path d="M96.9171 97.4013C97.1002 97.3505 97.2782 97.3098 97.4715 97.2793C97.5325 97.2691 97.6037 97.2589 97.6648 97.2487C97.6953 97.2487 97.8835 97.2182 97.7462 97.2386C97.6037 97.2589 97.8225 97.2386 97.8326 97.2284C97.8937 97.2284 97.9547 97.2182 98.0158 97.208C98.5499 97.147 99.089 97.1165 99.6231 97.1165C100.157 97.1165 100.661 97.1165 101.175 97.1673C101.256 97.1673 101.592 97.2182 101.347 97.1877C101.47 97.208 101.581 97.2284 101.704 97.2487C101.892 97.2894 102.075 97.3403 102.258 97.4013L102.044 95.7431C101.993 95.7736 101.943 95.794 101.882 95.8245C101.8 95.8652 101.754 95.8855 101.871 95.8347C101.765 95.8855 101.643 95.9262 101.52 95.9669C101.256 96.0483 100.997 96.1195 100.732 96.1805C100.198 96.2975 99.6536 96.3891 99.1094 96.501C98.0361 96.7146 96.8967 97.0351 96.1286 97.854C95.6759 98.3373 95.8438 99.1969 96.5305 99.3698C98.3718 99.8429 100.3 99.67 102.177 99.67C102.65 99.67 103.107 99.2579 103.087 98.7645C103.067 98.2661 102.68 97.854 102.177 97.854C101.276 97.854 100.381 97.8947 99.4807 97.8744C99.0483 97.8744 98.6109 97.854 98.1785 97.8133C98.0666 97.8032 97.9547 97.793 97.8326 97.7727C97.7767 97.7727 97.7767 97.7727 97.8326 97.7727C97.7767 97.7727 97.7157 97.7523 97.6444 97.7421C97.4308 97.7014 97.2172 97.6607 97.0086 97.6099L97.4105 99.1257C97.4918 99.0443 97.5732 98.9731 97.6546 98.8917C97.502 99.024 97.6139 98.9222 97.6546 98.8917C97.7055 98.8612 97.7563 98.8358 97.797 98.8052C97.8937 98.7442 97.9954 98.6933 98.1073 98.6425C98.2599 98.5611 98.0158 98.673 98.1277 98.6425C98.1887 98.6221 98.2396 98.6018 98.3006 98.5814C98.794 98.4085 99.3078 98.2966 99.8113 98.205C100.885 98.0066 101.973 97.8337 102.945 97.3199C103.265 97.147 103.428 96.7553 103.377 96.4094C103.326 96.0381 103.077 95.7838 102.731 95.6515C101.775 95.2904 100.63 95.2904 99.6231 95.3006C98.6109 95.3107 97.4613 95.3819 96.444 95.6515C95.976 95.7736 95.6556 96.3077 95.8031 96.7757C95.9557 97.2386 96.4338 97.5387 96.9272 97.4115L96.9171 97.4013Z" fill="#E87C7C"/>
<path d="M48.355 96.5822C48.5331 96.5313 48.7264 96.4906 48.9196 96.4601C48.9807 96.45 49.0519 96.4398 49.1129 96.4296C49.1435 96.4296 49.3317 96.3991 49.1892 96.4194C49.0519 96.4398 49.2808 96.4194 49.2808 96.4093C49.3418 96.4093 49.4029 96.3991 49.4639 96.3889C50.0082 96.3279 50.5524 96.2974 51.1018 96.2974C51.6461 96.2974 52.1598 96.2974 52.6837 96.3482C52.7651 96.3482 53.1008 96.3991 52.8668 96.3686C52.9889 96.3889 53.111 96.4093 53.2178 96.4296C53.4111 96.4703 53.6044 96.5212 53.7875 96.5822L53.5739 94.924C53.523 94.9545 53.462 94.9748 53.4111 95.0054C53.3297 95.0461 53.2789 95.0664 53.3908 95.0155C53.2687 95.0664 53.1568 95.1071 53.0398 95.1478C52.7753 95.2292 52.5006 95.3004 52.231 95.3614C51.6868 95.4835 51.1221 95.57 50.5728 95.6819C49.4843 95.8955 48.3347 96.216 47.5463 97.0349C47.0834 97.5181 47.2716 98.388 47.9481 98.5507C49.8251 99.0238 51.7885 98.8508 53.696 98.8508C54.169 98.8508 54.6217 98.4388 54.6014 97.9454C54.581 97.452 54.1995 97.0349 53.696 97.0349C52.7753 97.0349 51.8648 97.0756 50.9492 97.0553C50.5016 97.0553 50.059 97.0349 49.6165 96.9942C49.5046 96.984 49.3825 96.9739 49.2706 96.9535C49.2096 96.9535 49.2096 96.9535 49.2706 96.9535C49.2096 96.9535 49.1435 96.9332 49.0824 96.923C48.8586 96.8823 48.645 96.8467 48.4364 96.7958L48.8383 98.3066C48.9196 98.2252 49.001 98.1489 49.0926 98.0777C48.9298 98.2048 49.0621 98.1082 49.1028 98.0777C49.1536 98.0472 49.1994 98.0166 49.2503 97.9861C49.352 97.9251 49.4639 97.8742 49.5656 97.8233C49.7182 97.7521 49.4843 97.8437 49.586 97.8233C49.647 97.803 49.7081 97.7826 49.7589 97.7623C50.2625 97.5894 50.7864 97.4825 51.3002 97.391C52.3938 97.1875 53.5027 97.0146 54.4895 96.5008C54.815 96.3279 54.9778 95.9362 54.9269 95.5903C54.8761 95.219 54.6217 94.9647 54.2809 94.8375C53.2992 94.4713 52.1395 94.4713 51.112 94.4814C50.0794 94.4916 48.9095 94.5628 47.8667 94.8375C47.3937 94.9545 47.1037 95.4835 47.2309 95.9566C47.3631 96.4296 47.8667 96.7145 48.355 96.5924V96.5822Z" fill="#E87C7C"/>
</svg>
