<svg viewBox="0 0 32 33" fill="none" xmlns="http://www.w3.org/2000/svg">
<g clip-path="url(#clip0_190_7920)">
<path d="M16 32.5C24.8366 32.5 32 25.3366 32 16.5C32 7.66344 24.8366 0.5 16 0.5C7.16344 0.5 0 7.66344 0 16.5C0 25.3366 7.16344 32.5 16 32.5Z" fill="#FEE500"/>
<path d="M16.046 8.22205C11.0682 8.22205 7.05371 11.4336 7.05371 15.3324C7.05371 17.8632 8.72373 20.0792 11.2288 21.3445L10.3809 24.5112C10.3649 24.5585 10.3625 24.6096 10.3738 24.6582C10.3852 24.707 10.4098 24.7518 10.4451 24.7873C10.4966 24.8326 10.5628 24.8577 10.6314 24.8579C10.6883 24.8534 10.7423 24.8309 10.7856 24.7937L14.4339 22.3337C14.9724 22.408 15.5153 22.4465 16.059 22.4493C21.0305 22.4493 25.0513 19.2377 25.0513 15.3324C25.0513 11.4272 21.0176 8.22205 16.046 8.22205Z" fill="#392020"/>
<path d="M10.2007 14.2084H9.21799C9.0962 14.2119 8.9759 14.1807 8.87114 14.1184C8.82465 14.0893 8.78466 14.0509 8.75372 14.0055C8.72276 13.9602 8.70151 13.909 8.6913 13.8551C8.68818 13.8209 8.68818 13.7865 8.6913 13.7524C8.68825 13.6884 8.70067 13.6246 8.7275 13.5665C8.75435 13.5083 8.79479 13.4575 8.84545 13.4183C8.95743 13.3372 9.0926 13.2944 9.23084 13.2963H12.1919C12.3147 13.2919 12.4358 13.3256 12.5388 13.3926C12.5864 13.4205 12.6272 13.4586 12.6583 13.5041C12.6894 13.5497 12.71 13.6015 12.7186 13.656C12.7218 13.688 12.7218 13.7203 12.7186 13.7524C12.7216 13.8172 12.7093 13.8819 12.6825 13.9411C12.6557 14.0003 12.6152 14.0522 12.5645 14.0927C12.4552 14.1737 12.3214 14.2146 12.1855 14.2084H11.2349V17.587C11.2387 17.6589 11.2276 17.7309 11.2022 17.7984C11.1767 17.8658 11.1376 17.9272 11.0871 17.9787C11.0388 18.028 10.9807 18.0666 10.9165 18.092C10.8523 18.1174 10.7836 18.1293 10.7146 18.1266C10.594 18.1299 10.4759 18.0914 10.3806 18.0173C10.2898 17.945 10.2283 17.8424 10.2072 17.7283C10.2008 17.6814 10.2008 17.6339 10.2072 17.587L10.2007 14.2084Z" fill="#FEE500"/>
<path d="M13.0022 13.5468C13.0304 13.4411 13.0968 13.3495 13.1884 13.2898C13.2861 13.2345 13.3974 13.2077 13.5096 13.2128H13.7537C13.8727 13.2085 13.9906 13.2374 14.0941 13.2963C14.2038 13.37 14.2818 13.4824 14.3125 13.611L15.5971 17.24C15.6304 17.3348 15.6583 17.4312 15.6806 17.5292C15.6828 17.5698 15.6828 17.6104 15.6806 17.6511C15.6828 17.7138 15.6713 17.776 15.6468 17.8338C15.6224 17.8914 15.5857 17.9431 15.5393 17.9852C15.4943 18.0312 15.4403 18.0677 15.3806 18.092C15.3209 18.1162 15.2569 18.128 15.1924 18.1265C15.0934 18.1364 14.9939 18.1125 14.91 18.0589C14.8261 18.0053 14.7627 17.925 14.73 17.8311L14.4602 17.041H12.7709L12.5012 17.8311C12.4692 17.9269 12.4051 18.0088 12.3196 18.0626C12.2341 18.1165 12.1325 18.1391 12.0323 18.1265C11.9236 18.1293 11.8173 18.0954 11.7304 18.0301C11.6457 17.9628 11.5886 17.8669 11.5698 17.7604C11.5664 17.724 11.5664 17.6874 11.5698 17.6511C11.5588 17.5874 11.5588 17.5223 11.5698 17.4584C11.5698 17.3879 11.6148 17.3108 11.6404 17.24L13.0022 13.5468ZM13.6445 14.3882L13.0343 16.3152H14.2482L13.6445 14.3882Z" fill="#FEE500"/>
<path d="M15.8277 13.7524C15.8212 13.6083 15.872 13.4674 15.969 13.3606C16.0184 13.3109 16.0776 13.272 16.1428 13.2465C16.2081 13.2211 16.278 13.2096 16.348 13.2128C16.4683 13.2114 16.5857 13.2498 16.682 13.322C16.7712 13.3974 16.8305 13.5022 16.8489 13.6175C16.8553 13.6622 16.8553 13.7077 16.8489 13.7524V17.131H18.6153C18.7377 17.1294 18.8582 17.1627 18.9622 17.2273C19.0089 17.2561 19.0491 17.2945 19.0801 17.3398C19.1112 17.3853 19.1323 17.4366 19.142 17.4907C19.142 17.4907 19.142 17.5549 19.142 17.587C19.1451 17.651 19.1326 17.7147 19.1059 17.7728C19.079 17.831 19.0385 17.8819 18.988 17.9211C18.876 18.0021 18.7408 18.0449 18.6025 18.043H16.4315C16.2932 18.052 16.1558 18.016 16.0396 17.9403C15.9358 17.8627 15.8666 17.7473 15.847 17.6192C15.8423 17.5486 15.8423 17.4777 15.847 17.4072L15.8277 13.7524Z" fill="#FEE500"/>
<path d="M19.2581 13.7526C19.2542 13.6088 19.3046 13.469 19.3994 13.3608C19.4957 13.2733 19.6192 13.2216 19.7491 13.2146C19.8789 13.2076 20.0072 13.2456 20.1123 13.3222C20.2035 13.3969 20.2651 13.5016 20.2858 13.6176C20.289 13.6625 20.289 13.7077 20.2858 13.7526V15.3262L21.9109 13.4506C21.9734 13.3866 22.04 13.3266 22.1099 13.2708C22.176 13.2315 22.2517 13.2115 22.3283 13.213C22.4406 13.2123 22.5504 13.246 22.643 13.3093C22.6867 13.3387 22.724 13.3767 22.7528 13.4208C22.7814 13.465 22.801 13.5144 22.8101 13.5663C22.8126 13.579 22.8126 13.5921 22.8101 13.6048C22.807 13.6197 22.807 13.635 22.8101 13.6498C22.8099 13.7174 22.7922 13.7838 22.7587 13.8425C22.7246 13.9047 22.6837 13.9628 22.6366 14.0158L21.5704 15.1849L22.855 17.176V17.2403C22.9218 17.3323 22.9738 17.4342 23.0093 17.5422V17.5742C23.0166 17.6488 23.0059 17.7238 22.9779 17.7933C22.9499 17.8626 22.9056 17.9242 22.8486 17.9725C22.7414 18.0536 22.6104 18.0965 22.4762 18.0946C22.3869 18.0982 22.2982 18.0782 22.2192 18.0368C22.1336 17.9794 22.0632 17.9022 22.0136 17.812L20.8189 15.885L20.2472 16.4824V17.555C20.251 17.6987 20.2006 17.8386 20.1059 17.9469C20.0552 17.9965 19.9949 18.0352 19.9285 18.0606C19.8622 18.0859 19.7915 18.0976 19.7206 18.0946C19.6021 18.0971 19.4864 18.0586 19.393 17.9854C19.3022 17.9131 19.2406 17.8104 19.2195 17.6963C19.2133 17.6494 19.2133 17.6019 19.2195 17.555L19.2581 13.7526Z" fill="#FEE500"/>
</g>
</svg>
