<svg viewBox="0 0 26 27" fill="none" xmlns="http://www.w3.org/2000/svg">
<path d="M11.7 1.8V7C11.7 7.34478 11.837 7.67544 12.0808 7.91924C12.3246 8.16304 12.6552 8.3 13 8.3H20.5309C20.6595 8.29997 20.7852 8.26179 20.8921 8.19028C20.999 8.11878 21.0823 8.01716 21.1315 7.8983C21.1806 7.77944 21.1934 7.64867 21.1681 7.52255C21.1429 7.39643 21.0809 7.28063 20.9898 7.1898L18.4288 4.6288C18.3681 4.56788 18.334 4.48537 18.334 4.39935C18.334 4.31333 18.3681 4.23082 18.4288 4.1699L20.9898 1.6089C21.0804 1.518 21.1421 1.40231 21.1671 1.27641C21.192 1.15051 21.1791 1.02004 21.1301 0.901449C21.081 0.782854 20.9979 0.681443 20.8913 0.610001C20.7846 0.538559 20.6592 0.500284 20.5309 0.5H13C12.6552 0.5 12.3246 0.636964 12.0808 0.880761C11.837 1.12456 11.7 1.45522 11.7 1.8ZM21.84 26.5H4.16C2.704 26.5 1.976 26.5 1.4196 26.2166C0.9304 25.9673 0.532667 25.5696 0.2834 25.0804C-7.7486e-08 24.524 0 23.796 0 22.34V15.06C0 13.604 -7.7486e-08 12.876 0.2834 12.3196C0.532667 11.8304 0.9304 11.4327 1.4196 11.1834C1.976 10.9 2.704 10.9 4.16 10.9H6.5312C6.9667 10.9 7.1838 10.9 7.3372 10.9897C7.47031 11.0679 7.57123 11.191 7.6219 11.3368C7.6791 11.5045 7.6362 11.7177 7.5517 12.1428L5.6979 21.4118C5.5276 22.2646 5.4418 22.691 5.5575 23.0238C5.65836 23.3171 5.86077 23.5647 6.1282 23.7219C6.4324 23.9 6.8679 23.9 7.7376 23.9H18.2624C19.1334 23.9 19.5676 23.9 19.8718 23.7219C20.1395 23.5653 20.3423 23.3182 20.4438 23.0251C20.5582 22.691 20.4724 22.2646 20.3021 21.4131L18.4483 12.1441C18.3638 11.7177 18.3209 11.5045 18.3781 11.3381C18.4288 11.1916 18.5303 11.068 18.6641 10.9897C18.8162 10.9 19.0333 10.9 19.4688 10.9H21.84C23.296 10.9 24.024 10.9 24.5804 11.1834C25.0696 11.4327 25.4673 11.8304 25.7166 12.3196C26 12.876 26 13.604 26 15.06V22.34C26 23.796 26 24.524 25.7166 25.0804C25.4673 25.5696 25.0696 25.9673 24.5804 26.2166C24.024 26.5 23.296 26.5 21.84 26.5Z" fill="#FEFEFE"/>
</svg>
