<svg width="24" height="25" viewBox="0 0 24 25" fill="none" xmlns="http://www.w3.org/2000/svg">
<path fill-rule="evenodd" clip-rule="evenodd" d="M2.90381 4.40381C4.12279 3.18482 5.77609 2.5 7.5 2.5C8.48018 2.5 9.37318 2.64018 10.2468 3.02068C10.8597 3.28762 11.4321 3.65937 12 4.13935C12.5679 3.65937 13.1403 3.28762 13.7532 3.02068C14.6268 2.64018 15.5198 2.5 16.5 2.5C18.2239 2.5 19.8772 3.18482 21.0962 4.40381C22.3152 5.62279 23 7.27609 23 9C23 11.7418 21.1907 13.7531 19.7036 15.2106L12.7071 22.2071C12.3166 22.5976 11.6834 22.5976 11.2929 22.2071L4.29883 15.213C2.7944 13.758 1 11.7494 1 9C1 7.27609 1.68482 5.62279 2.90381 4.40381ZM7.5 4.5C6.30653 4.5 5.16193 4.97411 4.31802 5.81802C3.47411 6.66193 3 7.80653 3 9C3 10.8469 4.2007 12.3365 5.69502 13.781C5.69908 13.7849 5.70311 13.7889 5.70711 13.7929L12 20.0858L18.2929 13.7929C18.2953 13.7905 18.2977 13.7881 18.3001 13.7857C19.7923 12.3236 21 10.8359 21 9C21 7.80653 20.5259 6.66193 19.682 5.81802C18.8381 4.97411 17.6935 4.5 16.5 4.5C15.7202 4.5 15.1132 4.60982 14.5518 4.85432C13.984 5.10163 13.4001 5.5141 12.7071 6.20711C12.3166 6.59763 11.6834 6.59763 11.2929 6.20711C10.5999 5.5141 10.016 5.10163 9.44819 4.85432C8.88682 4.60982 8.27982 4.5 7.5 4.5Z" fill="#FF5434"/>
<path fill-rule="evenodd" clip-rule="evenodd" d="M13.937 8.00201C14.3593 7.97525 14.7527 8.21717 14.9194 8.60609L16.1596 11.5H20.7702C21.3225 11.5 21.7702 11.9477 21.7702 12.5C21.7702 13.0523 21.3225 13.5 20.7702 13.5H15.5002C15.1002 13.5 14.7386 13.2616 14.5811 12.8939L14.189 11.9792L12.9617 16.2747C12.8462 16.6792 12.4898 16.9682 12.0701 16.9976C11.6505 17.027 11.2573 16.7906 11.0864 16.4061L9.77739 13.4609C9.68858 13.4865 9.59542 13.5 9.50021 13.5H3.22021C2.66793 13.5 2.22021 13.0523 2.22021 12.5C2.22021 11.9477 2.66793 11.5 3.22021 11.5H8.88218L9.10579 11.0528C9.27884 10.7067 9.63606 10.4915 10.0229 10.5003C10.4098 10.5091 10.7569 10.7403 10.914 11.0939L11.7954 13.0769L13.0387 8.72529C13.1549 8.31843 13.5147 8.02878 13.937 8.00201Z" fill="#FF5434"/>
</svg>
