<svg viewBox="0 0 40 39" fill="none" xmlns="http://www.w3.org/2000/svg">
<path fill-rule="evenodd" clip-rule="evenodd" d="M29.5997 5.0999C27.8324 5.0999 26.3997 6.53259 26.3997 8.2999C26.3997 10.0672 27.8324 11.4999 29.5997 11.4999C31.367 11.4999 32.7997 10.0672 32.7997 8.2999C32.7997 6.53259 31.367 5.0999 29.5997 5.0999ZM23.1997 8.2999C23.1997 4.76528 26.0651 1.8999 29.5997 1.8999C33.1343 1.8999 35.9997 4.76528 35.9997 8.2999C35.9997 11.8345 33.1343 14.6999 29.5997 14.6999C26.0651 14.6999 23.1997 11.8345 23.1997 8.2999Z" fill="black"/>
<path fill-rule="evenodd" clip-rule="evenodd" d="M10.4 16.2996C8.63269 16.2996 7.2 17.7323 7.2 19.4996C7.2 21.2669 8.63269 22.6996 10.4 22.6996C12.1673 22.6996 13.6 21.2669 13.6 19.4996C13.6 17.7323 12.1673 16.2996 10.4 16.2996ZM4 19.4996C4 15.965 6.86538 13.0996 10.4 13.0996C13.9346 13.0996 16.8 15.965 16.8 19.4996C16.8 23.0342 13.9346 25.8996 10.4 25.8996C6.86538 25.8996 4 23.0342 4 19.4996Z" fill="black"/>
<path fill-rule="evenodd" clip-rule="evenodd" d="M29.5997 27.4998C27.8324 27.4998 26.3997 28.9325 26.3997 30.6998C26.3997 32.4671 27.8324 33.8998 29.5997 33.8998C31.367 33.8998 32.7997 32.4671 32.7997 30.6998C32.7997 28.9325 31.367 27.4998 29.5997 27.4998ZM23.1997 30.6998C23.1997 27.1652 26.0651 24.2998 29.5997 24.2998C33.1343 24.2998 35.9997 27.1652 35.9997 30.6998C35.9997 34.2344 33.1343 37.0998 29.5997 37.0998C26.0651 37.0998 23.1997 34.2344 23.1997 30.6998Z" fill="black"/>
<path fill-rule="evenodd" clip-rule="evenodd" d="M13.1612 21.1101C13.6061 20.3466 14.5857 20.0884 15.3492 20.5333L26.2772 26.9013C27.0407 27.3462 27.2989 28.3258 26.854 29.0893C26.4091 29.8527 25.4295 30.111 24.6661 29.6661L13.7381 23.2981C12.9746 22.8532 12.7163 21.8736 13.1612 21.1101Z" fill="black"/>
<path fill-rule="evenodd" clip-rule="evenodd" d="M26.8375 9.90954C27.2829 10.6727 27.0253 11.6525 26.2621 12.0979L15.3501 18.4659C14.5869 18.9113 13.6071 18.6536 13.1617 17.8904C12.7163 17.1272 12.974 16.1475 13.7372 15.7021L24.6492 9.33408C25.4124 8.8887 26.3921 9.14634 26.8375 9.90954Z" fill="black"/>
</svg>
