<svg viewBox="0 0 36 36" fill="none" xmlns="http://www.w3.org/2000/svg">
<path fill-rule="evenodd" clip-rule="evenodd" d="M31.5 12.5161C31.5036 12.3208 31.4548 12.1281 31.3588 11.9579C31.2628 11.7878 31.123 11.6465 30.954 11.5486L19.713 4.95607C19.2059 4.65883 18.6289 4.50177 18.0411 4.50098C17.4533 4.50019 16.8759 4.6557 16.368 4.95157L5.052 11.5471C4.88246 11.6449 4.74225 11.7864 4.64596 11.9568C4.54967 12.1272 4.50082 12.3204 4.5045 12.5161H4.5V23.6611H4.506C4.51033 23.8523 4.56468 24.0391 4.66363 24.2027C4.76258 24.3664 4.90269 24.5014 5.07 24.5941L16.4145 30.9571C16.9111 31.2355 17.471 31.3814 18.0403 31.3806C18.6097 31.3798 19.1692 31.2324 19.665 30.9526L30.9375 24.5926C31.1041 24.4999 31.2436 24.3654 31.3423 24.2023C31.4409 24.0392 31.4953 23.8531 31.5 23.6626V12.5161ZM7.146 13.3621C7.01657 13.2949 6.8661 13.2806 6.72633 13.3222C6.58657 13.3638 6.46843 13.4581 6.39683 13.5852C6.32524 13.7122 6.30578 13.8621 6.34256 14.0032C6.37935 14.1443 6.4695 14.2656 6.594 14.3416L16.1325 19.7236C16.7169 20.0524 17.3764 20.2244 18.0469 20.2228C18.7175 20.2213 19.3762 20.0462 19.959 19.7146L29.376 14.3401C29.442 14.3044 29.5001 14.2559 29.5471 14.1975C29.5941 14.139 29.6289 14.0717 29.6495 13.9996C29.67 13.9275 29.676 13.852 29.667 13.7776C29.658 13.7031 29.6342 13.6312 29.5969 13.5661C29.5597 13.501 29.5099 13.444 29.4503 13.3985C29.3908 13.3529 29.3227 13.3197 29.2501 13.3008C29.1776 13.2819 29.1019 13.2778 29.0277 13.2886C28.9535 13.2993 28.8822 13.3248 28.818 13.3636L19.401 18.7366C18.561 19.2166 17.529 19.2196 16.686 18.7441L7.146 13.3621Z" fill="currentColor"/>
</svg>
