<svg viewBox="0 0 28 29" fill="none" xmlns="http://www.w3.org/2000/svg">
<path fill-rule="evenodd" clip-rule="evenodd" d="M11.6257 3.77753C11.3934 3.60749 11.1229 3.49699 10.838 3.45571C10.553 3.41442 10.2623 3.4436 9.99123 3.5407C8.72388 4.00523 7.54675 4.68616 6.51223 5.5532C6.29308 5.73927 6.12279 5.97614 6.01623 6.24316C5.90967 6.51017 5.87007 6.7992 5.9009 7.08503C5.9884 7.96353 5.83323 8.8117 5.4109 9.54203C4.98973 10.2735 4.33173 10.8324 3.52673 11.1952C3.26341 11.3117 3.03267 11.491 2.8547 11.7174C2.67674 11.9438 2.55698 12.2103 2.5059 12.4937C2.27407 13.8214 2.27407 15.1793 2.5059 16.507C2.6144 17.1335 3.04257 17.5874 3.52673 17.8067C4.33173 18.1684 4.98973 18.7284 5.41207 19.4587C5.83323 20.1902 5.9884 21.0372 5.9009 21.9157C5.8484 22.443 6.02573 23.0404 6.51223 23.4475C7.54675 24.3146 8.72388 24.9955 9.99123 25.46C10.2621 25.5569 10.5526 25.586 10.8374 25.5447C11.1221 25.5034 11.3924 25.393 11.6246 25.2232C12.3421 24.7075 13.1552 24.417 13.9999 24.417C14.8446 24.417 15.6566 24.7075 16.3741 25.2232C16.8057 25.5335 17.4124 25.6782 18.0086 25.46C19.2759 24.9955 20.4531 24.3146 21.4876 23.4475C21.9741 23.0404 22.1526 22.4442 22.0989 21.9157C22.0114 21.0372 22.1654 20.189 22.5889 19.4587C23.0101 18.7272 23.6681 18.1695 24.4731 17.8067C24.9561 17.5885 25.3854 17.1335 25.4939 16.507C25.7257 15.1793 25.7257 13.8214 25.4939 12.4937C25.4428 12.2103 25.3231 11.9438 25.1451 11.7174C24.9671 11.491 24.7364 11.3117 24.4731 11.1952C23.6681 10.8324 23.0101 10.2735 22.5877 9.54203C22.1654 8.8117 22.0114 7.96353 22.0989 7.08503C22.1297 6.7992 22.0901 6.51017 21.9836 6.24316C21.877 5.97614 21.7067 5.73927 21.4876 5.5532C20.4531 4.68616 19.2759 4.00523 18.0086 3.5407C17.7377 3.4438 17.4472 3.41473 17.1625 3.45601C16.8777 3.4973 16.6075 3.60769 16.3752 3.77753C15.6566 4.29203 14.8434 4.5837 13.9999 4.5837C13.1564 4.5837 12.3432 4.2932 11.6257 3.77753ZM10.4999 14.5004C10.4999 13.5721 10.8686 12.6819 11.525 12.0255C12.1814 11.3691 13.0716 11.0004 13.9999 11.0004C14.9282 11.0004 15.8184 11.3691 16.4748 12.0255C17.1312 12.6819 17.4999 13.5721 17.4999 14.5004C17.4999 15.4286 17.1312 16.3189 16.4748 16.9752C15.8184 17.6316 14.9282 18.0004 13.9999 18.0004C13.0716 18.0004 12.1814 17.6316 11.525 16.9752C10.8686 16.3189 10.4999 15.4286 10.4999 14.5004Z" fill="currentColor"/>
</svg>
