<svg viewBox="0 0 150 150" fill="none" xmlns="http://www.w3.org/2000/svg">
<path d="M71.3021 118.243C72.9739 121.534 64.7916 129.274 71.6093 130.342C74.0781 130.732 76 128.94 77.0781 127.024C77.9896 125.399 79.9531 120.295 79.2552 118.967" fill="#F2ADAD"/>
<path d="M70.3697 118.795C70.4583 118.977 70.3333 118.633 70.3749 118.831C70.3958 118.914 70.4114 118.987 70.4426 119.065C70.4947 119.263 70.4426 118.894 70.4426 119.102C70.4426 119.201 70.4426 119.3 70.4426 119.399C70.4426 119.493 70.4322 119.581 70.4218 119.675C70.4218 119.727 70.4478 119.545 70.4114 119.753C70.3749 119.961 70.3228 120.18 70.2708 120.388C70.0051 121.347 69.6614 122.086 69.302 122.92C68.5416 124.638 67.5208 126.581 67.8281 128.524C68.1978 130.857 70.9739 131.717 73.026 131.435C75.8749 131.039 77.6822 128.55 78.7343 126.081C79.2916 124.774 79.7968 123.435 80.1406 122.05C80.4322 120.904 80.7291 119.565 80.1978 118.44C79.9426 117.909 79.1822 117.774 78.7135 118.055C78.1718 118.373 78.0728 119.003 78.3228 119.539C78.1874 119.248 78.3228 119.482 78.3176 119.545C78.2916 119.81 78.3176 119.3 78.3176 119.602C78.3176 119.774 78.3176 119.946 78.3176 120.118C78.2968 120.461 78.1822 121.003 78.0624 121.472C77.7812 122.586 77.401 123.67 76.9791 124.737C76.2291 126.597 75.0156 128.94 72.7812 129.295C72.2656 129.373 71.7447 129.31 71.2343 129.175C71.1197 129.149 70.9999 129.112 70.8853 129.065C70.8645 129.065 70.6822 128.993 70.8281 129.05C70.7291 129.013 70.6406 128.961 70.5468 128.914C70.5051 128.888 70.1874 128.659 70.3749 128.815C70.3228 128.769 70.0416 128.451 70.1978 128.659C70.1353 128.571 69.9635 128.164 70.0416 128.425C69.9999 128.3 69.9687 128.164 69.9426 128.029C69.9999 128.31 69.9426 128.034 69.9426 127.982C69.9426 127.862 69.9426 127.748 69.9426 127.628C69.9426 127.565 69.9531 127.503 69.9635 127.451C69.9322 127.711 69.9635 127.404 69.9791 127.357C70.0156 127.159 70.0624 126.972 70.1145 126.769C70.2239 126.388 70.3489 126.013 70.4947 125.638C70.7864 124.883 71.1301 124.149 71.4895 123.305C72.2291 121.581 73.1249 119.545 72.2395 117.711C71.9843 117.185 71.2343 117.039 70.7551 117.321C70.2135 117.638 70.1145 118.279 70.3697 118.805V118.795Z" fill="#001834"/>
<path d="M46.6772 52.9509C40.4376 54.1332 37.4845 42.6957 36.7136 38.5186C36.0626 34.9405 34.1251 28.1384 38.4116 25.9144C46.7605 21.5759 50.5574 38.2686 53.7761 42.5707C53.2241 36.3519 68.2449 36.7009 72.1511 37.18C79.3386 38.0655 88.7032 37.154 94.2032 42.8311C94.7449 37.4509 111.354 25.878 113.578 31.555C115.641 36.8207 111.927 45.7998 107.677 49.029C106.177 50.1644 101.417 50.8623 100.714 52.5082C100.526 52.9405 101.526 56.4248 101.599 57.1384C101.807 59.2009 102.042 61.2946 102.224 63.3571C103.063 72.8415 100.766 78.1696 99.1303 84.8623C97.2501 92.529 94.3751 98.0967 93.4636 106.029C92.6303 113.289 90.1511 117.383 84.5574 119.664C80.7293 121.216 67.0053 121.019 63.4324 118.722C60.5782 116.878 60.2397 111.831 59.3647 108.831C58.3178 105.232 56.3699 102.555 54.4272 99.3988C49.6355 91.6071 45.2501 84.003 43.6772 74.8675C42.6355 68.8103 43.7918 58.7946 47.9324 54.0082" fill="#AD6B23"/>
<mask id="mask0_195_11431" style="mask-type:luminance" maskUnits="userSpaceOnUse" x="34" y="23" width="82" height="100">
<path d="M34.0938 23.5967H115.906V122.263H34.0938V23.5967Z" fill="white"/>
</mask>
<g mask="url(#mask0_195_11431)">
<path d="M46.3959 51.904C42.698 52.5238 40.5678 47.5186 39.5522 44.7946C38.323 41.4665 37.5887 37.904 37.047 34.3988C36.7501 32.4717 36.4897 30.1123 37.4532 28.3207C38.2137 26.9196 40.0314 26.0759 41.6147 26.3154C44.6876 26.7582 46.6251 30.5602 47.8803 32.9925C48.8491 34.8571 49.6824 36.7842 50.5366 38.6904C51.2189 40.1904 51.8699 41.7738 52.8543 43.1123C53.422 43.8988 54.9532 43.7477 54.8803 42.5602C54.7501 40.6175 56.6147 39.6957 58.2241 39.1696C60.6459 38.3727 63.2449 38.1384 65.7866 38.0498C67.8543 37.9769 69.9428 38.0134 72.0053 38.2373C75.448 38.6175 78.9324 38.6904 82.3751 39.0967C86.4116 39.5707 90.5157 40.6332 93.4637 43.6019C94.1876 44.3363 95.2085 43.7165 95.3178 42.8311C95.521 41.1071 97.4741 39.18 98.7605 37.9509C100.761 36.0342 103.021 34.3675 105.443 33.029C107.141 32.0915 109.474 30.8154 111.511 31.1332C112.104 31.2217 112.422 31.5029 112.656 32.0811C113.271 33.6384 113.208 35.4925 112.948 37.1071C112.396 40.6019 110.833 44.2061 108.453 46.8363C107.412 47.9873 106.386 48.5654 104.938 49.0707C103.49 49.5759 101.964 49.9873 100.75 50.8884C99.6199 51.7373 99.5678 52.654 99.8178 53.9457C100.073 55.2373 100.505 56.6748 100.625 57.7998C101.12 62.5707 101.672 67.3102 101.057 72.1019C100.578 75.8259 99.4637 79.4196 98.5053 83.0446C97.3751 87.3363 96.021 91.5342 94.6928 95.7634C94.0053 97.9717 93.3907 100.196 92.948 102.466C92.5053 104.737 92.3855 106.878 91.896 109.055C91.1928 112.206 89.7814 115.18 87.0939 117.086C84.8335 118.685 82.448 119.248 79.7449 119.456C76.4897 119.711 73.1824 119.644 69.9428 119.284C67.6824 119.039 64.4741 118.815 63.0157 116.795C60.9532 113.94 61.0887 109.899 59.8074 106.696C58.1251 102.519 55.323 98.8207 53.0522 94.9613C50.7032 90.9821 48.5053 86.8884 46.9116 82.5342C45.4741 78.6227 44.4532 74.5238 44.4376 70.3415C44.4168 66.5602 44.9689 62.7061 46.2918 59.154C46.8699 57.5915 47.6564 56.0602 48.7397 54.779C49.6355 53.7217 48.1043 52.1748 47.2032 53.2425C44.698 56.2061 43.4689 60.0602 42.8178 63.8311C42.1668 67.5967 42.0314 71.6748 42.7293 75.5446C44.5001 85.3311 49.7501 93.9457 54.9585 102.248C56.2553 104.31 57.5001 106.409 58.2345 108.743C58.797 110.529 59.047 112.409 59.5626 114.222C60.0418 115.909 60.7137 117.685 61.9845 118.93C62.9376 119.852 64.1459 120.331 65.4064 120.675C68.5522 121.534 71.9428 121.727 75.1876 121.763C78.1355 121.8 81.3074 121.769 84.1668 120.956C87.2345 120.081 90.0366 117.935 91.7553 115.269C94.0574 111.68 94.2137 107.519 94.9532 103.451C95.8335 98.6592 97.5678 94.1123 98.9949 89.4717C100.245 85.4196 101.339 81.2634 102.307 77.1279C103.354 72.6696 103.724 68.1488 103.344 63.5863C103.146 61.2165 103.047 58.7373 102.583 56.4144C102.443 55.7113 102.261 55.0238 102.099 54.3154C102.026 54.0082 101.953 53.7009 101.896 53.3832C101.87 53.2425 101.854 53.0759 101.818 52.9352C101.734 52.654 101.979 52.6592 101.745 52.9248C102.677 51.8727 104.484 51.5498 105.75 51.0967C107.261 50.5654 108.474 49.9404 109.604 48.7894C112.261 46.0811 114.057 42.3102 114.844 38.6175C115.396 36.0602 115.932 31.5915 113.526 29.7321C111.797 28.3936 109.261 29.0238 107.406 29.7321C104.667 30.7686 102.162 32.3623 99.8543 34.154C97.7189 35.805 95.6147 37.7165 94.1772 40.0186C93.6355 40.8988 93.2449 41.8207 93.1199 42.8519L94.9741 42.0811C89.1564 36.2217 80.3074 37.0029 72.7449 36.18C67.7553 35.6332 62.1303 35.4925 57.3282 37.2009C54.922 38.0602 52.5001 39.7321 52.6928 42.5863L54.7189 42.0394C53.7605 40.7269 53.1147 39.1904 52.448 37.7165C51.5678 35.7686 50.7293 33.8154 49.7449 31.9196C48.1043 28.7529 45.6928 24.6592 41.7762 24.1904C39.8491 23.9509 37.672 24.7113 36.3595 26.1592C34.7449 27.9248 34.5053 30.4925 34.6876 32.7946C34.8699 35.1019 35.3491 37.18 35.7814 39.3415C36.172 41.305 36.698 43.2477 37.3803 45.1384C38.8751 49.279 41.7032 54.8884 46.9741 53.9977C48.3491 53.7634 47.7709 51.6748 46.3959 51.9092V51.904Z" fill="#001834"/>
</g>
<path d="M59.3645 108.821C60.2395 111.831 60.5781 116.878 63.4322 118.716C66.9947 121.019 80.7291 121.216 84.5572 119.654C90.151 117.368 92.6406 113.269 93.4635 106.019C93.651 104.347 93.9427 102.774 94.276 101.263C91.6718 94.555 77.3125 97.5446 74.5729 97.1748C68.2083 96.3102 55.4739 97.0654 58.8645 107.222C58.8489 107.222 58.8385 107.237 58.8229 107.248C59.0208 107.753 59.2031 108.269 59.3541 108.815L59.3645 108.821Z" fill="#8A5A44"/>
<path d="M58.3179 109.112C59.3179 112.685 59.4742 117.748 63.1252 119.8C65.9481 121.383 69.7606 121.524 72.9117 121.68C76.4377 121.852 80.1773 121.878 83.6408 121.065C87.1044 120.253 90.2242 117.826 91.995 114.81C93.0367 113.029 93.6773 111.019 94.0835 109.003C94.3283 107.789 94.4585 106.56 94.6304 105.331C94.7294 104.581 94.8544 103.831 95.0002 103.081C95.1252 102.43 95.4585 101.633 95.3179 100.972C95.0158 99.6176 93.6981 98.3988 92.5835 97.6801C91.2398 96.8155 89.6356 96.3624 88.0731 96.1019C84.7815 95.5551 81.4429 95.7269 78.1356 95.9665C77.0419 96.0342 75.9221 96.1801 74.8283 96.1176C73.5054 96.0342 72.2138 95.8467 70.8856 95.8311C67.4481 95.7946 63.5575 96.1644 60.6044 98.0707C57.2658 100.222 56.6408 103.904 57.8075 107.513L58.3075 106.279L58.2606 106.31C57.8908 106.56 57.5835 107.065 57.7658 107.539C57.9637 108.055 58.146 108.571 58.2971 109.102C58.7033 110.43 60.8023 109.862 60.3856 108.524C60.2242 107.998 60.0419 107.477 59.8544 106.961L59.3544 108.19L59.4013 108.164C59.7815 107.888 60.0523 107.42 59.896 106.93C59.0471 104.289 59.1721 101.56 61.6877 99.9405C64.0054 98.4509 66.9585 98.0811 69.6617 98.0082C71.8492 97.9457 74.021 98.378 76.1929 98.2634C78.9481 98.1176 81.6877 97.8363 84.4585 97.9249C87.0679 98.0082 90.37 98.2686 92.3231 100.243C92.5106 100.43 92.6773 100.623 92.8179 100.847C92.9169 100.993 93.1356 101.508 93.1252 101.352C93.1825 101.914 92.8492 102.748 92.7502 103.289C92.6408 103.92 92.5419 104.555 92.4585 105.185C92.1773 107.331 91.8804 109.456 91.1356 111.498C89.9533 114.8 87.5054 117.321 84.2398 118.612C81.6252 119.644 78.4533 119.592 75.6929 119.581C72.1929 119.581 68.3231 119.503 64.995 118.279C61.3179 116.935 61.2919 111.727 60.3856 108.534C60.0054 107.196 57.9169 107.763 58.2971 109.112H58.3179Z" fill="#001834"/>
<path d="M65.375 107.602C65.2344 108.414 65.1146 109.258 65.1979 110.086C65.25 110.623 65.3489 111.091 65.5677 111.591C65.7864 112.086 66.1198 112.42 66.526 112.722C66.8333 112.946 67.3125 112.899 67.6198 112.722C67.9531 112.529 68.151 112.17 68.151 111.779C68.151 111.107 68.0885 110.44 68.0104 109.779C67.9271 109.123 67.8541 108.508 67.7031 107.888C67.5677 107.341 66.9166 106.961 66.3646 107.133C65.7864 107.321 65.4687 107.873 65.6041 108.472C65.7031 108.904 65.776 109.347 65.8281 109.789L65.7916 109.498C65.8906 110.258 65.9739 111.019 65.9739 111.789L67.6094 110.847C67.6094 110.847 67.8281 111.029 67.7187 110.93C67.6927 110.904 67.6666 110.873 67.6354 110.857C67.5989 110.821 67.4635 110.649 67.5937 110.81C67.7187 110.972 67.5729 110.784 67.5469 110.737C67.5104 110.675 67.4844 110.612 67.4479 110.56C67.3958 110.456 67.5364 110.8 67.5 110.685C67.4948 110.659 67.4844 110.623 67.4635 110.597C67.4375 110.524 67.4219 110.456 67.401 110.388C67.3646 110.242 67.3385 110.097 67.3229 109.951L67.3594 110.242C67.2864 109.644 67.3229 109.039 67.401 108.44L67.3646 108.732C67.3958 108.55 67.4219 108.362 67.4583 108.18C67.5104 107.883 67.5 107.612 67.3489 107.347C67.2135 107.123 66.9583 106.904 66.6979 106.852C66.1719 106.732 65.4687 107.013 65.3594 107.612L65.375 107.602Z" fill="#001834"/>
<path d="M85.6928 112.112C85.9323 111.93 86.0938 111.623 86.2084 111.362C86.3751 110.993 86.5001 110.623 86.5834 110.222C86.6719 109.8 86.7344 109.362 86.7344 108.93C86.7344 108.55 86.7084 108.154 86.5834 107.789C86.3751 107.206 86.0001 106.753 85.3855 106.555C85.0626 106.446 84.698 106.555 84.4376 106.743C84.1459 106.966 84.0573 107.237 84.0105 107.591C83.8698 108.748 83.8334 109.909 83.7605 111.065C83.724 111.633 84.2865 112.175 84.8438 112.149C85.4584 112.123 85.8959 111.67 85.9323 111.065C86.0001 109.909 86.0313 108.743 86.1823 107.591L84.8073 108.644C84.9063 108.675 84.5105 108.487 84.6615 108.576C84.8178 108.67 84.4636 108.378 84.5469 108.487C84.5834 108.534 84.6719 108.644 84.5365 108.461C84.4011 108.279 84.4896 108.414 84.5209 108.461C84.6198 108.612 84.4376 108.227 84.4636 108.336C84.474 108.368 84.4896 108.404 84.5001 108.451C84.5261 108.539 84.5469 108.644 84.5573 108.743L84.5209 108.451C84.5626 108.805 84.5469 109.164 84.5001 109.519L84.5365 109.227C84.4844 109.602 84.4011 109.977 84.2761 110.331C84.2657 110.368 84.2501 110.404 84.2292 110.44C84.1771 110.597 84.3646 110.133 84.2761 110.331C84.2501 110.394 84.2188 110.456 84.1823 110.513C84.1563 110.565 84.1198 110.612 84.0834 110.659C84.2865 110.331 84.2396 110.487 84.1303 110.565C83.9219 110.732 83.8126 111.091 83.8126 111.336C83.8126 111.597 83.9323 111.925 84.1303 112.102C84.3282 112.284 84.6094 112.44 84.9011 112.42C85.2084 112.404 85.4219 112.295 85.6667 112.102L85.6928 112.112Z" fill="#001834"/>
<path d="M59.724 81.8519C62.0521 80.6644 61.6511 74.7321 59.2031 73.93C55.0156 72.555 55.2031 80.7842 57.5729 81.7946C57.5729 81.7946 58.4948 82.4352 59.7188 81.8519H59.724Z" fill="#001834"/>
<path d="M90.3075 81.6957C92.7138 80.7009 92.7815 74.7529 90.4065 73.7582C86.344 72.0654 85.8752 80.2738 88.1617 81.4717C88.1617 81.4717 89.0315 82.1852 90.2971 81.6852L90.3075 81.6957Z" fill="#001834"/>
<path d="M54.5108 39.5238C54.1722 35.8051 57.1045 31.8728 59.1045 29.0186C61.6983 25.2894 64.9691 22.1071 69.5004 21.0238C73.1358 20.154 76.2347 21.0238 74.6462 25.1176C75.4431 23.1384 80.0524 19.0342 82.4587 20.7894C84.4014 22.2061 82.641 25.6696 81.7087 27.1905C82.2608 25.3884 84.3649 23.8728 86.2712 24.1905C89.0785 24.6384 89.5004 27.6436 90.2243 29.878C91.1097 32.6176 91.7816 35.3624 92.3962 38.1853C92.6097 39.1905 94.0056 41.8207 93.9066 42.5863C93.5368 45.6905 81.3754 43.9353 78.667 45.1905C76.7139 46.1071 75.2712 48.0134 73.0264 48.4821C70.766 48.9561 67.6827 48.3051 65.6202 47.4092C63.4222 46.4509 61.9118 44.5499 59.9327 43.4196C58.1462 42.3988 56.0889 41.4874 54.5004 40.1853" fill="#8A5A44"/>
<mask id="mask1_195_11431" style="mask-type:luminance" maskUnits="userSpaceOnUse" x="52" y="18" width="44" height="33">
<path d="M52.375 18.5133H95.0417V50.2633H52.375V18.5133Z" fill="white"/>
</mask>
<g mask="url(#mask1_195_11431)">
<path d="M55.5938 39.5237C55.4011 36.5602 57.0834 33.8831 58.6876 31.5133C60.2866 29.1435 61.8491 26.9456 63.9584 25.1175C65.9636 23.3831 68.5418 22.0342 71.2188 21.8206C71.9532 21.7581 73.0157 21.7008 73.6147 22.2269C74.3543 22.8675 73.8751 24.081 73.6043 24.831C73.1876 25.9717 75.0991 26.7946 75.5834 25.6644C76.3803 23.8362 78.6511 21.8467 80.6303 21.4925C83.7345 20.9404 81.4741 25.4977 80.7866 26.6487L82.7657 27.4769C83.5886 25.1539 86.6876 24.3883 87.9845 26.6852C88.4324 27.4977 88.672 28.4092 88.9324 29.2946C89.3491 30.6904 89.7918 32.0654 90.1616 33.4664C90.8386 35.9873 91.3022 38.4769 92.2866 40.8987C92.4688 41.331 92.6199 41.7737 92.7761 42.2269C92.8386 42.4352 92.8386 42.5185 92.8543 42.4612C92.7918 42.6592 92.2241 42.8883 91.8178 43.0029C88.6147 43.9248 85.0157 43.4664 81.7241 43.6383C80.4064 43.7112 79.0418 43.7894 77.8438 44.4144C75.5834 45.5914 74.1407 47.5602 71.3907 47.5706C68.297 47.581 65.5678 46.43 63.2084 44.4977C62.0313 43.5289 60.8647 42.68 59.5261 41.956C58.0782 41.18 56.5782 40.4456 55.2866 39.4248C54.2032 38.5654 52.6563 40.0914 53.7501 40.9612C56.2709 42.9664 59.3022 44.0967 61.8074 46.1487C64.1928 48.1019 66.7136 49.2685 69.797 49.6435C71.2918 49.8206 72.8751 49.8154 74.2918 49.2529C75.6199 48.7269 76.6876 47.7946 77.8438 46.9821C79.3647 45.9144 80.7866 45.8362 82.7084 45.7789C84.797 45.7164 86.8907 45.7425 88.9688 45.6071C90.5678 45.4977 92.4949 45.3987 93.8699 44.4717C95.5886 43.305 94.8699 41.5394 94.2188 39.9508C92.9845 36.9717 92.547 33.7269 91.6147 30.6435C90.8855 28.2321 90.3595 24.9196 87.9011 23.6175C85.0366 22.1019 81.6876 24.0862 80.6772 26.93C80.2501 28.1123 82.0418 28.7894 82.6563 27.7581C83.5522 26.2789 84.422 24.5342 84.4272 22.7581C84.4376 20.9873 83.2345 19.4664 81.4168 19.305C79.7553 19.1539 78.1355 20.0446 76.8595 21.0133C75.6407 21.9352 74.3386 23.1383 73.7136 24.5758C74.3751 24.8571 75.0366 25.1383 75.6928 25.4092C76.6251 22.8675 75.9845 20.2164 73.0261 19.7321C70.0678 19.2425 66.7084 20.5237 64.2553 22.18C61.4168 24.1071 59.3438 26.7737 57.4116 29.5602C55.3855 32.4717 53.1876 35.8258 53.4324 39.5342C53.5209 40.9144 55.6928 40.9248 55.6043 39.5342L55.5938 39.5237Z" fill="#001834"/>
</g>
<path d="M69.1302 31.2217C68.3177 32.5081 67.8646 34.1175 67.5209 35.581C67.3229 36.4508 67.1667 37.3362 67.1042 38.2217C67.0573 38.9092 67.0677 39.6696 67.3281 40.3206C67.5573 40.8623 68.0521 41.2425 68.6667 41.081C69.1823 40.9352 69.6459 40.2946 69.4271 39.7425C69.3802 39.6227 69.349 39.5029 69.3125 39.3779C69.2917 39.305 69.2813 39.2425 69.2761 39.1696C69.3125 39.331 69.2813 39.3154 69.2761 39.1644C69.2552 38.8467 69.2552 38.5394 69.2761 38.2217C69.2813 38.029 69.3125 37.8415 69.3281 37.654C69.3646 37.3258 69.2917 37.8675 69.349 37.5446C69.3646 37.4456 69.375 37.3467 69.3906 37.2373C69.4531 36.8362 69.5469 36.4404 69.6354 36.0498C69.8177 35.2842 70.0417 34.5237 70.3125 33.7842C70.3698 33.6175 70.4323 33.4665 70.4948 33.3102C70.5313 33.2112 70.5938 33.0758 70.5209 33.2581C70.5573 33.1852 70.5834 33.1123 70.6198 33.0394C70.7396 32.7946 70.8542 32.5498 71 32.3258C71.3177 31.831 71.099 31.1331 70.6146 30.8415C70.0886 30.5342 69.4479 30.7321 69.1302 31.2321V31.2217Z" fill="#001834"/>
<path d="M73.849 35.0186C73.823 34.8936 73.9376 35.2009 73.849 35.0186C73.8699 35.0759 73.8855 35.1175 73.9063 35.1748C73.9376 35.2894 73.9584 35.4092 73.9845 35.5342C73.922 35.2894 73.9845 35.4613 73.9845 35.5342C73.9845 35.6071 73.9845 35.6696 73.9949 35.7425C73.9949 35.8727 73.9949 36.0081 73.974 36.1331C73.974 36.1852 73.9376 36.3936 73.974 36.1488C73.9688 36.2165 73.9584 36.2686 73.948 36.3311C73.922 36.4665 73.8959 36.6019 73.8595 36.7269C73.7865 37.0186 73.698 37.2998 73.5886 37.5811C73.5678 37.6436 73.5418 37.6956 73.5157 37.7581C73.5053 37.7894 73.4063 38.0238 73.4584 37.8936C73.5053 37.7894 73.4272 37.9665 73.4272 37.9873C73.3907 38.0602 73.3595 38.1331 73.323 38.2009C73.2084 38.4561 73.0834 38.7113 72.9428 38.9561C72.6928 39.4248 72.422 39.8831 72.1511 40.3363C71.8595 40.8259 72.0209 41.5498 72.5365 41.8206C73.0522 42.0915 73.7136 41.9456 74.0209 41.43C75.3126 39.2894 76.9532 36.4404 75.7032 33.9352C75.448 33.43 74.6928 33.2373 74.2188 33.5446C73.698 33.8831 73.5626 34.4873 73.8334 35.029L73.849 35.0186Z" fill="#001834"/>
<path d="M81.6251 35.4821C81.6512 35.7061 81.6512 35.9352 81.6356 36.1592C81.6356 36.1956 81.6356 36.3206 81.6147 36.3519C81.646 36.3206 81.6512 36.1227 81.6147 36.2946C81.5991 36.4144 81.5731 36.529 81.5522 36.6488C81.5001 36.9092 81.4272 37.1644 81.3387 37.4144C81.2918 37.5446 81.2553 37.6592 81.2033 37.7894C81.172 37.8623 81.146 37.9248 81.1199 37.9873C81.172 37.8519 81.1564 37.9144 81.1095 38.0134C80.896 38.5029 80.6408 38.9821 80.3491 39.4352C80.2137 39.6436 80.0783 39.8415 79.9324 40.0394C79.7918 40.2373 80.0366 39.93 79.9324 40.0394C79.8908 40.0863 79.8543 40.1384 79.8179 40.1852C79.7345 40.2738 79.6616 40.3623 79.5731 40.4561C79.1824 40.8727 79.1303 41.5863 79.5731 41.9925C80.0158 42.3988 80.6929 42.4352 81.1095 41.9925C81.9168 41.1331 82.5574 40.1123 83.0262 39.0342C83.4949 37.9613 83.922 36.7113 83.7866 35.4925C83.7241 34.93 83.3335 34.3779 82.7033 34.404C82.1668 34.4352 81.5522 34.8831 81.6147 35.4925L81.6251 35.4821Z" fill="#001834"/>
<path d="M51.5054 48.753C51.0471 46.9822 50.2033 45.3311 49.2815 43.753C48.4794 42.3884 47.5471 41.0863 46.8752 39.6488C46.2971 38.404 45.6669 37.0655 44.219 36.6957C42.7815 36.3207 41.0263 36.9926 40.7919 38.6124C40.7086 39.1905 40.9377 39.779 41.5523 39.9509C42.0575 40.0863 42.7971 39.779 42.8908 39.1905C42.9169 39.0238 43.0367 38.8207 42.9273 38.8988C42.9533 38.8832 43.1617 38.7738 43.1148 38.7894C43.1356 38.7842 43.2086 38.7634 43.2346 38.7634C43.594 38.7165 43.8908 38.8259 44.0731 39.0342C44.6981 39.779 45.0054 40.8624 45.5106 41.7217C46.9586 44.1801 48.7033 46.5394 49.4273 49.3415C49.7815 50.6905 51.87 50.1228 51.5158 48.7634L51.5054 48.753Z" fill="#001834"/>
<path d="M99.9742 48.1853C99.9742 48.1384 100 48.0967 100.011 48.0498C100.052 47.878 100.115 47.9873 99.9742 48.1123C100.052 48.0394 100.11 47.8415 100.162 47.7426C100.344 47.4248 100.557 47.128 100.787 46.8363C100.615 47.0655 100.834 46.7842 100.87 46.7373C100.938 46.6488 101.011 46.5655 101.084 46.4769C101.24 46.2946 101.401 46.1071 101.552 45.9353C101.896 45.5446 102.261 45.1748 102.63 44.8051C103 44.4353 103.417 44.0551 103.823 43.6905C104.016 43.529 104.214 43.3571 104.412 43.2061C104.511 43.1228 104.62 43.0342 104.729 42.9509C104.828 42.878 104.729 42.9509 104.703 42.9665C104.781 42.904 104.854 42.8519 104.938 42.7946C105.334 42.5082 105.74 42.2269 106.167 41.9821C106.349 41.8832 106.526 41.7842 106.719 41.6957C106.828 41.6384 106.979 41.5759 106.781 41.6592C106.896 41.6123 107.005 41.5655 107.125 41.529C107.214 41.503 107.297 41.4769 107.386 41.4561C107.516 41.4248 107.792 41.4405 107.469 41.4301C107.542 41.4301 107.63 41.4248 107.703 41.4144C107.74 41.4144 107.787 41.4144 107.813 41.4144C107.959 41.3884 107.667 41.3676 107.714 41.3936C107.74 41.4144 107.901 41.4561 107.938 41.4561C107.729 41.4665 107.766 41.3519 107.927 41.4769C107.839 41.404 107.787 41.3311 107.927 41.4926C107.995 41.5655 107.792 41.279 107.948 41.5498C108.625 42.7686 110.495 41.6748 109.818 40.4561C108.662 38.3676 106.057 39.4509 104.537 40.4353C102.578 41.7113 100.797 43.3936 99.3231 45.2113C98.7762 45.8884 98.0471 46.7217 97.8648 47.6071C97.7502 48.1853 98.0262 48.7842 98.6252 48.9457C99.1564 49.0915 99.8439 48.7634 99.9637 48.1853H99.9742Z" fill="#001834"/>
<path d="M56.9219 89.9613C57.9375 89.9613 59.1094 89.7165 59.9688 90.2061L60.1615 88.7217C58.1146 89.2842 55.9532 89.3207 54.0573 90.3467C53.5052 90.6488 53.5521 91.4457 54.0573 91.753C55.0782 92.3832 56.3438 92.3572 57.4948 92.2217C58.7032 92.0759 59.7604 91.7947 60.9532 91.8207C62.0052 91.8415 62.0052 90.2113 60.9532 90.1957C59.9063 90.1749 58.6875 90.4405 57.6927 90.5655C57.1511 90.6384 56.599 90.6905 56.0469 90.6644C55.7552 90.6488 55.7292 90.6488 55.4584 90.5863C55.3386 90.5551 55.224 90.5186 55.1042 90.4769C55.2136 90.5186 55.0886 90.4665 55.0521 90.4405C54.9948 90.404 54.9323 90.378 54.8802 90.3415V91.7426C56.625 90.7947 58.7032 90.7947 60.5938 90.279C61.2604 90.0967 61.4011 89.1384 60.7813 88.7947C59.5834 88.1176 58.224 88.3259 56.9115 88.3311C55.8646 88.3311 55.8646 89.9717 56.9115 89.9613H56.9219Z" fill="#F2ADAD"/>
<path d="M88.1824 89.1123C88.3178 89.0654 88.4532 89.0394 88.599 89.0029C88.6876 88.9821 88.7761 88.9665 88.8595 88.956C88.9063 88.956 88.9428 88.9404 88.9845 88.9404H89.0417C89.1147 88.9196 89.1147 88.9196 89.0417 88.9404C88.9688 88.9456 88.9688 88.9456 89.0417 88.9404H89.0938C89.1407 88.93 89.1824 88.9196 89.2397 88.9196C89.3386 88.9092 89.4272 88.904 89.5261 88.8935C89.7345 88.8727 89.9428 88.8675 90.1511 88.8675C90.5417 88.8675 90.9324 88.8675 91.3074 88.9092C91.4011 88.9196 91.474 88.9769 91.3074 88.9092C91.3386 88.9196 91.3803 88.9196 91.4115 88.93C91.5001 88.9456 91.5834 88.956 91.672 88.9821C91.7449 89.0029 91.8178 89.0185 91.8907 89.0394C91.9584 89.055 92.2032 89.1644 91.9324 89.0394V87.6383C91.8542 87.6904 91.7605 87.7373 91.672 87.779C91.6251 87.7998 91.5886 87.8154 91.547 87.8467C91.3751 87.9248 91.7188 87.779 91.5365 87.8467C91.3542 87.9092 91.172 87.9717 90.9949 88.0185C90.5886 88.1227 90.172 88.206 89.7553 88.305C88.9115 88.5029 88.0105 88.8206 87.448 89.5185C87.2605 89.7529 87.1615 90.0029 87.2397 90.3154C87.323 90.5915 87.5417 90.7998 87.8126 90.8831C89.1928 91.305 90.6667 91.154 92.0886 91.154C92.5105 91.154 92.9167 90.7842 92.9011 90.3415C92.8855 89.8987 92.5417 89.5237 92.0886 89.5237C91.4115 89.5237 90.7397 89.5602 90.0626 89.5446C89.7345 89.5446 89.4115 89.5237 89.0834 89.4925C89.0417 89.4925 88.9845 89.4821 88.9428 89.4717C89.0209 89.4821 89.0313 89.4821 88.9792 89.4717C88.8959 89.456 88.8126 89.4456 88.724 89.4248C88.5626 89.3883 88.4063 89.3519 88.2449 89.3102L88.6042 90.6644C88.6615 90.5915 88.724 90.529 88.7865 90.4665C88.823 90.43 88.8699 90.3935 88.9063 90.3571C89.0157 90.2581 88.8074 90.4196 88.8855 90.3779C89.0209 90.305 89.2188 90.1123 89.3855 90.1071C89.349 90.1071 89.2397 90.1592 89.349 90.1227C89.4011 90.1071 89.4584 90.0862 89.5105 90.0706C89.599 90.0394 89.6928 90.0029 89.7813 89.9873C89.9792 89.9352 90.1772 89.8779 90.3803 89.831C91.1928 89.6435 92.0522 89.4925 92.7761 89.0394C93.2449 88.7373 93.3647 87.8987 92.7761 87.6383C91.9897 87.2842 91.0938 87.2321 90.2345 87.2373C89.3751 87.2477 88.5522 87.3102 87.7761 87.555C87.3699 87.68 87.0678 88.1227 87.2032 88.5602C87.3386 88.9925 87.7761 89.2633 88.2084 89.1279L88.1824 89.1123Z" fill="#F2ADAD"/>
</svg>
