<svg viewBox="0 0 150 150" fill="none" xmlns="http://www.w3.org/2000/svg">
<path d="M43.6613 57.8645C41.5572 54.1874 41.2238 27.5468 51.5676 34.6926C56.078 37.8176 58.7238 41.9686 60.979 46.6405C67.7655 44.2759 78.6509 41.828 85.3592 45.7864C85.1301 41.8593 92.8749 36.1145 95.703 34.3905C98.5311 32.6666 101.427 30.6093 102.818 34.2082C105.307 40.677 102.307 48.0416 100.333 54.1874C105.213 56.3645 108.224 60.5416 110.568 65.3228C113.427 71.177 115.859 78.0936 117.031 84.5207C117.844 88.9791 118.989 94.9634 116.844 99.2134C113.594 105.677 105.818 109.568 99.4738 112.213C91.3436 115.604 83.1144 117.838 74.2603 118.078C67.4738 118.26 60.2499 116.364 53.7447 114.5C48.9009 113.114 41.9374 111.833 38.328 108.167C33.9582 103.724 31.9009 98.0728 32.2811 91.8853C32.7342 84.4166 35.8228 77.203 38.328 70.2551C39.979 65.6926 41.3644 62.5676 44.6301 59.1978C44.2707 59.177 44.0311 59.2811 43.6613 59.3697" fill="#F5B8C3"/>
<mask id="mask0_193_14276" style="mask-type:luminance" maskUnits="userSpaceOnUse" x="30" y="29" width="90" height="92">
<path d="M30.3801 29.9896H119.62V120.01H30.3801V29.9896Z" fill="white"/>
</mask>
<g mask="url(#mask0_193_14276)">
<path d="M44.7916 57.2135C44.6822 57.0156 44.6822 57.0052 44.7135 57.0625C44.651 56.8958 44.6041 56.7344 44.552 56.5729C44.4322 56.1615 44.3437 55.7396 44.2603 55.3177C44.0624 54.2396 43.9583 53.1562 43.8906 52.0729C43.7083 49.276 43.7603 46.4479 44.0728 43.6615C44.3437 41.276 44.7812 38.6615 46.0156 36.5677C46.9374 35.0104 48.0416 34.3906 49.7135 35.1302C51.901 36.0937 53.802 38.0781 55.3072 39.875C57.1822 42.1198 58.6041 44.7031 59.8697 47.3229C60.1093 47.8125 60.8281 48.0937 61.3437 47.9219C65.1197 46.6198 69.0416 45.5781 73.0208 45.1875C76.9999 44.7969 81.2083 44.9271 84.7291 46.9323C85.5781 47.4115 86.7135 46.8177 86.6926 45.8073C86.6405 43.2292 89.6197 40.7969 91.3645 39.2812C93.4478 37.4583 95.7239 35.8646 98.1301 34.4896C99.302 33.8177 100.797 32.9167 101.557 34.5104C102.5 36.4948 102.599 38.9323 102.448 41.0885C102.13 45.4948 100.463 49.7083 99.1197 53.875C98.9583 54.3698 99.2187 55.1094 99.7135 55.349C104.984 57.7865 107.943 62.6094 110.286 67.7083C112.995 73.625 114.917 79.8385 116.052 86.2344C116.552 89.0312 116.984 91.8958 116.745 94.7448C116.51 97.599 115.281 99.9271 113.443 102C109.885 106 104.906 108.526 100.062 110.62C94.1406 113.177 87.953 115.172 81.5676 116.172C74.703 117.245 68.0572 116.797 61.3124 115.214C58.3124 114.51 55.3697 113.62 52.3906 112.828C49.8437 112.146 47.2708 111.521 44.8124 110.589C42.3489 109.656 40.151 108.354 38.3853 106.339C36.4843 104.167 35.0781 101.578 34.2968 98.8021C32.3333 91.776 34.677 84.3281 37.026 77.6927C39.1978 71.5885 40.9947 64.9635 45.5728 60.1719C46.3176 59.3906 45.8228 57.8958 44.651 57.9479C44.1926 57.974 43.7812 58.0573 43.3385 58.1667C41.7239 58.5885 42.4062 61.0937 44.0312 60.6719C44.2395 60.6042 44.4426 60.5625 44.651 60.5417L43.7291 58.3177C39.3385 62.9271 37.526 68.7812 35.3697 74.625C32.9426 81.151 30.3697 88.2865 31.0312 95.3854C31.5624 101.198 34.4374 107.292 39.3281 110.693C43.9218 113.891 49.9843 114.839 55.2864 116.323C62.3124 118.286 69.4218 119.802 76.7499 119.292C84.0833 118.781 90.8697 117.016 97.526 114.422C103.031 112.286 108.625 109.807 113.135 105.901C115.271 104.057 117.203 101.792 118.307 99.1719C119.417 96.5469 119.521 93.3698 119.24 90.4531C118.526 82.9844 116.443 75.6302 113.526 68.724C110.87 62.4375 107.469 56.0833 100.995 53.0833L101.588 54.5573C102.859 50.6406 104.302 46.75 104.844 42.651C105.115 40.625 105.146 38.599 104.802 36.5781C104.516 34.9115 104.021 32.849 102.63 31.724C100.213 29.7604 96.9947 32.0573 94.8801 33.3802C92.6458 34.7812 90.5103 36.4271 88.5937 38.2396C86.552 40.1458 83.9947 42.7812 84.0572 45.7969L86.0208 44.6667C78.4531 40.3646 68.3489 42.7292 60.6301 45.3958L62.1041 45.9896C59.7083 41.0677 56.5312 36.1667 51.7499 33.2656C49.526 31.9167 46.8853 31.7448 44.9531 33.6667C43.0208 35.5833 42.2968 38.5 41.8437 41.0573C41.276 44.2448 41.1041 47.5104 41.2239 50.7396C41.3124 53.2135 41.3333 56.2917 42.5572 58.526C43.3593 59.9896 45.6145 58.6875 44.802 57.2135H44.7916Z" fill="#001834"/>
</g>
<path d="M77.0001 97.2291C73.6407 97.8385 66.5418 98.2135 63.5366 95.9582C61.2293 94.2395 60.3699 90.552 60.3907 88.0364C60.4585 80.7082 68.8595 78.7343 75.9741 79.1249C83.0835 79.5155 88.4637 85.7812 86.8335 91.8645C85.698 96.1457 77.9324 98.9739 73.5887 96.6562" fill="#F3987F"/>
<path d="M76.6561 95.9739C74.453 96.3489 72.1873 96.4687 69.953 96.3489C67.9582 96.2551 65.453 96.0364 63.9373 94.5833C62.1925 92.927 61.5936 90.0103 61.703 87.6874C61.8019 85.651 62.8332 83.9166 64.4894 82.7551C66.2655 81.5208 68.4477 80.9218 70.5623 80.6197C72.8592 80.2812 75.4425 80.151 77.729 80.6614C82.2394 81.6718 86.4894 85.7499 85.7602 90.6926C85.0779 95.276 78.0207 97.427 74.2498 95.526C72.7498 94.7812 71.4373 97.0208 72.9373 97.7708C77.5415 100.094 84.6144 98.2812 87.3748 93.8333C90.6092 88.6406 86.6092 81.9218 81.8384 79.4166C79.0623 77.9635 76.0155 77.651 72.9269 77.7916C70.0727 77.9218 67.1873 78.4322 64.6092 79.677C62.2759 80.802 60.3592 82.6822 59.5363 85.1718C58.6352 87.8749 59.1248 91.0624 60.229 93.6197C62.9946 99.9843 71.604 99.4635 77.3384 98.4635C78.9842 98.1822 78.2811 95.6666 76.6457 95.9583L76.6561 95.9739Z" fill="#001834"/>
<path d="M67.927 86.8332C67.2551 87.4166 67.9478 89.9635 68.4478 90.1926C69.4999 90.0832 69.9739 87.1145 68.0781 86.6822" fill="#F2E7D6"/>
<path d="M67.0155 85.9114C66.5728 86.3124 66.4322 86.8958 66.3749 87.4635C66.3332 87.9062 66.3957 88.3593 66.4738 88.7968C66.5259 89.1406 66.6249 89.4895 66.7447 89.8124C66.9061 90.2447 67.0936 90.6822 67.427 91.026C68.3593 91.9843 69.7499 91.276 70.2603 90.2604C70.6613 89.4426 70.7655 88.5468 70.5832 87.6666C70.3541 86.5833 69.5103 85.6822 68.427 85.4218C68.0884 85.3489 67.7186 85.3801 67.427 85.552C67.1561 85.7135 66.8957 86.0208 66.8332 86.3333C66.6822 87.0051 67.0363 87.7656 67.7447 87.9374C67.8384 87.9583 67.9374 87.9947 68.0259 88.026L67.7082 87.8958C67.8384 87.9479 67.9478 88.0156 68.0572 88.0989L67.7968 87.8958C67.8957 87.9687 67.9895 88.0676 68.0676 88.1666L67.8593 87.9062C67.9478 88.026 68.0259 88.1562 68.078 88.2864L67.9478 87.9687C68.0259 88.1562 68.0676 88.3385 68.0988 88.5208L68.0572 88.177C68.0884 88.4062 68.078 88.6197 68.0572 88.8489L68.0988 88.4999C68.0676 88.7187 68.0155 88.9374 67.927 89.1406L68.0572 88.8281C68.0051 88.9479 67.9374 89.0676 67.8593 89.1718L68.0676 88.9114C68.0155 88.9895 67.9478 89.052 67.8749 89.1197L68.1353 88.9114C68.1353 88.9114 68.0363 88.9791 67.9791 88.9999L68.2968 88.8697C68.2968 88.8697 68.1874 88.901 68.1353 88.9114L68.4791 88.8697H68.4582C68.677 88.9374 68.8905 88.9895 69.1197 89.052C69.0988 89.052 69.0884 89.0312 69.0676 89.0208L69.3228 89.2291C69.3228 89.2291 69.2499 89.151 69.2186 89.1197L69.4218 89.3801C69.3228 89.2395 69.2499 89.0885 69.1718 88.9374L69.302 89.2499C69.1301 88.8281 69.0103 88.3697 68.9582 87.927L68.9999 88.276C68.9686 87.9947 68.9478 87.7083 68.9791 87.427L68.9374 87.776C68.9582 87.6562 68.9791 87.5364 69.0207 87.427L68.8905 87.7447C68.9218 87.677 68.9582 87.6249 68.9999 87.5676L68.7916 87.8281C68.7916 87.8281 68.8384 87.7864 68.8593 87.7656C69.3697 87.3072 69.3593 86.3854 68.8593 85.9218C68.3176 85.4218 67.5572 85.4322 67.0155 85.9218V85.9114Z" fill="#001834"/>
<path d="M77.8229 86.5833C77.3177 87.2031 77.3177 88.9479 78 89.5625C78.8645 89.0677 78.7239 87.2552 78.3698 86.5937" fill="#F2E7D6"/>
<path d="M76.9061 85.6614C76.6092 86.0207 76.4061 86.3853 76.2863 86.8437C76.1873 87.2343 76.1457 87.6562 76.1561 88.0676C76.1873 88.927 76.4269 89.8801 77.078 90.4739C77.4998 90.8645 78.1405 90.9843 78.6509 90.6822C79.5363 90.151 79.8853 89.151 79.9373 88.1666C79.9634 87.7551 79.9061 87.3332 79.8436 86.9322C79.7759 86.5832 79.6561 86.2343 79.4946 85.9322C79.1717 85.3385 78.2915 85.0989 77.7186 85.4635C77.1092 85.8541 76.9061 86.6041 77.2498 87.2447C77.2707 87.2864 77.2915 87.3332 77.3176 87.3749L77.1873 87.0572C77.2811 87.2864 77.3384 87.5364 77.3696 87.7864L77.328 87.4374C77.3696 87.7655 77.3696 88.0885 77.328 88.4166L77.3696 88.0676C77.3384 88.2655 77.2915 88.4582 77.2186 88.6405L77.3488 88.328C77.2915 88.4374 77.2394 88.5468 77.1613 88.6405L77.3696 88.3801C77.3176 88.4478 77.2498 88.5103 77.1873 88.5676L77.4478 88.3593C77.4478 88.3593 77.3801 88.4062 77.3488 88.427L78.9217 88.6301C78.9217 88.6301 78.8228 88.5364 78.7811 88.4791L78.9842 88.7395C78.9113 88.6301 78.8436 88.5207 78.7915 88.4062L78.9217 88.7187C78.8332 88.4999 78.7707 88.2655 78.7342 88.0364L78.7811 88.3801C78.7446 88.0885 78.7446 87.7968 78.7811 87.4947L78.7342 87.8385C78.7707 87.6353 78.8123 87.427 78.8853 87.2343L78.7551 87.5468C78.8019 87.4374 78.854 87.3437 78.9217 87.2551L78.7134 87.5155V87.4947C78.953 87.2135 79.1144 86.9426 79.1144 86.5728C79.1144 86.2551 78.9738 85.8697 78.7342 85.651C78.4998 85.4322 78.1613 85.2499 77.8123 85.2707C77.4894 85.2812 77.1092 85.3905 76.8905 85.651L76.9061 85.6614Z" fill="#001834"/>
<path d="M69.6301 105.177C71.3437 110.021 74.1926 104.375 75.3228 103.115C76.3385 106.031 80.3489 107.104 82.052 104.255" fill="#F2E7D6"/>
<path d="M68.3699 105.51C68.7813 106.63 69.3594 107.833 70.5522 108.255C71.4844 108.594 72.4376 108.255 73.1876 107.693C73.9324 107.13 74.5209 106.38 75.0834 105.62C75.3334 105.297 75.5574 104.948 75.7969 104.614C75.8959 104.474 75.9949 104.344 76.0886 104.203C76.3074 103.896 75.9584 104.344 76.2292 104.026L74.0522 103.453C74.7136 105.25 76.198 106.729 78.1407 107.104C80.1772 107.495 82.0626 106.651 83.1615 104.906C84.0469 103.484 81.7917 102.172 80.9167 103.594C80.7657 103.844 80.6355 104.016 80.3855 104.224C80.3386 104.266 80.2761 104.297 80.1251 104.385C80.0938 104.406 79.7553 104.547 79.9376 104.484C79.6667 104.578 79.4636 104.614 79.3647 104.625C79.0157 104.646 78.9011 104.625 78.7032 104.578C77.7292 104.328 76.9272 103.724 76.5678 102.771C76.2553 101.922 75.0938 101.401 74.3907 102.193C73.9897 102.661 73.6407 103.172 73.2813 103.672C73.0886 103.953 72.8803 104.234 72.6772 104.505C72.5886 104.614 72.7501 104.406 72.6094 104.578C72.5574 104.646 72.5001 104.708 72.448 104.776C72.3282 104.917 72.2084 105.047 72.0886 105.187C71.9792 105.297 71.8751 105.406 71.7657 105.51C71.7084 105.568 71.6563 105.609 71.6042 105.651C71.4845 105.75 71.7761 105.557 71.5678 105.667C71.448 105.729 71.1928 105.838 71.4636 105.75C71.4376 105.75 71.2969 105.781 71.2865 105.807C71.1772 105.828 71.1772 105.828 71.2865 105.807C71.3959 105.797 71.4063 105.797 71.3334 105.797C71.1667 105.781 71.5938 105.87 71.4272 105.818C71.2865 105.771 71.3438 105.838 71.3855 105.818C71.4063 105.797 71.3959 105.771 71.4844 105.88C71.4376 105.828 71.3751 105.781 71.3334 105.729C71.2761 105.667 71.2345 105.599 71.3074 105.698C71.2553 105.62 71.2136 105.536 71.1563 105.458C71.0365 105.25 70.9532 105.047 70.8647 104.818C70.6251 104.156 69.9844 103.713 69.2605 103.906C68.6199 104.083 68.1095 104.838 68.349 105.51H68.3699Z" fill="#001834"/>
<path d="M54.1459 74.1042C49.6043 70.9688 47.3803 77.9219 50.6772 80.2604C52.1199 81.4531 53.9636 80.8698 54.8074 79.776C55.6563 78.6771 56.0209 75.3958 54.1563 74.0938L54.1459 74.1042Z" fill="#001834"/>
<path d="M96.1818 72.5103C92.062 69.0624 88.9578 75.8176 91.9422 78.3853C93.2182 79.677 95.1297 79.2343 96.1141 78.203C97.1037 77.1718 97.8797 73.9322 96.1922 72.5103H96.1818Z" fill="#001834"/>
<path d="M96.8076 93.2395C96.8076 93.2395 96.6774 93.1301 96.6566 93.1301C96.7451 93.1301 96.8076 93.2603 96.6566 93.1301C96.5837 93.0676 96.5159 93.0103 96.443 92.9478C96.3649 92.8697 96.2868 92.7968 96.2139 92.7187C96.193 92.6978 96.1722 92.6666 96.1462 92.6457C96.1253 92.6197 96.1045 92.5885 96.0837 92.5676C96.016 92.4895 96.042 92.5155 96.1462 92.6562C96.1253 92.5468 95.943 92.3489 95.8857 92.2395C95.8753 92.2082 95.8545 92.177 95.8441 92.1457C95.792 92.0468 95.9326 92.4062 95.8857 92.2395C95.8649 92.1562 95.8337 92.078 95.8128 92.0051C95.8128 91.9687 95.8024 91.9374 95.792 91.9062C95.7555 91.776 95.8441 91.828 95.8024 92.0155C95.8128 91.9582 95.792 91.8853 95.792 91.828C95.792 91.7551 95.792 91.6874 95.792 91.6145C95.792 91.4635 95.7451 91.8645 95.7712 91.7447C95.7712 91.6978 95.7816 91.6562 95.792 91.6145C95.8024 91.5468 95.8232 91.4843 95.8441 91.4166C95.8857 91.2968 96.0055 91.1666 95.8337 91.4166C95.9222 91.2968 95.9639 91.1457 96.0524 91.0155C96.0837 90.9635 96.1357 90.9062 96.1566 90.8541C96.0732 91.052 96.0316 91.0155 96.1045 90.9322C96.1253 90.9062 96.1462 90.8749 96.1722 90.8541C96.2764 90.7343 96.3857 90.6249 96.5055 90.5207C96.5732 90.4635 96.6357 90.4114 96.7035 90.3541C96.766 90.302 96.818 90.3124 96.6045 90.4322C96.6357 90.4114 96.667 90.3749 96.7139 90.3541C96.8545 90.2603 97.0055 90.1614 97.1566 90.0728C97.2972 89.9895 97.4482 89.9218 97.5889 89.8437C97.6253 89.8332 97.6462 89.8228 97.6774 89.8124C97.8389 89.7395 97.4378 89.901 97.6097 89.8437C97.6982 89.8124 97.7764 89.7812 97.8597 89.7499C98.1878 89.6301 98.5212 89.5624 98.8597 89.4999C99.0316 89.4687 98.5993 89.5207 98.7712 89.5103C98.8024 89.5103 98.8285 89.5103 98.8597 89.5103C98.943 89.5103 99.0316 89.4999 99.1201 89.4895C99.2816 89.4895 99.443 89.4895 99.6045 89.4895C99.7243 89.4895 99.943 89.5832 99.6201 89.4895C99.6826 89.5103 99.7607 89.5103 99.8232 89.5207C99.9847 89.552 100.136 89.6093 100.292 89.6614C100.443 89.7135 100.052 89.552 100.203 89.6301C100.235 89.6405 100.266 89.6614 100.292 89.6718C100.354 89.703 100.422 89.7395 100.485 89.7812C100.537 89.8124 100.594 89.8593 100.646 89.8905C100.787 89.9739 100.453 89.7135 100.573 89.8332C100.615 89.8697 100.657 89.901 100.693 89.9426C100.745 89.9895 100.787 90.0416 100.834 90.0937C100.776 89.9999 101.006 90.2916 100.834 90.0937C100.927 90.2447 101.016 90.401 101.094 90.552C101.167 90.703 101.016 90.3124 101.058 90.4843C101.068 90.5312 101.094 90.5728 101.104 90.6249C101.125 90.703 101.146 90.7916 101.167 90.8645C101.188 90.953 101.198 91.0364 101.224 91.1249C101.256 91.3072 101.276 91.1457 101.224 91.0832C101.245 91.1145 101.245 91.2551 101.245 91.2864C101.245 91.3749 101.245 91.4635 101.245 91.5468C101.245 91.5676 101.245 91.6978 101.235 91.7082C101.276 91.6666 101.276 91.4739 101.235 91.677C101.188 91.8957 101.125 92.0989 101.058 92.3072C100.995 92.5155 101.157 92.1145 101.058 92.3072C101.026 92.3593 101.006 92.4166 100.974 92.4687C100.917 92.5572 100.865 92.6562 100.808 92.7291C100.683 92.9166 100.797 92.7291 100.808 92.7291C100.808 92.7291 100.724 92.8385 100.714 92.8489C100.683 92.8801 100.636 92.927 100.604 92.9582C100.573 92.9895 100.537 93.0103 100.516 93.0468C100.443 93.1093 100.453 93.0989 100.573 92.9999C100.573 92.9999 100.334 93.1405 100.313 93.1614C100.125 93.2707 100.516 93.1093 100.313 93.1614C100.245 93.1874 100.193 93.2082 100.125 93.2187C100.125 93.2187 99.9951 93.2499 99.9951 93.2395C99.9951 93.2499 100.224 93.2291 99.9847 93.2395C99.9118 93.2395 99.8441 93.2395 99.7712 93.2395C99.5524 93.2395 99.9326 93.2812 99.7243 93.2395C99.6514 93.2187 99.5628 93.2082 99.4899 93.1874C99.443 93.177 99.4014 93.1614 99.3597 93.1405C99.2607 93.1093 99.292 93.1197 99.4535 93.1874L99.2035 93.0312C99.2712 93.0103 99.391 93.2082 99.2607 93.0676C99.2295 93.0312 99.193 92.9895 99.1618 92.9582C99.0316 92.8385 99.2816 93.1614 99.193 92.9999C99.1618 92.9478 99.1201 92.8905 99.0889 92.8385C99.0732 92.8072 99.0524 92.7864 99.042 92.7499C98.9222 92.5364 99.0889 92.9166 99.042 92.7499C99.0212 92.6562 98.9795 92.5676 98.9587 92.4687C98.943 92.427 98.9326 92.3697 98.9222 92.3176C98.8805 92.1562 98.9326 92.5885 98.9222 92.328C98.9222 92.2291 98.9222 92.1353 98.9222 92.0364C98.9222 92.0051 98.943 91.927 98.9326 91.8957C98.9795 92.0364 98.891 92.1249 98.9326 91.9687C98.9587 91.8853 99.0316 91.7551 99.0212 91.6666C99.0212 91.6874 98.9014 91.8957 98.9795 91.7864C99.0107 91.7447 99.042 91.6874 99.0628 91.6353C99.141 91.4947 98.891 91.8072 99.0107 91.6978C99.042 91.677 99.0732 91.6457 99.0993 91.6145C99.2035 91.4947 98.8805 91.7343 99.0316 91.6666C99.0628 91.6562 99.2399 91.5572 99.0628 91.6457C98.891 91.7239 99.0316 91.6666 99.0628 91.6457C99.2712 91.5572 98.8805 91.6353 99.0212 91.6457C99.0628 91.6457 99.1201 91.6457 99.1618 91.6457C99.3232 91.6457 98.9326 91.5676 99.1097 91.6457C99.1618 91.6666 99.2139 91.677 99.2712 91.6874C99.5316 91.776 99.1618 91.6353 99.3337 91.7082C99.8024 91.927 100.407 91.8645 100.667 91.3645C100.896 90.9322 100.808 90.2603 100.323 90.0312C99.7347 89.7603 99.0524 89.5728 98.4274 89.8124C97.7972 90.052 97.3857 90.5207 97.1462 91.1457C96.7451 92.1874 97.0368 93.4791 97.766 94.3124C98.6722 95.3645 100.495 95.4635 101.589 94.6614C102.631 93.9114 103.282 92.5676 103.209 91.276C103.151 90.2707 102.792 89.2291 102.037 88.5364C101.339 87.8957 100.453 87.5885 99.5316 87.5364C97.8493 87.427 95.9639 88.1874 94.8232 89.4218C94.2295 90.0728 93.8076 90.8853 93.8076 91.7864C93.8076 92.7603 94.318 93.6614 95.0212 94.3124C95.2607 94.5312 95.5107 94.7239 95.7712 94.9114C96.1826 95.203 96.8753 94.9947 97.1045 94.5624C97.3753 94.0624 97.1982 93.5416 96.7555 93.2291L96.8076 93.2395Z" fill="#F3987F"/>
<path d="M48.1721 93.6822C48.1721 93.6822 48.0419 93.5781 48.0211 93.5781C48.1096 93.5781 48.1721 93.7083 48.0211 93.5781C47.9482 93.5104 47.8805 93.4583 47.8023 93.3906C47.7294 93.3177 47.6513 93.2395 47.5784 93.1614C47.5575 93.1406 47.5315 93.1093 47.5107 93.0885C47.4898 93.0677 47.469 93.0312 47.4482 93.0104C47.3805 92.9374 47.4013 92.9583 47.5107 93.0989C47.4898 92.9895 47.3075 92.7968 47.2502 92.6874C47.2398 92.6562 47.219 92.6197 47.2086 92.5885C47.1565 92.4895 47.2971 92.8489 47.2502 92.6874C47.2294 92.5989 47.1982 92.526 47.1773 92.4479C47.1773 92.4166 47.1669 92.3854 47.1565 92.3489C47.12 92.2187 47.2086 92.276 47.1669 92.4583C47.1773 92.4062 47.1565 92.3281 47.1565 92.276C47.1565 92.1979 47.1565 92.1354 47.1565 92.0572C47.1565 91.9062 47.1096 92.3072 47.1305 92.1874C47.1305 92.1458 47.1461 92.0989 47.1565 92.0572C47.1669 91.9947 47.1877 91.927 47.2086 91.8645C47.2502 91.7447 47.37 91.6145 47.1982 91.8645C47.2867 91.7447 47.3284 91.5937 47.4169 91.4635C47.4482 91.4062 47.5002 91.3541 47.5211 91.2968C47.4377 91.4947 47.3909 91.4635 47.469 91.3749C47.4898 91.3541 47.5107 91.3229 47.5315 91.2968C47.6409 91.177 47.7502 91.0729 47.87 90.9635C47.9325 90.9062 48.0002 90.8541 48.0627 90.802C48.1305 90.7447 48.1825 90.7552 47.969 90.8749C48.0002 90.8541 48.0315 90.8229 48.0784 90.802C48.219 90.7031 48.37 90.6041 48.5211 90.5208C48.6617 90.4322 48.8127 90.3645 48.9534 90.2916C48.9846 90.2812 49.0107 90.2708 49.0419 90.2604C49.2034 90.1822 48.8023 90.3437 48.9742 90.2916C49.0627 90.2604 49.1409 90.2239 49.2242 90.1927C49.5523 90.0729 49.8857 90.0104 50.2242 89.9427C50.3961 89.9114 49.9638 89.9635 50.1357 89.9531C50.1669 89.9531 50.1877 89.9531 50.2242 89.9531C50.3075 89.9531 50.3961 89.9427 50.4846 89.9322C50.6461 89.9322 50.8075 89.9322 50.969 89.9322C51.0888 89.9322 51.3075 90.0312 50.9794 89.9322C51.0471 89.9531 51.12 89.9531 51.1877 89.9635C51.3492 89.9999 51.5002 90.052 51.6513 90.1041C51.8075 90.1614 51.4169 89.9999 51.568 90.0729C51.5992 90.0833 51.6305 90.1041 51.6513 90.1145C51.719 90.151 51.7815 90.1822 51.8492 90.2239C51.9013 90.2604 51.9586 90.302 52.0107 90.3333C52.1513 90.4218 51.818 90.1614 51.9377 90.2812C51.9794 90.3124 52.0211 90.3437 52.0523 90.3906C52.1096 90.4322 52.1513 90.4843 52.1982 90.5416C52.1409 90.4427 52.37 90.7343 52.1982 90.5416C52.2919 90.6927 52.3805 90.8437 52.4534 90.9947C52.5315 91.1458 52.3805 90.7552 52.4221 90.9322C52.4325 90.9739 52.4534 91.0156 52.469 91.0729C52.4898 91.1458 52.5107 91.2343 52.5315 91.3072C52.5523 91.3958 52.5627 91.4843 52.5836 91.5677C52.62 91.7552 52.6409 91.5937 52.5836 91.526C52.6096 91.5572 52.6096 91.6979 52.6096 91.7343C52.6096 91.8177 52.6096 91.9062 52.6096 91.9947C52.6096 92.0156 52.6096 92.1458 52.5992 92.1562C52.6409 92.1145 52.6409 91.9166 52.5992 92.1249C52.5523 92.3385 52.4898 92.5468 52.4221 92.7499C52.3596 92.9583 52.5211 92.5572 52.4221 92.7499C52.3909 92.8072 52.37 92.8593 52.3388 92.9166C52.2815 92.9999 52.2294 93.0989 52.1721 93.177C52.0419 93.3593 52.1617 93.177 52.1721 93.177C52.1721 93.177 52.0888 93.2812 52.0784 93.2916C52.0419 93.3281 52.0002 93.3697 51.969 93.401C51.9377 93.4322 51.9013 93.4583 51.8805 93.4895C51.8075 93.552 51.818 93.5416 51.9377 93.4479C51.9377 93.4479 51.6982 93.5885 51.6773 93.6093C51.4898 93.7187 51.8805 93.552 51.6773 93.6093C51.6096 93.6302 51.5575 93.651 51.4898 93.6614C51.4898 93.6614 51.3596 93.6927 51.3596 93.6822C51.3596 93.6927 51.5888 93.6718 51.3492 93.6822C51.2763 93.6822 51.2086 93.6822 51.1357 93.6822C50.9169 93.6822 51.2971 93.7291 51.0888 93.6822C51.0159 93.6614 50.9273 93.651 50.8492 93.6302C50.8075 93.6197 50.7659 93.6093 50.719 93.5885C50.6252 93.552 50.6565 93.5624 50.818 93.6302L50.568 93.4791C50.6357 93.4583 50.7555 93.651 50.6252 93.5104C50.5888 93.4791 50.5575 93.4322 50.5263 93.401C50.3961 93.2812 50.6461 93.6093 50.5575 93.4479C50.5263 93.3906 50.4846 93.3385 50.4482 93.2812C50.4377 93.2499 50.4169 93.2291 50.4065 93.1979C50.2867 92.9791 50.4482 93.3593 50.4065 93.1979C50.3857 93.0989 50.344 93.0104 50.318 92.9166C50.3075 92.8697 50.2971 92.8177 50.2867 92.7604C50.245 92.5989 50.2971 93.0312 50.2867 92.7708C50.2867 92.677 50.2867 92.5781 50.2867 92.4791C50.2867 92.4479 50.3075 92.3697 50.2971 92.3385C50.344 92.4791 50.2555 92.5677 50.2971 92.4166C50.318 92.3281 50.3961 92.1979 50.3857 92.1145C50.3857 92.1354 50.2659 92.3385 50.344 92.2291C50.3752 92.1874 50.4065 92.1354 50.4273 92.0781C50.5055 91.9374 50.2555 92.2552 50.3752 92.1458C50.4065 92.1249 50.4377 92.0885 50.4586 92.0572C50.568 91.9374 50.245 92.177 50.3961 92.1145C50.4273 92.0989 50.6044 92.0052 50.4273 92.0885C50.2555 92.1666 50.3961 92.1145 50.4273 92.0885C50.6357 92.0052 50.245 92.0781 50.3857 92.0885C50.4273 92.0885 50.4846 92.0885 50.5263 92.0885C50.6877 92.0885 50.2971 92.0156 50.4742 92.0885C50.5263 92.1145 50.5784 92.1249 50.6357 92.1354C50.8961 92.2187 50.5263 92.0781 50.6982 92.1562C51.1669 92.3697 51.7711 92.3072 52.0315 91.8072C52.2607 91.3749 52.1721 90.7031 51.6877 90.4739C51.0992 90.2031 50.4169 90.0208 49.7867 90.2604C49.1617 90.4947 48.7502 90.9635 48.5107 91.5937C48.1096 92.6302 48.4013 93.9218 49.1252 94.7552C50.0367 95.8072 51.8596 95.9062 52.9534 95.1041C53.995 94.3541 54.6461 93.0104 54.568 91.7239C54.5159 90.7135 54.1565 89.6718 53.4013 88.9791C52.7034 88.3385 51.818 88.0364 50.8961 87.9791C49.2138 87.8749 47.3284 88.6302 46.1877 89.8697C45.594 90.5208 45.1721 91.3333 45.1721 92.2291C45.1721 93.2083 45.6773 94.1093 46.3857 94.7552C46.6252 94.9739 46.87 95.1718 47.1305 95.3541C47.5471 95.6458 48.2398 95.4427 48.4638 95.0052C48.7346 94.5104 48.5627 93.9895 48.12 93.6718L48.1721 93.6822Z" fill="#F3987F"/>
<path d="M91.1823 49.2864C90.8698 47.8436 92.5261 45.328 93.3177 44.1718C93.9271 43.2707 94.8386 42.6405 95.9427 42.4895C99.5938 41.9999 96.5365 49.8749 95.4427 51.5416" fill="#F3987F"/>
<path d="M92.4275 48.9427C92.5056 49.3177 92.4379 48.8437 92.4379 48.7239C92.4379 48.4323 92.365 48.875 92.4379 48.7135C92.4743 48.6354 92.4848 48.526 92.5056 48.4427C92.5472 48.2656 92.6045 48.1041 92.6566 47.9427C92.6879 47.8437 92.7243 47.75 92.766 47.6614C92.667 47.8906 92.8285 47.5208 92.8441 47.5104C93.1879 46.7708 93.6098 46.0677 94.0577 45.3854C94.141 45.2552 94.2191 45.1354 94.3077 45.0052C94.3389 44.9635 94.5785 44.625 94.4691 44.7552C94.6098 44.5833 94.7712 44.4323 94.9327 44.276C95.1306 44.1041 95.0316 44.2031 94.9795 44.2343C95.1098 44.1458 95.24 44.0625 95.3702 43.9948C95.4118 43.9739 95.6618 43.8646 95.4743 43.9323C95.5629 43.901 95.6514 43.8646 95.7347 43.8437C95.865 43.8021 95.9952 43.7812 96.1358 43.7448C96.1045 43.7448 95.9014 43.7448 96.0733 43.7448C96.1254 43.7448 96.3858 43.7708 96.4066 43.7448C96.4066 43.7448 96.0525 43.6927 96.2452 43.7239L96.4066 43.7708C96.4066 43.8021 96.0629 43.5937 96.2868 43.7239C96.3025 43.7239 96.3754 43.7812 96.3754 43.7812C96.3441 43.8021 96.1045 43.5625 96.2347 43.6718C96.417 43.8437 96.1254 43.6146 96.1722 43.5625C96.1722 43.5625 96.2868 43.7604 96.3025 43.7708C96.3858 43.8646 96.2139 43.4323 96.2452 43.6406C96.2452 43.6927 96.2868 43.7604 96.3025 43.8125C96.3129 43.8541 96.3337 44.0937 96.365 44.125C96.3441 44.1146 96.3441 43.7812 96.3441 43.9843C96.3441 44.0416 96.3441 44.1041 96.3545 44.1614C96.365 44.4323 96.3545 44.7031 96.3337 44.9635C96.3337 45.0364 96.2764 45.4166 96.3129 45.1979C96.3441 44.9843 96.2764 45.3854 96.266 45.4479C96.2139 45.7656 96.1358 46.0677 96.0629 46.3802C95.9118 46.9687 95.7347 47.5416 95.5316 48.1146C95.4222 48.4219 95.3025 48.7344 95.1827 49.0364C95.1514 49.1146 95.1202 49.1875 95.0837 49.276C95.1514 49.1146 95.1618 49.0937 95.0837 49.276C95.0316 49.3958 94.9795 49.5156 94.9222 49.6354C94.7295 50.0469 94.5316 50.4687 94.2816 50.8489C93.9066 51.4323 94.1618 52.2916 94.7504 52.625C95.3806 52.9948 96.1462 52.7448 96.5264 52.1614C97.167 51.1719 97.5993 50.0156 98.0004 48.9062C98.4795 47.5729 98.8702 46.1562 98.9431 44.7343C99.0108 43.4739 98.6827 42.0104 97.4483 41.4062C95.4327 40.4166 93.167 41.9896 92.0629 43.6146C90.9535 45.2448 89.49 47.4531 89.891 49.5885C90.0212 50.2864 90.8598 50.6771 91.4952 50.5C92.2243 50.3073 92.5368 49.5885 92.4066 48.8958L92.4275 48.9427Z" fill="#001834"/>
<path d="M49.7343 54.0573C47.8281 52.1927 48.6927 46.099 50.2448 44.1927C51.8281 45.1771 53.7448 47.75 54.6146 49.4271" fill="#F3987F"/>
<path d="M50.6563 53.1354C50.6042 53.0833 50.5469 53.0051 50.4844 52.9531C50.6979 53.1562 50.5365 53.0364 50.4844 52.9322C50.4375 52.8541 50.3958 52.776 50.3542 52.6926C50.3281 52.6614 50.224 52.4114 50.2969 52.5937C50.375 52.776 50.276 52.5156 50.2552 52.4739C50.224 52.3749 50.1875 52.2812 50.1667 52.1822C50.1146 51.9739 50.0573 51.7708 50.026 51.5624C50.026 51.5312 49.974 51.2291 50.0052 51.4114C50.0365 51.5989 49.9844 51.2291 49.9844 51.1822C49.9635 50.9687 49.9531 50.7499 49.9531 50.5364C49.9427 50.0676 49.9531 49.6041 49.9948 49.1354C49.9948 49.0364 50.0156 48.927 50.026 48.8333C50.026 48.8124 50.0833 48.4114 50.0365 48.6926C50.0729 48.4635 50.1042 48.2447 50.1458 48.0312C50.2344 47.5833 50.3438 47.1406 50.474 46.7083C50.526 46.5104 50.5885 46.3176 50.6667 46.1301C50.6771 46.0989 50.8073 45.776 50.7344 45.9479C50.6563 46.1197 50.776 45.8593 50.7865 45.8281C50.8594 45.6562 50.9479 45.4947 51.0469 45.3281C51.099 45.2343 51.4167 44.7968 51.1667 45.1145L49.5938 45.3176C50.0156 45.5885 50.2031 45.7656 50.6354 46.1874C51.0469 46.5885 51.4271 47.0208 51.7813 47.4635C52.3802 48.2031 53.0208 49.1666 53.4948 50.0781C53.8229 50.6979 54.6875 50.8906 55.276 50.5468C55.901 50.177 56.0677 49.3854 55.7396 48.7656C55.1563 47.651 54.4167 46.6093 53.625 45.6249C52.8333 44.6354 51.9583 43.7343 50.9063 43.0624C50.474 42.7812 49.6719 42.8385 49.3333 43.2708C48.0417 44.9166 47.5781 47.0989 47.3906 49.1458C47.2083 51.1926 47.3594 53.5051 48.8125 54.9791C49.9948 56.1718 51.8281 54.3385 50.6563 53.1354Z" fill="#001834"/>
</svg>
