<svg width="112" height="85" viewBox="0 0 112 85" fill="none" xmlns="http://www.w3.org/2000/svg">
<path d="M48.0024 1.34926C45.4456 2.23298 43.5182 3.69302 42.0628 5.76783C40.4501 8.03474 40.0174 9.57163 40.0174 12.7223C40.0174 15.5655 41.1188 18.6777 42.4955 19.8304C43.4002 20.522 43.3608 21.521 42.4955 21.252C30.695 17.794 27.9022 17.6787 22.3167 20.3299C18.8159 21.982 12.2863 28.2449 11.8929 30.3581C11.4602 32.5482 12.0109 34.4693 13.4663 35.8909C14.607 37.0051 15.0004 37.1588 16.9671 37.1588C18.8159 37.1588 19.3272 37.0051 20.5073 36.0062C21.2546 35.353 22.0807 34.2387 22.3167 33.5471C22.5527 32.8171 23.7327 31.3571 24.9128 30.2428L27.1155 28.2064L29.7116 28.3985C31.167 28.5138 33.0158 28.8596 33.8025 29.2054L35.2185 29.7818L32.8191 34.354C31.4817 36.8515 29.0429 41.3853 27.4302 44.4591L24.4801 50.0303L22.592 49.9919C21.0186 49.9919 19.6812 49.4924 15.5117 47.4176C9.0608 44.2285 8.43144 44.1517 5.67799 46.726C3.27856 48.9545 0.407115 53.4499 0.0531007 55.5247C-0.222244 57.2153 0.60379 59.1748 1.82317 59.828C3.00322 60.4043 5.914 60.289 6.97605 59.559C7.52673 59.2132 8.51011 58.4448 9.21814 57.7916L10.4375 56.6773L13.7417 58.0221C19.9959 60.6348 24.9128 61.288 28.0202 59.8664C30.0656 58.9827 32.8191 56.0242 34.7465 52.7967C35.7299 51.0677 36.4772 50.2224 36.9886 50.2224C37.3819 50.2224 39.9387 51.1061 42.6921 52.1819C49.4971 54.8331 49.5364 54.8715 52.5652 63.747C53.9026 67.6661 55.3187 71.1241 55.6727 71.4315C56.8134 72.3921 58.1901 72.5073 60.8649 71.8541C63.933 71.1241 67.3945 69.472 68.6532 68.204C69.7939 66.9745 70.2659 65.3224 69.8332 63.7855C69.3219 61.9028 67.9058 61.1728 64.641 61.1728H61.8876L60.6682 57.1384C58.2688 49.4155 57.2854 48.186 51.6605 45.6117C49.6151 44.6512 47.9237 43.6906 47.8844 43.4217C47.8844 42.6916 51.1492 36.3135 51.6605 36.1214C51.8965 36.0446 52.9979 36.3904 54.0599 36.8899C58.9375 39.3105 64.7197 39.7715 68.2992 37.9657C71.328 36.4288 75.3008 31.895 77.7396 27.2459C78.9196 24.9405 79.0376 23.4421 78.1722 21.5594C77.3462 19.6383 76.0482 18.7161 73.8847 18.4472C70.8953 18.063 68.9679 19.523 67.9452 22.8273C67.1978 25.1711 64.0903 28.8596 62.7136 29.0133C60.5895 29.2438 53.7846 26.1701 53.7846 24.979C53.7846 24.71 54.532 24.3258 55.3973 24.0953C58.7408 23.2115 61.4156 21.0215 63.1463 17.7556C64.0117 16.1418 64.2083 15.335 64.2083 12.7607C64.2083 10.1864 64.051 9.3411 63.107 7.49683C60.3929 2.07929 53.7059 -0.648694 48.0024 1.34926Z" fill="#FF5434"/>
<path d="M83.0496 35.814C82.4595 36.1983 81.4762 38.542 79.7061 43.6522C77.346 50.5298 77.228 50.9908 77.8574 51.6056C78.9587 52.7198 79.5488 51.7593 81.9089 44.8049C83.1282 41.2316 84.2296 38.3115 84.3476 38.3115C84.505 38.3115 89.0285 39.6947 94.4567 41.4237C99.8849 43.1143 105.431 44.8817 106.808 45.2659C108.145 45.6886 109.247 46.1112 109.247 46.2265C109.247 46.726 101.301 68.5114 100.986 68.7804C100.829 68.9725 99.4522 68.7419 97.9182 68.2424C94.9287 67.3203 93.788 67.4356 93.9847 68.7035C94.0633 69.3567 94.7714 69.7793 97.0528 70.6246C100.593 71.8926 102.363 72.0463 102.914 71.0089C103.779 69.4335 112 46.2649 112 45.4196C112 44.7664 111.646 44.3054 110.938 43.9596C110.309 43.6522 104.172 41.6158 97.2495 39.4642C90.3265 37.3125 84.4656 35.4682 84.2689 35.3914C84.0329 35.2761 83.4822 35.4682 83.0496 35.814Z" fill="#FF5434"/>
<path d="M75.5761 55.8707C75.2221 56.6776 74.9074 58.0224 74.8681 58.8676C74.8287 60.174 74.9467 60.4045 75.6154 60.4045C76.6381 60.4045 78.4476 55.7939 77.7395 54.987C76.9922 54.0649 76.2448 54.3722 75.5761 55.8707Z" fill="#FF5434"/>
<path d="M77.9358 63.094C77.8178 63.4014 77.7784 63.8624 77.8571 64.093C78.0144 64.5925 81.0039 65.5914 82.4199 65.5914C83.1673 65.5914 83.3246 65.3993 83.2066 64.5925C83.128 63.7472 82.774 63.4782 81.3186 63.0556C79.0371 62.364 78.2111 62.4024 77.9358 63.094Z" fill="#FF5434"/>
<path d="M86.1568 65.4377C85.7634 66.4367 86.5108 67.2051 88.5169 67.8199C90.2476 68.3578 90.4836 68.3578 91.0343 67.7815C91.8997 66.9362 91.231 66.2061 88.9102 65.4377C86.6288 64.6692 86.4715 64.6692 86.1568 65.4377Z" fill="#FF5434"/>
<path d="M42.378 65.5914C41.6306 65.7451 37.0284 66.5904 32.1509 67.4741C27.2733 68.3578 22.9858 69.1647 22.6318 69.2799C21.5698 69.5873 21.8058 70.7784 23.0252 71.3547C24.1265 71.8542 37.5791 77.5791 41.9846 79.4234C43.4007 79.9998 46.5868 81.383 49.0649 82.4972C54.2571 84.7641 54.5324 84.8025 61.6521 83.1504C63.9335 82.6125 70.4631 81.114 76.206 79.8076C81.9095 78.5397 86.7477 77.2718 86.9051 77.0028C87.0624 76.7339 86.9838 76.3496 86.7084 76.0807C86.4331 75.8501 82.8143 74.4285 78.6054 72.9301C72.6658 70.8552 70.7778 70.3173 70.2271 70.6247C69.7944 70.8552 69.5584 71.2395 69.6371 71.47C69.7157 71.739 72.1152 72.7764 74.9866 73.8522C77.8581 74.8896 80.2181 75.927 80.2181 76.1575C80.1788 76.6186 55.8698 82.1898 54.7685 81.9593C53.1164 81.6135 28.8861 71.1242 28.9254 70.7784C28.9647 70.3173 29.4368 70.2405 38.6411 68.6268C42.5353 67.9736 45.9574 67.1667 46.2721 66.8978C46.5475 66.6288 46.7048 66.1293 46.5868 65.8219C46.3114 65.1688 44.8167 65.0919 42.378 65.5914Z" fill="#FF5434"/>
</svg>
