<svg width="28" height="28" viewBox="0 0 28 28" fill="none" xmlns="http://www.w3.org/2000/svg">
<path d="M14 3.50354C13.5408 3.50354 13.0862 3.59398 12.6619 3.7697C12.2377 3.94541 11.8523 4.20296 11.5276 4.52764C11.2029 4.85232 10.9454 5.23777 10.7697 5.66199C10.5939 6.0862 10.5035 6.54087 10.5035 7.00004C10.5035 7.45921 10.5939 7.91388 10.7697 8.33809C10.9454 8.76231 11.2029 9.14776 11.5276 9.47244C11.8523 9.79712 12.2377 10.0547 12.6619 10.2304C13.0862 10.4061 13.5408 10.4965 14 10.4965C14.9273 10.4965 15.8167 10.1282 16.4724 9.47244C17.1281 8.81672 17.4965 7.92737 17.4965 7.00004C17.4965 6.07271 17.1281 5.18336 16.4724 4.52764C15.8167 3.87192 14.9273 3.50354 14 3.50354ZM21.875 5.25004C21.1788 5.25004 20.5111 5.5266 20.0188 6.01888C19.5266 6.51117 19.25 7.17885 19.25 7.87504C19.25 8.57123 19.5266 9.23891 20.0188 9.7312C20.5111 10.2235 21.1788 10.5 21.875 10.5C22.5712 10.5 23.2389 10.2235 23.7312 9.7312C24.2234 9.23891 24.5 8.57123 24.5 7.87504C24.5 7.17885 24.2234 6.51117 23.7312 6.01888C23.2389 5.5266 22.5712 5.25004 21.875 5.25004ZM6.125 5.25004C5.42881 5.25004 4.76113 5.5266 4.26884 6.01888C3.77656 6.51117 3.5 7.17885 3.5 7.87504C3.5 8.57123 3.77656 9.23891 4.26884 9.7312C4.76113 10.2235 5.42881 10.5 6.125 10.5C6.82119 10.5 7.48887 10.2235 7.98116 9.7312C8.47344 9.23891 8.75 8.57123 8.75 7.87504C8.75 7.17885 8.47344 6.51117 7.98116 6.01888C7.48887 5.5266 6.82119 5.25004 6.125 5.25004ZM8.75 13.9878C8.75323 13.5258 8.93904 13.0838 9.26687 12.7583C9.59471 12.4327 10.038 12.25 10.5 12.25H17.5C17.9641 12.25 18.4092 12.4344 18.7374 12.7626C19.0656 13.0908 19.25 13.5359 19.25 14V19.25C19.2505 19.8008 19.1642 20.3483 18.9945 20.8723C18.607 22.06 17.8088 23.0707 16.7432 23.7229C15.6775 24.375 14.4143 24.6259 13.1803 24.4305C11.9464 24.2351 10.8225 23.6062 10.0105 22.6567C9.19849 21.7072 8.75158 20.4994 8.75 19.25V13.9878ZM7 14C7 13.3613 7.16975 12.7645 7.469 12.25H3.5C3.03587 12.25 2.59075 12.4344 2.26256 12.7626C1.93437 13.0908 1.75 13.5359 1.75 14V18.375C1.74976 19.0913 1.9254 19.7967 2.26148 20.4293C2.59756 21.0618 3.08381 21.6022 3.67752 22.0029C4.27124 22.4036 4.95426 22.6524 5.6666 22.7274C6.37894 22.8025 7.09881 22.7015 7.763 22.4333C7.26039 21.4469 6.9989 20.3554 7 19.2483V14ZM21 14V19.25C21 20.3963 20.7253 21.4778 20.237 22.4333C20.9012 22.7015 21.6211 22.8025 22.3334 22.7274C23.0457 22.6524 23.7288 22.4036 24.3225 22.0029C24.9162 21.6022 25.4024 21.0618 25.7385 20.4293C26.0746 19.7967 26.2502 19.0913 26.25 18.375V14C26.25 13.5359 26.0656 13.0908 25.7374 12.7626C25.4092 12.4344 24.9641 12.25 24.5 12.25H20.531C20.8285 12.7645 21 13.3613 21 14Z" fill="currentColor"/>
</svg>
