<svg width="28" height="28" viewBox="0 0 28 28" fill="none" xmlns="http://www.w3.org/2000/svg">
<path d="M14 2.33337C12.7623 2.33337 11.5753 2.82504 10.7001 3.70021C9.82496 4.57538 9.33329 5.76236 9.33329 7.00004C9.33329 8.23772 9.82496 9.4247 10.7001 10.2999C11.5753 11.175 12.7623 11.6667 14 11.6667C15.2376 11.6667 16.4246 11.175 17.2998 10.2999C18.175 9.4247 18.6666 8.23772 18.6666 7.00004C18.6666 5.76236 18.175 4.57538 17.2998 3.70021C16.4246 2.82504 15.2376 2.33337 14 2.33337ZM19.8333 14H8.16663C7.23837 14 6.34813 14.3688 5.69175 15.0252C5.03538 15.6815 4.66663 16.5718 4.66663 17.5C4.66663 20.104 5.73763 22.19 7.49463 23.6017C9.22363 24.99 11.543 25.6667 14 25.6667C16.457 25.6667 18.7763 24.99 20.5053 23.6017C22.26 22.19 23.3333 20.104 23.3333 17.5C23.3333 16.5718 22.9645 15.6815 22.3082 15.0252C21.6518 14.3688 20.7615 14 19.8333 14Z" fill="currentColor"/>
</svg>
