<svg viewBox="0 0 28 28" fill="none" xmlns="http://www.w3.org/2000/svg">
<g clip-path="url(#clip0_371_9386)">
<path d="M5.88 8.96C2.64852 8.96 0 11.6004 0 14.8232C0 16.072 0.39872 17.2326 1.0738 18.1866L5.16264 25.2549C5.73524 26.003 6.11604 25.8611 6.59232 25.2157L11.102 17.5409C11.193 17.3757 11.2644 17.2004 11.3268 17.0212C11.6128 16.3237 11.7599 15.5771 11.76 14.8232C11.76 11.6004 9.11232 8.96 5.88 8.96ZM5.88 11.7074C7.62048 11.7074 9.0048 13.088 9.0048 14.8235C9.0048 16.5589 7.6202 17.939 5.88 17.939C4.1398 17.939 2.7552 16.5586 2.7552 14.8235C2.7552 13.0883 4.14008 11.7074 5.88 11.7074ZM24.57 0C22.685 0 21.14 1.54028 21.14 3.42048C21.14 4.14876 21.3724 4.8258 21.7664 5.38216L24.1517 9.50544C24.4857 9.94168 24.7078 9.8588 24.9855 9.48248L27.6161 5.00528C27.6693 4.90924 27.711 4.80704 27.7472 4.70232C27.9145 4.2957 28.0004 3.86019 28 3.42048C28 1.54 26.4555 0 24.57 0ZM24.57 1.60272C25.5853 1.60272 26.3928 2.408 26.3928 3.42048C26.3928 4.43296 25.5853 5.23768 24.57 5.23768C23.5547 5.23768 22.7472 4.43268 22.7472 3.42048C22.7472 2.40828 23.555 1.60272 24.57 1.60272Z" fill="currentColor"/>
<path fill-rule="evenodd" clip-rule="evenodd" d="M24.6985 10.4753C24.0693 10.4893 23.4385 10.5159 22.8065 10.5627L22.904 12.1117C23.511 12.0677 24.1191 12.0394 24.7276 12.0268L24.6985 10.4753ZM21.3455 10.7049C20.3739 10.8256 19.3939 10.9975 18.4251 11.2739L18.7899 12.775C19.6703 12.5241 20.5825 12.362 21.509 12.2469L21.3455 10.7049ZM16.9744 11.7936C16.6841 11.9217 16.4031 12.0698 16.1333 12.2368L16.1322 12.2382L16.1305 12.2388C15.7455 12.4813 15.3398 12.789 15.0085 13.2361C14.7686 13.5601 14.5723 13.9697 14.5264 14.4541L15.953 14.6123C15.9636 14.4987 16.0219 14.3486 16.1266 14.2075H16.1271V14.2069C16.296 13.9784 16.5491 13.7709 16.8501 13.5811L16.8512 13.5805C17.0659 13.4484 17.2893 13.3309 17.5199 13.2289L16.9744 11.7936ZM16.24 15.3034L15.3151 16.4892C15.5344 16.6897 15.7643 16.8437 15.9863 16.9725L15.9891 16.9739L15.9919 16.9755C16.7289 17.3947 17.4888 17.6313 18.1933 17.8559L18.5981 16.3668C17.8939 16.1423 17.2301 15.9255 16.6611 15.6024C16.4981 15.5078 16.3553 15.4089 16.24 15.3034ZM19.9738 16.7857L19.5784 18.2773L19.7655 18.3355L19.9951 18.4089C20.755 18.6561 21.483 18.9201 22.1337 19.2855L22.7939 17.9079C22.0071 17.4658 21.1904 17.1769 20.4033 16.9209L20.4011 16.9204L20.1653 16.8451L19.9738 16.7857ZM24.1365 18.9417L23.1221 20.0393C23.3618 20.2989 23.5413 20.6111 23.6286 20.9336L23.6292 20.9353L23.6297 20.9378C23.7339 21.3144 23.7342 21.7574 23.6527 22.2048L25.0594 22.505C25.1742 21.8733 25.1927 21.1797 25.004 20.4951C24.8396 19.8898 24.526 19.3639 24.1365 18.9417ZM23.1616 23.14C23.0064 23.3035 22.8351 23.451 22.6503 23.5802H22.6497C22.1457 23.9347 21.5611 24.2018 20.9401 24.4314L21.4032 25.8997C22.0825 25.6485 22.7799 25.3405 23.4318 24.8819L23.4335 24.8805L23.4343 24.8799C23.7019 24.6924 23.9496 24.4778 24.1732 24.2396L23.1616 23.14ZM19.6224 24.8449C18.7227 25.0869 17.8032 25.2711 16.8725 25.4273L17.092 26.9615C18.0499 26.8005 19.0117 26.6081 19.9676 26.3511L19.6224 24.8449ZM15.4722 25.639C14.5353 25.767 13.5934 25.8714 12.6487 25.9605L12.7725 27.5066C13.7317 27.4165 14.6927 27.3103 15.6523 27.179L15.4722 25.639ZM11.2288 26.0823C10.2821 26.1573 9.33322 26.2183 8.38346 26.2699L8.45515 27.8199C9.41415 27.7681 10.374 27.7063 11.3335 27.6301L11.2288 26.0823ZM6.9563 26.3399C6.38706 26.3665 5.81642 26.3883 5.24438 26.4085L5.29143 27.9599C5.86704 27.9402 6.44254 27.9172 7.0179 27.8911L6.9563 26.3399Z" fill="currentColor"/>
</g>
</svg>
