<svg width="32" height="32" viewBox="0 0 32 32" fill="none" xmlns="http://www.w3.org/2000/svg">
<path d="M11.992 2.84006C11.9431 2.57769 11.7942 2.3446 11.5766 2.19008C11.359 2.03556 11.0898 1.97172 10.826 2.01206C10.5903 2.04816 10.376 2.1695 10.2237 2.35307C10.0715 2.53665 9.99187 2.7697 10 3.00806C7.574 3.60406 6.032 4.80806 5.12 6.28806C4.208 7.76806 3.996 9.41406 3.996 10.7441V11.3761L2.568 13.3541C2.33377 13.6783 2.16674 14.0462 2.07676 14.4359C1.98678 14.8257 1.97566 15.2295 2.04405 15.6237C2.11244 16.0178 2.25896 16.3943 2.475 16.7309C2.69103 17.0676 2.97221 17.3577 3.302 17.5841L15.162 25.7261C17.3283 27.2131 19.8944 28.0087 22.522 28.0081H25.52C26.1661 28.0077 26.8045 27.8675 27.3913 27.5971C27.9781 27.3266 28.4994 26.9323 28.9194 26.4413C29.3394 25.9503 29.648 25.3741 29.8242 24.7525C30.0004 24.1308 30.0399 23.4784 29.94 22.8401C29.592 20.6621 27.694 19.1561 25.96 18.3901C25.318 18.1081 24.776 17.7201 24.42 17.1961L20.226 9.97606C20.4756 9.92435 20.695 9.77685 20.8371 9.56521C20.9792 9.35357 21.0327 9.09467 20.986 8.84406C20.9371 8.58209 20.7885 8.34933 20.5713 8.19486C20.3542 8.04039 20.0855 7.97628 19.822 8.01606C16.082 8.60806 12.602 6.20806 11.992 2.84006ZM6.824 7.33606C7.18 6.76006 7.694 6.20606 8.46 5.74806L10.8 9.80206C10.9044 9.98305 10.9699 10.1839 10.9922 10.3916C11.0145 10.5994 10.9931 10.8095 10.9295 11.0085C10.8658 11.2076 10.7613 11.3911 10.6226 11.5474C10.4839 11.7037 10.3141 11.8292 10.124 11.9161L7.438 13.1441L6 12.1521V10.7441C6 9.60006 6.188 8.37606 6.826 7.33606M14.596 18.0701L9.8 14.7701L14.728 12.1741C15.0709 11.9933 15.4705 11.9523 15.843 12.0597C16.2155 12.1671 16.5319 12.4145 16.726 12.7501L17.804 14.6161C17.9051 14.7909 17.9698 14.9844 17.9943 15.1849C18.0188 15.3854 18.0025 15.5888 17.9465 15.7828C17.8904 15.9769 17.7958 16.1576 17.6682 16.3142C17.5406 16.4708 17.3827 16.6 17.204 16.6941L14.596 18.0701ZM4.76 13.7301L17.372 22.4101C18.8727 23.4437 20.6518 23.9974 22.474 23.9981H27.95C27.8409 24.5633 27.5386 25.0729 27.0949 25.4397C26.6511 25.8064 26.0937 26.0073 25.518 26.0081H22.518C20.2953 26.0085 18.1247 25.3356 16.292 24.0781L4.432 15.9341C4.32213 15.8585 4.22846 15.7618 4.15651 15.6496C4.08456 15.5373 4.03579 15.4118 4.01305 15.2804C3.99032 15.1491 3.99408 15.0145 4.02413 14.8846C4.05417 14.7547 4.10989 14.6321 4.188 14.5241L4.76 13.7301Z" fill="currentColor"/>
</svg>
